<?xml version="1.0" encoding="UTF-8"?>
<svg width="83px" height="65px" viewBox="0 0 83 65" version="1.1" xmlns="http://www.w3.org/2000/svg" xmlns:xlink="http://www.w3.org/1999/xlink">
    <!-- Generator: Sketch 54.1 (76490) - https://sketchapp.com -->
    <title>agile</title>
    <desc>Created with Sketch.</desc>
    <g id="agile" stroke="none" stroke-width="1" fill="none" fill-rule="evenodd">
        <path d="M10,23 C7.790861,23 6,21.209139 6,19 C6,16.790861 7.790861,15 10,15 C12.209139,15 14,16.790861 14,19 C14,21.209139 12.209139,23 10,23 Z M10,22 C11.6568542,22 13,20.6568542 13,19 C13,17.3431458 11.6568542,16 10,16 C8.34314575,16 7,17.3431458 7,19 C7,20.6568542 8.34314575,22 10,22 Z" id="Combined-Shape" fill="#B20AB0"></path>
        <path d="M40.8284271,4.53553391 L38,1.70710678 L38.7071068,1 L41.5355339,3.82842712 L44.363961,1 L45.0710678,1.70710678 L42.2426407,4.53553391 L45.0710678,7.36396103 L44.363961,8.07106781 L41.5355339,5.24264069 L38.7071068,8.07106781 L38,7.36396103 L40.8284271,4.53553391 Z" id="Combined-Shape" fill="#14E73D"></path>
        <circle id="Oval" fill="#9AF4F3" cx="73.5" cy="16.5" r="2.5"></circle>
        <polygon id="Triangle" fill="#9E50FF" transform="translate(78.191328, 44.848516) rotate(-16.000000) translate(-78.191328, -44.848516) " points="78.191328 41.8485158 81.691328 47.8485158 74.691328 47.8485158"></polygon>
        <path d="M6,50 L9,50 L9,51 L6,51 L6,54 L5,54 L5,51 L2,51 L2,50 L5,50 L5,47 L6,47 L6,50 Z" id="Combined-Shape" fill="#EFE83A"></path>
        <path d="M18.3827915,39.1364208 L18.7728014,38.4789275 C19.4691177,37.3050513 20.5544129,36.4119801 21.8403788,35.9546691 L65.8944152,20.28832 C67.9046872,19.8213124 69.2102425,20.4234054 69.8110813,22.0945989 C70.4119201,23.7657924 70.0527005,24.9735196 68.7334227,25.7177806 L64.6206888,27.4545105 C63.9754414,27.7269863 63.5560576,28.3593274 63.5560576,29.0597467 L63.5560576,29.0597467 C63.5560576,29.7086317 64.0097137,30.2691869 64.6443395,30.4044707 C65.693441,30.6281306 66.5014469,30.9383503 67.0683527,31.3351509 C68.1924907,32.1219811 69.0308907,33.3714222 67.0683527,35.3456611 C65.9668214,36.4537598 64.2226367,37.2607581 61.8357985,37.7666558 L61.835803,37.7666769 C61.0123539,37.9412095 60.4233445,38.6681463 60.4233445,39.5098886 L60.4233445,39.5098886 C60.4233445,40.3492211 61.0725246,41.0455897 61.9097949,41.1043884 L64.2430677,41.2682463 C65.5639687,42.1358318 65.8466078,43.590859 65.0909852,45.6333281 L63.4075448,47.0175296 L16.4062241,64 C14.762033,64.3268343 13.7316653,63.7354403 13.3151212,62.2258181 C13.3151212,62.2258181 13.3151212,62.2258181 13.3151212,62.2258181 L13.3151212,62.2258181 C12.8739216,60.626841 13.6338733,58.940336 15.123954,58.2116081 L19.532076,56.0557854 C19.9564405,55.7038698 20.0625316,55.0313199 19.8503494,54.0381358 C19.5171731,53.2754306 18.1954606,52.894078 15.8852119,52.894078 C14.4383001,51.635002 14.5850423,50.1101081 16.3254385,48.3193961 L22.6552719,45.7282789 C23.7475118,44.6319962 23.8598002,43.8065069 22.992137,43.251811 C22.2985998,42.8084335 21.1547504,42.650447 19.560589,42.7778515 L19.5605912,42.7778793 C18.8178156,42.8372415 18.145168,42.3393615 17.9849752,41.6116407 L17.9849752,41.6116407 C17.7988193,40.7659752 17.9410253,39.8811669 18.3827915,39.1364208 Z" id="Path-2" fill="#F1FFFF"></path>
        <path d="M51.2903226,48.8064516 L51.2903226,46.8627097 L57.9710968,50.8709677 L51.2903226,54.8792258 L51.2903226,52.9354839 L38.9032258,52.9354839 L30.1290323,52.9354839 L30.1290323,51.9032258 L38.9032258,51.9032258 C45.4487742,51.9032258 50.7741935,46.5778065 50.7741935,40.0322581 C50.7741935,37.1811613 49.748129,34.4436129 47.892129,32.2903226 L45.6129032,32.2903226 L45.6129032,30.2469677 C43.6325161,28.8859355 41.3207742,28.1612903 38.9032258,28.1612903 C32.3576774,28.1612903 27.0322581,33.4867097 27.0322581,40.0322581 C27.0322581,43.3726452 28.4459355,46.5581935 30.9130323,48.8064516 L34.5259355,48.8064516 C31.3099355,47.1950968 29.0967742,43.8670968 29.0967742,40.0322581 C29.0967742,34.6247742 33.4957419,30.2258065 38.9032258,30.2258065 C44.3107097,30.2258065 48.7096774,34.6247742 48.7096774,40.0322581 C48.7096774,45.4397419 44.3107097,49.8387097 38.9032258,49.8387097 L29.0967742,49.8387097 L29.0967742,48.8064516 L29.4456774,48.8064516 C27.2433548,46.4312258 26,43.2993548 26,40.0322581 C26,32.9174194 31.7883871,27.1290323 38.9032258,27.1290323 C41.2954839,27.1290323 43.5953548,27.7767742 45.6129032,29.0092903 L45.6129032,27.6451613 C45.6129032,25.084129 47.6970323,23 50.2580645,23 L53.3548387,23 C55.915871,23 58,25.084129 58,27.6451613 C58,30.2061935 55.915871,32.2903226 53.3548387,32.2903226 L49.2227097,32.2903226 C50.8939355,34.515871 51.8064516,37.2245161 51.8064516,40.0322581 C51.8064516,43.4185806 50.4934194,46.5024516 48.3525161,48.8064516 L51.2903226,48.8064516 Z M30.1290323,40.0322581 C30.1290323,44.8704516 34.0650323,48.8064516 38.9032258,48.8064516 C43.7414194,48.8064516 47.6774194,44.8704516 47.6774194,40.0322581 C47.6774194,35.1940645 43.7414194,31.2580645 38.9032258,31.2580645 C34.0650323,31.2580645 30.1290323,35.1940645 30.1290323,40.0322581 Z M46.6451613,27.6451613 L46.6451613,31.2580645 L53.3548387,31.2580645 C55.3470968,31.2580645 56.9677419,29.6374194 56.9677419,27.6451613 C56.9677419,25.6529032 55.3470968,24.0322581 53.3548387,24.0322581 L50.2580645,24.0322581 C48.2658065,24.0322581 46.6451613,25.6529032 46.6451613,27.6451613 Z M52.3225806,48.6856774 L52.3225806,49.8387097 L47.2753548,49.8387097 C46.2864516,50.684129 45.1705806,51.3850323 43.9576774,51.9032258 L52.3225806,51.9032258 L52.3225806,53.0562581 L55.9643871,50.8709677 L52.3225806,48.6856774 Z M27.0322581,48.8064516 L28.0645161,48.8064516 L28.0645161,49.8387097 L27.0322581,49.8387097 L27.0322581,48.8064516 Z M26,51.9032258 L27.0322581,51.9032258 L27.0322581,52.9354839 L26,52.9354839 L26,51.9032258 Z M28.0645161,51.9032258 L29.0967742,51.9032258 L29.0967742,52.9354839 L28.0645161,52.9354839 L28.0645161,51.9032258 Z M46.6451613,40.0322581 C46.6451613,44.3011613 43.172129,47.7741935 38.9032258,47.7741935 C34.6343226,47.7741935 31.1612903,44.3011613 31.1612903,40.0322581 C31.1612903,35.7633548 34.6343226,32.2903226 38.9032258,32.2903226 C43.172129,32.2903226 46.6451613,35.7633548 46.6451613,40.0322581 Z M35.2536774,42.952 L35.984,43.6812903 L34.5434839,45.1218065 C35.5943226,46.0234839 36.9249032,46.6036129 38.3870968,46.7156129 L38.3870968,44.6774194 L39.4193548,44.6774194 L39.4193548,46.7156129 C40.8810323,46.6036129 42.212129,46.0234839 43.2629677,45.1218065 L41.8224516,43.6812903 L42.5522581,42.9514839 L43.9927742,44.392 C44.8944516,43.3411613 45.4745806,42.0105806 45.5865806,40.5483871 L43.5483871,40.5483871 L43.5483871,39.516129 L45.5865806,39.516129 C45.4745806,38.0544516 44.8944516,36.7233548 43.9927742,35.6725161 L42.5522581,37.1130323 L41.8224516,36.3832258 L43.2629677,34.9427097 C42.212129,34.0410323 40.8815484,33.4609032 39.4193548,33.3489032 L39.4193548,35.3870968 L38.3870968,35.3870968 L38.3870968,33.3494194 C36.9254194,33.4614194 35.5943226,34.0415484 34.5434839,34.9432258 L35.984,36.3837419 L35.2541935,37.1135484 L33.8136774,35.6730323 C32.912,36.723871 32.331871,38.0544516 32.219871,39.5166452 L34.2580645,39.5166452 L34.2580645,40.5489032 L32.2193548,40.5489032 C32.3313548,42.0105806 32.9114839,43.3416774 33.8131613,44.3925161 L35.2536774,42.952 Z M38.9032258,41.5806452 C38.0495484,41.5806452 37.3548387,40.8859355 37.3548387,40.0322581 C37.3548387,39.3602581 37.787871,38.7925161 38.3870968,38.5788387 L38.3870968,36.4193548 L39.4193548,36.4193548 L39.4193548,38.5788387 C40.0185806,38.7925161 40.4516129,39.3602581 40.4516129,40.0322581 C40.4516129,40.2707097 40.3932903,40.4936774 40.2962581,40.6954839 L41.3326452,41.731871 L40.6028387,42.4616774 L39.5664516,41.4252903 C39.3646452,41.5223226 39.1416774,41.5806452 38.9032258,41.5806452 Z M38.9032258,39.516129 C38.6188387,39.516129 38.3870968,39.747871 38.3870968,40.0322581 C38.3870968,40.3166452 38.6188387,40.5483871 38.9032258,40.5483871 C39.1876129,40.5483871 39.4193548,40.3166452 39.4193548,40.0322581 C39.4193548,39.747871 39.1876129,39.516129 38.9032258,39.516129 Z M49.2258065,25.0645161 L54.3870968,25.0645161 L54.3870968,26.0967742 L49.2258065,26.0967742 L49.2258065,25.0645161 Z M49.2258065,27.1290323 L54.3870968,27.1290323 L54.3870968,28.1612903 L49.2258065,28.1612903 L49.2258065,27.1290323 Z M53.3548387,29.1935484 L54.3870968,29.1935484 L54.3870968,30.2258065 L53.3548387,30.2258065 L53.3548387,29.1935484 Z M51.2903226,29.1935484 L52.3225806,29.1935484 L52.3225806,30.2258065 L51.2903226,30.2258065 L51.2903226,29.1935484 Z M49.2258065,29.1935484 L50.2580645,29.1935484 L50.2580645,30.2258065 L49.2258065,30.2258065 L49.2258065,29.1935484 Z" id="Combined-Shape" fill="#FB4273" fill-rule="nonzero"></path>
    </g>
</svg>