<?xml version="1.0" encoding="UTF-8"?>
<svg width="83px" height="65px" viewBox="0 0 83 65" version="1.1" xmlns="http://www.w3.org/2000/svg" xmlns:xlink="http://www.w3.org/1999/xlink">
    <!-- Generator: Sketch 54.1 (76490) - https://sketchapp.com -->
    <title>communication</title>
    <desc>Created with Sketch.</desc>
    <g id="communication" stroke="none" stroke-width="1" fill="none" fill-rule="evenodd">
        <path d="M10,23 C7.790861,23 6,21.209139 6,19 C6,16.790861 7.790861,15 10,15 C12.209139,15 14,16.790861 14,19 C14,21.209139 12.209139,23 10,23 Z M10,22 C11.6568542,22 13,20.6568542 13,19 C13,17.3431458 11.6568542,16 10,16 C8.34314575,16 7,17.3431458 7,19 C7,20.6568542 8.34314575,22 10,22 Z" id="Combined-Shape" fill="#B20AB0"></path>
        <path d="M40.8284271,4.53553391 L38,1.70710678 L38.7071068,1 L41.5355339,3.82842712 L44.363961,1 L45.0710678,1.70710678 L42.2426407,4.53553391 L45.0710678,7.36396103 L44.363961,8.07106781 L41.5355339,5.24264069 L38.7071068,8.07106781 L38,7.36396103 L40.8284271,4.53553391 Z" id="Combined-Shape" fill="#14E73D"></path>
        <circle id="Oval" fill="#9AF4F3" cx="73.5" cy="16.5" r="2.5"></circle>
        <polygon id="Triangle" fill="#9E50FF" transform="translate(78.191328, 44.848516) rotate(-16.000000) translate(-78.191328, -44.848516) " points="78.191328 41.8485158 81.691328 47.8485158 74.691328 47.8485158"></polygon>
        <path d="M6,50 L9,50 L9,51 L6,51 L6,54 L5,54 L5,51 L2,51 L2,50 L5,50 L5,47 L6,47 L6,50 Z" id="Combined-Shape" fill="#EFE83A"></path>
        <path d="M18.3827915,39.1364208 L18.7728014,38.4789275 C19.4691177,37.3050513 20.5544129,36.4119801 21.8403788,35.9546691 L65.8944152,20.28832 C67.9046872,19.8213124 69.2102425,20.4234054 69.8110813,22.0945989 C70.4119201,23.7657924 70.0527005,24.9735196 68.7334227,25.7177806 L64.6206888,27.4545105 C63.9754414,27.7269863 63.5560576,28.3593274 63.5560576,29.0597467 L63.5560576,29.0597467 C63.5560576,29.7086317 64.0097137,30.2691869 64.6443395,30.4044707 C65.693441,30.6281306 66.5014469,30.9383503 67.0683527,31.3351509 C68.1924907,32.1219811 69.0308907,33.3714222 67.0683527,35.3456611 C65.9668214,36.4537598 64.2226367,37.2607581 61.8357985,37.7666558 L61.835803,37.7666769 C61.0123539,37.9412095 60.4233445,38.6681463 60.4233445,39.5098886 L60.4233445,39.5098886 C60.4233445,40.3492211 61.0725246,41.0455897 61.9097949,41.1043884 L64.2430677,41.2682463 C65.5639687,42.1358318 65.8466078,43.590859 65.0909852,45.6333281 L63.4075448,47.0175296 L16.4062241,64 C14.762033,64.3268343 13.7316653,63.7354403 13.3151212,62.2258181 C13.3151212,62.2258181 13.3151212,62.2258181 13.3151212,62.2258181 L13.3151212,62.2258181 C12.8739216,60.626841 13.6338733,58.940336 15.123954,58.2116081 L19.532076,56.0557854 C19.9564405,55.7038698 20.0625316,55.0313199 19.8503494,54.0381358 C19.5171731,53.2754306 18.1954606,52.894078 15.8852119,52.894078 C14.4383001,51.635002 14.5850423,50.1101081 16.3254385,48.3193961 L22.6552719,45.7282789 C23.7475118,44.6319962 23.8598002,43.8065069 22.992137,43.251811 C22.2985998,42.8084335 21.1547504,42.650447 19.560589,42.7778515 L19.5605912,42.7778793 C18.8178156,42.8372415 18.145168,42.3393615 17.9849752,41.6116407 L17.9849752,41.6116407 C17.7988193,40.7659752 17.9410253,39.8811669 18.3827915,39.1364208 Z" id="Path-2" fill="#F1FFFF"></path>
        <path d="M37.608142,45.98544 C40.626821,46.251184 43,48.7242802 43,51.7263809 L43,54.3791027 C43,54.7220243 42.7140125,55 42.3612072,55 L26.6387928,55 C26.2859875,55 26,54.7220243 26,54.3791027 L26,51.7263809 C26,48.7242181 28.3733067,46.2511219 31.3920497,45.98544 C31.4381705,45.9726495 31.4854412,45.9654471 31.5329673,45.9629635 C30.8331699,45.2481244 30.4023042,44.2824427 30.4023042,43.2202116 L30.4023042,40.1804224 C30.4023042,38.42676 31.8701222,37 33.6743923,37 L37.958967,37 C38.3117722,37 38.5977597,37.2779757 38.5977597,37.6208973 L38.5977597,39.6876162 C38.5977597,39.7475949 38.5948851,39.8069527 38.5906691,39.8659379 C38.5948213,39.8946234 38.5977597,39.9237435 38.5977597,39.9536086 L38.5977597,43.2202116 C38.5977597,44.2824427 38.1668301,45.2481244 37.4670965,45.9629635 C37.5146866,45.9654471 37.5619573,45.9726495 37.608142,45.98544 Z M31.6798897,40.9677823 L31.6798897,41.0075818 L35.9621008,41.0075818 C36.7109576,41.0075818 37.3201742,40.4154321 37.3201742,39.6875541 L37.3201742,38.2417326 L33.6743923,38.2417326 C32.5746467,38.2417326 31.6798897,39.1114235 31.6798897,40.1803603 L31.6798897,40.9677823 Z M31.6798897,42.2493765 L31.6798897,43.2201495 C31.6798897,44.7315999 32.9450187,45.9612871 34.5000319,45.9612871 C36.0550451,45.9612871 37.3201742,44.7315999 37.3201742,43.2201495 L37.3201742,41.8821778 C36.9232923,42.1151385 36.4585705,42.2493765 35.9621008,42.2493765 L31.6798897,42.2493765 Z M35.8903644,47.2031438 L33.1096995,47.2031438 L34.5000319,48.5545889 L35.8903644,47.2031438 Z M41.7224784,53.7582053 L41.7224784,51.7263809 C41.7224784,49.4265151 39.94689,47.5234027 37.6584788,47.2407081 L34.9517223,49.8716364 C34.8319487,49.9880546 34.6694398,50.0534972 34.5000319,50.0534972 C34.3306241,50.0534972 34.1681152,49.9880546 34.0483416,49.8716364 L31.341585,47.2407081 C29.2048871,47.5047136 27.5154719,49.1811985 27.3009014,51.274616 L29.9285755,51.274616 C30.2813807,51.274616 30.5673682,51.5525917 30.5673682,51.8955133 C30.5673682,52.2384349 30.2813807,52.5164107 29.9285755,52.5164107 L27.2775855,52.5164107 L27.2775855,53.7582053 L41.7224784,53.7582053 Z M52.60829,31.985502 C55.6268299,32.2513082 58,34.7244044 58,37.726443 L58,40.3791027 C58,40.7220243 57.7140136,41 57.3612096,41 L52.0166424,41 C51.6638385,41 51.377852,40.7220243 51.377852,40.3791027 C51.377852,40.0361811 51.6638385,39.7582053 52.0166424,39.7582053 L56.7224193,39.7582053 L56.7224193,37.726443 C56.7224193,35.4265772 54.9469015,33.5235268 52.6583712,33.2407702 L49.9516248,35.8716985 C49.8269329,35.9929597 49.6634026,36.0535593 49.4999361,36.0535593 C49.3364697,36.0535593 49.1730032,35.9929597 49.0482475,35.8716985 L46.3415011,33.2407702 C44.0530985,33.5234647 42.2775807,35.4265772 42.2775807,37.726443 L42.2775807,39.7581432 L46.7784976,39.7581432 C47.1313015,39.7581432 47.4172879,40.036119 47.4172879,40.3790406 C47.4172879,40.7219622 47.1313015,40.9999379 46.7784976,40.9999379 L41.6387904,40.9999379 C41.2859864,40.9999379 41,40.7219622 41,40.3790406 L41,37.7263809 C41,34.7243423 43.3731062,32.2512461 46.39171,31.98544 C46.4378945,31.9726495 46.4852928,31.9654471 46.5328827,31.9629635 C45.8331517,31.2481244 45.4022876,30.2824427 45.4022876,29.2202116 L45.4022876,26.1804224 C45.4022876,24.42676 46.8701001,23 48.6743635,23 L52.958922,23 C53.3117259,23 53.5977124,23.2779757 53.5977124,23.6208973 L53.5977124,25.6876162 C53.5977124,25.7475949 53.5948378,25.8069527 53.5906218,25.8659379 C53.5947739,25.8946234 53.5977124,25.9237435 53.5977124,25.9536086 L53.5977124,29.2202737 C53.5977124,30.2825048 53.1668483,31.2481865 52.4671173,31.9630256 C52.5147711,31.9655092 52.5621055,31.9727116 52.60829,31.985502 Z M49.5000639,34.5545889 L50.8903911,33.2032059 L48.1097367,33.2032059 L49.5000639,34.5545889 Z M52.3201955,29.2202116 L52.3201955,27.8822399 C51.9233151,28.1151385 51.4585951,28.2494386 50.9621272,28.2494386 L46.6799322,28.2494386 L46.6799322,29.2202737 C46.6799322,30.7317241 47.9450565,31.9613491 49.5000639,31.9613491 C51.0550712,31.9613491 52.3201955,30.731662 52.3201955,29.2202116 Z M52.3201955,25.6876162 L52.3201955,24.2417947 L48.6744273,24.2417947 C47.5746859,24.2417947 46.6799322,25.1114856 46.6799322,26.1804224 L46.6799322,26.9678444 L46.6799322,27.0076439 L50.9621272,27.0076439 C51.7109812,27.0076439 52.3201955,26.4154941 52.3201955,25.6876162 Z M50.707,40.293 C50.893,40.479 51,40.737 51,41 C51,41.264 50.893,41.521 50.707,41.707 C50.521,41.894 50.263,42 50,42 C49.736,42 49.479,41.894 49.293,41.707 C49.106,41.521 49,41.264 49,41 C49,40.737 49.106,40.479 49.293,40.293 C49.479,40.107 49.736,40 50,40 C50.263,40 50.521,40.107 50.707,40.293 Z M42.8158372,31.1873351 C42.9956262,31.3546755 43.049456,31.6063883 42.9521096,31.824984 C42.8547632,32.0435798 42.6254206,32.1861702 42.3711125,32.1861702 L39.9510356,32.1861702 C39.4753713,33.2740585 38.3416756,34 37.0415854,34 L29.1442638,34 C27.4105167,34 26,32.6876064 26,31.0744681 L26,25.9255319 C26,24.3123936 27.4105167,23 29.1442638,23 L37.0416483,23 C38.7753953,23 40.1859121,24.3123936 40.1859121,25.9255319 L40.1859121,28.7403617 L42.8158372,31.1873351 Z M39.4922875,31.0159574 L40.8529362,31.0159574 L39.1123346,29.3964415 C38.9944247,29.286734 38.9281437,29.137883 38.9281437,28.9827128 L38.9281437,25.9255319 C38.9281437,24.9576489 38.0818336,24.1702128 37.0415854,24.1702128 L29.1442638,24.1702128 C28.1040156,24.1702128 27.2577055,24.9576489 27.2577055,25.9255319 L27.2577055,31.0744681 C27.2577055,32.0423511 28.1040156,32.8297872 29.1442638,32.8297872 L37.0415854,32.8297872 C37.9257524,32.8297872 38.6814447,32.2705426 38.8794076,31.469883 C38.9451227,31.2041862 39.199305,31.0159574 39.4922875,31.0159574 Z M54.8557362,44 C56.5894833,44 58,45.3123936 58,46.9255319 L58,52.0744681 C58,53.6876064 56.5894833,55 54.8557362,55 L46.9583517,55 C45.2246047,55 43.8140879,53.6876064 43.8140879,52.0744681 L43.8140879,49.2596383 L41.1841628,46.8126649 C41.0043738,46.6453245 40.950544,46.3936117 41.0478904,46.175016 C41.1452368,45.9564202 41.3745794,45.8138298 41.6288875,45.8138298 L44.0489644,45.8138298 C44.5246287,44.7259415 45.6583244,44 46.9584146,44 L54.8557362,44 Z M56.7422945,52.0744681 L56.7422945,46.9255319 C56.7422945,45.9576489 55.8959844,45.1702128 54.8557362,45.1702128 L46.9584146,45.1702128 C46.0742476,45.1702128 45.3185553,45.7294574 45.1205924,46.530117 C45.0548773,46.7958138 44.800695,46.9840426 44.5077125,46.9840426 L43.1470638,46.9840426 L44.8876654,48.6035585 C45.0055753,48.713266 45.0718563,48.862117 45.0718563,49.0172872 L45.0718563,52.0744681 C45.0718563,53.0423511 45.9181664,53.8297872 46.9584146,53.8297872 L54.8557362,53.8297872 C55.8959844,53.8297872 56.7422945,53.0423511 56.7422945,52.0744681 Z M32.707,51.293 C32.893,51.479 33,51.737 33,52 C33,52.263 32.893,52.521 32.707,52.707 C32.521,52.893 32.263,53 32,53 C31.737,53 31.479,52.893 31.293,52.707 C31.107,52.521 31,52.263 31,52 C31,51.737 31.107,51.479 31.293,51.293 C31.479,51.107 31.737,51 32,51 C32.263,51 32.521,51.107 32.707,51.293 Z" id="Combined-Shape" fill="#FB4273" fill-rule="nonzero"></path>
    </g>
</svg>