<?xml version="1.0" encoding="UTF-8"?>
<svg width="83px" height="65px" viewBox="0 0 83 65" version="1.1" xmlns="http://www.w3.org/2000/svg" xmlns:xlink="http://www.w3.org/1999/xlink">
    <!-- Generator: Sketch 54.1 (76490) - https://sketchapp.com -->
    <title>english</title>
    <desc>Created with Sketch.</desc>
    <g id="english" stroke="none" stroke-width="1" fill="none" fill-rule="evenodd">
        <path d="M10,23 C7.790861,23 6,21.209139 6,19 C6,16.790861 7.790861,15 10,15 C12.209139,15 14,16.790861 14,19 C14,21.209139 12.209139,23 10,23 Z M10,22 C11.6568542,22 13,20.6568542 13,19 C13,17.3431458 11.6568542,16 10,16 C8.34314575,16 7,17.3431458 7,19 C7,20.6568542 8.34314575,22 10,22 Z" id="Combined-Shape" fill="#B20AB0"></path>
        <path d="M40.8284271,4.53553391 L38,1.70710678 L38.7071068,1 L41.5355339,3.82842712 L44.363961,1 L45.0710678,1.70710678 L42.2426407,4.53553391 L45.0710678,7.36396103 L44.363961,8.07106781 L41.5355339,5.24264069 L38.7071068,8.07106781 L38,7.36396103 L40.8284271,4.53553391 Z" id="Combined-Shape" fill="#14E73D"></path>
        <circle id="Oval" fill="#9AF4F3" cx="73.5" cy="16.5" r="2.5"></circle>
        <polygon id="Triangle" fill="#9E50FF" transform="translate(78.191328, 44.848516) rotate(-16.000000) translate(-78.191328, -44.848516) " points="78.191328 41.8485158 81.691328 47.8485158 74.691328 47.8485158"></polygon>
        <path d="M6,50 L9,50 L9,51 L6,51 L6,54 L5,54 L5,51 L2,51 L2,50 L5,50 L5,47 L6,47 L6,50 Z" id="Combined-Shape" fill="#EFE83A"></path>
        <path d="M18.3827915,39.1364208 L18.7728014,38.4789275 C19.4691177,37.3050513 20.5544129,36.4119801 21.8403788,35.9546691 L65.8944152,20.28832 C67.9046872,19.8213124 69.2102425,20.4234054 69.8110813,22.0945989 C70.4119201,23.7657924 70.0527005,24.9735196 68.7334227,25.7177806 L64.6206888,27.4545105 C63.9754414,27.7269863 63.5560576,28.3593274 63.5560576,29.0597467 L63.5560576,29.0597467 C63.5560576,29.7086317 64.0097137,30.2691869 64.6443395,30.4044707 C65.693441,30.6281306 66.5014469,30.9383503 67.0683527,31.3351509 C68.1924907,32.1219811 69.0308907,33.3714222 67.0683527,35.3456611 C65.9668214,36.4537598 64.2226367,37.2607581 61.8357985,37.7666558 L61.835803,37.7666769 C61.0123539,37.9412095 60.4233445,38.6681463 60.4233445,39.5098886 L60.4233445,39.5098886 C60.4233445,40.3492211 61.0725246,41.0455897 61.9097949,41.1043884 L64.2430677,41.2682463 C65.5639687,42.1358318 65.8466078,43.590859 65.0909852,45.6333281 L63.4075448,47.0175296 L16.4062241,64 C14.762033,64.3268343 13.7316653,63.7354403 13.3151212,62.2258181 C13.3151212,62.2258181 13.3151212,62.2258181 13.3151212,62.2258181 L13.3151212,62.2258181 C12.8739216,60.626841 13.6338733,58.940336 15.123954,58.2116081 L19.532076,56.0557854 C19.9564405,55.7038698 20.0625316,55.0313199 19.8503494,54.0381358 C19.5171731,53.2754306 18.1954606,52.894078 15.8852119,52.894078 C14.4383001,51.635002 14.5850423,50.1101081 16.3254385,48.3193961 L22.6552719,45.7282789 C23.7475118,44.6319962 23.8598002,43.8065069 22.992137,43.251811 C22.2985998,42.8084335 21.1547504,42.650447 19.560589,42.7778515 L19.5605912,42.7778793 C18.8178156,42.8372415 18.145168,42.3393615 17.9849752,41.6116407 L17.9849752,41.6116407 C17.7988193,40.7659752 17.9410253,39.8811669 18.3827915,39.1364208 Z" id="Path-2" fill="#F1FFFF"></path>
        <path d="M54.8,23.5333333 L54.8,25.6666667 L58,25.6666667 L58,28.8666667 L54.8,28.8666667 L54.8,29.9333333 L56.9333333,29.9333333 L56.9333333,33.1333333 L54.8,33.1333333 L54.8,34.2 L58,34.2 L58,37.4 L54.8,37.4 L54.8,38.4666667 L56.9333333,38.4666667 L56.9333333,41.6666667 L54.8,41.6666667 L54.8,54.4666667 C54.8,54.7612185 54.5612185,55 54.2666667,55 L28.6666667,55 C27.1946383,54.9982367 26.0017633,53.8053617 26,52.3333333 L26,26.7333333 C26.0023513,24.672445 27.672445,23.0023513 29.7333333,23 L54.2666667,23 C54.5612185,23 54.8,23.2387815 54.8,23.5333333 Z M27.0666667,45.1264 C27.3941793,44.9500787 27.7614226,44.860655 28.1333333,44.8666667 L28.1333333,45.9333333 C27.8451042,45.9146164 27.5627818,46.0209723 27.3585437,46.2252104 C27.1543057,46.4294484 27.0479498,46.7117709 27.0666667,47 L27.0666667,50.2138667 C27.5255407,49.8609031 28.0877497,49.6686276 28.6666667,49.6666667 L29.2,49.6666667 L29.2,24.12 C27.9592444,24.3751641 27.0682658,25.4666129 27.0666667,26.7333333 L27.0666667,28.5930667 C27.3941793,28.4167454 27.7614226,28.3273216 28.1333333,28.3333333 L28.1333333,29.4 C27.8451042,29.3812831 27.5627818,29.487639 27.3585437,29.691877 C27.1543057,29.8961151 27.0479498,30.1784375 27.0666667,30.4666667 L27.0666667,42.4597333 C27.3941793,42.2834121 27.7614226,42.1939883 28.1333333,42.2 L28.1333333,43.2666667 C27.8451042,43.2479498 27.5627818,43.3543057 27.3585437,43.5585437 C27.1543057,43.7627818 27.0479498,44.0451042 27.0666667,44.3333333 L27.0666667,45.1264 Z M35.6,53.9333333 L53.7333333,53.9333333 L53.7333333,52.8666667 L36.1333333,52.8666667 L36.1333333,53.4 C36.1343478,53.585337 36.0390701,53.7579118 35.8816888,53.8557993 C35.7243074,53.9536868 35.5273914,53.9628497 35.3616,53.88 L33.4666667,52.9296 L31.5717333,53.88 C31.405942,53.9628497 31.2090259,53.9536868 31.0516446,53.8557993 C30.8942632,53.7579118 30.7989855,53.585337 30.8,53.4 L30.8,52.8666667 L28.1333333,52.8666667 L28.1333333,51.8 L30.8,51.8 L30.8,50.7333333 L28.6666667,50.7333333 C27.7830111,50.7333333 27.0666667,51.4496777 27.0666667,52.3333333 C27.0666667,53.2169889 27.7830111,53.9333333 28.6666667,53.9333333 L35.6,53.9333333 Z M53.7333333,50.7333333 L36.1333333,50.7333333 L36.1333333,51.8 L53.7333333,51.8 L53.7333333,50.7333333 Z M31.8666667,50.7333333 L31.8666667,52.5370667 L33.2282667,51.856 C33.3783524,51.7810019 33.5549809,51.7810019 33.7050667,51.856 L35.0666667,52.5370667 L35.0666667,50.7333333 L31.8666667,50.7333333 Z M55.8666667,39.5333333 L54.8,39.5333333 L54.8,40.6 L55.8666667,40.6 L55.8666667,39.5333333 Z M56.9333333,35.2666667 L54.8,35.2666667 L54.8,36.3333333 L56.9333333,36.3333333 L56.9333333,35.2666667 Z M55.8666667,31 L54.8,31 L54.8,32.0666667 L55.8666667,32.0666667 L55.8666667,31 Z M53.7333333,49.6666667 L53.7333333,24.0666667 L30.2666667,24.0666667 L30.2666667,49.6666667 L53.7333333,49.6666667 Z M56.9333333,26.7333333 L54.8,26.7333333 L54.8,27.8 L56.9333333,27.8 L56.9333333,26.7333333 Z M38.8,28.3333333 C39.0405718,28.3332842 39.2513963,28.4942973 39.3146667,28.7264 L40.9146667,34.5930667 L39.8853333,34.8736 L39.2656,32.6 L36.2010667,32.6 L35.5813333,34.8736 L34.552,34.5930667 L36.152,28.7264 C36.2152704,28.4942973 36.4260949,28.3332842 36.6666667,28.3333333 L38.8,28.3333333 Z M36.4922667,31.5333333 L38.9744,31.5333333 L38.3925333,29.4 L37.0741333,29.4 L36.4922667,31.5333333 Z M41.4666667,31 L44.1333333,31 L44.1333333,32.0666667 L41.4666667,32.0666667 L41.4666667,31 Z M49.3701333,29.1722667 L46.224,33.6666667 L49.4666667,33.6666667 L49.4666667,34.7333334 L45.2,34.7333333 C45.0011445,34.7334218 44.8187543,34.6228718 44.7268318,34.4465375 C44.6349093,34.2702033 44.6487224,34.0573731 44.7626667,33.8944 L47.9093333,29.4 L44.6666667,29.4 L44.6666667,28.3333333 L48.9333333,28.3333333 C49.132093,28.3334437 49.3143013,28.4440704 49.4060914,28.6203656 C49.4978815,28.7966608 49.4840227,29.0093721 49.3701333,29.1722667 Z M32.4,36.8666667 L32.4,26.2 L51.6,26.2 L51.6,36.8666667 L32.4,36.8666667 Z M33.4666667,27.2666667 L33.4666667,35.8 L50.5333333,35.8 L50.5333333,27.2666667 L33.4666667,27.2666667 Z M35.0666667,41.1333333 L35.0666667,37.9333333 L48.9333333,37.9333333 L48.9333333,41.1333333 L35.0666667,41.1333333 Z M36.1333333,39 L36.1333333,40.0666667 L47.8666667,40.0666667 L47.8666667,39 L36.1333333,39 Z M34,42.7333333 L36.1333333,42.7333333 L36.1333333,43.8 L34,43.8 L34,42.7333333 Z M37.2,42.7333333 L46.8,42.7333333 L46.8,43.8 L37.2,43.8 L37.2,42.7333333 Z M47.8666667,42.7333333 L50,42.7333333 L50,43.8 L47.8666667,43.8 L47.8666667,42.7333333 Z M32.9333333,44.8666667 L51.0666667,44.8666667 L51.0666667,45.9333333 L32.9333333,45.9333333 L32.9333333,44.8666667 Z M32.9333333,47 L51.0666667,47 L51.0666667,48.0666667 L32.9333333,48.0666667 L32.9333333,47 Z" id="Combined-Shape" fill="#FB4273" fill-rule="nonzero"></path>
    </g>
</svg>