<?xml version="1.0" encoding="UTF-8"?>
<svg width="83px" height="65px" viewBox="0 0 83 65" version="1.1" xmlns="http://www.w3.org/2000/svg" xmlns:xlink="http://www.w3.org/1999/xlink">
    <!-- Generator: Sketch 54.1 (76490) - https://sketchapp.com -->
    <title>finances</title>
    <desc>Created with Sketch.</desc>
    <g id="finances" stroke="none" stroke-width="1" fill="none" fill-rule="evenodd">
        <path d="M10,23 C7.790861,23 6,21.209139 6,19 C6,16.790861 7.790861,15 10,15 C12.209139,15 14,16.790861 14,19 C14,21.209139 12.209139,23 10,23 Z M10,22 C11.6568542,22 13,20.6568542 13,19 C13,17.3431458 11.6568542,16 10,16 C8.34314575,16 7,17.3431458 7,19 C7,20.6568542 8.34314575,22 10,22 Z" id="Combined-Shape" fill="#B20AB0"></path>
        <path d="M40.8284271,4.53553391 L38,1.70710678 L38.7071068,1 L41.5355339,3.82842712 L44.363961,1 L45.0710678,1.70710678 L42.2426407,4.53553391 L45.0710678,7.36396103 L44.363961,8.07106781 L41.5355339,5.24264069 L38.7071068,8.07106781 L38,7.36396103 L40.8284271,4.53553391 Z" id="Combined-Shape" fill="#14E73D"></path>
        <circle id="Oval" fill="#9AF4F3" cx="73.5" cy="16.5" r="2.5"></circle>
        <polygon id="Triangle" fill="#9E50FF" transform="translate(78.191328, 44.848516) rotate(-16.000000) translate(-78.191328, -44.848516) " points="78.191328 41.8485158 81.691328 47.8485158 74.691328 47.8485158"></polygon>
        <path d="M6,50 L9,50 L9,51 L6,51 L6,54 L5,54 L5,51 L2,51 L2,50 L5,50 L5,47 L6,47 L6,50 Z" id="Combined-Shape" fill="#EFE83A"></path>
        <path d="M18.3827915,39.1364208 L18.7728014,38.4789275 C19.4691177,37.3050513 20.5544129,36.4119801 21.8403788,35.9546691 L65.8944152,20.28832 C67.9046872,19.8213124 69.2102425,20.4234054 69.8110813,22.0945989 C70.4119201,23.7657924 70.0527005,24.9735196 68.7334227,25.7177806 L64.6206888,27.4545105 C63.9754414,27.7269863 63.5560576,28.3593274 63.5560576,29.0597467 L63.5560576,29.0597467 C63.5560576,29.7086317 64.0097137,30.2691869 64.6443395,30.4044707 C65.693441,30.6281306 66.5014469,30.9383503 67.0683527,31.3351509 C68.1924907,32.1219811 69.0308907,33.3714222 67.0683527,35.3456611 C65.9668214,36.4537598 64.2226367,37.2607581 61.8357985,37.7666558 L61.835803,37.7666769 C61.0123539,37.9412095 60.4233445,38.6681463 60.4233445,39.5098886 L60.4233445,39.5098886 C60.4233445,40.3492211 61.0725246,41.0455897 61.9097949,41.1043884 L64.2430677,41.2682463 C65.5639687,42.1358318 65.8466078,43.590859 65.0909852,45.6333281 L63.4075448,47.0175296 L16.4062241,64 C14.762033,64.3268343 13.7316653,63.7354403 13.3151212,62.2258181 C13.3151212,62.2258181 13.3151212,62.2258181 13.3151212,62.2258181 L13.3151212,62.2258181 C12.8739216,60.626841 13.6338733,58.940336 15.123954,58.2116081 L19.532076,56.0557854 C19.9564405,55.7038698 20.0625316,55.0313199 19.8503494,54.0381358 C19.5171731,53.2754306 18.1954606,52.894078 15.8852119,52.894078 C14.4383001,51.635002 14.5850423,50.1101081 16.3254385,48.3193961 L22.6552719,45.7282789 C23.7475118,44.6319962 23.8598002,43.8065069 22.992137,43.251811 C22.2985998,42.8084335 21.1547504,42.650447 19.560589,42.7778515 L19.5605912,42.7778793 C18.8178156,42.8372415 18.145168,42.3393615 17.9849752,41.6116407 L17.9849752,41.6116407 C17.7988193,40.7659752 17.9410253,39.8811669 18.3827915,39.1364208 Z" id="Path-2" fill="#F1FFFF"></path>
        <path d="M47.6888889,43.7232567 C49.1919774,43.7232567 50.4148148,44.8409222 50.4148148,46.2147432 C50.4148148,47.384163 49.5286293,48.367433 48.3379189,48.6343096 L48.3379189,48.9099927 C48.3379189,49.2623821 48.0472832,49.5481481 47.6888889,49.5481481 C47.3304945,49.5481481 47.0398589,49.2623821 47.0398589,48.9099927 L47.0398589,48.6343096 C45.8491485,48.367433 44.962963,47.384163 44.962963,46.2147432 C44.962963,45.8623538 45.2535986,45.5765878 45.6119929,45.5765878 C45.9703873,45.5765878 46.2610229,45.8623538 46.2610229,46.2147432 C46.2610229,46.8848064 46.9015506,47.4299188 47.6888889,47.4299188 C48.4762272,47.4299188 49.1167549,46.8848064 49.1167549,46.2147432 C49.1167549,45.54468 48.4762272,44.9995676 47.6888889,44.9995676 C46.1858004,44.9995676 44.962963,43.8819022 44.962963,42.508145 C44.962963,41.3387251 45.8491485,40.3554552 47.0398589,40.0885786 L47.0398589,39.756674 C47.0398589,39.4042845 47.3304945,39.1185185 47.6888889,39.1185185 C48.0472832,39.1185185 48.3379189,39.4042845 48.3379189,39.756674 L48.3379189,40.0885786 C49.5286293,40.3554552 50.4148148,41.3387251 50.4148148,42.508145 C50.4148148,42.8605344 50.1241792,43.1463004 49.7657848,43.1463004 C49.4073905,43.1463004 49.1167549,42.8605344 49.1167549,42.508145 C49.1167549,41.8380817 48.4762272,41.2929694 47.6888889,41.2929694 C46.9015506,41.2929694 46.2610229,41.8380817 46.2610229,42.508145 C46.2610229,43.1781444 46.9015506,43.7232567 47.6888889,43.7232567 Z M54.5966116,39.7755289 C55.4274893,41.092208 55.8666667,42.618702 55.8666667,44.1899541 C55.8666667,45.5277846 55.5420654,46.8553541 54.9279599,48.0290089 C54.8166645,48.2417197 54.6024301,48.362963 54.3809535,48.362963 C54.2829046,48.362963 54.1833701,48.3391676 54.0907684,48.2890587 C53.7889461,48.1257643 53.6744938,47.7445343 53.8350613,47.4376491 C54.3542129,46.4452926 54.6286755,45.3223132 54.6286755,44.1899541 C54.6286755,41.5436282 53.1124459,39.0923868 50.7657718,37.9451713 C50.4576358,37.7945301 50.3279562,37.418462 50.4760818,37.1050929 C50.6241456,36.7917238 50.9939954,36.6597789 51.3021933,36.8104831 C52.6488182,37.4688226 53.7880176,38.4941653 54.5966116,39.7755289 Z M48.6577198,36.0370963 C48.9750164,36.038637 49.2310601,36.3051718 49.2296236,36.6324443 C49.2281296,36.9587687 48.9711665,37.2222222 48.6550766,37.2222222 C48.6540998,37.2222222 48.6532379,37.2222222 48.6523185,37.2222222 L48.6190489,37.222163 C48.3017523,37.222163 48.0444444,36.9568725 48.0444444,36.6296 C48.0444444,36.3023275 48.3017523,36.037037 48.6190489,36.037037 L48.6577198,36.0370963 Z M44.6120057,50.4844692 C44.9201454,50.6351108 45.0497647,51.0112428 44.901761,51.3246126 C44.7951687,51.549977 44.573937,51.6814815 44.3434203,51.6814815 C44.2534791,51.6814815 44.1621143,51.661526 44.0756396,51.619223 C42.7289984,50.960819 41.5897852,49.935474 40.7811816,48.6541075 C39.9502938,47.3373625 39.5111111,45.810928 39.5111111,44.2396724 C39.5111111,42.9018388 39.8357163,41.5743293 40.4498292,40.4006089 C40.6103367,40.0936601 40.9853288,39.9772638 41.2870309,40.1405585 C41.5888567,40.3038533 41.7033104,40.6850842 41.542741,40.9919701 C41.0235832,41.9843288 40.7491172,43.1073107 40.7491172,44.2396724 C40.7491172,46.8859413 42.2653652,49.3371882 44.6120057,50.4844692 Z M46.7586734,51.2075269 C47.0760006,51.2075269 47.3333333,51.4728631 47.3333333,51.8000598 C47.3333333,52.1272564 47.0760006,52.3925926 46.7586734,52.3925926 L46.7201712,52.3924741 C46.4028439,52.3909335 46.1466605,52.1244122 46.1481547,51.7971563 C46.1495913,51.4698412 46.4065792,51.2068159 46.7254006,51.2074084 L46.7586734,51.2075269 Z M50.5717265,33.8880733 C55.123289,35.1475175 58.4740741,39.3151614 58.4740741,44.2490331 C58.4740741,50.1771163 53.6370956,55 47.6916877,55 C44.5876924,55 41.7864284,53.684967 39.817311,51.5849237 L32.3425802,51.5849237 C30.7338482,51.5849237 29.4249933,50.2798828 29.4249933,48.6758386 C29.4249933,47.7546072 29.8571767,46.9325377 30.5295537,46.3991632 C29.8571767,45.8657888 29.4249933,45.0437193 29.4249933,44.1224879 C29.4249933,43.2012565 29.8571767,42.379187 30.5295537,41.8458126 C29.8571767,41.3124381 29.4249933,40.4903686 29.4249933,39.5691372 C29.4249933,38.6479058 29.8571767,37.8258363 30.5295537,37.2924619 C29.8571767,36.7590874 29.4249933,35.9370179 29.4249933,35.0157865 C29.4249933,33.4117423 30.7338482,32.1067014 32.3425802,32.1067014 L33.9967251,32.1067014 C33.6737609,31.6385916 33.4842446,31.0722686 33.4842446,30.4624358 C33.4842446,29.8526031 33.6738244,29.2862801 33.9967251,28.8181703 L28.9175869,28.8181703 C27.3088549,28.8181703 26,27.5131294 26,25.9090852 C26,24.3050409 27.3088549,23 28.9175869,23 L44.4569084,23 C46.0656404,23 47.3744953,24.3050409 47.3744953,25.9090852 C47.3744953,26.5189179 47.1849156,27.0852409 46.8620148,27.5533507 L51.941153,27.5533507 C53.5498851,27.5533507 54.8587399,28.8583916 54.8587399,30.4624358 C54.8587399,32.0664801 53.5498851,33.371521 51.941153,33.371521 L50.2899257,33.371521 C50.3999695,33.5318369 50.4945373,33.7046745 50.5717265,33.8880733 Z M51.941153,28.8181703 L36.4018315,28.8181703 C35.4924958,28.8181703 34.7527607,29.5558131 34.7527607,30.4624358 C34.7527607,31.3690586 35.4924958,32.1067014 36.4018315,32.1067014 L47.8819017,32.1067014 L51.941153,32.1067014 C52.8504888,32.1067014 53.5902239,31.3690586 53.5902239,30.4624358 C53.5902239,29.5558131 52.8504888,28.8181703 51.941153,28.8181703 Z M28.9175869,27.5533507 L44.4569084,27.5533507 C45.3662441,27.5533507 46.1059792,26.8157079 46.1059792,25.9090852 C46.1059792,25.0024624 45.3662441,24.2648196 44.4569084,24.2648196 L28.9175869,24.2648196 C28.0082512,24.2648196 27.268516,25.0024624 27.268516,25.9090852 C27.268516,26.8157079 28.0082512,27.5533507 28.9175869,27.5533507 Z M32.3425802,33.371521 C31.4333079,33.371521 30.6935094,34.1091638 30.6935094,35.0157865 C30.6935094,35.9224092 31.4333079,36.6600521 32.3425802,36.6600521 L40.0616272,36.6600521 C42.0147613,34.7078029 44.7141634,33.4980662 47.6916877,33.4980662 C47.9981612,33.4980662 48.3014634,33.5115998 48.6014674,33.5367064 C48.3820142,33.4307146 48.1373808,33.371521 47.8819017,33.371521 L32.3425802,33.371521 Z M32.3425802,37.9248717 C31.4332445,37.9248717 30.6935094,38.6625145 30.6935094,39.5691372 C30.6935094,40.4758232 31.4332445,41.2134027 32.3425802,41.2134027 L37.3476371,41.2134027 C37.7011725,40.017832 38.2578608,38.9084587 38.9778705,37.9248717 L32.3425802,37.9248717 Z M32.3425802,42.4782224 C31.4332445,42.4782224 30.6935094,43.2158019 30.6935094,44.1224879 C30.6935094,45.0291739 31.4332445,45.7667534 32.3425802,45.7667534 L37.0172521,45.7667534 C36.9466592,45.2707544 36.9093014,44.7641941 36.9093014,44.2490331 C36.9093014,43.6459039 36.9601689,43.0545374 37.0563858,42.4782224 L32.3425802,42.4782224 Z M32.3425802,50.3201041 L38.7979949,50.3201041 C38.1161675,49.3301298 37.5962662,48.2213256 37.2762196,47.0315731 L32.3425802,47.0315731 C31.4332445,47.0315731 30.6935094,47.7691526 30.6935094,48.6758386 C30.6935094,49.5825245 31.4332445,50.3201041 32.3425802,50.3201041 Z M47.6916877,53.7351804 C52.9376358,53.7351804 57.205558,49.4796947 57.205558,44.2490331 C57.205558,39.0183715 52.9376358,34.7628858 47.6916877,34.7628858 C42.4457396,34.7628858 38.1778174,39.0183715 38.1778174,44.2490331 C38.1778174,49.4796947 42.4457396,53.7351804 47.6916877,53.7351804 Z" id="Combined-Shape" fill="#FB4273" fill-rule="nonzero"></path>
    </g>
</svg>