<?xml version="1.0" encoding="UTF-8"?>
<svg width="83px" height="65px" viewBox="0 0 83 65" version="1.1" xmlns="http://www.w3.org/2000/svg" xmlns:xlink="http://www.w3.org/1999/xlink">
    <!-- Generator: Sketch 54.1 (76490) - https://sketchapp.com -->
    <title>hr</title>
    <desc>Created with Sketch.</desc>
    <g id="hr" stroke="none" stroke-width="1" fill="none" fill-rule="evenodd">
        <path d="M10,23 C7.790861,23 6,21.209139 6,19 C6,16.790861 7.790861,15 10,15 C12.209139,15 14,16.790861 14,19 C14,21.209139 12.209139,23 10,23 Z M10,22 C11.6568542,22 13,20.6568542 13,19 C13,17.3431458 11.6568542,16 10,16 C8.34314575,16 7,17.3431458 7,19 C7,20.6568542 8.34314575,22 10,22 Z" id="Combined-Shape" fill="#B20AB0"></path>
        <path d="M40.8284271,4.53553391 L38,1.70710678 L38.7071068,1 L41.5355339,3.82842712 L44.363961,1 L45.0710678,1.70710678 L42.2426407,4.53553391 L45.0710678,7.36396103 L44.363961,8.07106781 L41.5355339,5.24264069 L38.7071068,8.07106781 L38,7.36396103 L40.8284271,4.53553391 Z" id="Combined-Shape" fill="#14E73D"></path>
        <circle id="Oval" fill="#9AF4F3" cx="73.5" cy="16.5" r="2.5"></circle>
        <polygon id="Triangle" fill="#9E50FF" transform="translate(78.191328, 44.848516) rotate(-16.000000) translate(-78.191328, -44.848516) " points="78.191328 41.8485158 81.691328 47.8485158 74.691328 47.8485158"></polygon>
        <path d="M6,50 L9,50 L9,51 L6,51 L6,54 L5,54 L5,51 L2,51 L2,50 L5,50 L5,47 L6,47 L6,50 Z" id="Combined-Shape" fill="#EFE83A"></path>
        <path d="M18.3827915,39.1364208 L18.7728014,38.4789275 C19.4691177,37.3050513 20.5544129,36.4119801 21.8403788,35.9546691 L65.8944152,20.28832 C67.9046872,19.8213124 69.2102425,20.4234054 69.8110813,22.0945989 C70.4119201,23.7657924 70.0527005,24.9735196 68.7334227,25.7177806 L64.6206888,27.4545105 C63.9754414,27.7269863 63.5560576,28.3593274 63.5560576,29.0597467 L63.5560576,29.0597467 C63.5560576,29.7086317 64.0097137,30.2691869 64.6443395,30.4044707 C65.693441,30.6281306 66.5014469,30.9383503 67.0683527,31.3351509 C68.1924907,32.1219811 69.0308907,33.3714222 67.0683527,35.3456611 C65.9668214,36.4537598 64.2226367,37.2607581 61.8357985,37.7666558 L61.835803,37.7666769 C61.0123539,37.9412095 60.4233445,38.6681463 60.4233445,39.5098886 L60.4233445,39.5098886 C60.4233445,40.3492211 61.0725246,41.0455897 61.9097949,41.1043884 L64.2430677,41.2682463 C65.5639687,42.1358318 65.8466078,43.590859 65.0909852,45.6333281 L63.4075448,47.0175296 L16.4062241,64 C14.762033,64.3268343 13.7316653,63.7354403 13.3151212,62.2258181 C13.3151212,62.2258181 13.3151212,62.2258181 13.3151212,62.2258181 L13.3151212,62.2258181 C12.8739216,60.626841 13.6338733,58.940336 15.123954,58.2116081 L19.532076,56.0557854 C19.9564405,55.7038698 20.0625316,55.0313199 19.8503494,54.0381358 C19.5171731,53.2754306 18.1954606,52.894078 15.8852119,52.894078 C14.4383001,51.635002 14.5850423,50.1101081 16.3254385,48.3193961 L22.6552719,45.7282789 C23.7475118,44.6319962 23.8598002,43.8065069 22.992137,43.251811 C22.2985998,42.8084335 21.1547504,42.650447 19.560589,42.7778515 L19.5605912,42.7778793 C18.8178156,42.8372415 18.145168,42.3393615 17.9849752,41.6116407 L17.9849752,41.6116407 C17.7988193,40.7659752 17.9410253,39.8811669 18.3827915,39.1364208 Z" id="Path-2" fill="#F1FFFF"></path>
        <path d="M51.4558106,52.0310059 L52.4023438,52.0310059 L52.4023438,53.0292969 L51.4558106,53.0292969 L51.4558106,52.0310059 Z M49.4592285,52.0310059 L50.4057618,52.0310059 L50.4057618,53.0292969 L49.4592285,53.0292969 L49.4592285,52.0310059 Z M47.4626465,52.0310059 L48.4091797,52.0310059 L48.4091797,53.0292969 L47.4626465,53.0292969 L47.4626465,52.0310059 Z M52.9013672,30.7734375 L57.8928223,34.3168945 L57.8928223,55 L38.4523926,55 L38.4523926,54.0532226 L56.2768555,54.0532226 L47.6013184,45.3779297 L48.2707519,44.7084961 L56.9462891,53.3840332 L56.9462891,35.4301757 L49.9387207,39.9504394 L49.4255371,39.1550293 L51.954834,37.5234375 L51.954834,27.048584 L34.9584961,27.048584 L34.9584961,26.1020507 L37.5778809,26.1020507 L41.9465332,23 L46.3149414,26.1020507 L52.9013672,26.1020507 L52.9013672,30.7734375 Z M41.9465332,24.1608887 L39.2128906,26.1018066 L44.6799316,26.1018066 L41.9465332,24.1608887 Z M52.9013672,31.9343262 L52.9013672,36.9125976 L56.5754394,34.5427246 L52.9013672,31.9343262 Z M36.2915039,45.3779297 L27.6159668,54.0534668 L36.9550781,54.0534668 L36.9550781,55 L26,55 L26,34.3168945 L30.9912109,30.7731934 L30.9912109,26.1020507 L33.4611816,26.1020507 L33.4611816,27.048584 L31.9379882,27.048584 L31.9379882,37.5229492 L41.9462891,43.9807129 L48.1784668,39.9594726 L48.6916504,40.7551269 L41.9465332,45.1074219 L26.9465332,35.4301757 L26.9465332,53.3840332 L35.6220703,44.7084961 L36.2915039,45.3779297 Z M30.9912109,36.9123535 L30.9912109,31.934082 L27.3173828,34.5427246 L30.9912109,36.9123535 Z M37.9792481,37.5561524 C37.9792481,35.9431153 38.9475097,34.5527344 40.3327637,33.9333496 C39.8088379,33.4799805 39.4765625,32.8112793 39.4765625,32.0656738 C39.4765625,30.7038574 40.5844726,29.5957031 41.9465332,29.5957031 C43.3083496,29.5957031 44.4162597,30.7038574 44.4162597,32.0656738 C44.4162597,32.8110351 44.0839844,33.4799805 43.5600586,33.9331055 C44.9453125,34.5527344 45.9138184,35.9431153 45.9138184,37.5561524 C45.9138184,38.4104004 45.501709,40.0261231 43.9428711,40.0261231 L39.9499512,40.0261231 C38.3911132,40.0261231 37.9792481,38.4104004 37.9792481,37.5561524 Z M41.9465332,34.5356445 C41.6848144,34.5356445 41.4309082,34.5690918 41.1889649,34.6318359 L41.9465332,35.3894043 L42.7041016,34.6318359 C42.4616699,34.5690918 42.2080078,34.5356445 41.9465332,34.5356445 Z M40.4230957,32.0656738 C40.4230957,32.9055176 41.1064453,33.5888672 41.9465332,33.5888672 C42.7863769,33.5888672 43.4697266,32.9057618 43.4697266,32.0656738 C43.4697266,31.2258301 42.7863769,30.5424805 41.9465332,30.5424805 C41.1064453,30.5424805 40.4230957,31.2258301 40.4230957,32.0656738 Z M40.2658691,35.0476074 C39.4582519,35.590332 38.9257812,36.512207 38.9257812,37.5563965 C38.9257812,37.559082 38.9301757,37.9941406 39.0900879,38.4069824 C39.3232422,39.0097656 39.6923828,39.0793457 39.9499512,39.0793457 L43.9428711,39.0793457 C44.2038574,39.0793457 44.5776367,39.0078125 44.8100586,38.3884278 C44.9626465,37.980957 44.967041,37.5603028 44.967041,37.5561524 C44.967041,36.512207 44.4345703,35.590332 43.6269531,35.0476074 L41.9462891,36.7282715 L40.2658691,35.0476074 Z M49.9582519,28.0727539 L50.9050293,28.0727539 L50.9050293,29.0708008 L49.9582519,29.0708008 L49.9582519,28.0727539 Z M47.9619141,28.0727539 L48.9084472,28.0727539 L48.9084472,29.0708008 L47.9619141,29.0708008 L47.9619141,28.0727539 Z M33.9345703,32.5649414 L32.987793,32.5649414 L32.987793,28.0986328 L35.4577637,28.0986328 L35.4577637,29.045166 L33.9345703,29.045166 L33.9345703,32.5649414 Z" id="Combined-Shape" fill="#FB4273" fill-rule="nonzero"></path>
    </g>
</svg>