<?xml version="1.0" encoding="UTF-8"?>
<svg width="83px" height="65px" viewBox="0 0 83 65" version="1.1" xmlns="http://www.w3.org/2000/svg" xmlns:xlink="http://www.w3.org/1999/xlink">
    <!-- Generator: Sketch 54.1 (76490) - https://sketchapp.com -->
    <title>invest</title>
    <desc>Created with Sketch.</desc>
    <g id="invest" stroke="none" stroke-width="1" fill="none" fill-rule="evenodd">
        <path d="M10,23 C7.790861,23 6,21.209139 6,19 C6,16.790861 7.790861,15 10,15 C12.209139,15 14,16.790861 14,19 C14,21.209139 12.209139,23 10,23 Z M10,22 C11.6568542,22 13,20.6568542 13,19 C13,17.3431458 11.6568542,16 10,16 C8.34314575,16 7,17.3431458 7,19 C7,20.6568542 8.34314575,22 10,22 Z" id="Combined-Shape" fill="#B20AB0"></path>
        <path d="M40.8284271,4.53553391 L38,1.70710678 L38.7071068,1 L41.5355339,3.82842712 L44.363961,1 L45.0710678,1.70710678 L42.2426407,4.53553391 L45.0710678,7.36396103 L44.363961,8.07106781 L41.5355339,5.24264069 L38.7071068,8.07106781 L38,7.36396103 L40.8284271,4.53553391 Z" id="Combined-Shape" fill="#14E73D"></path>
        <circle id="Oval" fill="#9AF4F3" cx="73.5" cy="16.5" r="2.5"></circle>
        <polygon id="Triangle" fill="#9E50FF" transform="translate(78.191328, 44.848516) rotate(-16.000000) translate(-78.191328, -44.848516) " points="78.191328 41.8485158 81.691328 47.8485158 74.691328 47.8485158"></polygon>
        <path d="M6,50 L9,50 L9,51 L6,51 L6,54 L5,54 L5,51 L2,51 L2,50 L5,50 L5,47 L6,47 L6,50 Z" id="Combined-Shape" fill="#EFE83A"></path>
        <path d="M18.3827915,39.1364208 L18.7728014,38.4789275 C19.4691177,37.3050513 20.5544129,36.4119801 21.8403788,35.9546691 L65.8944152,20.28832 C67.9046872,19.8213124 69.2102425,20.4234054 69.8110813,22.0945989 C70.4119201,23.7657924 70.0527005,24.9735196 68.7334227,25.7177806 L64.6206888,27.4545105 C63.9754414,27.7269863 63.5560576,28.3593274 63.5560576,29.0597467 L63.5560576,29.0597467 C63.5560576,29.7086317 64.0097137,30.2691869 64.6443395,30.4044707 C65.693441,30.6281306 66.5014469,30.9383503 67.0683527,31.3351509 C68.1924907,32.1219811 69.0308907,33.3714222 67.0683527,35.3456611 C65.9668214,36.4537598 64.2226367,37.2607581 61.8357985,37.7666558 L61.835803,37.7666769 C61.0123539,37.9412095 60.4233445,38.6681463 60.4233445,39.5098886 L60.4233445,39.5098886 C60.4233445,40.3492211 61.0725246,41.0455897 61.9097949,41.1043884 L64.2430677,41.2682463 C65.5639687,42.1358318 65.8466078,43.590859 65.0909852,45.6333281 L63.4075448,47.0175296 L16.4062241,64 C14.762033,64.3268343 13.7316653,63.7354403 13.3151212,62.2258181 C13.3151212,62.2258181 13.3151212,62.2258181 13.3151212,62.2258181 L13.3151212,62.2258181 C12.8739216,60.626841 13.6338733,58.940336 15.123954,58.2116081 L19.532076,56.0557854 C19.9564405,55.7038698 20.0625316,55.0313199 19.8503494,54.0381358 C19.5171731,53.2754306 18.1954606,52.894078 15.8852119,52.894078 C14.4383001,51.635002 14.5850423,50.1101081 16.3254385,48.3193961 L22.6552719,45.7282789 C23.7475118,44.6319962 23.8598002,43.8065069 22.992137,43.251811 C22.2985998,42.8084335 21.1547504,42.650447 19.560589,42.7778515 L19.5605912,42.7778793 C18.8178156,42.8372415 18.145168,42.3393615 17.9849752,41.6116407 L17.9849752,41.6116407 C17.7988193,40.7659752 17.9410253,39.8811669 18.3827915,39.1364208 Z" id="Path-2" fill="#F1FFFF"></path>
        <path d="M29.1357388,39.9347265 C30.0669388,39.9347265 30.8245551,40.6923429 30.8245551,41.6235429 L30.8245551,52.3308735 C30.8245551,53.2621388 30.0669388,54.0197551 29.1357388,54.0197551 L27.6888163,54.0197551 C26.7576163,54.0197551 26,53.2621388 26,52.3308735 L26,41.6235429 C26,40.6923429 26.7576163,39.9347265 27.6888163,39.9347265 L29.1357388,39.9347265 Z M29.8439184,52.3308735 L29.8439184,41.6235429 C29.8439184,41.2330122 29.5262694,40.9153633 29.1357388,40.9153633 L27.6888163,40.9153633 C27.2982857,40.9153633 26.9806367,41.2330122 26.9806367,41.6235429 L26.9806367,52.3308735 C26.9806367,52.7214041 27.2982857,53.0391184 27.6888163,53.0391184 L29.1357388,53.0391184 C29.5262694,53.0391184 29.8439184,52.7214041 29.8439184,52.3308735 Z M59.0930939,44.2106449 C59.6545306,45.0357878 59.5151673,46.1578122 58.7685878,46.8204082 L52.4820898,52.4744163 C52.4762122,52.4797714 52.4702041,52.4848653 52.4640653,52.4898286 C51.8095673,53.0237061 51.0228245,53.3761633 50.1889306,53.5092571 C50.1865143,53.509649 50.184098,53.5100408 50.1816816,53.5103673 L40.4553143,54.9124245 C40.4545306,54.9125551 40.4538122,54.9126857 40.4532898,54.912751 C40.2992327,54.9371102 40.1436735,54.9492571 39.9873959,54.9492571 C39.6994612,54.9492571 39.4086531,54.908049 39.1177143,54.8258939 C39.104,54.8221061 39.0904816,54.8176 39.0772245,54.8125714 L32.4504163,52.3030531 C32.1972245,52.2071837 32.0696816,51.9241469 32.165551,51.6708898 C32.2614204,51.4176327 32.5443918,51.2901551 32.7977143,51.3860245 L39.4036898,53.8876408 C39.7085388,53.9710367 40.0095347,53.9901061 40.2980571,53.9445224 C40.302302,53.9438694 40.3070694,53.9430857 40.3113796,53.942498 L50.0378776,52.5403755 C50.6962286,52.4347102 51.3174204,52.1571592 51.8353633,51.7372408 L58.1152,46.0893061 C58.4963918,45.7507592 58.5671184,45.1811592 58.2820571,44.7621551 C57.9702857,44.303902 57.3422367,44.182498 56.8820898,44.4917224 L53.6628898,46.6461714 C53.6626939,46.6463673 53.662498,46.6465633 53.6622367,46.6466939 L50.5294367,48.7433469 C50.5080816,48.757649 50.485551,48.7699265 50.4624327,48.7806367 C50.4564898,48.7833796 50.4502204,48.7852082 50.4442122,48.7876898 C50.4267755,48.7949388 50.4092082,48.8017306 50.3910531,48.8068898 C50.383151,48.8091755 50.3750531,48.8104816 50.3670204,48.8123102 C50.3504327,48.8161633 50.3338449,48.8196898 50.3168653,48.8217796 C50.3073959,48.8229551 50.2979265,48.8232163 50.2883918,48.8238694 C50.2778776,48.8245878 50.2674286,48.8262204 50.2567837,48.8262204 C50.2477061,48.8262204 50.238498,48.8259592 50.2293551,48.8254367 L48.9003102,48.7508571 L38.872751,48.3541878 C38.8644571,48.3539265 38.8561633,48.3533388 38.8479347,48.3526204 C38.5539918,48.3259102 38.2881306,48.1864816 38.0991347,47.9598694 C37.9100735,47.7331918 37.8206694,47.4465633 37.8473143,47.1526204 C37.8717388,46.8830367 38.1098449,46.6839837 38.379951,46.7086041 C38.6496,46.7330286 38.8483918,46.9715265 38.8239673,47.2412408 C38.8201143,47.2834939 38.8371592,47.3137959 38.8521796,47.3318204 C38.8662857,47.3486694 38.8906449,47.3693061 38.9285224,47.3750531 L47.8209959,47.7268571 L47.8017306,47.5331592 C47.7137633,46.6482612 47.0386286,45.9426939 46.1590204,45.8154776 L41.0936163,45.2322939 C41.0893714,45.2318367 41.0851918,45.2313143 41.0809469,45.2306612 C39.841698,45.0553143 38.6656653,44.6460408 37.585502,44.0141388 C37.5111837,43.9706449 37.4360163,43.9286531 37.3605224,43.8875102 C37.3419755,43.8773878 37.323298,43.8674612 37.3046857,43.8574694 C37.2385306,43.8220082 37.1719184,43.7873306 37.1049143,43.7536327 C37.0949878,43.7486041 37.0851265,43.7434449 37.0751347,43.7384816 C36.9933061,43.6977306 36.9108898,43.6582857 36.8278857,43.6202122 C36.8265143,43.6196245 36.8251429,43.6189714 36.8237714,43.6183837 C36.7424,43.5811592 36.6604408,43.5453714 36.5780245,43.5106939 C36.5709061,43.5076898 36.5637878,43.5046857 36.5566694,43.5016816 C36.3885714,43.4314776 36.2183184,43.3667592 36.046302,43.3074612 C36.0365714,43.3041306 36.0268408,43.3009306 36.0171102,43.2976 C35.9425306,43.2721959 35.8675592,43.2479673 35.7923265,43.2245878 C35.7784816,43.2202776 35.7647673,43.2158367 35.7509224,43.2116571 C35.6703347,43.1870367 35.5893551,43.1637224 35.508049,43.1415184 C35.4831673,43.1347918 35.4580245,43.1285224 35.4330776,43.1219918 C35.3811592,43.1082776 35.3291102,43.095151 35.2769306,43.0824163 C35.2361143,43.0724898 35.1951673,43.0628245 35.1541551,43.0534857 C35.1218939,43.0461061 35.089502,43.039249 35.0571102,43.0322612 C34.8838531,42.9950367 34.7091592,42.9626449 34.5328327,42.9359347 C34.1071673,42.8712816 33.6761469,42.8373224 33.2430367,42.8373224 L32.6112,42.8373224 C32.3403755,42.8373224 32.1208816,42.6178286 32.1208816,42.3470041 C32.1208816,42.0761796 32.3403755,41.8566857 32.6112,41.8566857 L33.2430367,41.8566857 C33.6761469,41.8566857 34.1075592,41.8865306 34.5343347,41.9446531 C34.7808653,41.8523102 35.0330776,41.7782531 35.2889469,41.7258122 C35.8622041,39.8926041 37.4523429,38.5288163 39.3615673,38.2509388 C40.1357061,37.6046041 41.0821224,37.2093714 42.0794776,37.1091265 L42.0794776,35.4079673 C42.0741878,35.3670204 42.0745143,35.3257469 42.0794776,35.2849959 L42.0794776,33.3993469 L41.0522122,32.5100082 C40.5084082,32.7496816 39.2903184,33.2214531 37.7919347,33.3956245 C37.4139429,33.4396408 37.0435265,33.4614531 36.6817306,33.4614531 C34.4617796,33.4614531 32.5593469,32.6389878 31.1324082,31.049698 C28.5587592,28.1830204 28.5676408,23.7413551 28.5692082,23.5536653 C28.5692082,23.5517714 28.5696,23.5499429 28.5696653,23.548049 C28.5701224,23.5270857 28.5716898,23.5061878 28.5747592,23.485551 C28.5765224,23.4724245 28.5793959,23.4596245 28.5821388,23.4466939 C28.5825306,23.4449959 28.5829224,23.443298 28.5833143,23.4416653 C28.6200816,23.2748735 28.7328,23.1299592 28.8976327,23.0768 C29.0957061,23.0129306 29.3010939,23.0671347 29.4264816,23.2317714 C29.4747429,23.2752653 29.7795918,23.5289796 30.6319673,23.8385306 C31.4834939,24.1478857 33.074351,24.5783837 35.8172735,24.8731102 C39.1630367,25.2324898 40.5675102,27.1600653 41.1565714,28.7137633 C41.6393143,29.9871673 41.6575347,31.1998367 41.6373551,31.7194776 L42.0795429,32.1022367 L42.0795429,25.7755755 C42.0795429,25.504751 42.2990367,25.2852571 42.5698612,25.2852571 C42.8406857,25.2852571 43.0601796,25.504751 43.0601796,25.7755755 L43.0601796,33.0906449 C43.0718694,33.1516408 43.0719347,33.2144653 43.0601796,33.2757878 L43.0601796,34.2681143 L43.6406204,33.765649 C43.6173714,33.2144653 43.6306286,31.8798694 44.1622204,30.4777469 C44.8013061,28.7921959 46.325551,26.700898 49.9580082,26.3106939 C52.9716245,25.9869061 54.7165388,25.512849 55.6496327,25.1722122 C56.5906939,24.828702 56.9206204,24.5474939 56.9688816,24.5032163 C57.0949224,24.339298 57.300898,24.284898 57.4986449,24.3492898 C57.662302,24.4025796 57.7747592,24.5456653 57.8119837,24.7109551 C57.812702,24.7138939 57.8133551,24.7167673 57.8140082,24.7197061 C57.8165551,24.7318531 57.8192327,24.7438694 57.8209306,24.7562122 C57.824,24.7769143 57.8255673,24.7978776 57.8260245,24.8189061 C57.8260898,24.8208 57.8264816,24.8226286 57.8264816,24.8245224 C57.8282449,25.0288653 57.8378449,29.8644571 55.037649,32.9834122 C53.4877388,34.7097143 51.4202776,35.603298 49.008,35.603298 C48.6144653,35.603298 48.2121143,35.5795265 47.8008816,35.5317224 C46.1436082,35.3390694 44.8027429,34.8125714 44.225698,34.5561143 L43.060049,35.5652245 L43.060049,37.1061878 C44.0672,37.2019918 45.0235429,37.5988571 45.8045388,38.2508735 C47.7137633,38.5288163 49.303902,39.8924735 49.8771592,41.7256816 C50.871902,41.9293714 51.7938286,42.4366041 52.5012245,43.1746939 C53.1026939,43.8022857 53.5293388,44.5781224 53.7426286,45.4130612 L56.3360653,43.6773551 C57.2417306,43.0688327 58.4788245,43.3078531 59.0930939,44.2106449 Z M54.3079837,32.3282612 C55.8522122,30.6082939 56.4566204,28.2303673 56.6932898,26.6172408 C55.487151,28.1437714 54.2759837,28.975902 52.939102,29.6503837 C53.2433633,29.6844735 53.591249,29.7066776 53.9764898,29.7038694 C53.9778612,29.7038694 53.9792327,29.7038694 53.9806041,29.7038694 C54.2496,29.7038694 54.4686367,29.920751 54.4708571,30.1901388 C54.4730122,30.460898 54.2553469,30.6822204 53.9845878,30.6844408 C53.9570939,30.6846367 53.9294694,30.6847673 53.902302,30.6847673 C52.6850612,30.6847673 51.8049306,30.4631184 51.4290939,30.3477878 C51.3206204,30.3952 51.211298,30.4427429 51.1008653,30.4908082 C49.9200653,31.0045061 48.638498,31.5625469 47.167151,32.455151 C47.8403265,32.687902 48.8198531,32.9334531 49.7357714,32.8160327 C50.0041796,32.7810286 50.2499918,32.9712653 50.2845388,33.2398694 C50.3190204,33.5084082 50.1292408,33.7540898 49.8606367,33.7886367 C49.6549224,33.8150204 49.4480327,33.8268408 49.2427755,33.8268408 C47.930449,33.8268408 46.6787918,33.3446857 46.1468082,33.1097796 C45.8092408,33.3384816 45.4614857,33.5867102 45.1033469,33.8558367 C45.7490939,34.1034122 46.7676735,34.4277224 47.9433143,34.5610122 C50.5685551,34.8586776 52.7105959,34.1075265 54.3079837,32.3282612 Z M45.0791184,30.8253714 C44.7757061,31.625698 44.6650122,32.4068898 44.6296816,32.984849 C46.0651102,31.916702 47.3292408,31.1861878 48.4803265,30.611951 C48.5159184,30.1577469 48.6438531,29.256 49.1023673,28.3674449 C49.2265143,28.1267265 49.5222857,28.0324898 49.7629388,28.1565714 C50.0035918,28.2807184 50.0979592,28.5764898 49.9738122,28.8171429 C49.7385796,29.2730449 49.6085551,29.736 49.5365878,30.1099429 C49.9395918,29.9266939 50.3297959,29.7567673 50.7096163,29.5915429 C50.877649,29.5184653 51.0422204,29.4468245 51.2041143,29.3756408 C51.205551,29.3750531 51.2069224,29.3744 51.2083592,29.3738122 C52.9727347,28.5982367 54.3932082,27.8850286 55.8060408,26.1554612 C54.6585469,26.5535673 52.8583184,26.9853714 50.0626286,27.2857143 C47.5437061,27.5563429 45.8669061,28.7472653 45.0791184,30.8253714 Z M37.6786939,32.4215184 C38.7018449,32.3025959 39.5879837,32.0283102 40.1720163,31.8088163 C39.8722612,31.5848816 39.5807347,31.3774694 39.2967837,31.1846857 C38.7951673,31.4042449 37.6587755,31.8352 36.4667429,31.8352 C36.2499265,31.8352 36.0316082,31.8209633 35.8145959,31.7885714 C35.5467755,31.7486041 35.3620898,31.4990694 35.4020571,31.231249 C35.4420245,30.9634286 35.6916898,30.7788735 35.9593796,30.8187102 C36.7740735,30.9403755 37.6491755,30.7362939 38.2712163,30.5285551 C36.9575184,29.7388082 35.8096327,29.2393469 34.7501714,28.7784816 C34.6541714,28.7366857 34.5588245,28.695151 34.4637388,28.6536163 C34.1086041,28.7613061 33.3054041,28.9594449 32.2020571,28.9594449 C32.1013551,28.9594449 31.9982367,28.9578122 31.8925714,28.9542857 C31.6219429,28.9452082 31.4098286,28.7185306 31.4188408,28.447902 C31.4279184,28.1772735 31.6573388,27.9645061 31.9252245,27.9741714 C32.3040653,27.9868408 32.6459429,27.9727347 32.9451755,27.9449796 C32.4681796,27.6981878 32.0043102,27.4252082 31.5544163,27.0994612 C30.8850286,26.6147592 30.2810122,26.0386286 29.7115429,25.3384163 C29.9423347,26.8037551 30.5023347,28.8800327 31.8620735,30.3944816 C33.3202939,32.0186449 35.2768653,32.7006367 37.6786939,32.4215184 Z M37.2046367,28.8245224 C38.2345143,29.3394612 39.3635265,29.9921959 40.6407184,30.9355429 C40.6021878,30.4107429 40.4959347,29.7256816 40.2278531,29.0306286 C39.5075918,27.1633306 37.9884408,26.0925061 35.7125224,25.848 C33.2628898,25.5848163 31.6444735,25.2102857 30.5849469,24.8573061 C31.9621878,26.4951837 33.3564082,27.1026612 35.1414204,27.8792816 C35.4656,28.0203429 35.7978122,28.1649306 36.1402122,28.3197714 C36.061649,27.9446531 35.9203265,27.4864 35.6655673,27.0540735 C35.528098,26.8208 35.6058122,26.5202612 35.8390857,26.3827265 C36.0724245,26.2453878 36.3728327,26.3230367 36.5104327,26.5562449 C37.0247837,27.4289959 37.1659755,28.3587592 37.2046367,28.8245224 Z M50.1205551,47.8371592 L52.8653714,46.000098 C52.5820735,44.272098 51.1749878,42.8816 49.421649,42.6421224 C49.2216816,42.6148245 49.0588735,42.4678204 49.0113959,42.2716408 C48.6138776,40.6289959 47.2190041,39.3967347 45.5403755,39.2052571 C45.4400653,39.1937633 45.3457633,39.1516408 45.2703347,39.084702 C44.5287837,38.4261551 43.5744,38.0634449 42.5830531,38.0634449 C41.5917061,38.0634449 40.6374531,38.4260898 39.8958367,39.084702 C39.8204082,39.1517061 39.7261061,39.1937633 39.6257959,39.2052571 C37.9472327,39.3967347 36.5522939,40.6289959 36.1547755,42.2716408 C36.151902,42.2835265 36.1485714,42.295151 36.1449143,42.3065796 C36.2107429,42.3274122 36.2761143,42.3496163 36.3414204,42.3718857 C36.3465143,42.373649 36.3516735,42.3752163 36.3567673,42.3769796 C36.5536,42.4445061 36.7480163,42.518498 36.9400163,42.5988245 C36.9466122,42.6015673 36.9531429,42.6045061 36.9597388,42.607249 C37.0441143,42.6427755 37.1280327,42.6795429 37.2114286,42.717551 C37.2304327,42.7262367 37.2493714,42.7350531 37.2683102,42.7438041 C37.3392327,42.7767184 37.4097633,42.8104163 37.4799673,42.8450939 C37.5038041,42.856849 37.5276408,42.8685388 37.5513469,42.8804898 C37.6185469,42.9143837 37.6852245,42.9491918 37.7517061,42.9846531 C37.7747592,42.9969306 37.7980082,43.0089469 37.8209959,43.0214204 C37.9081796,43.068898 37.9948408,43.1173551 38.0807837,43.1676408 C39.0485551,43.7337796 40.1020735,44.1008653 41.2122122,44.2587755 L46.2778122,44.8419592 C46.2821224,44.8424163 46.286302,44.8429388 46.2904816,44.8435918 C47.6218776,45.0320653 48.6446367,46.0981224 48.7776,47.436049 L48.8102531,47.7636245 L50.1205551,47.8371592 Z" id="Combined-Shape" fill="#FB4273" fill-rule="nonzero"></path>
    </g>
</svg>