<?xml version="1.0" encoding="UTF-8"?>
<svg width="83px" height="65px" viewBox="0 0 83 65" version="1.1" xmlns="http://www.w3.org/2000/svg" xmlns:xlink="http://www.w3.org/1999/xlink">
    <!-- Generator: Sketch 54.1 (76490) - https://sketchapp.com -->
    <title>it</title>
    <desc>Created with Sketch.</desc>
    <g id="it" stroke="none" stroke-width="1" fill="none" fill-rule="evenodd">
        <path d="M10,23 C7.790861,23 6,21.209139 6,19 C6,16.790861 7.790861,15 10,15 C12.209139,15 14,16.790861 14,19 C14,21.209139 12.209139,23 10,23 Z M10,22 C11.6568542,22 13,20.6568542 13,19 C13,17.3431458 11.6568542,16 10,16 C8.34314575,16 7,17.3431458 7,19 C7,20.6568542 8.34314575,22 10,22 Z" id="Combined-Shape" fill="#B20AB0"></path>
        <path d="M40.8284271,4.53553391 L38,1.70710678 L38.7071068,1 L41.5355339,3.82842712 L44.363961,1 L45.0710678,1.70710678 L42.2426407,4.53553391 L45.0710678,7.36396103 L44.363961,8.07106781 L41.5355339,5.24264069 L38.7071068,8.07106781 L38,7.36396103 L40.8284271,4.53553391 Z" id="Combined-Shape" fill="#14E73D"></path>
        <circle id="Oval" fill="#9AF4F3" cx="73.5" cy="16.5" r="2.5"></circle>
        <polygon id="Triangle" fill="#9E50FF" transform="translate(78.191328, 44.848516) rotate(-16.000000) translate(-78.191328, -44.848516) " points="78.191328 41.8485158 81.691328 47.8485158 74.691328 47.8485158"></polygon>
        <path d="M6,50 L9,50 L9,51 L6,51 L6,54 L5,54 L5,51 L2,51 L2,50 L5,50 L5,47 L6,47 L6,50 Z" id="Combined-Shape" fill="#EFE83A"></path>
        <path d="M18.3827915,39.1364208 L18.7728014,38.4789275 C19.4691177,37.3050513 20.5544129,36.4119801 21.8403788,35.9546691 L65.8944152,20.28832 C67.9046872,19.8213124 69.2102425,20.4234054 69.8110813,22.0945989 C70.4119201,23.7657924 70.0527005,24.9735196 68.7334227,25.7177806 L64.6206888,27.4545105 C63.9754414,27.7269863 63.5560576,28.3593274 63.5560576,29.0597467 L63.5560576,29.0597467 C63.5560576,29.7086317 64.0097137,30.2691869 64.6443395,30.4044707 C65.693441,30.6281306 66.5014469,30.9383503 67.0683527,31.3351509 C68.1924907,32.1219811 69.0308907,33.3714222 67.0683527,35.3456611 C65.9668214,36.4537598 64.2226367,37.2607581 61.8357985,37.7666558 L61.835803,37.7666769 C61.0123539,37.9412095 60.4233445,38.6681463 60.4233445,39.5098886 L60.4233445,39.5098886 C60.4233445,40.3492211 61.0725246,41.0455897 61.9097949,41.1043884 L64.2430677,41.2682463 C65.5639687,42.1358318 65.8466078,43.590859 65.0909852,45.6333281 L63.4075448,47.0175296 L16.4062241,64 C14.762033,64.3268343 13.7316653,63.7354403 13.3151212,62.2258181 C13.3151212,62.2258181 13.3151212,62.2258181 13.3151212,62.2258181 L13.3151212,62.2258181 C12.8739216,60.626841 13.6338733,58.940336 15.123954,58.2116081 L19.532076,56.0557854 C19.9564405,55.7038698 20.0625316,55.0313199 19.8503494,54.0381358 C19.5171731,53.2754306 18.1954606,52.894078 15.8852119,52.894078 C14.4383001,51.635002 14.5850423,50.1101081 16.3254385,48.3193961 L22.6552719,45.7282789 C23.7475118,44.6319962 23.8598002,43.8065069 22.992137,43.251811 C22.2985998,42.8084335 21.1547504,42.650447 19.560589,42.7778515 L19.5605912,42.7778793 C18.8178156,42.8372415 18.145168,42.3393615 17.9849752,41.6116407 L17.9849752,41.6116407 C17.7988193,40.7659752 17.9410253,39.8811669 18.3827915,39.1364208 Z" id="Path-2" fill="#F1FFFF"></path>
        <path d="M56.5566406,28.25 L50,28.25 C49.7409668,28.25 49.53125,28.4597168 49.53125,28.71875 C49.53125,28.9777832 49.7409668,29.1875 50,29.1875 L56.5566406,29.1875 C56.8356934,29.1875 57.0625,29.4143066 57.0625,29.6933594 L57.0625,47.7441406 C57.0625,48.0231934 56.8356934,48.25 56.5566406,48.25 L27.4433594,48.25 C27.1643066,48.25 26.9375,48.0231934 26.9375,47.7441406 L26.9375,29.6933594 C26.9375,29.4143066 27.1643066,29.1875 27.4433594,29.1875 L37.7421875,29.1875 L37.7421875,30.125 L28.34375,30.125 C28.0847168,30.125 27.875,30.3347168 27.875,30.59375 L27.875,42.9792481 C27.875,43.2380371 28.0847168,43.4479981 28.34375,43.4479981 C28.6027832,43.4479981 28.8125,43.2380371 28.8125,42.9792481 L28.8125,31.0625 L37.7421875,31.0625 L37.7421875,33.5771484 L35.7353516,34.5358887 C35.5751953,34.6125488 35.46875,34.7780762 35.46875,34.9589844 L35.46875,42.6035156 C35.46875,42.7841797 35.5725098,42.9487305 35.7353516,43.0266113 L41.7978516,45.9230957 C41.9291992,45.9848633 42.0773926,45.9816894 42.2021484,45.9230957 L45.6103516,44.2946778 C45.8439941,44.1831055 45.9428711,43.9030762 45.8312988,43.6696778 C45.7197266,43.4360351 45.4394531,43.3371582 45.2060547,43.4487305 L42.46875,44.7565918 L42.46875,38.1508789 L47.59375,35.7023926 L47.59375,42.3081055 L46.8974609,42.640625 C46.6638184,42.7521972 46.5649414,43.0322266 46.6765137,43.265625 C46.7880859,43.4992676 47.0681153,43.5981445 47.3015137,43.4865722 L48.2646484,43.0266113 C48.4274903,42.9487305 48.53125,42.7841797 48.53125,42.6035156 L48.53125,34.9589844 C48.53125,34.7802734 48.4272461,34.6137695 48.2646484,34.5358887 L46.2578125,33.5771484 L46.2578125,31.0625 L55.1875,31.0625 L55.1875,46.375 L28.8125,46.375 L28.8125,44.9792481 C28.8125,44.7202149 28.6027832,44.5104981 28.34375,44.5104981 C28.0847168,44.5104981 27.875,44.7202149 27.875,44.9792481 L27.875,46.84375 C27.875,47.1027832 28.0847168,47.3125 28.34375,47.3125 L55.65625,47.3125 C55.9152832,47.3125 56.125,47.1027832 56.125,46.84375 L56.125,30.59375 C56.125,30.3347168 55.9152832,30.125 55.65625,30.125 L46.2578125,30.125 L46.2578125,29.1875 L48,29.1875 C48.2590332,29.1875 48.46875,28.9777832 48.46875,28.71875 C48.46875,28.4597168 48.2590332,28.25 48,28.25 L46.2578125,28.25 L46.2578125,27.3125 L50.4609375,27.3125 C50.7199707,27.3125 50.9296875,27.1027832 50.9296875,26.84375 L50.9296875,25.7319336 C51.4753418,25.5383301 51.8671875,25.017334 51.8671875,24.40625 C51.8671875,23.6308594 51.2363281,23 50.4609375,23 C49.6855469,23 49.0546875,23.6308594 49.0546875,24.40625 C49.0546875,25.017334 49.4465332,25.5383301 49.9921875,25.7319336 L49.9921875,26.375 L45.7890625,26.375 C45.5300293,26.375 45.3203125,26.5847168 45.3203125,26.84375 L45.3203125,28.25 L42.46875,28.25 L42.46875,25.7319336 C43.0144043,25.5383301 43.40625,25.017334 43.40625,24.40625 C43.40625,23.6308594 42.7753906,23 42,23 C41.2246094,23 40.59375,23.6308594 40.59375,24.40625 C40.59375,25.017334 40.9855957,25.5383301 41.53125,25.7319336 L41.53125,28.25 L38.6796875,28.25 L38.6796875,26.84375 C38.6796875,26.5847168 38.4699707,26.375 38.2109375,26.375 L34.0078125,26.375 L34.0078125,25.7319336 C34.5534668,25.5383301 34.9453125,25.017334 34.9453125,24.40625 C34.9453125,23.6308594 34.3144531,23 33.5390625,23 C32.7636719,23 32.1328125,23.6308594 32.1328125,24.40625 C32.1328125,25.017334 32.5246582,25.5383301 33.0703125,25.7319336 L33.0703125,26.84375 C33.0703125,27.1027832 33.2800293,27.3125 33.5390625,27.3125 L37.7421875,27.3125 L37.7421875,28.25 L27.4433594,28.25 C26.6474609,28.25 26,28.8974609 26,29.6933594 L26,47.7441406 C26,48.5400391 26.6474609,49.1875 27.4433594,49.1875 L37.605957,49.1875 C37.4245606,50.9069824 36.2875976,51.9111328 35.9291992,52.1875 L33.9375,52.1875 C33.1621094,52.1875 32.53125,52.8183594 32.53125,53.59375 C32.53125,54.3691406 33.1621094,55 33.9375,55 L50.0625,55 C50.8378906,55 51.46875,54.3691406 51.46875,53.59375 C51.46875,52.8183594 50.8378906,52.1875 50.0625,52.1875 L48.0720215,52.1875 C47.7182617,51.9121094 46.5773926,50.8989258 46.3945312,49.1875 L56.5566406,49.1875 C57.3525391,49.1875 58,48.5400391 58,47.7441406 L58,29.6933594 C58,28.8974609 57.3525391,28.25 56.5566406,28.25 Z M50.4609375,23.9375 C50.7194824,23.9375 50.9296875,24.1477051 50.9296875,24.40625 C50.9296875,24.6647949 50.7194824,24.875 50.4609375,24.875 C50.2023926,24.875 49.9921875,24.6647949 49.9921875,24.40625 C49.9921875,24.1477051 50.2023926,23.9375 50.4609375,23.9375 Z M42,23.9375 C42.2585449,23.9375 42.46875,24.1477051 42.46875,24.40625 C42.46875,24.6647949 42.2585449,24.875 42,24.875 C41.7414551,24.875 41.53125,24.6647949 41.53125,24.40625 C41.53125,24.1477051 41.7414551,23.9375 42,23.9375 Z M33.5390625,23.9375 C33.7976074,23.9375 34.0078125,24.1477051 34.0078125,24.40625 C34.0078125,24.6647949 33.7976074,24.875 33.5390625,24.875 C33.2805176,24.875 33.0703125,24.6647949 33.0703125,24.40625 C33.0703125,24.1477051 33.2805176,23.9375 33.5390625,23.9375 Z M38.6796875,31.0625 L41.53125,31.0625 L41.53125,31.7668457 L38.6796875,33.1293945 L38.6796875,31.0625 Z M46.9750976,34.9589844 L42,37.3356934 L37.0249024,34.9589844 L42,32.5820312 L46.9750976,34.9589844 Z M36.40625,35.7023926 L41.53125,38.1508789 L41.53125,44.7565918 L36.40625,42.3081055 L36.40625,35.7023926 Z M45.3203125,33.1293945 L42.46875,31.7668457 L42.46875,31.0625 L45.3203125,31.0625 L45.3203125,33.1293945 Z M45.3203125,29.1875 L45.3203125,30.125 L42.46875,30.125 L42.46875,29.1875 L45.3203125,29.1875 Z M41.53125,29.1875 L41.53125,30.125 L38.6796875,30.125 L38.6796875,29.1875 L41.53125,29.1875 Z M50.53125,53.59375 C50.53125,53.8522949 50.3210449,54.0625 50.0625,54.0625 L33.9375,54.0625 C33.6789551,54.0625 33.46875,53.8522949 33.46875,53.59375 C33.46875,53.3352051 33.6789551,53.125 33.9375,53.125 L50.0625,53.125 C50.3210449,53.125 50.53125,53.3352051 50.53125,53.59375 Z M46.7275391,52.1875 L37.2724609,52.1875 C37.8220215,51.5456543 38.4316406,50.5454101 38.548584,49.1875 L45.451416,49.1875 C45.5683594,50.5454101 46.1779785,51.5456543 46.7275391,52.1875 Z" id="Shape" fill="#FB4273" fill-rule="nonzero"></path>
    </g>
</svg>