<?xml version="1.0" encoding="UTF-8"?>
<svg width="83px" height="65px" viewBox="0 0 83 65" version="1.1" xmlns="http://www.w3.org/2000/svg" xmlns:xlink="http://www.w3.org/1999/xlink">
    <!-- Generator: Sketch 54.1 (76490) - https://sketchapp.com -->
    <title>law</title>
    <desc>Created with Sketch.</desc>
    <g id="law" stroke="none" stroke-width="1" fill="none" fill-rule="evenodd">
        <path d="M10,23 C7.790861,23 6,21.209139 6,19 C6,16.790861 7.790861,15 10,15 C12.209139,15 14,16.790861 14,19 C14,21.209139 12.209139,23 10,23 Z M10,22 C11.6568542,22 13,20.6568542 13,19 C13,17.3431458 11.6568542,16 10,16 C8.34314575,16 7,17.3431458 7,19 C7,20.6568542 8.34314575,22 10,22 Z" id="Combined-Shape" fill="#B20AB0"></path>
        <path d="M40.8284271,4.53553391 L38,1.70710678 L38.7071068,1 L41.5355339,3.82842712 L44.363961,1 L45.0710678,1.70710678 L42.2426407,4.53553391 L45.0710678,7.36396103 L44.363961,8.07106781 L41.5355339,5.24264069 L38.7071068,8.07106781 L38,7.36396103 L40.8284271,4.53553391 Z" id="Combined-Shape" fill="#14E73D"></path>
        <circle id="Oval" fill="#9AF4F3" cx="73.5" cy="16.5" r="2.5"></circle>
        <polygon id="Triangle" fill="#9E50FF" transform="translate(78.191328, 44.848516) rotate(-16.000000) translate(-78.191328, -44.848516) " points="78.191328 41.8485158 81.691328 47.8485158 74.691328 47.8485158"></polygon>
        <path d="M6,50 L9,50 L9,51 L6,51 L6,54 L5,54 L5,51 L2,51 L2,50 L5,50 L5,47 L6,47 L6,50 Z" id="Combined-Shape" fill="#EFE83A"></path>
        <path d="M18.3827915,39.1364208 L18.7728014,38.4789275 C19.4691177,37.3050513 20.5544129,36.4119801 21.8403788,35.9546691 L65.8944152,20.28832 C67.9046872,19.8213124 69.2102425,20.4234054 69.8110813,22.0945989 C70.4119201,23.7657924 70.0527005,24.9735196 68.7334227,25.7177806 L64.6206888,27.4545105 C63.9754414,27.7269863 63.5560576,28.3593274 63.5560576,29.0597467 L63.5560576,29.0597467 C63.5560576,29.7086317 64.0097137,30.2691869 64.6443395,30.4044707 C65.693441,30.6281306 66.5014469,30.9383503 67.0683527,31.3351509 C68.1924907,32.1219811 69.0308907,33.3714222 67.0683527,35.3456611 C65.9668214,36.4537598 64.2226367,37.2607581 61.8357985,37.7666558 L61.835803,37.7666769 C61.0123539,37.9412095 60.4233445,38.6681463 60.4233445,39.5098886 L60.4233445,39.5098886 C60.4233445,40.3492211 61.0725246,41.0455897 61.9097949,41.1043884 L64.2430677,41.2682463 C65.5639687,42.1358318 65.8466078,43.590859 65.0909852,45.6333281 L63.4075448,47.0175296 L16.4062241,64 C14.762033,64.3268343 13.7316653,63.7354403 13.3151212,62.2258181 C13.3151212,62.2258181 13.3151212,62.2258181 13.3151212,62.2258181 L13.3151212,62.2258181 C12.8739216,60.626841 13.6338733,58.940336 15.123954,58.2116081 L19.532076,56.0557854 C19.9564405,55.7038698 20.0625316,55.0313199 19.8503494,54.0381358 C19.5171731,53.2754306 18.1954606,52.894078 15.8852119,52.894078 C14.4383001,51.635002 14.5850423,50.1101081 16.3254385,48.3193961 L22.6552719,45.7282789 C23.7475118,44.6319962 23.8598002,43.8065069 22.992137,43.251811 C22.2985998,42.8084335 21.1547504,42.650447 19.560589,42.7778515 L19.5605912,42.7778793 C18.8178156,42.8372415 18.145168,42.3393615 17.9849752,41.6116407 L17.9849752,41.6116407 C17.7988193,40.7659752 17.9410253,39.8811669 18.3827915,39.1364208 Z" id="Path-2" fill="#F1FFFF"></path>
        <path d="M58.8142407,42.4982241 L58.8190207,42.4966307 L53.5869544,31.0807303 L54.8558008,30.4492282 L54.3809793,29.4985228 L53.144,30.1146224 L52.9766971,29.7497427 C52.8544066,29.4831203 52.5391867,29.3660747 52.2725643,29.4882988 C52.1569129,29.5413444 52.064166,29.6340913 52.0111203,29.7497427 L51.8618755,30.0758506 C50.9616266,29.6577261 49.981112,29.4407635 48.9885145,29.4400996 L44.5271037,29.4400996 L44.5271037,28.3778589 L45.5893444,28.3778589 L45.5893444,27.3156183 L44.6763485,27.3156183 L45.0582241,25.7875851 C45.3514025,24.6142739 44.6379751,23.4254274 43.4646639,23.1321826 C42.2913527,22.8390041 41.1025062,23.5524315 40.8092614,24.7257427 C40.7221577,25.0742905 40.7221577,25.438971 40.8092614,25.7875187 L41.1911369,27.3155519 L40.2781411,27.3155519 L40.2781411,28.3777925 L41.3403817,28.3777925 L41.3403817,29.4400332 L36.8816266,29.4400332 C35.8880332,29.4408299 34.9065228,29.6583237 34.00561,30.0773776 L33.8563651,29.7512697 C33.7341411,29.4846473 33.4188548,29.3676017 33.1522324,29.4898257 C33.0365809,29.5428714 32.943834,29.6356183 32.8907884,29.7512697 L32.7234855,30.1161494 L31.4865062,29.4973942 L31.0116846,30.4491618 L32.2805311,31.0833195 L27.0484647,42.4966307 C27.0161992,42.5660083 26.9997344,42.6416266 27.0001328,42.7181079 C27.0024564,44.7704232 28.6656598,46.4336266 30.7179751,46.4359502 L36.0291784,46.4359502 C38.0814938,46.4336266 39.7446971,44.7704232 39.7470207,42.7181079 C39.7456929,42.6418257 39.7275685,42.5667386 39.6939087,42.4982241 L34.4475021,31.0393029 C35.2101245,30.6853112 36.0408631,30.5020747 36.8816266,30.5023402 L41.3403817,30.5023402 L41.3403817,49.9339087 L39.5271369,51.7471535 L37.6225394,51.7471535 C36.1566473,51.7488797 34.9686639,52.9368631 34.9669378,54.4027552 C34.9669378,54.6960664 35.2047469,54.9338755 35.4980581,54.9338755 L50.3694274,54.9338755 C50.6627386,54.9338755 50.9005477,54.6960664 50.9005477,54.4027552 C50.8988216,52.9368631 49.7108382,51.7488797 48.2449461,51.7471535 L46.3403485,51.7471535 L44.5271037,49.9339087 L44.5271037,30.5023402 L48.9885145,30.5023402 C49.829278,30.5020747 50.6600166,30.6853112 51.422639,31.0393029 L46.1687967,42.4966307 C46.1365311,42.5660083 46.1200664,42.6416266 46.1204647,42.7181079 C46.1227884,44.7704232 47.7859917,46.4336266 49.8383071,46.4359502 L55.1495104,46.4359502 C57.2018257,46.4336266 58.865029,44.7704232 58.8673527,42.7181079 C58.8660913,42.6418257 58.8479668,42.5667386 58.8142407,42.4982241 Z M36.0291784,45.3737095 L30.7179751,45.3737095 C29.4564315,45.3723154 28.3694274,44.4849461 28.1154855,43.2492282 L38.631668,43.2492282 C38.3777925,44.4849461 37.290722,45.3723154 36.0291784,45.3737095 Z M38.3884149,42.1869876 L28.3587386,42.1869876 L33.23761,31.542805 C33.3267054,31.5667054 33.4204481,31.5667054 33.5095436,31.542805 L38.3884149,42.1869876 Z M42.0451784,24.5622905 C42.4587884,24.0715353 43.1919336,24.0090622 43.6826888,24.4226722 C43.7330788,24.4651618 43.7798174,24.5119004 43.8223071,24.5622905 C44.0371452,24.8355519 44.113029,25.1929959 44.0278506,25.5299917 L43.5811784,27.3156183 L42.2863071,27.3156183 L41.8396349,25.5299917 C41.7544564,25.1929959 41.8304066,24.8355519 42.0451784,24.5622905 Z M42.4026224,29.4400996 L42.4026224,28.3778589 L43.4648631,28.3778589 L43.4648631,29.4400996 L42.4026224,29.4400996 Z M43.4648631,30.5023402 L43.4648631,49.6226722 L42.4026224,49.6226722 L42.4026224,30.5023402 L43.4648631,30.5023402 Z M48.2449461,52.8093942 C48.92,52.8101909 49.5215602,53.2354855 49.7474855,53.8716349 L36.12,53.8716349 C36.3459253,53.2354855 36.9474855,52.8101909 37.6225394,52.8093942 L48.2449461,52.8093942 Z M44.8383402,51.7471535 L41.0291452,51.7471535 L42.0913859,50.6849129 L43.7760996,50.6849129 L44.8383402,51.7471535 Z M52.3568797,31.5443983 C52.4445809,31.5752697 52.5407801,31.5712863 52.6256266,31.5332448 L57.5087469,42.1869876 L47.4790705,42.1869876 L52.3568797,31.5443983 Z M55.1495104,45.3737095 L49.8383071,45.3737095 C48.5767635,45.3723154 47.4897593,44.4849461 47.2358174,43.2492282 L57.752,43.2492282 C57.4981245,44.4849461 56.4110539,45.3723154 55.1495104,45.3737095 Z" id="Shape" fill="#FB4273" fill-rule="nonzero"></path>
    </g>
</svg>