<?xml version="1.0" encoding="UTF-8"?>
<svg width="83px" height="65px" viewBox="0 0 83 65" version="1.1" xmlns="http://www.w3.org/2000/svg" xmlns:xlink="http://www.w3.org/1999/xlink">
    <!-- Generator: Sketch 54.1 (76490) - https://sketchapp.com -->
    <title>marketing</title>
    <desc>Created with Sketch.</desc>
    <g id="marketing" stroke="none" stroke-width="1" fill="none" fill-rule="evenodd">
        <path d="M10,23 C7.790861,23 6,21.209139 6,19 C6,16.790861 7.790861,15 10,15 C12.209139,15 14,16.790861 14,19 C14,21.209139 12.209139,23 10,23 Z M10,22 C11.6568542,22 13,20.6568542 13,19 C13,17.3431458 11.6568542,16 10,16 C8.34314575,16 7,17.3431458 7,19 C7,20.6568542 8.34314575,22 10,22 Z" id="Combined-Shape" fill="#B20AB0"></path>
        <path d="M40.8284271,4.53553391 L38,1.70710678 L38.7071068,1 L41.5355339,3.82842712 L44.363961,1 L45.0710678,1.70710678 L42.2426407,4.53553391 L45.0710678,7.36396103 L44.363961,8.07106781 L41.5355339,5.24264069 L38.7071068,8.07106781 L38,7.36396103 L40.8284271,4.53553391 Z" id="Combined-Shape" fill="#14E73D"></path>
        <circle id="Oval" fill="#9AF4F3" cx="73.5" cy="16.5" r="2.5"></circle>
        <polygon id="Triangle" fill="#9E50FF" transform="translate(78.191328, 44.848516) rotate(-16.000000) translate(-78.191328, -44.848516) " points="78.191328 41.8485158 81.691328 47.8485158 74.691328 47.8485158"></polygon>
        <path d="M6,50 L9,50 L9,51 L6,51 L6,54 L5,54 L5,51 L2,51 L2,50 L5,50 L5,47 L6,47 L6,50 Z" id="Combined-Shape" fill="#EFE83A"></path>
        <path d="M18.3827915,39.1364208 L18.7728014,38.4789275 C19.4691177,37.3050513 20.5544129,36.4119801 21.8403788,35.9546691 L65.8944152,20.28832 C67.9046872,19.8213124 69.2102425,20.4234054 69.8110813,22.0945989 C70.4119201,23.7657924 70.0527005,24.9735196 68.7334227,25.7177806 L64.6206888,27.4545105 C63.9754414,27.7269863 63.5560576,28.3593274 63.5560576,29.0597467 L63.5560576,29.0597467 C63.5560576,29.7086317 64.0097137,30.2691869 64.6443395,30.4044707 C65.693441,30.6281306 66.5014469,30.9383503 67.0683527,31.3351509 C68.1924907,32.1219811 69.0308907,33.3714222 67.0683527,35.3456611 C65.9668214,36.4537598 64.2226367,37.2607581 61.8357985,37.7666558 L61.835803,37.7666769 C61.0123539,37.9412095 60.4233445,38.6681463 60.4233445,39.5098886 L60.4233445,39.5098886 C60.4233445,40.3492211 61.0725246,41.0455897 61.9097949,41.1043884 L64.2430677,41.2682463 C65.5639687,42.1358318 65.8466078,43.590859 65.0909852,45.6333281 L63.4075448,47.0175296 L16.4062241,64 C14.762033,64.3268343 13.7316653,63.7354403 13.3151212,62.2258181 C13.3151212,62.2258181 13.3151212,62.2258181 13.3151212,62.2258181 L13.3151212,62.2258181 C12.8739216,60.626841 13.6338733,58.940336 15.123954,58.2116081 L19.532076,56.0557854 C19.9564405,55.7038698 20.0625316,55.0313199 19.8503494,54.0381358 C19.5171731,53.2754306 18.1954606,52.894078 15.8852119,52.894078 C14.4383001,51.635002 14.5850423,50.1101081 16.3254385,48.3193961 L22.6552719,45.7282789 C23.7475118,44.6319962 23.8598002,43.8065069 22.992137,43.251811 C22.2985998,42.8084335 21.1547504,42.650447 19.560589,42.7778515 L19.5605912,42.7778793 C18.8178156,42.8372415 18.145168,42.3393615 17.9849752,41.6116407 L17.9849752,41.6116407 C17.7988193,40.7659752 17.9410253,39.8811669 18.3827915,39.1364208 Z" id="Path-2" fill="#F1FFFF"></path>
        <path d="M26.5333333,23 L32.4,23 L32.4,24.0666667 L27.0666667,24.0666667 L27.0666667,29.4 L26,29.4 L26,23.5333333 C26,23.2388 26.2388,23 26.5333333,23 Z M57.4666667,23 C57.7612,23 58,23.2388 58,23.5333333 L58,29.4 L56.9333333,29.4 L56.9333333,24.0666667 L51.6,24.0666667 L51.6,23 L57.4666667,23 Z M27.0666667,53.9333333 L32.4,53.9333333 L32.4,55 L26.5333333,55 C26.2388,55 26,54.7612 26,54.4666667 L26,48.6 L27.0666667,48.6 L27.0666667,53.9333333 Z M56.9333333,48.6 L58,48.6 L58,54.4666667 C58,54.7612 57.7612,55 57.4666667,55 L51.6,55 L51.6,53.9333333 L56.9333333,53.9333333 L56.9333333,48.6 Z M56.92,38.4666667 L58,38.4666667 L58,39.5333333 L56.92,39.5333333 C56.6317333,47.3563333 50.3563333,53.6317333 42.5333333,53.92 L42.5333333,55 L41.4666667,55 L41.4666667,53.92 C33.6436667,53.6317333 27.3682667,47.3563333 27.08,39.5333333 L26,39.5333333 L26,38.4666667 L27.08,38.4666667 C27.3682667,30.6436667 33.6436667,24.3682667 41.4666667,24.08 L41.4666667,23 L42.5333333,23 L42.5333333,24.08 C50.3563333,24.3682667 56.6317333,30.6436667 56.92,38.4666667 Z M30.6842667,47 L37.2,47 L37.2,43.4266667 C37.2,42.4546667 36.412,41.6666667 35.44,41.6666667 L34.2544,41.6666667 L35.0293333,43.6016 C35.1086,43.7998 35.062,44.0262 34.9109333,44.1770667 L33.8442667,45.2437333 C33.636,45.4519333 33.2984,45.4519333 33.0901333,45.2437333 L32.0234667,44.1770667 C31.8724,44.0262 31.8258,43.7998 31.9050667,43.6016 L32.6789333,41.6666667 L31.4933333,41.6666667 C30.5213333,41.6666667 29.7333333,42.4546667 29.7333333,43.4266667 L29.7333333,45.4533333 C30.0162667,45.9890667 30.3338667,46.5057333 30.6842667,47 Z M34.2021333,37.0768 C33.4357333,38.0869333 31.7872,38.3637333 30.8741333,38.4389333 C31.2876,39.5725333 32.2771333,40.3974 33.4666667,40.6 C34.2853333,40.6 35.8944,39.5264 36.1082667,38.2208 L34.2021333,37.0768 Z M30.8294,37.3690667 C31.7675333,37.28 33.2245333,36.9733333 33.4944,36.1642667 C33.5066667,36.1274 33.5229333,36.0920667 33.5429333,36.0587333 C33.6944667,35.8061333 34.0220667,35.7242 34.2746667,35.8757333 L36.0517333,36.9424 C35.8133333,35.4490667 34.9802667,34.7333333 33.4666667,34.7333333 C31.8135333,34.7333333 30.9724667,35.5817333 30.8294,37.3690667 Z M33.9072,43.6714667 L33.4666667,42.5690667 L33.0261333,43.6714667 L33.4666667,44.1125333 L33.9072,43.6714667 Z M42.5333333,52.8533333 C46.3688,52.7062 49.9707333,50.9725333 52.4784,48.0666667 L46.2666667,48.0666667 C45.9721333,48.0666667 45.7333333,47.8278667 45.7333333,47.5333333 L45.7333333,44.8666667 L38.2666667,44.8666667 L38.2666667,47.5333333 C38.2666667,47.8278667 38.0278667,48.0666667 37.7333333,48.0666667 L31.5216,48.0666667 C34.0292667,50.9725333 37.6312,52.7062 41.4666667,52.8533333 L41.4666667,51.8 L42.5333333,51.8 L42.5333333,52.8533333 Z M42.7354667,33.8768 C41.9690667,34.8869333 40.3205333,35.1637333 39.4074667,35.2389333 C39.8209333,36.3725333 40.8104667,37.1974 42,37.4 C42.8186667,37.4 44.4277333,36.3264 44.6416,35.0208 L42.7354667,33.8768 Z M39.3627333,34.1690667 C40.3008667,34.08 41.7578667,33.7733333 42.0277333,32.9642667 C42.04,32.9274 42.0562667,32.8920667 42.0762667,32.8587333 C42.2278,32.6061333 42.5554,32.5242 42.808,32.6757333 L44.5850667,33.7424 C44.3466667,32.2490667 43.5136,31.5333333 42,31.5333333 C40.3468667,31.5333333 39.5058,32.3817333 39.3627333,34.1690667 Z M42.4405333,40.4714667 L42,39.3690667 L41.5594667,40.4714667 L42,40.9125333 L42.4405333,40.4714667 Z M41.2122667,38.4666667 L40.0266667,38.4666667 C39.0546667,38.4666667 38.2666667,39.2546667 38.2666667,40.2266667 L38.2666667,43.8 L45.7333333,43.8 L45.7333333,40.2266667 C45.7333333,39.2546667 44.9453333,38.4666667 43.9733333,38.4666667 L42.7877333,38.4666667 L43.5626667,40.4016 C43.6419333,40.5998 43.5953333,40.8262 43.4442667,40.9770667 L42.3776,42.0437333 C42.1693333,42.2519333 41.8317333,42.2519333 41.6234667,42.0437333 L40.5568,40.9770667 C40.4057333,40.8262 40.3591333,40.5998 40.4384,40.4016 L41.2122667,38.4666667 Z M54.2666667,45.4533333 L54.2666667,43.4266667 C54.2666667,42.4546667 53.4786667,41.6666667 52.5066667,41.6666667 L51.3210667,41.6666667 L52.096,43.6016 C52.1752667,43.7998 52.1286667,44.0262 51.9776,44.1770667 L50.9109333,45.2437333 C50.7026667,45.4519333 50.3650667,45.4519333 50.1568,45.2437333 L49.0901333,44.1770667 C48.9390667,44.0262 48.8924667,43.7998 48.9717333,43.6016 L49.7456,41.6666667 L48.56,41.6666667 C47.588,41.6666667 46.8,42.4546667 46.8,43.4266667 L46.8,47 L53.3157333,47 C53.6661333,46.5057333 53.9837333,45.9890667 54.2666667,45.4533333 Z M51.2688,37.0768 C50.5024,38.0869333 48.8538667,38.3637333 47.9408,38.4389333 C48.3542667,39.5725333 49.3438,40.3974 50.5333333,40.6 C51.352,40.6 52.9610667,39.5264 53.1749333,38.2208 L51.2688,37.0768 Z M47.8960667,37.3690667 C48.8342,37.28 50.2912,36.9733333 50.5610667,36.1642667 C50.5733333,36.1274 50.5896,36.0920667 50.6096,36.0587333 C50.7611333,35.8061333 51.0887333,35.7242 51.3413333,35.8757333 L53.1184,36.9424 C52.88,35.4490667 52.0469333,34.7333333 50.5333333,34.7333333 C48.8802,34.7333333 48.0391333,35.5817333 47.8960667,37.3690667 Z M50.9738667,43.6714667 L50.5333333,42.5690667 L50.0928,43.6714667 L50.5333333,44.1125333 L50.9738667,43.6714667 Z M55.8533333,39.5333333 L54.8,39.5333333 L54.8,38.4666667 L55.8533333,38.4666667 C55.5666667,31.2323333 49.7676667,25.4333333 42.5333333,25.1466667 L42.5333333,26.2 L41.4666667,26.2 L41.4666667,25.1466667 C34.2323333,25.4333333 28.4333333,31.2323333 28.1466667,38.4666667 L29.2,38.4666667 L29.2,39.5333333 L28.1466667,39.5333333 C28.1900667,40.6931333 28.3796667,41.8428667 28.7109333,42.9552 C28.9136667,41.7257333 29.9028667,40.7772 31.1397333,40.6261333 C30.3073333,39.9710667 29.7953333,38.9908 29.7333333,37.9333333 C29.7333333,34.4069333 31.7637333,33.6666667 33.4666667,33.6666667 C35.1696,33.6666667 37.2,34.4069333 37.2,37.9333333 C37.1374,38.9900667 36.6254667,39.9694 35.7936,40.624 C36.2276,40.6774 36.6432,40.8312 37.0074667,41.0730667 C37.0752,41.1184 37.1370667,41.1696 37.2,41.2197333 L37.2,40.2266667 C37.1979333,38.8022 38.2593333,37.6003333 39.6730667,37.4261333 C38.8406667,36.7710667 38.3286667,35.7908 38.2666667,34.7333333 C38.2666667,31.2069333 40.2970667,30.4666667 42,30.4666667 C43.7029333,30.4666667 45.7333333,31.2069333 45.7333333,34.7333333 C45.6708667,35.7902 45.1589333,36.7698 44.3269333,37.4245333 C45.7412667,37.5988 46.8028667,38.8016 46.8,40.2266667 L46.8,41.2218667 C46.8629333,41.1712 46.9248,41.1205333 46.9925333,41.0752 C47.3568,40.8333333 47.7724,40.6796 48.2064,40.6261333 C47.374,39.9710667 46.862,38.9908 46.8,37.9333333 C46.8,34.4069333 48.8304,33.6666667 50.5333333,33.6666667 C52.2362667,33.6666667 54.2666667,34.4069333 54.2666667,37.9333333 C54.2046667,38.9908 53.6926667,39.9710667 52.8602667,40.6261333 C54.0971333,40.7772 55.0863333,41.7257333 55.2890667,42.9552 C55.6203333,41.8428667 55.8099333,40.6931333 55.8533333,39.5333333 Z" id="Combined-Shape" fill="#FB4273" fill-rule="nonzero"></path>
    </g>
</svg>