<?xml version="1.0" encoding="UTF-8"?>
<svg width="83px" height="65px" viewBox="0 0 83 65" version="1.1" xmlns="http://www.w3.org/2000/svg" xmlns:xlink="http://www.w3.org/1999/xlink">
    <!-- Generator: Sketch 54.1 (76490) - https://sketchapp.com -->
    <title>product</title>
    <desc>Created with Sketch.</desc>
    <g id="product" stroke="none" stroke-width="1" fill="none" fill-rule="evenodd">
        <path d="M10,23 C7.790861,23 6,21.209139 6,19 C6,16.790861 7.790861,15 10,15 C12.209139,15 14,16.790861 14,19 C14,21.209139 12.209139,23 10,23 Z M10,22 C11.6568542,22 13,20.6568542 13,19 C13,17.3431458 11.6568542,16 10,16 C8.34314575,16 7,17.3431458 7,19 C7,20.6568542 8.34314575,22 10,22 Z" id="Combined-Shape" fill="#B20AB0"></path>
        <path d="M40.8284271,4.53553391 L38,1.70710678 L38.7071068,1 L41.5355339,3.82842712 L44.363961,1 L45.0710678,1.70710678 L42.2426407,4.53553391 L45.0710678,7.36396103 L44.363961,8.07106781 L41.5355339,5.24264069 L38.7071068,8.07106781 L38,7.36396103 L40.8284271,4.53553391 Z" id="Combined-Shape" fill="#14E73D"></path>
        <circle id="Oval" fill="#9AF4F3" cx="73.5" cy="16.5" r="2.5"></circle>
        <polygon id="Triangle" fill="#9E50FF" transform="translate(78.191328, 44.848516) rotate(-16.000000) translate(-78.191328, -44.848516) " points="78.191328 41.8485158 81.691328 47.8485158 74.691328 47.8485158"></polygon>
        <path d="M6,50 L9,50 L9,51 L6,51 L6,54 L5,54 L5,51 L2,51 L2,50 L5,50 L5,47 L6,47 L6,50 Z" id="Combined-Shape" fill="#EFE83A"></path>
        <path d="M18.3827915,39.1364208 L18.7728014,38.4789275 C19.4691177,37.3050513 20.5544129,36.4119801 21.8403788,35.9546691 L65.8944152,20.28832 C67.9046872,19.8213124 69.2102425,20.4234054 69.8110813,22.0945989 C70.4119201,23.7657924 70.0527005,24.9735196 68.7334227,25.7177806 L64.6206888,27.4545105 C63.9754414,27.7269863 63.5560576,28.3593274 63.5560576,29.0597467 L63.5560576,29.0597467 C63.5560576,29.7086317 64.0097137,30.2691869 64.6443395,30.4044707 C65.693441,30.6281306 66.5014469,30.9383503 67.0683527,31.3351509 C68.1924907,32.1219811 69.0308907,33.3714222 67.0683527,35.3456611 C65.9668214,36.4537598 64.2226367,37.2607581 61.8357985,37.7666558 L61.835803,37.7666769 C61.0123539,37.9412095 60.4233445,38.6681463 60.4233445,39.5098886 L60.4233445,39.5098886 C60.4233445,40.3492211 61.0725246,41.0455897 61.9097949,41.1043884 L64.2430677,41.2682463 C65.5639687,42.1358318 65.8466078,43.590859 65.0909852,45.6333281 L63.4075448,47.0175296 L16.4062241,64 C14.762033,64.3268343 13.7316653,63.7354403 13.3151212,62.2258181 C13.3151212,62.2258181 13.3151212,62.2258181 13.3151212,62.2258181 L13.3151212,62.2258181 C12.8739216,60.626841 13.6338733,58.940336 15.123954,58.2116081 L19.532076,56.0557854 C19.9564405,55.7038698 20.0625316,55.0313199 19.8503494,54.0381358 C19.5171731,53.2754306 18.1954606,52.894078 15.8852119,52.894078 C14.4383001,51.635002 14.5850423,50.1101081 16.3254385,48.3193961 L22.6552719,45.7282789 C23.7475118,44.6319962 23.8598002,43.8065069 22.992137,43.251811 C22.2985998,42.8084335 21.1547504,42.650447 19.560589,42.7778515 L19.5605912,42.7778793 C18.8178156,42.8372415 18.145168,42.3393615 17.9849752,41.6116407 L17.9849752,41.6116407 C17.7988193,40.7659752 17.9410253,39.8811669 18.3827915,39.1364208 Z" id="Path-2" fill="#F1FFFF"></path>
        <path d="M54.3870968,44.1612903 C55.2406754,44.1612903 55.9354839,44.8560988 55.9354839,45.7096774 C55.9354839,46.1076109 55.7807459,46.4672379 55.5330141,46.7419355 C55.7802419,47.016633 55.9354839,47.3762601 55.9354839,47.7741935 C55.9354839,48.172127 55.7807459,48.5317541 55.5330141,48.8064516 C55.7802419,49.0811492 55.9354839,49.4407762 55.9354839,49.8387097 C55.9354839,50.2366432 55.7807459,50.5962702 55.5330141,50.8709677 C55.7802419,51.1456653 55.9354839,51.5052923 55.9354839,51.9032258 C55.9354839,52.7568045 55.2406754,53.4516129 54.3870968,53.4516129 L51.2903226,53.4516129 L51.2903226,55 L47.1612903,55 L47.1612903,53.4516129 L45.5839214,53.4516129 C45.1859879,53.4516129 44.7865423,53.3571068 44.4304435,53.1791835 L42.2053932,52.0662803 C41.9911794,51.9594254 41.7517641,51.9032258 41.5128528,51.9032258 L38.9032258,51.9032258 L38.9032258,52.9354839 L32.1935484,52.9354839 L32.1935484,51.9032258 L35.8064516,51.9032258 L35.8064516,48.2903226 L36.8387097,48.2903226 L36.8387097,51.9032258 L37.8709677,51.9032258 L37.8709677,43.6451613 L36.8387097,43.6451613 L36.8387097,47.2580645 L35.8064516,47.2580645 L35.8064516,43.6451613 L32.1935484,43.6451613 L32.1935484,42.6129032 L38.9032258,42.6129032 L38.9032258,43.6451613 L41.5128528,43.6451613 C41.7517641,43.6451613 41.9911794,43.5889617 42.2053932,43.4816028 L45.4621975,41.8525706 C45.8188004,41.6751512 46.2182459,41.5806452 46.6161794,41.5806452 L47.1612903,41.5806452 L47.1612903,40.2928427 C43.3177923,39.3608871 40.4516129,35.9002016 40.4516129,31.7741935 C40.4516129,26.9359879 44.3876008,23 49.2258065,23 C54.0640121,23 58,26.9359879 58,31.7741935 C58,35.9002016 55.1338206,39.3608871 51.2903226,40.2928427 L51.2903226,41.5806452 L52.0645161,41.5806452 C52.6338206,41.5806452 53.0967742,42.0435988 53.0967742,42.6129032 C53.0967742,43.1960685 52.8949093,43.7288306 52.5672883,44.1612903 L54.3870968,44.1612903 Z M54.9032258,45.7096774 C54.9032258,45.4248992 54.671371,45.1935484 54.3870968,45.1935484 L50.7741935,45.1935484 C50.4899194,45.1935484 50.2580645,45.4248992 50.2580645,45.7096774 C50.2580645,45.9944556 50.4899194,46.2258065 50.7741935,46.2258065 L54.3870968,46.2258065 C54.671371,46.2258065 54.9032258,45.9944556 54.9032258,45.7096774 Z M54.9032258,47.7741935 C54.9032258,47.4894154 54.671371,47.2580645 54.3870968,47.2580645 L50.7741935,47.2580645 C50.4899194,47.2580645 50.2580645,47.4894154 50.2580645,47.7741935 C50.2580645,48.0589717 50.4899194,48.2903226 50.7741935,48.2903226 L54.3870968,48.2903226 C54.671371,48.2903226 54.9032258,48.0589717 54.9032258,47.7741935 Z M54.9032258,49.8387097 C54.9032258,49.5539315 54.671371,49.3225806 54.3870968,49.3225806 L50.7741935,49.3225806 C50.4899194,49.3225806 50.2580645,49.5539315 50.2580645,49.8387097 C50.2580645,50.1234879 50.4899194,50.3548387 50.7741935,50.3548387 L54.3870968,50.3548387 C54.671371,50.3548387 54.9032258,50.1234879 54.9032258,49.8387097 Z M41.483871,31.7741935 C41.483871,36.0430948 44.9569052,39.516129 49.2258065,39.516129 C53.4947077,39.516129 56.9677419,36.0430948 56.9677419,31.7741935 C56.9677419,27.5052923 53.4947077,24.0322581 49.2258065,24.0322581 C44.9569052,24.0322581 41.483871,27.5052923 41.483871,31.7741935 Z M48.1935484,40.4823588 L48.1935484,41.5806452 L50.2580645,41.5806452 L50.2580645,40.4823588 C49.9188508,40.5221774 49.5758568,40.5483871 49.2258065,40.5483871 C48.8757561,40.5483871 48.5327621,40.5221774 48.1935484,40.4823588 Z M45.5839214,52.4193548 L47.1612903,52.4193548 L47.1612903,46.3823085 L46.7205141,47.0438508 C46.2270665,47.7835181 45.546371,48.3848286 44.7510081,48.7822581 C44.0443548,49.1358367 43.2525201,49.3225806 42.4624496,49.3225806 L41.483871,49.3225806 L41.483871,48.2903226 L42.4624496,48.2903226 C43.0932459,48.2903226 43.7247984,48.141129 44.2895665,47.858871 C44.9243952,47.5418347 45.4679939,47.0625 45.8616432,46.4715222 L47.4012097,44.1612903 L50.516129,44.1612903 C51.3697077,44.1612903 52.0645161,43.4664819 52.0645161,42.6129032 L46.6161794,42.6129032 C46.3772681,42.6129032 46.1378528,42.6691028 45.9236391,42.7764617 L42.6668347,44.4054939 C42.3102319,44.5829133 41.9107863,44.6774194 41.5128528,44.6774194 L38.9032258,44.6774194 L38.9032258,50.8709677 L41.5128528,50.8709677 C41.9107863,50.8709677 42.3102319,50.9654738 42.6663306,51.1433972 L44.891381,52.2563004 C45.1055948,52.3631552 45.3450101,52.4193548 45.5839214,52.4193548 Z M48.1935484,53.9677419 L50.2580645,53.9677419 L50.2580645,53.3566028 C49.6587702,53.1428932 49.2258065,52.5751008 49.2258065,51.9032258 C49.2258065,51.5052923 49.3805444,51.1456653 49.6282762,50.8709677 C49.3810484,50.5962702 49.2258065,50.2366432 49.2258065,49.8387097 C49.2258065,49.4407762 49.3805444,49.0811492 49.6282762,48.8064516 C49.3810484,48.5317541 49.2258065,48.172127 49.2258065,47.7741935 C49.2258065,47.3762601 49.3805444,47.016633 49.6282762,46.7419355 C49.3810484,46.4672379 49.2258065,46.1076109 49.2258065,45.7096774 C49.2258065,45.5279738 49.2628528,45.3555948 49.3208165,45.1935484 L48.1935484,45.1935484 L48.1935484,53.9677419 Z M54.3870968,52.4193548 C54.671371,52.4193548 54.9032258,52.188004 54.9032258,51.9032258 C54.9032258,51.6184476 54.671371,51.3870968 54.3870968,51.3870968 L50.7741935,51.3870968 C50.4899194,51.3870968 50.2580645,51.6184476 50.2580645,51.9032258 C50.2580645,52.188004 50.4899194,52.4193548 50.7741935,52.4193548 L54.3870968,52.4193548 Z M51.4760585,27.7101814 C52.953377,28.5292339 53.8709677,30.0864415 53.8709677,31.7741935 L52.8387097,31.7741935 C52.8387097,30.4616935 52.125,29.249748 50.9755545,28.6123992 L51.4760585,27.7101814 Z M49.2258065,28.1612903 L49.2258065,27.1290323 C49.6179435,27.1290323 50.0083165,27.1786794 50.3860887,27.2752016 L50.1295363,28.2754536 C49.8354335,28.1995968 49.53125,28.1612903 49.2258065,28.1612903 Z M49.2258065,26.0967742 C47.8868448,26.0967742 46.5856855,26.5740928 45.5617439,27.4407762 L44.8949093,26.6537298 C46.1053427,25.6292843 47.6433972,25.0645161 49.2258065,25.0645161 C52.9254032,25.0645161 55.9354839,28.0745968 55.9354839,31.7741935 C55.9354839,33.3566028 55.3714717,34.8946573 54.3467742,36.1050907 L53.5592238,35.437752 C54.4259072,34.4135585 54.9032258,33.1131552 54.9032258,31.7741935 C54.9032258,28.6439012 52.3560988,26.0967742 49.2258065,26.0967742 Z M53.5567036,36.8946573 C52.3462702,37.9191028 50.8082157,38.483871 49.2258065,38.483871 C45.5262097,38.483871 42.516129,35.4737903 42.516129,31.7741935 C42.516129,30.1917843 43.0801412,28.6537298 44.1048387,27.4432964 L44.8923891,28.1106351 C44.0257057,29.1348286 43.5483871,30.4352319 43.5483871,31.7741935 C43.5483871,34.9044859 46.0955141,37.4516129 49.2258065,37.4516129 C50.5647681,37.4516129 51.8659274,36.9742943 52.889869,36.1076109 L53.5567036,36.8946573 Z M33.8203125,33.6864919 L33.5980343,34.3548387 L31.8213206,34.3548387 L31.5985383,33.6864919 C31.2789819,33.5977823 30.9727823,33.4707661 30.6834677,33.3072077 L30.0531754,33.6224799 L28.796875,32.3656754 L29.1121472,31.7353831 C28.9480846,31.4458165 28.8210685,31.139869 28.7323588,30.8203125 L28.0645161,30.5975303 L28.0645161,28.8213206 L28.7323588,28.5990423 C28.8215726,28.2794859 28.9485887,27.9735383 29.1121472,27.6839717 L28.796875,27.0531754 L30.0531754,25.796875 L30.6839717,26.1121472 C30.9735383,25.9485887 31.2794859,25.8215726 31.5990423,25.7328629 L31.8213206,25.0645161 L33.5980343,25.0645161 L33.8208165,25.7328629 C34.140373,25.8215726 34.4465726,25.9485887 34.7358871,26.1121472 L35.3661794,25.796875 L36.6224799,27.0531754 L36.3072077,27.6839717 C36.4712702,27.9727823 36.5982863,28.2794859 36.686996,28.5990423 L37.3548387,28.8218246 L37.3548387,30.5980343 L36.6864919,30.8203125 C36.5972782,31.139869 36.4702621,31.4453125 36.3067036,31.7353831 L36.6219758,32.3656754 L35.3656754,33.6224799 L34.7353831,33.3072077 C34.4458165,33.4707661 34.139869,33.5977823 33.8203125,33.6864919 Z M33.0264617,32.8039315 L33.3203125,32.7454637 C33.7157258,32.6660786 34.0871975,32.5128528 34.4241432,32.2878025 L34.6736391,32.1214717 L35.1622984,32.3666835 L35.3661794,32.1622984 L35.1214717,31.6731351 L35.2878025,31.4241432 C35.5123488,31.0866935 35.6665826,30.7157258 35.7454637,30.3203125 L35.8044355,30.0264617 L36.3225806,29.8540826 L36.3225806,29.5657762 L35.8044355,29.3928932 L35.7454637,29.0990423 C35.6665826,28.703125 35.5128528,28.3316532 35.2878025,27.9952117 L35.1214717,27.7462197 L35.3661794,27.2565524 L35.1622984,27.0526714 L34.6736391,27.2978831 L34.4241432,27.1315524 C34.0866935,26.906502 33.7157258,26.7527722 33.3203125,26.6738911 L33.0264617,26.6154234 L32.8535786,26.0967742 L32.5657762,26.0967742 L32.3928932,26.6154234 L32.0990423,26.6738911 C31.703629,26.7532762 31.3321573,26.906502 30.9952117,27.1315524 L30.7457157,27.2978831 L30.2570565,27.0526714 L30.0531754,27.2565524 L30.2978831,27.7462197 L30.1315524,27.9952117 C29.9070061,28.3321573 29.7527722,28.703125 29.6738911,29.0990423 L29.6149194,29.3928932 L29.0967742,29.5652722 L29.0967742,29.8535786 L29.6149194,30.0264617 L29.6738911,30.3203125 C29.7527722,30.7157258 29.906502,31.0871975 30.1315524,31.4241432 L30.2978831,31.6731351 L30.0531754,32.1622984 L30.2570565,32.3666835 L30.7457157,32.1214717 L30.9952117,32.2878025 C31.3326613,32.5128528 31.703629,32.6665826 32.0990423,32.7454637 L32.3928932,32.8039315 L32.5657762,33.3225806 L32.8535786,33.3225806 L33.0264617,32.8039315 Z M32.7096774,27.6451613 C33.8482863,27.6451613 34.7741935,28.5710685 34.7741935,29.7096774 C34.7741935,30.8482863 33.8482863,31.7741935 32.7096774,31.7741935 C31.5710685,31.7741935 30.6451613,30.8482863 30.6451613,29.7096774 C30.6451613,28.5710685 31.5710685,27.6451613 32.7096774,27.6451613 Z M32.7096774,30.7419355 C33.2789819,30.7419355 33.7419355,30.2789819 33.7419355,29.7096774 C33.7419355,29.140373 33.2789819,28.6774194 32.7096774,28.6774194 C32.140373,28.6774194 31.6774194,29.140373 31.6774194,29.7096774 C31.6774194,30.2789819 32.140373,30.7419355 32.7096774,30.7419355 Z M36.3225806,39 L32.8815524,36.4193548 L26,36.4193548 L26,23 L39.4193548,23 L39.4193548,36.4193548 L36.3225806,36.4193548 L36.3225806,39 Z M27.0322581,24.0322581 L27.0322581,35.3870968 L33.2258065,35.3870968 L35.2903226,36.9354839 L35.2903226,35.3870968 L38.3870968,35.3870968 L38.3870968,24.0322581 L27.0322581,24.0322581 Z M26,40.5483871 L27.0322581,40.5483871 L27.0322581,41.5806452 L26,41.5806452 L26,40.5483871 Z M28.0645161,40.5483871 L29.0967742,40.5483871 L29.0967742,41.5806452 L28.0645161,41.5806452 L28.0645161,40.5483871 Z M30.1290323,40.5483871 L31.1612903,40.5483871 L31.1612903,41.5806452 L30.1290323,41.5806452 L30.1290323,40.5483871 Z M28.0645161,42.6129032 L29.0967742,42.6129032 L29.0967742,43.6451613 L28.0645161,43.6451613 L28.0645161,42.6129032 Z M30.1290323,42.6129032 L31.1612903,42.6129032 L31.1612903,43.6451613 L30.1290323,43.6451613 L30.1290323,42.6129032 Z M26,53.9677419 L27.0322581,53.9677419 L27.0322581,55 L26,55 L26,53.9677419 Z M28.0645161,53.9677419 L29.0967742,53.9677419 L29.0967742,55 L28.0645161,55 L28.0645161,53.9677419 Z M30.1290323,53.9677419 L31.1612903,53.9677419 L31.1612903,55 L30.1290323,55 L30.1290323,53.9677419 Z M28.0645161,51.9032258 L29.0967742,51.9032258 L29.0967742,52.9354839 L28.0645161,52.9354839 L28.0645161,51.9032258 Z M30.1290323,51.9032258 L31.1612903,51.9032258 L31.1612903,52.9354839 L30.1290323,52.9354839 L30.1290323,51.9032258 Z" id="Combined-Shape" fill="#FB4273" fill-rule="nonzero"></path>
    </g>
</svg>