<?xml version="1.0" encoding="UTF-8"?>
<svg width="183px" height="157px" viewBox="0 0 183 157" version="1.1" xmlns="http://www.w3.org/2000/svg" xmlns:xlink="http://www.w3.org/1999/xlink">
    <!-- Generator: Sketch 54.1 (76490) - https://sketchapp.com -->
    <title>demo</title>
    <desc>Created with Sketch.</desc>
    <defs>
        <linearGradient x1="50.0076061%" y1="100.018553%" x2="50.0076061%" y2="-0.0145695178%" id="linearGradient-1">
            <stop stop-color="#808080" stop-opacity="0.25" offset="0%"></stop>
            <stop stop-color="#808080" stop-opacity="0.12" offset="54%"></stop>
            <stop stop-color="#808080" stop-opacity="0.1" offset="100%"></stop>
        </linearGradient>
        <linearGradient x1="50.0178361%" y1="99.9902032%" x2="50.0178361%" y2="-0.00902640557%" id="linearGradient-2">
            <stop stop-color="#808080" stop-opacity="0.25" offset="0%"></stop>
            <stop stop-color="#808080" stop-opacity="0.12" offset="54%"></stop>
            <stop stop-color="#808080" stop-opacity="0.1" offset="100%"></stop>
        </linearGradient>
    </defs>
    <g id="demo" stroke="none" stroke-width="1" fill="none" fill-rule="evenodd">
        <rect fill="#FFFFFF" x="0" y="0" width="183" height="157"></rect>
        <g id="undraw_growth_analytics_8btt" transform="translate(0.000000, 13.000000)">
            <path d="M73.8034728,9.77483463 L71.0406712,11.5282879 L72.7175778,8.47710117 C72.242741,8.09824211 71.6552007,7.88840627 71.0477918,7.88074903 L71.0032879,7.88074903 C70.8113795,7.88421096 70.6195459,7.87050856 70.4300778,7.83980545 L69.493716,8.43259728 L69.894251,7.70273346 C69.2305433,7.47054822 68.657286,7.03437423 68.2565078,6.45662451 L66.5813813,7.5247179 L67.6459144,5.59680934 C66.6668288,4.42190661 65.3459533,3.69916342 63.8915661,3.69916342 C62.1487938,3.69916342 60.5964981,4.73699416 59.5942704,6.35159533 C58.990844,7.33866908 57.9021932,7.92381886 56.7460214,7.88252918 L56.6534533,7.88252918 C54.7291051,7.88252918 53.1696887,10.065 53.1696887,12.7548152 C53.1696887,15.4446304 54.7291051,17.6271012 56.6534533,17.6271012 C57.076048,17.6255244 57.4919832,17.5216932 57.8657393,17.3244747 C59.120749,16.6711576 60.7691732,16.6586965 62.082928,17.2408074 C63.2237818,17.749932 64.5273077,17.749932 65.6681615,17.2408074 C67.0066241,16.6607076 68.5309447,16.689934 69.8461868,17.3209144 C70.2172327,17.5145488 70.629263,17.6164881 71.0477918,17.6182004 C72.9721401,17.6182004 74.5315564,15.4375097 74.5315564,12.7459144 C74.5412639,11.7102367 74.2909244,10.6886801 73.8034728,9.77483463 Z" id="Path" fill="#F2F2F2" fill-rule="nonzero"></path>
            <path d="M68.5965175,16.904358 C67.5911574,16.7136349 66.55176,16.8270575 65.6111965,17.2301265 C64.4709464,17.7391728 63.1679933,17.7391728 62.0277432,17.2301265 C60.6779379,16.6380954 59.1363594,16.6680289 57.8105545,17.3120136 C57.437238,17.5105869 57.0211097,17.6150773 56.5982685,17.6164202 C54.8875389,17.6164202 53.4669747,15.8950097 53.1696887,13.6235311 C53.5112913,13.3741113 53.8014419,13.0609904 54.0241634,12.7014105 C55.0263911,11.0868093 56.5786868,10.0507588 58.3214591,10.0507588 C60.0642315,10.0507588 61.5987257,11.0743482 62.5938327,12.672928 C63.2020451,13.6539311 64.2790065,14.2454159 65.4331809,14.2323444 L65.4776848,14.2323444 C66.8448444,14.2234436 68.0233074,15.314679 68.5965175,16.904358 Z" id="Path" fill="#000000" fill-rule="nonzero" opacity="0.03"></path>
            <path d="M50.2235311,85.6735506 L49.1038132,84.9775097 C48.9970039,84.911644 48.8919747,84.8404377 48.7851654,84.7727918 C53.6934577,83.928415 57.3622185,79.7968172 57.6202438,74.8231134 C57.8782691,69.8494097 54.6567294,65.3603577 49.8621595,64.0126167 L49.9173444,68.4024805 L47.5052335,63.626323 L47.4749708,63.626323 C41.5972393,63.3535182 36.6104946,67.8956154 36.3347568,73.7732101 C36.3240759,73.977928 36.3347568,74.1773054 36.3347568,74.378463 C35.4963035,73.4207393 34.7326167,72.3935895 34.2288327,71.2685311 C33.2088035,68.9917121 33.1892218,66.4122665 33.2693288,63.2756323 C33.4295428,57.0628891 33.6983463,50.8003016 34.0472568,44.5590759 C39.2505619,43.9797676 43.2619146,39.7058207 43.5105642,34.4762743 C43.5248054,34.1505058 43.519465,33.8300778 43.5105642,33.5096498 C43.5105642,33.4295428 43.5105642,33.351216 43.4981031,33.2711089 C43.4767412,32.9613619 43.4482588,32.6551751 43.4001946,32.3525486 C43.4001946,32.3027043 43.382393,32.2546401 43.3734922,32.2065759 C43.3307685,31.9502335 43.2773638,31.6974514 43.2168385,31.4482296 C43.1936965,31.3538813 43.1705545,31.2613132 43.1456323,31.1687451 C43.0708658,30.8963813 42.9889786,30.6346984 42.8928502,30.3641148 C42.8608074,30.2768872 42.8234241,30.1860992 42.7896012,30.1042121 C42.7148346,29.9101751 42.6329475,29.7179183 42.5457198,29.5292218 C42.4994358,29.4295331 42.4549319,29.3298444 42.4068677,29.2319358 C42.3926265,29.2070136 42.3837257,29.1803113 42.3694844,29.1553891 L42.3694844,29.1553891 C40.0478521,24.5728911 34.7864795,22.30005 29.8585506,23.7508366 L29.9297568,29.4651362 L27.5443482,24.7441634 C23.5187266,27.0461917 21.4558145,31.696937 22.451323,36.2261673 L22.440642,36.2261673 C22.4566634,36.302714 22.4798054,36.3757004 22.497607,36.4504669 C22.53143,36.5910992 22.5670331,36.7299514 22.6061965,36.8688035 C22.6560409,37.0468191 22.7130058,37.2248346 22.771751,37.4028502 C22.8162549,37.5345817 22.8589786,37.6645331 22.908823,37.7944844 C22.9818093,37.9831809 23.0636965,38.166537 23.1455837,38.349893 C23.1936479,38.4567023 23.2363716,38.567072 23.2879961,38.6721012 C23.4232879,38.9474319 23.5704475,39.2162354 23.7294747,39.4785117 C23.7846595,39.5710798 23.846965,39.6565272 23.9074903,39.7473152 C24.0214202,39.9253307 24.1353502,40.1033463 24.2635214,40.2689008 C24.3400681,40.37393 24.4219553,40.4753988 24.5020623,40.5768677 C24.6195525,40.7246206 24.738823,40.8705934 24.8580934,41.0112257 C24.945321,41.1126946 25.0361089,41.2106031 25.1268969,41.3067315 C25.2586284,41.4455837 25.3921401,41.5790953 25.5309922,41.7090467 C25.6235603,41.7962743 25.7090078,41.8870623 25.8104767,41.9689494 C25.9671304,42.1095817 26.1309047,42.2413132 26.2964591,42.3712646 C26.3801265,42.4371304 26.4620136,42.5047763 26.5474611,42.5688619 C26.8002432,42.7468774 27.0601459,42.924893 27.3289494,43.1029086 C27.3787938,43.1331712 27.4339786,43.1580934 27.483823,43.188356 C27.7099027,43.3200875 27.9377626,43.4464786 28.1727432,43.5604086 C28.2742121,43.6102529 28.3774611,43.6547568 28.4807101,43.7010409 C28.6729669,43.7864883 28.8670039,43.8701556 29.0663813,43.9467023 L29.4224125,44.0713132 C29.6182296,44.137179 29.817607,44.1994844 30.0187646,44.2493288 C30.1362549,44.2813716 30.2555253,44.3151946 30.3747957,44.343677 C30.5919747,44.3953016 30.8144942,44.4380253 31.0387938,44.4771887 L31.0815175,44.4860895 C30.9355447,47.1195331 30.805,49.75357 30.6898833,52.3882004 C29.4066739,49.7513238 27.0930144,47.7602035 24.2943612,46.8842557 C21.495708,46.0083079 18.4597143,46.3250454 15.9021304,47.7597957 L17.785535,52.9222471 L13.9101362,49.2017218 C11.8325019,51.1015043 10.5941749,53.7484762 10.4673152,56.5608852 C10.4178593,57.5472577 10.5089664,58.5356504 10.7378988,59.4963619 C11.7374051,63.7465756 15.2293093,66.9565382 19.5484536,67.5955392 C23.8675979,68.2345402 28.1393736,66.1731845 30.3267315,62.3944553 C30.3267315,62.6614786 30.30893,62.9285019 30.3018093,63.1973054 C30.2306031,65.9636673 30.1415953,69.4064883 31.521216,72.4808171 C32.4557977,74.5635992 33.958249,76.2565272 35.4375584,77.7732198 C36.4041829,78.7594261 37.4064105,79.7153696 38.4335603,80.6392704 C39.44484,81.9968542 40.7638846,83.0950413 42.2822568,83.8435506 C43.9698444,85.1430642 45.7179572,86.3660311 47.5248152,87.4946498 L48.6534339,88.1960311 C49.6681226,88.8244261 50.7077335,89.4706226 51.7259825,90.1417412 C51.5479669,90.1239397 51.3699514,90.104358 51.1919358,90.0954572 C46.5562719,89.8794788 42.3133719,92.6869627 40.6996984,97.0380642 L47.3610409,102.447957 L40.0374805,100.749689 C40.0414928,104.412503 41.9255029,107.816813 45.0269678,109.765438 C48.1284326,111.714063 52.0130673,111.934145 55.3147763,110.348288 L54.8287938,110.962442 C54.5012451,111.369504 54.1778502,111.774193 53.8586089,112.176508 C49.5257101,117.664728 48.3205447,122.873463 50.4656323,126.84499 L53.0753405,125.436887 C50.9783171,121.570389 54.1167315,116.621556 56.1763716,114.018969 C56.489679,113.623774 56.8077335,113.226206 57.130535,112.826265 C59.898677,109.387004 63.0353113,105.488463 62.9587646,100.706965 C62.8394942,93.4955545 55.8452626,89.1590953 50.2235311,85.6735506 Z" id="Path" fill="#F2F2F2" fill-rule="nonzero"></path>
            <path d="M98.4550681,77.7945817 L99.8507101,76.9258658 C99.9842218,76.8421984 100.114173,76.7478502 100.247685,76.6695233 C94.0986502,75.6121301 89.5119617,70.4212869 89.2196206,64.1888521 C89.1185955,62.1089486 89.5120882,60.0347238 90.367821,58.136323 C91.983772,54.5360069 95.1134699,51.8379464 98.9125681,50.7700389 L98.843142,56.2475778 L101.846265,50.2893969 L101.881868,50.2893969 C109.21685,49.9481491 115.44011,55.616743 115.783103,62.951644 C115.795564,63.2062062 115.783103,63.455428 115.783103,63.70643 C116.831615,62.5119455 117.782218,61.2302335 118.410613,59.8274708 C119.685204,56.9792218 119.710126,53.7749416 119.608658,49.8585992 C119.40928,42.1060214 119.074611,34.2946984 118.638473,26.5082977 C112.146305,25.7859194 107.141512,20.4528572 106.832481,13.9279377 C106.814679,13.5220623 106.820019,13.1215272 106.832481,12.7227724 C106.832481,12.6230837 106.837821,12.5233949 106.848502,12.4237062 C106.873424,12.0374125 106.910807,11.654679 106.967772,11.2790661 C106.976673,11.2167607 106.990914,11.1562354 107.001595,11.1010506 C107.056187,10.7806226 107.122053,10.4649416 107.199193,10.1540078 C107.227675,10.0382977 107.256158,9.92080739 107.28642,9.79797665 C107.380768,9.45974708 107.482237,9.12329767 107.601508,8.79574903 C107.640671,8.68537938 107.686955,8.58035019 107.729679,8.4717607 C107.825807,8.22787938 107.927276,7.98933852 108.035866,7.75969844 C108.092831,7.6368677 108.148016,7.51225681 108.213881,7.38942607 C108.228123,7.35916342 108.242364,7.32534047 108.258385,7.29507782 L108.258385,7.29507782 C111.152318,1.57543019 117.718836,-1.26072436 123.86679,0.553628405 L123.777782,7.67425097 L126.754202,1.78549611 C131.776459,4.65728685 134.348284,10.4608408 133.102237,16.1104086 L133.116479,16.1104086 C133.096897,16.2047568 133.066634,16.2884241 133.045272,16.389893 C133.002549,16.5679086 132.958045,16.7459241 132.909981,16.9114786 C132.847675,17.1339981 132.776469,17.351177 132.703482,17.568356 C132.648298,17.7321304 132.594893,17.8959047 132.525467,18.0578988 C132.434679,18.2928794 132.33321,18.5225195 132.229961,18.7503794 C132.169436,18.8838911 132.116031,19.020963 132.051946,19.1526946 C131.87393,19.4962646 131.695914,19.832714 131.501877,20.1584825 C131.434232,20.2741926 131.355905,20.3827821 131.282918,20.4949319 C131.140506,20.7156712 130.996313,20.9328502 130.84144,21.1446887 C130.745311,21.2764202 130.643842,21.4010311 130.544154,21.5292023 C130.398181,21.7072179 130.250428,21.8959144 130.093774,22.0721498 C129.984591,22.1908268 129.872442,22.3136576 129.757325,22.440642 C129.595331,22.6186576 129.426216,22.7788716 129.255321,22.9426459 C129.139611,23.0512354 129.025681,23.1616051 128.89929,23.2666342 C128.701693,23.4446498 128.498755,23.6048638 128.290477,23.766858 C128.187228,23.8487451 128.085759,23.9359728 127.978949,24.0142996 C127.663862,24.2457198 127.339874,24.4664591 127.003424,24.671177 C126.941119,24.7085603 126.873473,24.7406031 126.809387,24.7779864 C126.530496,24.9441342 126.244484,25.0990078 125.951352,25.242607 C125.824961,25.3049125 125.69501,25.3583171 125.566839,25.4206226 C125.326518,25.5292121 125.084416,25.6324611 124.836975,25.7268093 C124.691002,25.7819942 124.545029,25.8336187 124.399056,25.883463 C124.153395,25.9671304 123.905953,26.0418969 123.654951,26.111323 C123.507198,26.1522665 123.359446,26.1932101 123.208132,26.2305934 C122.935768,26.294679 122.659844,26.3480837 122.38036,26.3961479 L122.325175,26.4068288 C122.510311,29.6929961 122.673492,32.9797568 122.814718,36.2671109 C124.415927,32.9775111 127.30302,30.4939624 130.794958,29.4023105 C134.286896,28.3106586 138.074479,28.7075662 141.264251,30.4994066 L138.930467,36.9382296 L143.763589,32.2973638 C146.356004,34.6668655 147.901116,37.9690386 148.059105,41.4776265 C148.12005,42.703855 148.006772,43.9325299 147.722656,45.1269455 C146.478903,50.4333706 142.121494,54.4426167 136.730081,55.2411992 C131.338668,56.0397816 126.006146,53.4658194 123.277558,48.7477821 C123.277558,49.0806712 123.3007,49.4171206 123.309601,49.7500097 C123.398609,53.2017315 123.508979,57.4972471 121.789348,61.3317023 C120.623346,63.9325097 118.747062,66.0419942 116.89214,67.9342996 C115.685195,69.1661673 114.439086,70.3582782 113.153813,71.5106323 C111.890368,73.2033333 110.243043,74.5718333 108.347393,75.5035214 C106.241469,77.1252432 104.060778,78.6508366 101.807101,80.0607198 L100.400778,80.9383366 C99.1350875,81.7216051 97.8391342,82.5280156 96.566323,83.3646887 C96.7906226,83.3433268 97.0113619,83.3184047 97.2392218,83.3077237 C103.02075,83.0376684 108.313297,86.5372419 110.328706,91.9628405 L102.0225,98.7274319 L111.160039,96.6108268 C111.153617,101.180327 108.802387,105.426741 104.932905,107.857273 C101.063423,110.287805 96.2172917,110.562259 92.0981323,108.584154 C92.3046304,108.840496 92.5093482,109.096839 92.7158463,109.351401 C93.1235019,109.858745 93.5311576,110.364309 93.9281323,110.866313 C99.3326848,117.711012 100.836916,124.217481 98.1595623,129.166313 L94.9054377,127.4093 C97.5098054,122.585078 93.5916829,116.411498 91.0229183,113.168054 C90.6330642,112.674951 90.2343093,112.178288 89.8337743,111.679844 C86.3802724,107.389669 82.4657101,102.526284 82.5618385,96.5609825 C82.7095914,87.5516148 91.4394747,82.1417218 98.4550681,77.7945817 Z" id="Path" fill="#F2F2F2" fill-rule="nonzero"></path>
            <path d="M156.415156,33.5043093 L156.415156,95.9130058 C156.415156,96.2534091 156.279931,96.5798704 156.039229,96.8205719 C155.798528,97.0612734 155.472067,97.1964981 155.131663,97.1964981 L27.9235214,97.1964981 C27.5832816,97.1964984 27.257003,97.0612169 27.0165841,96.8204641 C26.7761653,96.5797113 26.6413368,96.2532453 26.6418093,95.9130058 L26.6418093,33.5043093 C26.6413368,33.1640698 26.7761653,32.8376038 27.0165841,32.5968511 C27.257003,32.3560983 27.5832816,32.2208168 27.9235214,32.2208171 L155.131663,32.2208171 C155.840517,32.2208171 156.415156,32.7954562 156.415156,33.5043093 Z" id="Path" fill="#3F3D56" fill-rule="nonzero"></path>
            <path d="M156.415156,33.077072 L156.415156,35.959144 L26.6418093,35.959144 L26.6418093,33.077072 C26.6418093,32.6041755 27.0251677,32.2208171 27.4980642,32.2208171 L155.558901,32.2208171 C156.031797,32.2208171 156.415156,32.6041755 156.415156,33.077072 Z" id="Path" fill="#CBCEDA" fill-rule="nonzero"></path>
            <circle id="Oval" fill="#FB4275" fill-rule="nonzero" cx="29.4900584" cy="34.0009728" r="1"></circle>
            <circle id="Oval" fill="#FB4275" fill-rule="nonzero" cx="31.9822763" cy="34.0009728" r="1"></circle>
            <circle id="Oval" fill="#FB4275" fill-rule="nonzero" cx="34.4744942" cy="34.0009728" r="1"></circle>
            <path d="M135.555292,77.7874611 L135.555292,88.5004377 L47.4019844,88.5485019 L47.3218774,67.1332296 C48.2528988,69.8764494 50.5510798,70.3695525 54.5973735,65.5310895 C64.4861381,53.721537 77.9280934,50.6133852 88.3331031,50.2876167 C95.4537257,50.0633171 102.558327,51.5337257 109.33894,54.4549611 C112.155146,55.6708074 123.284679,56.9792218 130.629601,57.5631128 C133.393799,57.7810329 135.527669,60.0845277 135.53393,62.8572957 L135.555292,77.7874611 Z" id="Path" fill="#FB4275" fill-rule="nonzero" opacity="0.2"></path>
            <path d="M135.555292,67.3112451 L135.555292,88.6019066 L47.3218774,88.6019066 L47.3218774,83.9735019 C49.844358,83.3379864 59.2791829,80.8938327 63.8025584,74.1434825 C69.2142315,66.0615759 76.5698346,63.93607 82.2609922,63.7135506 C86.1613132,63.558677 90.0438327,64.5609047 93.7501167,66.5617996 C97.9192412,68.8119163 105.956644,71.5266537 112.062578,63.6459047 C118.816488,54.9320428 129.191235,62.1131907 131.822305,64.7531615 C132.762228,65.685963 135.555292,67.3112451 135.555292,67.3112451 Z" id="Path" fill="#FB4275" fill-rule="nonzero" opacity="0.2"></path>
            <polyline id="Path" stroke="#FB4275" stroke-width="2" points="47.3218774 44.731751 47.3218774 88.2672374 135.555292 88.2672374"></polyline>
            <path d="M58.4389494,88.2672374 L58.4389494,61.7268969" id="Path" stroke="#FB4275"></path>
            <path d="M69.1483658,88.2672374 L69.1483658,54.6276362" id="Path" stroke="#FB4275"></path>
            <path d="M79.8577821,88.2672374 L79.8577821,51.2506809" id="Path" stroke="#FB4275"></path>
            <path d="M90.5671984,88.2672374 L90.5671984,50.2039494" id="Path" stroke="#FB4275"></path>
            <path d="M101.276615,88.2672374 L101.276615,51.3681712" id="Path" stroke="#FB4275"></path>
            <path d="M111.986031,88.2672374 L111.986031,55.6743677" id="Path" stroke="#FB4275"></path>
            <path d="M122.695447,88.2672374 L122.695447,57.885321" id="Path" stroke="#FB4275"></path>
            <circle id="Oval" fill="#FB4275" fill-rule="nonzero" cx="58.3802043" cy="61.3779864" r="1.97953307"></circle>
            <circle id="Oval" fill="#FB4275" fill-rule="nonzero" cx="69.0896206" cy="54.6276362" r="1.97953307"></circle>
            <circle id="Oval" fill="#FB4275" fill-rule="nonzero" cx="79.799037" cy="51.3681712" r="1.97953307"></circle>
            <circle id="Oval" fill="#FB4275" fill-rule="nonzero" cx="90.5066732" cy="50.2039494" r="1.97953307"></circle>
            <circle id="Oval" fill="#FB4275" fill-rule="nonzero" cx="101.216089" cy="51.3681712" r="1.97953307"></circle>
            <circle id="Oval" fill="#FB4275" fill-rule="nonzero" cx="111.925506" cy="55.7900778" r="1.97953307"></circle>
            <circle id="Oval" fill="#FB4275" fill-rule="nonzero" cx="122.634922" cy="58.1185214" r="1.97953307"></circle>
            <ellipse id="Oval" fill="#3F3D56" fill-rule="nonzero" cx="91.5" cy="127.815175" rx="91.5" ry="3.73832685"></ellipse>
            <path d="M10.2430156,62.7896498 C10.23588,62.9438512 10.1859514,63.0930205 10.098823,63.2204475 C10.8108852,63.1990856 11.4428405,62.7309047 12.0997179,62.5083852 C11.9822276,63.1990856 12.0997179,64.0179572 12.1887257,64.6054086 C12.2745764,65.1751866 12.4164909,65.7350929 12.6124027,66.2769747 C13.0627821,68.2120039 13.8834339,70.1149903 14.6186381,71.9734728 C14.9355799,72.7101122 15.1742442,73.4780147 15.3307004,74.2645331 C15.8309241,77.2640953 14.1006128,80.165749 13.7730642,83.1866732 C13.7481165,83.3530779 13.7481165,83.5222723 13.7730642,83.688677 C13.7436206,83.7197895 13.7173797,83.7537834 13.6947374,83.7901459 C12.4860117,85.6450681 12.6426654,88.7496595 12.8598444,90.9463716 C13.0770233,93.1430837 13.7730642,95.2614689 14.4299416,97.3709533 C14.6256427,97.9523897 14.7785507,98.5473624 14.8874416,99.1511089 C14.9918104,99.9777723 15.008518,100.813151 14.937286,101.643327 C14.720107,105.508045 14.1753794,109.406586 14.8180156,113.214339 C15.2861965,115.989601 16.3080058,118.513862 16.4201556,121.324728 C16.5048963,121.11727 16.6393972,120.93386 16.8117899,120.790681 L17.0040467,128.172986 C16.9860841,128.312844 17.037993,128.452599 17.1428988,128.546819 C17.2799708,128.634047 17.4579864,128.546819 17.6199805,128.523677 C18.0899416,128.466712 18.3907879,128.977617 18.7023152,129.331868 C19.1704961,129.865914 19.8914591,130.118696 20.5981809,130.173881 C21.3096219,130.200514 22.021544,130.135903 22.7165661,129.981625 C23.0423346,129.922879 23.3876848,129.855233 23.6315661,129.625593 C23.8845921,129.36776 23.9996295,129.004798 23.9413132,128.648288 C23.8024611,127.560613 22.6311187,126.941119 22.0418872,126.013658 C21.3458463,124.917082 21.5078405,123.448453 20.827821,122.339416 C20.5946206,121.960243 20.2724125,121.639815 20.0641342,121.246401 C19.9590715,121.004003 19.8762505,120.752561 19.8166926,120.495175 C20.0280482,120.558934 20.2285165,120.654367 20.4112646,120.77822 C20.347179,120.201449 20.2813132,119.622899 20.2172276,119.044348 L20.1887451,118.795126 C20.1015175,118.013638 20.0107296,117.23393 19.946644,116.450661 C19.7276848,113.872996 20.4593288,111.346955 19.946644,108.810233 C19.8398346,108.276187 20.0107296,107.718998 20.1691634,107.193852 C21.0692561,104.202236 21.6182672,101.116064 21.8051265,97.9975681 C21.8692121,96.8974319 21.8674319,95.8364591 22.2199027,94.7932879 C22.6328988,96.475535 23.9092704,97.801751 24.7121206,99.3451459 C25.2070039,100.30643 25.5149708,101.356722 26.054358,102.293084 C26.3142607,102.748804 26.6311284,103.183161 26.7966829,103.678045 C27.0530253,104.452412 26.9177335,105.292646 26.7966829,106.100837 C26.2181323,110.284202 26.2857782,114.542335 26.4709144,118.761304 C26.2950976,120.375682 25.9238883,121.962736 25.3654377,123.487617 C25.1446984,124.089309 24.9043774,124.790691 25.2461673,125.333638 C25.3903229,125.532716 25.5716794,125.701982 25.780214,125.832082 C26.2861823,126.191975 26.8181253,126.513878 27.3716732,126.795146 C27.5360976,126.90313 27.7337808,126.948604 27.9288619,126.923317 C28.0498794,126.881242 28.1638935,126.821234 28.2670914,126.745302 C28.6996693,126.485399 29.2586381,126.526342 29.7357198,126.693677 C30.2128016,126.861012 30.6435992,127.140496 31.1064397,127.341654 C32.0767438,127.758805 33.1596533,127.835349 34.1789883,127.558833 C34.609786,127.439562 35.0690661,127.211702 35.2025778,126.789805 C35.3360895,126.367909 35.090428,125.92287 34.7504183,125.645165 C34.4104086,125.367461 33.9902918,125.217928 33.6004377,125.01499 C32.746022,124.569418 32.0484173,123.873056 31.601323,123.019436 C31.3326795,122.456461 31.1215509,121.867806 30.9711479,121.262422 C30.7646498,120.536119 30.5587451,119.809815 30.3534339,119.083512 C30.4706756,119.160619 30.5824941,119.245673 30.6881031,119.338074 C30.9782685,115.74216 31.2719942,112.135564 32.0428016,108.610856 C32.4112938,106.925049 32.8919358,105.217879 32.7050195,103.503589 C32.6071109,102.602831 32.3258463,101.732335 32.058823,100.865399 C31.2280837,98.160749 30.5005934,95.4276167 29.8763521,92.6660019 C30.1090737,92.4057664 30.2902953,92.1037304 30.4103988,91.7759241 C30.6107013,91.1662561 30.7204599,90.5304959 30.7361673,89.8889591 C31.0347775,85.5619594 31.0228793,81.2191216 30.7005642,76.893823 C30.618677,75.7972471 30.4905058,74.6454864 30.0597082,73.6485992 L30.3124903,73.6485992 C30.011644,73.6485992 29.520321,70.6614981 29.4615759,70.3286089 C29.2604183,69.1750681 29.119786,68.0144066 28.9115078,66.8626459 C28.8100389,66.3018969 28.6961089,65.7411479 28.5554767,65.1892996 C28.4593482,64.8225875 28.0748346,62.5457685 27.7686479,62.2912062 C27.7357235,62.2637899 27.6984101,62.242124 27.6582782,62.2271206 C27.5046846,61.7155155 27.1682236,61.2783063 26.7130156,60.9988132 C26.2199125,60.7211089 25.6324611,60.7122082 25.0574708,60.7567121 C24.8948833,60.519358 24.7322957,60.2849708 24.5697082,60.0535506 C24.2709671,59.6701147 24.0425421,59.2367701 23.8950292,58.7736187 C23.848973,58.5796724 23.8215527,58.3817693 23.813142,58.182607 C23.813142,58.0490953 23.8042412,57.9155837 23.7989008,57.782072 C23.7989008,57.7144261 23.7989008,57.6485603 23.7989008,57.5809144 C23.7926883,57.4478482 23.7784209,57.3152805 23.756177,57.1839397 L23.756177,57.1839397 C23.7383755,57.0753502 23.7116732,56.970321 23.6831907,56.8635117 C23.6707296,56.8190078 23.6547082,56.7727237 23.6404669,56.7282198 C23.5585798,56.4594163 23.4624514,56.1941732 23.3912451,55.9235895 C23.172286,55.0495331 23.2826556,54.1327529 23.3164786,53.2319942 C23.3503016,52.3312354 23.2915564,51.377072 22.7824319,50.6258463 C22.4103794,50.0739981 21.8140272,49.6556615 21.6146498,49.0237062 C21.5203016,48.7228599 21.525642,48.391751 21.3867899,48.1069261 C21.2064473,47.790294 20.9183751,47.5489704 20.5750389,47.4269066 C20.1727237,47.2488911 19.3645331,47.0139105 18.9319553,47.2221887 C18.8508739,47.2624589 18.7792737,47.3194964 18.7218969,47.3895233 C18.2643969,47.4126654 17.8033366,47.4749708 17.4010214,47.2738132 C17.0912743,47.1189397 16.8669747,46.825214 16.5661284,46.6560992 C15.8540661,46.2573444 14.9461868,46.6560992 14.3124514,47.1759047 C13.3050531,48.0011531 12.5688749,49.1100718 12.1994066,50.358823 C11.918142,51.3218872 11.8042121,52.4469455 10.9978016,53.0539786 C10.6631323,53.3049805 10.2323346,53.4438327 9.98845331,53.7802821 C9.82251804,54.0541116 9.73050951,54.3663272 9.72142996,54.6863813 C9.63776265,55.4162451 9.56833658,56.1674708 9.76237354,56.8759728 C9.9083463,57.4100195 10.1949514,57.8871012 10.3729669,58.4069066 C10.857612,59.908849 10.4214344,61.5554716 9.25680934,62.620535 C9.55099004,62.8031534 9.90479989,62.8638248 10.2430156,62.7896498 L10.2430156,62.7896498 Z M27.3609922,84.3882782 C27.8513732,84.1227747 28.2017043,83.6567498 28.3204961,83.1119066 C28.3400778,83.1813327 28.3560992,83.2507588 28.3739008,83.3201848 C28.6022912,84.2497257 28.5559102,85.2255808 28.2403891,86.1292704 C28.0040866,85.5219386 27.7095826,84.938892 27.3609922,84.3882782 L27.3609922,84.3882782 Z M27.7170233,80.4470136 C27.4204775,80.0219701 27.1698537,79.56667 26.969358,79.0887549 C26.695214,78.3197276 26.7575195,77.4866148 26.8233852,76.6641829 C26.8585764,76.0434914 26.9443078,75.4267017 27.0797276,74.8199416 C27.158374,76.7086432 27.3731433,78.5892128 27.7223638,80.4470136 L27.7170233,80.4470136 Z" id="Shape" fill="url(#linearGradient-1)" fill-rule="nonzero"></path>
            <path d="M20.827821,47.8968677 C21.1658784,48.0189936 21.4488724,48.2584014 21.6253307,48.5715467 C21.7606226,48.8545914 21.7570623,49.1839202 21.8496304,49.4829864 C22.0454475,50.1131615 22.6328988,50.5297179 22.9960506,51.0851265 C23.4909339,51.8310117 23.549679,52.7816148 23.515856,53.6752529 C23.4820331,54.5688911 23.3752237,55.4821109 23.5906226,56.3454864 C23.6956518,56.7673833 23.8772276,57.1714786 23.9466537,57.6004961 C24.0356615,58.1238619 23.9608949,58.6685895 24.0908463,59.1830545 C24.2353707,59.6426239 24.4601779,60.0729518 24.7548444,60.4540856 L25.9137257,62.1487938 C25.396215,62.0243786 24.8867446,61.8686246 24.3881323,61.682393 C24.5421018,62.1665519 24.828168,62.5981173 25.2141245,62.9285019 L24.3756712,61.9138132 C24.2057499,61.680476 23.9945923,61.4801779 23.7526167,61.3228016 C23.4446498,61.144786 23.0814981,61.1198638 22.7361479,61.0504377 C22.0703696,60.9151459 21.4063716,60.5751362 21.0806031,59.9823444 C20.6480253,59.1848346 20.9239494,58.1843872 20.6836284,57.3121109 C20.5056128,56.6748152 20.0676946,56.1496693 19.7650681,55.5604377 C19.0814883,54.2306615 19.1224319,52.6605642 18.9088132,51.1776946 C18.8180253,50.5492996 18.677393,49.9315856 18.6738327,49.2871693 C18.6738327,48.8189883 18.7201167,47.9253502 19.2078794,47.6850292 C19.6368969,47.4856518 20.4308463,47.7277529 20.827821,47.8968677 Z" id="Path" fill="#3F3D56" fill-rule="nonzero"></path>
            <path d="M30.1593969,118.15071 L31.0494747,121.314047 C31.1967681,121.915495 31.4043153,122.500563 31.6689689,123.060379 C32.1031899,123.906804 32.786674,124.599608 33.6271401,125.045253 C34.0098735,125.246411 34.4246498,125.401284 34.7575389,125.671868 C35.090428,125.942451 35.3289689,126.396391 35.2007977,126.809387 C35.0726265,127.222383 34.6186868,127.455584 34.1950097,127.574854 C33.1908292,127.849392 32.1229463,127.772128 31.1687451,127.355895 C30.7148054,127.154737 30.2911284,126.877033 29.8229475,126.711479 C29.3547665,126.545924 28.8029183,126.5032 28.3792412,126.763103 C28.2778008,126.838749 28.16559,126.898754 28.0463521,126.941119 C27.8542883,126.967334 27.6592693,126.922378 27.4980642,126.814728 C26.9532291,126.535125 26.4301713,126.214983 25.9333074,125.857004 C25.7306698,125.727198 25.5553108,125.559095 25.4170623,125.362121 C25.0788327,124.828074 25.3173735,124.116012 25.5327724,123.52678 C26.1050505,121.948187 26.4776217,120.30421 26.6418093,118.633132 C26.6354677,118.483539 26.6946113,118.338605 26.8038035,118.236158 C26.8826831,118.194761 26.9711577,118.1751 27.0601459,118.179193 L30.8625584,118.001177" id="Path" fill="#575A89" fill-rule="nonzero"></path>
            <path d="M20.3151362,121.317607 C20.5198541,121.707461 20.8385019,122.029669 21.0663619,122.405282 C21.7339202,123.507198 21.5754864,124.966926 22.2608463,126.056381 C22.8393969,126.978502 23.9911576,127.596216 24.1282296,128.67677 C24.1852793,129.030063 24.0724766,129.389581 23.823823,129.646955 C23.5835019,129.869475 23.2434922,129.93534 22.9230642,129.992305 C22.240698,130.146544 21.5411368,130.211175 20.8420623,130.184562 C20.1460214,130.129377 19.4375195,129.873035 18.9782393,129.346109 C18.6702724,128.990078 18.3765467,128.486294 17.9101459,128.545039 C17.7499319,128.564621 17.5754767,128.653628 17.4401848,128.566401 C17.3379488,128.47206 17.2875611,128.334157 17.304893,128.196128 L17.0948346,120.101761 C17.7677335,120.028774 18.9337354,119.761751 19.5870525,119.993171 C20.1495817,120.190768 20.0587938,120.824504 20.3151362,121.317607 Z" id="Path" fill="#575A89" fill-rule="nonzero"></path>
            <path d="M26.958677,83.9005156 C28.5999805,85.9423541 29.085963,88.6464105 29.6128891,91.2133949 C30.2917218,94.5244844 31.1260214,97.798784 32.1157879,101.036294 C32.379251,101.897889 32.6498346,102.763045 32.7513035,103.658463 C32.9293191,105.363852 32.4629183,107.06034 32.0997665,108.735467 C31.3432004,112.240593 31.0548152,115.825827 30.7699903,119.400379 C29.5994611,118.402899 27.9058279,118.313185 26.6364689,119.18142 C26.4442121,114.871663 26.3569844,110.517403 26.9408755,106.241469 C27.0512451,105.438619 27.1847568,104.603726 26.9408755,103.834698 C26.7771012,103.339815 26.4673541,102.910798 26.2092315,102.458638 C25.6751848,101.525837 25.3761187,100.482665 24.8901362,99.5267218 C24.1086479,97.9922276 22.8536381,96.6784728 22.4477626,95.0015661 C22.1006323,96.041177 22.1024125,97.0950292 22.040107,98.1880447 C21.8593156,101.290629 21.3217255,104.362061 20.4379669,107.341605 C20.2813132,107.864971 20.1139786,108.409698 20.2190078,108.943745 C20.7174514,111.468006 19.9982685,113.978025 20.2190078,116.541449 C20.2830934,117.319377 20.370321,118.095525 20.4557685,118.871673 L20.484251,119.120895 L20.6765078,120.844086 C19.9644455,120.358103 19.2114397,120.427529 18.3516245,120.472033 C18.061463,120.472177 17.7735363,120.522775 17.5007101,120.621566 C17.1513684,120.762492 16.874389,121.039471 16.733463,121.388813 C16.630214,118.593969 15.6244261,116.083949 15.1651459,113.326488 C14.5331907,109.531196 15.0672374,105.654018 15.2826362,101.812442 C15.3524938,100.98519 15.3357884,100.152906 15.2327918,99.3291245 C15.1255267,98.7257115 14.9750121,98.1307923 14.7824125,97.5489689 C14.1379961,95.4519455 13.4526362,93.3460214 13.2390175,91.1617704 C13.0253988,88.9775195 12.8723054,85.8925097 14.0596693,84.0411479 C14.4263813,83.4714981 15.3289202,83.7278405 15.89857,83.3575681 C16.3474138,83.0762848 16.8411319,82.8739808 17.3582977,82.7594358 C20.4717899,82.0366926 23.7757588,83.6263716 26.958677,83.9005156 Z" id="Path" fill="#3C354C" fill-rule="nonzero"></path>
            <path d="M21.3387257,58.5617802 C21.4081518,59.3397082 21.5719261,60.2564883 22.280428,60.584037 C22.6827432,60.7620525 23.149144,60.6997471 23.5835019,60.7709533 C24.4059339,60.904465 25.082393,61.5364202 25.4633463,62.276965 C25.8442996,63.0175097 25.9760311,63.8595233 26.0650389,64.6872957 C26.1754086,65.7251265 26.2110117,66.8501848 25.6413619,67.7242412 C25.1820817,68.4363035 24.3952529,68.8617607 23.5692607,69.0807198 C21.9082582,69.5160395 20.139685,69.1898549 18.7432588,68.190642 C18.0840367,67.676324 17.4866637,67.0873142 16.9631031,66.4354086 C15.7810798,65.0593482 14.5901556,63.5515564 14.3480545,61.7535992 C14.319572,61.5488813 14.3213521,61.3014397 14.4886868,61.1803891 C14.6043363,61.115174 14.7379205,61.0889566 14.8696401,61.1056226 L16.0035992,61.1252043 C16.2902043,61.1252043 16.6141926,61.1252043 16.8100097,60.9098054 C17.0058268,60.6944066 16.9880253,60.4202626 16.9880253,60.1567996 L16.9114786,56.8652918 C16.8946899,56.7486699 16.9219827,56.6299779 16.9880253,56.5324027 C17.0596305,56.4669297 17.151168,56.4274306 17.247928,56.4202529 C17.8727626,56.3152237 18.5260798,56.4202529 19.1366732,56.2511381 C19.718784,56.0909241 20.6320039,55.4233658 21.0592412,56.1087257 C21.4152724,56.6979572 21.2799805,57.8977821 21.3387257,58.5617802 Z" id="Path" fill="#FFC1C7" fill-rule="nonzero"></path>
            <path d="M21.3387257,58.5617802 C21.4081518,59.3397082 21.5719261,60.2564883 22.280428,60.584037 C22.6827432,60.7620525 23.149144,60.6997471 23.5835019,60.7709533 C24.4059339,60.904465 25.082393,61.5364202 25.4633463,62.276965 C25.8442996,63.0175097 25.9760311,63.8595233 26.0650389,64.6872957 C26.1754086,65.7251265 26.2110117,66.8501848 25.6413619,67.7242412 C25.1820817,68.4363035 24.3952529,68.8617607 23.5692607,69.0807198 C21.9082582,69.5160395 20.139685,69.1898549 18.7432588,68.190642 C18.0840367,67.676324 17.4866637,67.0873142 16.9631031,66.4354086 C15.7810798,65.0593482 14.5901556,63.5515564 14.3480545,61.7535992 C14.319572,61.5488813 14.3213521,61.3014397 14.4886868,61.1803891 C14.6043363,61.115174 14.7379205,61.0889566 14.8696401,61.1056226 L16.0035992,61.1252043 C16.2902043,61.1252043 16.6141926,61.1252043 16.8100097,60.9098054 C17.0058268,60.6944066 16.9880253,60.4202626 16.9880253,60.1567996 L16.9114786,56.8652918 C16.8946899,56.7486699 16.9219827,56.6299779 16.9880253,56.5324027 C17.0596305,56.4669297 17.151168,56.4274306 17.247928,56.4202529 C17.8727626,56.3152237 18.5260798,56.4202529 19.1366732,56.2511381 C19.718784,56.0909241 20.6320039,55.4233658 21.0592412,56.1087257 C21.4152724,56.6979572 21.2799805,57.8977821 21.3387257,58.5617802 Z" id="Path" fill="#000000" fill-rule="nonzero" opacity="0.1"></path>
            <circle id="Oval" fill="#FFC1C7" fill-rule="nonzero" cx="18.4851362" cy="54.0152626" r="4.33111868"></circle>
            <path d="M23.1420233,66.063356 C23.8416245,66.0758171 24.6320136,65.8853405 24.9702432,65.2658463 C25.2016634,64.8457296 25.1642802,64.3348249 25.1197763,63.8577432 L24.8687743,61.1875097 C25.5487938,61.1163035 26.2804377,61.0557782 26.8732296,61.3922276 C27.6618385,61.8390467 27.941323,62.8288132 28.0338911,63.729572 C28.1994455,65.4207198 27.930642,67.1278891 28.0232101,68.8243774 C28.101537,70.2485019 28.4308658,71.7189105 28.010749,73.0842899 C27.8327335,73.6539397 27.5372276,74.1790856 27.3449708,74.7433949 C27.1046498,75.4554572 27.0423444,76.2209241 26.9889397,76.97393 C26.9230739,77.7821206 26.8607685,78.6187938 27.1313521,79.3842607 C27.3574319,80.0251167 27.7989105,80.5645039 28.1139981,81.1644163 C28.6302432,82.1577432 28.7406128,83.4964202 27.964465,84.3028307 C27.2524027,85.0398152 26.0810603,85.0700778 25.0859533,84.8368774 C24.0908463,84.603677 23.1277821,84.1586381 22.1130934,84.1159144 C20.3115759,84.0393677 18.7058755,85.20893 16.950642,85.5881031 C16.7153405,85.6511105 16.4687697,85.659634 16.229679,85.6130253 C16.018145,85.5445701 15.8213067,85.4370939 15.6493482,85.2961576 L14.6845039,84.6018969 C14.4916811,84.4865759 14.3312213,84.3242788 14.2181031,84.1301556 C14.1372935,83.9142535 14.1163801,83.6805151 14.1575778,83.4536965 C14.4815661,80.4487938 16.1816148,77.5649416 15.6902918,74.5831809 C15.5375355,73.8014529 15.3036633,73.0377887 14.9924708,72.3045817 C13.7695039,69.1750681 12.3026556,65.9245039 12.7779572,62.597393 C12.8812062,61.8604086 13.0983852,61.1074027 13.6057296,60.5626751 C14.1130739,60.0179475 14.9711089,59.7473638 15.6279864,60.0962743 C16.2848638,60.4451848 16.5180642,61.2213327 16.8082296,61.8960117 C17.3674086,63.2075514 18.2551845,64.3528314 19.3858949,65.2213424 C19.8629767,65.5880545 20.4415272,66.0562354 21.0663619,66.0722568 C21.7178988,66.0953988 22.4299611,66.0491148 23.1420233,66.063356 Z" id="Path" fill="#FF6584" fill-rule="nonzero"></path>
            <path d="M29.4152918,72.7923444 C30.4655837,73.9583463 30.6720817,75.6405934 30.7877918,77.20357 C31.1061288,81.5040824 31.1174318,85.8218196 30.8216148,90.1239397 C30.8065633,90.7620558 30.6992348,91.3946344 30.5029669,92.0020039 C30.2786673,92.598356 29.8585506,93.1502043 29.2675389,93.3887451 C28.8883658,93.5418385 28.3596595,93.5008949 28.1887646,93.1288424 C28.0321109,92.7888327 28.2653113,92.4167802 28.4415467,92.0785506 C28.8463626,91.3185578 28.9818939,90.4438789 28.8260603,89.5970136 C28.6106615,89.7536673 28.5341148,90.0367121 28.4700292,90.2966148 L28.1264591,91.7421012 C27.6618385,91.6744553 27.4873833,91.1065856 27.4143969,90.6437451 C27.2791051,89.8035117 27.1491537,88.9080934 27.4856031,88.1266051 C27.6636187,87.7100486 27.9662451,87.3557977 28.1460409,86.9392412 C28.5999805,85.8925097 28.7779961,84.6962451 28.4860506,83.5925486 C27.501905,79.8663447 27.0724247,76.0154177 27.2114591,72.1639494 C27.8856338,72.5457175 28.6411569,72.7611454 29.4152918,72.7923444 L29.4152918,72.7923444 Z" id="Path" fill="#FFC1C7" fill-rule="nonzero"></path>
            <path d="M30.4068385,73.9654669 C29.1141299,73.9784832 27.8277717,74.1482442 26.5759436,74.4710311 C26.4103891,73.6557198 26.4904961,72.8119261 26.5759436,71.9788132 L27.1277918,66.2823152 C27.1687354,65.8604183 27.0904086,61.9850195 27.9075,62.6703794 C28.2083463,62.9231615 28.5875195,65.1875195 28.6818677,65.5524514 C28.8242802,66.1007393 28.93643,66.6561479 29.0378988,67.2151167 C29.2426167,68.3597568 29.3814689,69.5150778 29.5719455,70.6614981 C29.6271304,71.0015078 30.1113327,73.9654669 30.4068385,73.9654669 Z" id="Path" fill="#FF6584" fill-rule="nonzero"></path>
            <path d="M20.1371206,48.5092412 C20.1424333,48.3737068 20.1117209,48.2391863 20.0481128,48.1193872 C19.9341264,47.976736 19.7656422,47.888298 19.5834922,47.8755058 C18.9568774,47.7775973 18.2715175,48.0303794 17.7072082,47.7437743 C17.4010214,47.5889008 17.1838424,47.2987354 16.8865564,47.1296206 C16.1744942,46.7326459 15.2844163,47.1296206 14.6702626,47.6476459 C13.6783138,48.4706911 12.9554066,49.5717916 12.5946012,50.8092023 C12.3168969,51.7669261 12.2047471,52.886644 11.4125778,53.4901167 C11.083249,53.7393385 10.659572,53.8781907 10.419251,54.2128599 C10.2575305,54.482375 10.1674471,54.7887813 10.1575681,55.1029377 C10.0756809,55.8292412 10.0062549,56.5769066 10.1967315,57.2818482 C10.3409241,57.8158949 10.6221887,58.285856 10.7984241,58.8021012 C11.2801039,60.2981507 10.8502346,61.9377652 9.69650778,63.0050486 C9.98543999,63.185911 10.3338674,63.2460068 10.6666926,63.1723833 C10.6592132,63.3254272 10.6106328,63.473628 10.5260603,63.6014008 C11.5389689,63.569358 12.4201459,62.5813716 13.4116926,62.7967704 C14.1700389,62.9605447 14.5919358,63.7420331 15.1562451,64.2742996 C15.8843288,64.9578794 17.0147276,65.2444844 17.9279475,64.8386089 C18.8411673,64.4327335 19.3965759,63.2791926 19.0085019,62.357072 C18.5670233,61.3085603 17.2052043,60.893784 16.733463,59.8648541 C16.3685311,59.063784 16.6391148,58.125642 16.5554475,57.2480253 C16.4895817,56.4950195 16.1638132,55.791858 15.9608755,55.0619942 C15.7579377,54.3321304 15.692072,53.4990175 16.1050681,52.8652821 C16.5429864,52.1906031 17.3814397,51.9289202 18.1451265,51.6796984 C19.8700973,51.1189494 20.2012062,50.2502335 20.1371206,48.5092412 Z" id="Path" fill="#3F3D56" fill-rule="nonzero"></path>
            <path d="M19.0725875,64.0802626 C19.1954183,63.4750097 19.318249,62.8341537 19.0992899,62.253823 C18.6951946,61.1857296 17.3689786,60.8421595 16.4521984,60.149679 C15.9210834,59.746015 15.5129924,59.2023047 15.2737354,58.5795817 C15.1081809,58.1416634 15.0850389,57.5399708 15.4944747,57.3156712 C15.6538017,57.2409199 15.8300532,57.2095999 16.0053794,57.2248833 C17.4295039,57.2587062 18.7450389,58.0348541 19.8398346,58.9551946 C20.4771304,59.4892412 21.0859436,60.1016148 21.399251,60.870642 C21.5981315,61.4248919 21.7179849,62.0043831 21.7552821,62.5920525 L21.9849222,64.530642 C22.1354661,65.6434228 22.2246089,66.7636503 22.2519455,67.8862354 C22.252643,68.5284258 22.21221,69.1700015 22.1308949,69.8070233 C22.07393,70.2591829 21.9884825,70.7273638 21.7232393,71.0976362 C21.2301362,71.7883366 20.2777529,71.9432101 19.4286187,71.9663521 C19.1075144,71.9846539 18.7853741,71.9643333 18.4691148,71.9058268 C17.0574514,71.5996401 15.9857977,69.6218872 17.0556712,68.4007004 C17.5096109,67.8826751 18.1896304,67.8666537 18.4495331,67.1545914 C18.7842023,66.2093288 18.8696498,65.0646887 19.0725875,64.0802626 Z" id="Path" fill="#FFC1C7" fill-rule="nonzero"></path>
            <path d="M17.9243872,64.4202724 L19.0476654,66.2413716 C19.1144846,66.3352308 19.1611542,66.441904 19.1847374,66.554679 C19.215,66.7914397 19.0387646,67.0014981 18.8981323,67.195535 C17.9368482,68.5057296 18.18607,70.3108074 18.4708949,71.9093872 C15.3422065,70.9210558 13.0557594,68.2285135 12.5874805,64.9810214 C12.4468482,64.0286381 12.2207685,62.460321 13.0663424,61.8408268 C15.0939397,60.3454961 16.9702237,62.8590759 17.9243872,64.4202724 Z" id="Path" fill="#FF6584" fill-rule="nonzero"></path>
            <path d="M23.5835019,60.7709533 C23.149144,60.6997471 22.6827432,60.7709533 22.280428,60.584037 C21.5683658,60.2564883 21.4081518,59.337928 21.3387257,58.5617802 C21.3387257,58.4887938 21.3298249,58.4104669 21.3262646,58.3267996 C21.5802972,58.0664861 21.8560302,57.8282718 22.1504767,57.6147374 C22.416102,57.4591342 22.6985961,57.3343112 22.9924903,57.2426848 L23.7793191,56.9667607 C23.8544746,57.1750604 23.9139784,57.3886791 23.9573346,57.6058366 C24.0463424,58.1292023 23.9715759,58.67393 24.1015272,59.1883949 C24.2460516,59.6479643 24.4708588,60.0782923 24.7655253,60.4594261 L25.9244066,62.1541342 C25.7143482,62.1042899 25.50607,62.0491051 25.299572,61.9885798 C24.8954767,61.3744261 24.2955642,60.8866634 23.5835019,60.7709533 Z" id="Path" fill="#3F3D56" fill-rule="nonzero"></path>
            <path d="M180.685798,68.2689689 C180.4793,67.2667412 180.093006,66.3107977 179.859805,65.3174708 C179.764048,64.7988098 179.635016,64.2868475 179.473512,63.7847568 C179.391089,63.5665355 179.287963,63.3567066 179.165545,63.158142 L179.275914,63.054893 C178.909202,62.4353988 178.894961,61.659251 178.722286,60.9543093 C178.572753,60.3472763 178.275467,59.7918677 178.095671,59.1937354 C177.846449,58.3641829 177.812626,57.427821 177.298161,56.7424611 C177.095224,56.4718774 176.829981,56.2600389 176.603901,56.009037 C176.343998,55.7224319 176.13928,55.3859825 175.875817,55.1047179 C175.11035,54.2894066 173.956809,54.0366245 172.865574,53.9191342 C171.774339,53.801644 170.64572,53.8034241 169.639932,53.3494844 C169.218035,53.1590078 168.772996,52.886644 168.331518,52.9186868 C168.08345,52.6796504 167.855418,52.4206586 167.649718,52.1443191 C167.314048,51.7375196 167.00938,51.306104 166.738278,50.8537062 C166.950481,50.4946319 167.114478,50.1091788 167.226041,49.707286 L167.299027,49.6556615 C167.585632,49.4384825 167.833074,49.1554377 168.114339,48.9435992 C168.36178,48.7655837 168.680428,48.5786673 168.70713,48.2617996 C168.733833,47.9449319 168.447228,47.7028307 168.269212,47.4411479 C167.626576,46.5030058 168.336858,45.0343774 167.6782,44.1069163 C167.348872,43.6422957 166.773881,43.4660603 166.254076,43.2399805 C165.542014,42.9266732 164.906498,42.4762938 164.199776,42.1718872 C163.493054,41.8674805 162.675963,41.7019261 161.963901,41.9938716 C160.632344,42.5457198 160.153482,44.4415856 158.800564,44.9364689 C158.653858,44.9661843 158.521495,45.0445981 158.424951,45.1589883 C158.259397,45.429572 158.040438,47.0228113 158.079601,47.3521401 C158.131226,47.7882782 158.236255,48.003677 158.537101,48.1567704 C158.537101,48.2493385 158.537101,48.3436868 158.537101,48.438035 C158.537101,50.7041732 160.107198,52.5857977 162.177519,52.9738716 C162.37608,53.1830008 162.544992,53.4183987 162.679523,53.6734728 C162.784377,53.9437965 162.844502,54.2293932 162.857539,54.5190467 C162.783187,54.4835013 162.701362,54.4664035 162.618998,54.4692023 C162.34993,54.5075071 162.128722,54.7008026 162.054689,54.9623054 C161.980869,55.2237598 161.951385,55.4957362 161.967461,55.7669358 C161.99038,55.9366796 161.932392,56.10735 161.810807,56.2279961 C161.745426,56.2673902 161.671573,56.2905834 161.595409,56.295642 C161.320551,56.347157 161.041888,56.3757379 160.762296,56.3810895 C160.299455,56.3810895 159.802792,56.2653794 159.395136,56.4914591 C158.987481,56.7175389 158.802344,57.2035214 158.606527,57.6432198 C158.322787,58.2723902 157.949213,58.8570375 157.49749,59.3788716 C156.999047,59.955642 156.379553,60.5021498 156.23892,61.2658366 C156.237147,61.283594 156.237147,61.3014838 156.23892,61.3192412 C155.849066,61.4972568 155.450311,61.9244942 155.170827,62.139893 C154.634715,62.5548729 154.119612,62.9963053 153.627432,63.4625486 C153.127208,63.9449708 152.452529,64.5431031 152.142782,65.1875195 C151.984884,65.4631353 151.774404,65.7050657 151.523288,65.8995817 C151.015944,66.2289105 150.360846,66.0544553 149.789416,65.8693191 C148.205078,65.3584144 146.611839,64.8421693 145.134309,64.0606809 C145.061533,64.0103927 144.972967,63.9882513 144.885088,63.9983755 C144.836742,64.0135485 144.793588,64.041907 144.760477,64.0802626 C144.748437,64.0617388 144.735362,64.0439089 144.721313,64.026858 C144.322558,63.5960603 143.695944,63.5675778 143.475204,62.9089202 C143.414,62.6999265 143.370529,62.4861438 143.345253,62.2698444 C143.205717,61.6401238 142.979877,61.0326922 142.674134,60.4647665 C142.629515,60.3476273 142.553062,60.24528 142.453395,60.1692607 C142.258704,60.0750257 142.024308,60.1492511 141.919348,60.3383755 C141.817077,60.5244949 141.777148,60.7384919 141.805418,60.9489689 C141.81966,61.1803891 141.853482,61.4491926 141.693268,61.6147471 C141.628846,61.675334 141.55064,61.7193246 141.465409,61.7429183 C140.950944,61.9102529 140.384854,61.7607198 139.904212,61.5097179 C139.42357,61.258716 138.990992,60.9098054 138.515691,60.6445623 C138.264513,60.5069686 138.005335,60.3845129 137.739543,60.2778502 C137.465399,60.1639202 137.084446,60.0891537 136.931352,60.3508366 C136.808521,60.5608949 136.931352,60.8296984 137.073765,61.0290759 C137.312368,61.3733744 137.590154,61.6887951 137.901537,61.9689981 C138.827218,62.7967704 139.99322,63.2578307 141.079115,63.8346012 C142.025878,64.3382115 142.920337,64.9345176 143.749348,65.6147568 C143.717302,65.7182926 143.697584,65.8252479 143.690603,65.9334047 C143.691475,66.3584511 143.87108,66.7635313 144.185486,67.0495623 C144.493018,67.3230197 144.839107,67.5497467 145.212636,67.7224611 C147.097228,68.7015467 148.99606,69.6551167 150.909134,70.5831712 C151.030761,70.6538136 151.166136,70.6975221 151.306109,70.7113424 C151.694183,70.7202432 151.941625,70.3001265 152.253152,70.0580253 C152.564679,69.8159241 152.965214,69.7482782 153.340827,69.6218872 C154.008385,69.3922471 154.586936,68.9561089 155.158366,68.5253113 L156.979465,67.1474708 C157.896245,66.4549903 158.836167,65.7233463 159.605195,64.8688716 C159.70228,65.0729297 159.840457,65.2547415 160.01107,65.4029183 C159.861537,65.7358074 160.173064,66.0811576 160.247831,66.440749 C160.27436,66.6771308 160.280911,66.9153287 160.267412,67.1528113 C160.299251,67.4993957 160.35878,67.8428757 160.445428,68.1799611 C160.533014,68.730327 160.573511,69.2871593 160.566479,69.8444066 C160.566479,70.4656809 160.58606,71.0905156 160.594961,71.7100097 C160.607422,72.5146401 160.619883,73.3281712 160.450768,74.1132198 C160.221128,75.1813132 159.658599,76.1960019 159.703103,77.2925778 C159.735326,77.4972179 159.715114,77.7066875 159.644358,77.9013911 C159.179737,78.7914689 158.813025,79.7723346 158.312802,80.6481712 C158.165037,80.8609348 158.04537,81.0918919 157.95677,81.3353113 C157.894533,81.5894982 157.919613,81.8572322 158.027977,82.0954377 C157.829694,82.450709 157.718077,82.8477701 157.702208,83.2543191 C157.668385,84.260107 158.072481,85.2124903 158.266518,86.204037 C158.444533,87.1136965 158.444533,88.0464981 158.471235,88.9739591 C158.608307,93.3139786 159.457442,97.6041537 159.633677,101.942393 C159.716854,103.942606 159.657365,105.946203 159.455661,107.937957 C159.32571,109.22323 159.133453,110.504942 159.062247,111.797335 C158.857529,115.464455 159.622996,119.095973 160.383123,122.691887 C160.613071,122.421772 160.935552,122.247201 161.287442,122.202344 C161.194874,122.558375 161.072043,123.021216 160.943872,123.363006 C160.75819,123.388816 160.579937,123.453085 160.420506,123.551702 C159.977247,123.834747 159.825934,124.415078 159.567811,124.885039 C159.003502,125.908628 157.894465,126.433774 156.984805,127.136936 C156.548667,127.473385 156.108969,127.98785 156.246041,128.534358 C157.821479,128.991858 159.537549,129.397733 161.052461,128.767558 C161.668395,128.512996 162.245165,128.091099 162.905603,128.069737 C163.407607,128.053716 163.920292,128.272675 164.400934,128.123142 C164.520134,128.091102 164.624555,128.018762 164.69644,127.918424 C164.753,127.808554 164.779993,127.685856 164.774767,127.562393 C164.81571,126.725529 164.812145,125.887079 164.764086,125.050593 C164.723142,124.338531 164.796128,123.804484 164.217578,123.704796 C164.073686,123.346996 163.96691,122.975369 163.89893,122.595759 C163.89893,122.526333 163.882909,122.453346 163.874008,122.38036 C164.033297,122.381624 164.192375,122.368516 164.349309,122.341196 C164.446184,122.324755 164.541912,122.302161 164.635914,122.273551 C164.605652,122.15072 164.578949,122.026109 164.554027,121.903278 C164.504183,121.655837 164.465019,121.408395 164.432977,121.160953 C164.400934,120.913512 164.377792,120.66251 164.35999,120.413288 C164.35999,120.286897 164.345749,120.162286 164.340409,120.035895 C164.329728,119.784893 164.326167,119.533891 164.327947,119.281109 C164.329728,119.028327 164.327947,118.777325 164.345749,118.524543 C164.363551,118.271761 164.370671,118.018979 164.388473,117.766196 C164.431196,117.134241 164.493502,116.502286 164.555807,115.875671 C164.737383,114.03499 164.920146,112.195496 165.104095,110.357189 C165.1575,109.80534 165.212685,109.251712 165.219805,108.698084 C165.226641,108.366904 165.211178,108.03564 165.173521,107.706537 C165.079173,106.909027 164.828171,106.104397 164.81749,105.317568 C164.814232,105.186262 164.818988,105.05488 164.831732,104.924154 C164.844134,104.792181 164.866147,104.661289 164.897597,104.532519 C164.913619,104.461313 164.934981,104.390107 164.956342,104.320681 C165.000846,104.180049 165.050691,104.042977 165.095195,103.902344 C165.118337,103.832918 165.139698,103.761712 165.15928,103.690506 C165.232001,103.389807 165.27552,103.082789 165.289232,102.773726 C165.289232,102.670477 165.301693,102.567228 165.307033,102.463979 L165.525992,98.1239591 C165.561595,97.4279183 165.62034,96.6766926 165.892704,96.0554183 C166.00978,95.7812148 166.181149,95.5335471 166.396488,95.3273346 C166.341304,95.1795817 166.396488,94.9303599 166.549582,94.8911965 C166.728859,97.1066998 166.706813,99.3338979 166.483716,101.545418 C166.405389,102.239679 166.289679,102.928599 166.257636,103.62642 C166.18999,105.164475 166.53,106.686508 166.64927,108.221002 C166.768541,109.755496 166.64927,111.336274 166.64927,112.893911 C166.636809,115.573045 166.932315,118.243278 167.226041,120.904611 L167.404056,121.022101 C167.404056,121.257082 167.430759,121.513424 167.427198,121.734163 C167.421283,121.810889 167.429121,121.888054 167.45034,121.962023 L167.375574,121.962023 C167.025881,121.99177 166.713116,122.191408 166.538901,122.49607 C166.362604,122.800843 166.23469,123.131138 166.159728,123.475156 C166.072423,123.729014 166.036125,123.997619 166.052918,124.265545 C166.120564,124.772889 166.551362,125.155623 166.665292,125.654066 C166.87357,126.556605 165.988833,127.53035 166.391148,128.359903 C166.64749,128.893949 167.293687,129.041702 167.857996,129.13427 C168.719591,129.274903 169.700457,129.387053 170.378696,128.815623 C170.751733,128.492024 170.963358,128.020586 170.957247,127.52679 C170.957247,126.875253 170.570953,126.294922 170.401839,125.668307 C170.163298,124.788911 170.519329,123.606887 170.143716,122.795136 C170.113142,122.709596 170.065953,122.630947 170.004864,122.563716 L170.133035,122.563716 C170.102772,122.26643 170.07251,121.967364 170.040467,121.673638 L170.339533,121.520545 C170.6475,121.365671 171.003531,121.248181 171.323959,121.369232 C171.204689,119.840078 171.170866,118.15071 171.523337,116.6625 C171.797481,115.487597 172.288804,114.37322 172.516663,113.187636 C172.694679,112.210331 172.70714,111.206323 172.7107,110.211216 C172.7107,108.363414 172.7107,106.503152 172.400953,104.692733 C172.276342,103.96643 172.098327,103.222325 172.233619,102.496021 C172.322626,102.01716 172.539805,101.575681 172.667977,101.10572 C172.967043,100.007364 172.748084,98.8271206 172.926099,97.7002821 C173.349776,95.0086868 173.574076,92.1996012 173.896284,89.4955447 C174.056817,87.9630794 174.111538,86.4213718 174.060058,84.8813813 L174.060058,84.8635798 L174.699134,83.6174708 C175.156634,82.727393 175.621255,81.8230739 175.898959,80.8671304 C175.99488,81.0014541 176.072131,81.1481718 176.128599,81.3032685 L178.937685,76.6357004 C179.119981,76.3596022 179.264283,76.0602215 179.366702,75.7456226 C179.430788,75.5195428 179.45215,75.2827821 179.500214,75.053142 C179.626605,74.4567899 179.929232,73.9191829 180.171333,73.3637743 C180.857729,71.7575432 181.037223,69.9799974 180.685798,68.2689689 Z M176.48285,70.6116537 C176.352243,71.3785967 176.17388,72.1366373 175.948804,72.8813521 C175.578531,74.1595039 175.149514,75.4162938 174.720496,76.6748638 L174.352004,77.7429572 C174.224792,78.1730116 174.033986,78.5816253 173.785914,78.9552432 C173.729201,79.0485606 173.678655,79.1454895 173.634601,79.2454086 C173.253648,77.821284 173.666644,76.219144 173.579416,74.7006712 C173.513551,73.5524708 173.157519,72.3864689 173.424543,71.2738716 C173.602558,70.5244261 174.051158,69.8800097 174.366245,69.1786284 C174.659971,68.5270914 174.843327,67.8168093 175.174436,67.1884144 C175.174436,67.2008755 175.174436,67.2115564 175.186897,67.2222374 C175.481419,67.9961498 175.834312,68.746568 176.242529,69.4670136 C176.357122,69.6297591 176.444315,69.8101577 176.500652,70.0010603 C176.537354,70.204572 176.533118,70.4133586 176.488191,70.615214 L176.48285,70.6116537 Z" id="Shape" fill="url(#linearGradient-2)" fill-rule="nonzero"></path>
            <path d="M143.42892,62.9035798 C143.364935,62.6943887 143.31966,62.4799271 143.293628,62.2627237 C143.177918,61.6236479 142.882412,61.0344163 142.592247,60.4523054 C142.546091,60.3330708 142.466316,60.2297972 142.362607,60.1550195 C142.162224,60.0658734 141.926789,60.138023 141.810759,60.3241342 C141.705415,60.5098381 141.663539,60.7248427 141.691488,60.9365078 C141.70751,61.1714883 141.743113,61.4402918 141.577558,61.6058463 C141.508714,61.6669732 141.426353,61.7108992 141.337237,61.7340175 C140.803191,61.9031323 140.210399,61.7518191 139.706615,61.5008171 C139.202831,61.2498152 138.754232,60.8973444 138.257568,60.6321012 C137.99485,60.4943989 137.724411,60.3719584 137.447597,60.2653891 C137.160992,60.149679 136.764018,60.0749125 136.603804,60.3383755 C136.475632,60.5484339 136.603804,60.8172374 136.751556,61.0183949 C137.001343,61.3656846 137.291793,61.6818333 137.616712,61.9600973 C138.581556,62.79143 139.800963,63.2542704 140.934922,63.832821 C142.205283,64.4811785 143.389408,65.2861439 144.45963,66.2289105 C144.563339,66.1058579 144.625628,65.9532498 144.637646,65.7927724 C144.723093,65.3388327 145.098706,64.4202724 144.719533,64.026858 C144.304757,63.5942802 143.65856,63.5657977 143.42892,62.9035798 Z" id="Path" fill="#A0616A" fill-rule="nonzero"></path>
            <path d="M161.282101,124.032344 C162.232457,124.774088 163.436678,125.111756 164.634134,124.972267 C164.883356,124.942004 165.168181,124.852996 165.250068,124.616235 C165.279967,124.4725 165.26377,124.322996 165.203784,124.188998 C165.015513,123.741059 164.870656,123.276087 164.771206,122.800477 C164.708901,122.367899 164.724922,121.853434 164.372451,121.593531 C163.863327,121.217918 162.53177,121.2375 162.200661,121.819611 C162.122335,121.944222 161.623891,124.318949 161.282101,124.032344 Z" id="Path" fill="#3C354C" fill-rule="nonzero"></path>
            <path d="M168.454348,121.931761 C168.429463,122.027076 168.447141,122.1285 168.502805,122.209776 C168.558469,122.291052 168.646647,122.344191 168.744514,122.355438 C169.562001,122.608578 170.409852,122.750485 171.265214,122.777335 L171.087198,121.064825 C171.094182,120.987357 171.06681,120.910728 171.012326,120.855216 C170.957843,120.799705 170.881739,120.770905 170.804154,120.77644 C170.312831,120.694553 169.28034,120.361663 168.808599,120.532558 C168.278113,120.724815 168.465029,121.420856 168.454348,121.931761 Z" id="Path" fill="#3C354C" fill-rule="nonzero"></path>
            <path d="M163.482374,53.6254086 C163.620498,53.984805 163.688772,54.3672578 163.683531,54.7522471 C163.728035,56.1318677 163.491274,57.621858 162.52999,58.6116245 C163.608765,58.2894163 164.821051,58.4834533 165.8393,58.0028113 C166.311041,57.7802918 166.708016,57.4260409 167.149494,57.1501167 C167.936323,56.6587938 168.853103,56.4202529 169.671975,55.9823346 C170.490846,55.5444163 171.249193,54.8056518 171.295477,53.8799708 C170.939446,53.5061381 170.368016,53.4527335 169.901615,53.2266537 C169.399611,52.9809922 169.027558,52.532393 168.673307,52.0998152 C168.255346,51.6229395 167.888971,51.1032126 167.580292,50.5492996 C167.270205,49.9913229 167.145524,49.3492159 167.224261,48.7157393 C166.314601,48.8795136 165.654163,49.673463 164.794348,50.0134728 C164.459679,50.1452043 164.098307,50.2057296 163.772539,50.3570428 C163.307918,50.5706615 162.366216,51.296965 162.348414,51.8666148 C162.350195,52.4878891 163.240272,53.0771206 163.482374,53.6254086 Z" id="Path" fill="#A0616A" fill-rule="nonzero"></path>
            <path d="M163.482374,53.6254086 C163.620498,53.984805 163.688772,54.3672578 163.683531,54.7522471 C163.728035,56.1318677 163.491274,57.621858 162.52999,58.6116245 C163.608765,58.2894163 164.821051,58.4834533 165.8393,58.0028113 C166.311041,57.7802918 166.708016,57.4260409 167.149494,57.1501167 C167.936323,56.6587938 168.853103,56.4202529 169.671975,55.9823346 C170.490846,55.5444163 171.249193,54.8056518 171.295477,53.8799708 C170.939446,53.5061381 170.368016,53.4527335 169.901615,53.2266537 C169.399611,52.9809922 169.027558,52.532393 168.673307,52.0998152 C168.255346,51.6229395 167.888971,51.1032126 167.580292,50.5492996 C167.270205,49.9913229 167.145524,49.3492159 167.224261,48.7157393 C166.314601,48.8795136 165.654163,49.673463 164.794348,50.0134728 C164.459679,50.1452043 164.098307,50.2057296 163.772539,50.3570428 C163.307918,50.5706615 162.366216,51.296965 162.348414,51.8666148 C162.350195,52.4878891 163.240272,53.0771206 163.482374,53.6254086 Z" id="Path" fill="#000000" fill-rule="nonzero" opacity="0.1"></path>
            <path d="M175.194018,89.5774319 C174.857568,92.2903891 174.624368,95.1101556 174.181109,97.8106518 C174.003093,98.9410506 174.223833,100.124854 173.912305,101.228551 C173.778794,101.700292 173.556274,102.143551 173.458366,102.622412 C173.317733,103.352276 173.50287,104.098161 173.636381,104.828025 C173.96393,106.652685 173.96393,108.520068 173.958589,110.37499 C173.958589,111.373658 173.958589,112.381226 173.757432,113.362091 C173.518891,114.553016 173.006206,115.676294 172.719601,116.847636 C172.351109,118.342967 172.386712,120.037675 172.511323,121.572169 C172.176654,121.451119 171.799261,121.572169 171.482393,121.723482 C171.165525,121.874796 170.845097,122.079514 170.490846,122.102656 C170.011984,122.14716 169.561605,121.894377 169.148609,121.648716 C168.831741,121.4618 168.555817,121.292685 168.24073,121.100428 C167.932763,118.430195 167.624796,115.74928 167.637257,113.059465 C167.637257,111.496488 167.760088,109.929951 167.637257,108.370535 C167.514426,106.811119 167.156615,105.301547 167.229601,103.759932 C167.263424,103.058551 167.382695,102.36785 167.462802,101.671809 C167.726265,99.4181323 167.690661,97.2570233 167.532228,94.9944455 C167.377354,95.0336089 167.315049,95.2828307 167.372014,95.4305837 C167.145906,95.6354393 166.964155,95.8844379 166.837967,96.1622276 C166.553142,96.7852821 166.492617,97.5400681 166.455233,98.2378891 L166.225593,102.59393 C166.219459,103.008307 166.168124,103.420778 166.0725,103.824018 C165.992393,104.110623 165.871342,104.381206 165.798356,104.669591 C165.536673,105.712763 165.95679,106.787977 166.090302,107.85429 C166.198891,108.744368 166.106323,109.634446 166.015535,110.513842 L165.444105,116.053687 C165.235827,118.068823 165.032889,120.126683 165.444105,122.106216 C165.470807,122.229047 165.49751,122.353658 165.529553,122.478268 C165.431292,122.506723 165.331427,122.529312 165.230486,122.545914 C164.876197,122.59572 164.516682,122.59572 164.162393,122.545914 C163.831284,122.512091 163.496615,122.455126 163.169066,122.415963 C162.382237,122.326955 161.597189,122.293132 161.075603,122.887704 C160.281654,119.28823 159.484144,115.63357 159.695982,111.953988 C159.770749,110.658035 159.970126,109.370982 160.107198,108.08037 C160.320749,106.08289 160.385013,104.072264 160.299455,102.065224 C160.12144,97.710963 159.231362,93.4047665 159.083609,89.0487257 C159.053346,88.1194844 159.056907,87.1813424 158.87177,86.2699027 C158.668833,85.2819163 158.246936,84.3117315 158.280759,83.3095039 C158.314582,82.3072763 159.046226,81.194679 160.060914,81.2498638 C162.861099,81.4047374 165.419183,79.8595623 168.212247,79.5960992 C169.479718,79.4750486 170.768551,79.2952529 172.02356,79.5213327 C173.27857,79.7474125 174.528239,80.4576946 175.021342,81.6325973 C175.288366,82.2716732 175.309728,82.9801751 175.329309,83.6708755 C175.386274,85.6432879 175.437899,87.6210409 175.194018,89.5774319 Z" id="Path" fill="#575A89" fill-rule="nonzero"></path>
            <path d="M161.127228,123.75108 C160.664387,124.035905 160.505953,124.618016 160.23715,125.089757 C159.647918,126.116907 158.490817,126.643833 157.540214,127.348774 C157.084494,127.688784 156.625214,128.203249 156.769407,128.753317 C158.41427,129.210817 160.205107,129.618473 161.791226,128.986518 C162.433862,128.730175 163.037335,128.306498 163.726255,128.285136 C164.251401,128.269115 164.794348,128.489854 165.287451,128.338541 C165.411862,128.309544 165.521757,128.236912 165.597198,128.133823 C165.654992,128.024287 165.683216,127.901571 165.679086,127.777792 C165.722107,126.937394 165.717947,126.095244 165.666625,125.255311 C165.61678,124.43466 165.72715,123.854329 164.790788,123.889932 C163.715574,123.936216 162.060029,123.176089 161.127228,123.75108 Z" id="Path" fill="#CBCEDA" fill-rule="nonzero"></path>
            <path d="M169.009757,122.291352 C168.815379,122.213644 168.609869,122.167374 168.400944,122.15428 C168.041027,122.182506 167.716242,122.380949 167.526887,122.688327 C167.342947,122.992381 167.209486,123.324229 167.131693,123.670973 C167.040793,123.924623 167.003219,124.194304 167.021323,124.463142 C167.090749,124.972267 167.541128,125.35322 167.660399,125.855224 C167.875798,126.761323 166.948337,127.738628 167.372014,128.571741 C167.640817,129.105788 168.315496,129.255321 168.904728,129.347889 C169.805486,129.490302 170.829076,129.602451 171.537578,129.027461 C171.923073,128.710108 172.145338,128.236161 172.142831,127.736848 C172.13215,127.081751 171.738735,126.49964 171.56072,125.869465 C171.313278,124.979387 171.685331,123.800924 171.291916,122.987393 C170.955467,122.291352 169.72716,122.520992 169.009757,122.291352 Z" id="Path" fill="#CBCEDA" fill-rule="nonzero"></path>
            <circle id="Oval" fill="#A0616A" fill-rule="nonzero" cx="163.78322" cy="48.3721693" r="4.62662451"></circle>
            <path d="M166.236274,55.9538521 C165.737342,55.741689 165.182417,55.6997725 164.657276,55.8345817 L164.235379,55.0993774 C164.057364,54.7753891 163.792121,54.408677 163.420068,54.4229183 C163.143302,54.4587035 162.912951,54.6528658 162.830837,54.9195817 C162.753507,55.1809948 162.722185,55.4538562 162.738268,55.7259922 C162.763084,55.8979982 162.702653,56.0713222 162.576274,56.1906128 C162.507022,56.2285067 162.43063,56.2515456 162.351975,56.2582588 C162.064415,56.308912 161.773399,56.3374779 161.481479,56.3437062 C160.997276,56.3437062 160.479251,56.226216 160.057354,56.4540759 C159.635457,56.6819358 159.43964,57.1661381 159.234922,57.611177 C158.936407,58.2449541 158.546559,58.8315261 158.077821,59.3521693 C157.556235,59.9307198 156.910039,60.4790078 156.762286,61.2444747 C156.699981,61.5702432 156.995486,61.8123444 157.230467,62.0473249 C158.165049,62.974786 159.468123,63.5444358 160.160603,64.6659339 C160.322597,64.9276167 160.454329,65.2231226 160.703551,65.4029183 C160.548677,65.7393677 160.881566,66.0847179 160.950992,66.4460895 C160.978321,66.6824149 160.984873,66.9206816 160.970574,67.1581518 C161.001482,67.5060306 161.061022,67.8507686 161.148589,68.1888619 C161.239712,68.740661 161.282006,69.2994197 161.274981,69.8586479 L161.305243,71.7313716 C161.317704,72.5395623 161.330165,73.3548735 161.15393,74.1434825 C160.913609,75.2115759 160.326158,76.2351654 160.372442,77.3335214 C160.406771,77.5394067 160.385886,77.7507136 160.311916,77.9458949 C159.825934,78.8359728 159.4432,79.822179 158.921615,80.7015759 C158.772691,80.9149163 158.652953,81.1472069 158.565584,81.3922763 C158.426732,81.8996206 158.711556,82.4496887 159.131673,82.7665564 C159.55179,83.0834241 160.082276,83.2133755 160.598521,83.311284 C165.394261,84.2298444 170.373356,83.1243677 174.905632,81.3086089 C175.024866,81.2712566 175.135566,81.2107647 175.231401,81.1305934 C175.56251,80.8083852 175.302607,80.2654377 175.113911,79.845321 C174.401848,78.2805642 174.969718,76.4630253 174.868249,74.7540759 C174.800603,73.6023152 174.42677,72.4398735 174.708035,71.3148152 C174.886051,70.5635895 175.361352,69.9156128 175.690681,69.2142315 C176.046712,68.4541051 176.246089,67.6120914 176.71249,66.9178307 C177.061732,66.4407228 177.470299,66.0100224 177.928337,65.6361187 L180.821089,63.0584533 C180.438356,62.437179 180.422335,61.6574708 180.242539,60.950749 C180.085885,60.3419358 179.774358,59.7829669 179.587442,59.1848346 C179.327539,58.3517218 179.291936,57.404679 178.754329,56.7228794 C178.54249,56.4505156 178.266566,56.238677 178.029805,55.9876751 C177.759222,55.6992899 177.545603,55.3628405 177.269679,55.0797957 C176.470389,54.2609241 175.265224,54.0010214 174.127704,53.8906518 C172.990185,53.7802821 171.813502,53.7749416 170.75965,53.3192218 C170.243405,53.0967023 169.691556,52.7602529 169.15751,52.9275875 C168.733833,53.0593191 168.461469,53.4740953 168.288794,53.8853113 C168.116119,54.2965272 167.995068,54.739786 167.712023,55.083356 C167.363113,55.4927918 166.745399,55.7633755 166.236274,55.9538521 Z" id="Path" fill="#3C354C" fill-rule="nonzero"></path>
            <path d="M152.470331,65.1892996 C152.302894,65.4666787 152.08276,65.7085846 151.822354,65.9013619 C151.288307,66.2306907 150.610068,66.0562354 150.013716,65.8710992 C148.359951,65.3566342 146.695506,64.8403891 145.152111,64.0553405 C145.075714,64.0041628 144.983505,63.9820581 144.892208,63.993035 C144.820859,64.0159587 144.758563,64.060812 144.714193,64.1212062 C144.471459,64.3902729 144.248365,64.6764275 144.046634,64.9774611 C143.833562,65.2567016 143.699521,65.5881135 143.65856,65.936965 C143.661143,66.3667992 143.848573,66.7747348 144.173025,67.0566829 C144.495061,67.3313597 144.854736,67.5585542 145.241119,67.7313619 C147.209971,68.7140078 149.191877,69.6711381 151.186839,70.6027529 C151.314683,70.6738479 151.455949,70.7175008 151.601615,70.7309241 C152.00749,70.7398249 152.265613,70.317928 152.589601,70.0758268 C152.913589,69.8337257 153.339047,69.7660798 153.72534,69.6379086 C154.423161,69.4082685 155.030195,68.9703502 155.624767,68.5377724 L157.525973,67.1563716 C159.192198,65.9458658 160.942091,64.6267704 161.670175,62.7059825 L159.355973,61.9440759 C158.661712,61.7144358 157.931848,61.3655253 157.210885,61.2320136 C156.676839,61.1287646 156.034202,61.8337062 155.633667,62.1345525 C155.070544,62.5521039 154.529256,62.9983249 154.011946,63.4714494 C153.499261,63.9414105 152.794319,64.5431031 152.470331,65.1892996 Z" id="Path" fill="#3C354C" fill-rule="nonzero"></path>
            <path d="M174.375146,80.3864883 C173.721829,80.6463911 172.981284,80.2547568 172.288804,80.3704669 C171.964165,80.4429727 171.654571,80.5712672 171.373804,80.7496401 L169.351547,81.8800389 C169.226936,81.9476848 169.091644,82.1132393 169.200233,82.2022471 C169.231572,82.2230041 169.267762,82.2352717 169.305263,82.2378502 C169.979942,82.3250778 170.610117,81.9138619 171.281235,81.7999319 C171.576124,81.7597563 171.874226,81.7484284 172.171313,81.7661089 C172.220336,81.7632088 172.269429,81.7704819 172.315506,81.7874708 C172.415899,81.8449561 172.474135,81.9551869 172.465039,82.0705156 C172.465039,82.1844455 172.431216,82.2948152 172.427656,82.4087451 C172.447908,82.6711627 172.55073,82.9204293 172.721381,83.1208074 C173.364963,84.0445843 174.079163,84.917099 174.857568,85.7305156 C175.054961,85.4808571 175.225604,85.2111695 175.366693,84.9258852 L176.032471,83.6797763 C176.723171,82.3945039 177.429893,81.0611673 177.540263,79.6067802 C177.041819,79.4483463 176.116138,78.9232004 175.601673,79.1991245 C175.087208,79.4750486 174.967938,80.1960117 174.375146,80.3864883 Z" id="Path" fill="#A0616A" fill-rule="nonzero"></path>
            <path d="M163.197549,47.6334047 C164.500623,47.7722568 165.689767,48.3881907 166.855768,48.9934436 C166.656391,49.306751 166.909173,49.7571304 167.263424,49.8639397 C167.617675,49.970749 168.005749,49.8194358 168.306595,49.6004767 C168.607442,49.3815175 168.854883,49.0984728 169.15751,48.8884144 C169.417412,48.7103988 169.748521,48.5217023 169.777004,48.2048346 C169.805486,47.8879669 169.50642,47.6440856 169.319504,47.3806226 C168.648385,46.4389202 169.39071,44.9649514 168.70357,44.03393 C168.35822,43.5675292 167.758307,43.3912938 167.226041,43.1634339 C166.489056,42.8501265 165.817938,42.3979669 165.079173,42.0864397 C164.340409,41.7749125 163.489494,41.6129183 162.745389,41.9084241 C161.353307,42.4620525 160.854864,44.3650389 159.44142,44.8617023 C159.289367,44.8916644 159.151241,44.9704153 159.048006,45.0860019 C158.86999,45.3565856 158.647471,46.9569455 158.691975,47.2862743 C158.759621,47.8363424 158.910934,48.0392802 159.452101,48.2030545 C160.609202,48.5484047 161.95856,47.499893 163.197549,47.6334047 Z" id="Path" fill="#3F3D56" fill-rule="nonzero"></path>
            <path d="M180.068084,62.3944553 C180.486764,62.774835 180.812585,63.2462091 181.020467,63.7722957 C181.189302,64.275262 181.323718,64.7891337 181.422782,65.3103502 C181.666663,66.3107977 182.068979,67.2685214 182.284377,68.2725292 C182.651132,69.9879917 182.464145,71.7755833 181.750331,73.3780156 C181.497549,73.9369844 181.180681,74.4745914 181.048949,75.0745039 C180.999105,75.304144 180.975963,75.5426848 180.910097,75.7687646 C180.801283,76.0842856 180.650388,76.3836798 180.461498,76.6588424 L177.542043,81.3566732 C177.315444,80.8021691 176.861619,80.3716839 176.295934,80.1746498 C175.734116,79.9850589 175.131887,79.9488023 174.551381,80.0696206 C174.76856,79.7278307 174.864689,79.3450973 175.085428,79.0015272 C175.206692,78.8190807 175.317823,78.6300984 175.418317,78.4354377 C175.517767,78.224201 175.604555,78.0072316 175.67822,77.7856809 L176.060953,76.7051265 C176.509553,75.4429961 176.951031,74.1808658 177.344446,72.8991537 C177.581426,72.1526952 177.769337,71.391538 177.906975,70.6205545 C177.949919,70.4245228 177.954754,70.2220604 177.921216,70.0242023 C177.861578,69.8289872 177.770157,69.6449425 177.650632,69.4794747 C177.225977,68.7589061 176.857577,68.0066326 176.548716,67.229358 C176.317296,66.6864105 176.084095,66.0758171 176.292374,65.5239689 C176.424842,65.2318065 176.62064,64.9727688 176.865584,64.7656226 C177.83606,63.8519695 178.910998,63.0560731 180.068084,62.3944553 L180.068084,62.3944553 Z" id="Path" fill="#3C354C" fill-rule="nonzero"></path>
            <path d="M165.232267,122.542354 L165.445885,122.102656 C165.036449,120.126683 165.239387,118.068823 165.445885,116.050126 L166.017315,110.510282 C166.108103,109.620204 166.195331,108.730126 166.092082,107.85073 C165.95857,106.782636 165.538453,105.714543 165.800136,104.666031 C165.873123,104.377646 165.994173,104.107062 166.07428,103.820457 C166.169904,103.417218 166.221239,103.004747 166.227374,102.59037 L166.457014,98.2343288 C166.494397,97.5365078 166.554922,96.7817218 166.839747,96.1586673 L166.839747,96.0393969 L166.106323,89.726965 L164.169514,122.542354 L165.232267,122.542354 Z" id="Path" fill="#000000" fill-rule="nonzero" opacity="0.1"></path>
            <path d="M148.57179,125.264212 C149.105837,124.283346 148.500584,123.079961 147.808103,122.205905 C147.115623,121.331848 146.275389,120.425749 146.293191,119.306031 C146.319893,117.703891 148.019942,116.758628 149.3782,115.907714 C150.386757,115.278146 151.316631,114.530542 152.148123,113.680739 C152.496595,113.354005 152.784653,112.968321 152.999037,112.54144 C153.280302,111.914825 153.273181,111.202763 153.255379,110.517403 C153.194854,108.231683 153.081518,105.947743 152.91537,103.665584" id="Path" stroke="#3F3D56" stroke-width="4"></path>
            <path d="M155.498375,103.540973 C155.459909,102.690541 154.990016,101.918575 154.252267,101.493794 L153.693298,102.601051 L153.711099,101.260593 C153.44372,101.18223 153.165239,101.148548 152.886887,101.160905 C151.51403,101.228986 150.455491,102.395735 150.520935,103.768721 C150.586378,105.141706 151.751092,106.202484 153.124201,106.139679 C154.49731,106.076873 155.560323,104.9142 155.500156,103.540973 L155.498375,103.540973 Z" id="Path" fill="#57B894" fill-rule="nonzero"></path>
            <path d="M151.042646,120.450671 C150.502535,121.497516 149.303233,122.023243 148.167383,121.711073 C147.031534,121.398902 146.269364,120.334097 146.340123,119.158257 C146.410881,117.982418 147.295242,117.016696 148.46033,116.842989 C149.625418,116.669282 150.75302,117.335035 151.163696,118.439095 L149.6025,119.715467 L151.32035,119.318492 C151.318588,119.712532 151.223417,120.100539 151.042646,120.450671 L151.042646,120.450671 Z" id="Path" fill="#57B894" fill-rule="nonzero"></path>
            <path d="M149.808998,115.599747 C148.52234,115.69063 147.37894,114.784744 147.173115,113.511408 C146.967291,112.238072 147.767062,111.018089 149.016829,110.698979 L149.002588,111.727909 L149.568677,110.608191 L149.568677,110.608191 C150.230734,110.575811 150.878416,110.808508 151.368491,111.25482 C151.858565,111.701132 152.150655,112.324287 152.180165,112.986479 C152.19479,113.274773 152.158637,113.563394 152.073356,113.839173 C151.765748,114.845085 150.859694,115.549556 149.808998,115.599747 L149.808998,115.599747 Z" id="Path" fill="#57B894" fill-rule="nonzero"></path>
            <path d="M155.873988,111.564134 C154.822668,111.602776 153.86031,110.977095 153.469024,110.000539 C153.077739,109.023982 153.341807,107.906898 154.128941,107.208909 C154.916075,106.510921 156.056726,106.382373 156.979465,106.887665 L156.537986,108.098171 L157.445866,107.225895 C157.93239,107.671484 158.222385,108.291804 158.252276,108.950866 C158.264128,109.182296 158.243152,109.414238 158.189971,109.639786 C157.936533,110.727813 156.990029,111.514263 155.873988,111.564134 Z" id="Path" fill="#57B894" fill-rule="nonzero"></path>
            <path d="M155.161926,104.206751 C154.585156,104.269056 154.024407,104.448852 153.445856,104.484455 C152.867305,104.520058 152.23179,104.382986 151.865078,103.932607 C151.669261,103.690506 151.569572,103.384319 151.404018,103.119076 C151.245903,102.872663 151.029452,102.669053 150.773842,102.526284 C150.362588,103.385944 150.477561,104.404865 151.07004,105.151267 C151.662519,105.897668 152.628767,106.240863 153.559325,106.035418 C154.489884,105.829974 155.221821,105.111861 155.444971,104.185389 C155.351216,104.188949 155.256868,104.19607 155.161926,104.206751 Z" id="Path" fill="#000000" fill-rule="nonzero" opacity="0.1"></path>
            <path d="M155.873988,111.564134 C154.997439,111.60861 154.162113,111.188738 153.674844,110.458748 C153.187576,109.728757 153.120206,108.796275 153.497481,108.003823 C153.695719,108.137102 153.866206,108.307589 153.999484,108.505827 C154.1775,108.77463 154.286089,109.086158 154.494368,109.331819 C154.884222,109.789319 155.54822,109.938852 156.151693,109.91215 C156.755165,109.885447 157.337276,109.712772 157.931848,109.657588 C158.015516,109.657588 158.099183,109.645126 158.18463,109.643346 C157.930367,110.728131 156.98697,111.512358 155.873988,111.564134 Z" id="Path" fill="#000000" fill-rule="nonzero" opacity="0.1"></path>
            <path d="M149.808998,115.599747 C148.940878,115.6437 148.112577,115.232168 147.623223,114.51377 C147.133869,113.795371 147.05417,112.873911 147.412909,112.08216 C147.620185,112.217531 147.801139,112.389438 147.946955,112.589504 C148.140992,112.863648 148.262043,113.180516 148.489903,113.433298 C148.9118,113.901479 149.620302,114.067033 150.257597,114.052792 C150.894893,114.038551 151.473444,113.887237 152.087597,113.839173 C151.778237,114.849834 150.865017,115.555439 149.808998,115.599747 L149.808998,115.599747 Z" id="Path" fill="#000000" fill-rule="nonzero" opacity="0.1"></path>
            <path d="M151.042646,120.450671 C150.479791,121.708615 149.003742,122.272096 147.745798,121.709241 C146.487854,121.146386 145.924373,119.670337 146.487228,118.412393 C146.693441,118.54724 146.87826,118.712257 147.035516,118.901936 C147.274056,119.190321 147.43071,119.51965 147.704854,119.792014 C148.215759,120.294018 149.039971,120.504076 149.775175,120.520097 C150.198668,120.522103 150.621906,120.49892 151.042646,120.450671 L151.042646,120.450671 Z" id="Path" fill="#000000" fill-rule="nonzero" opacity="0.1"></path>
            <path d="M144.8032,124.133813 C144.8032,124.133813 146.775613,124.073288 147.370185,123.649611 C147.964757,123.225934 150.396449,122.72215 150.549543,123.400389 C150.702636,124.078628 153.513502,126.782685 151.288307,126.793366 C149.063113,126.804047 146.115175,126.448016 145.520603,126.081304 C144.926031,125.714591 144.8032,124.133813 144.8032,124.133813 Z" id="Path" fill="#656380" fill-rule="nonzero"></path>
            <path d="M151.327471,126.558385 C149.100496,126.576187 146.154339,126.202354 145.561547,125.846323 C145.109387,125.570399 144.929591,124.584193 144.869066,124.128473 L144.8032,124.128473 C144.8032,124.128473 144.927811,125.719932 145.515263,126.086644 C146.102714,126.453356 149.055992,126.811167 151.282967,126.798706 C151.925603,126.798706 152.146342,126.565506 152.133881,126.227276 C152.050214,126.426654 151.806333,126.553045 151.327471,126.558385 Z" id="Path" fill="#000000" fill-rule="nonzero" opacity="0.2"></path>
            <path d="M10.3961089,127.222383 C9.86206226,126.241518 10.4673152,125.038132 11.1597957,124.164076 C11.8522763,123.290019 12.6925097,122.38392 12.6747082,121.264202 C12.6480058,119.662062 10.9479572,118.7168 9.58969844,117.865885 C8.58114185,117.236317 7.65126797,116.488713 6.81977626,115.638911 C6.47130389,115.312177 6.18324574,114.926492 5.96886187,114.499611 C5.68759728,113.872996 5.6947179,113.160934 5.71251946,112.475574 C5.77304475,110.189854 5.88638132,107.905914 6.05252918,105.623755" id="Path" stroke="#3F3D56" stroke-width="4"></path>
            <path d="M3.46952335,105.499144 C3.50799,104.648713 3.97788285,103.876746 4.7156323,103.451965 L5.27460117,104.559222 L5.25679961,103.218765 C5.5241784,103.140402 5.80266028,103.106719 6.08101167,103.119076 C7.45386909,103.187157 8.51240738,104.353906 8.44696395,105.726892 C8.38152052,107.099878 7.21680704,108.160655 5.84369817,108.09785 C4.4705893,108.035044 3.40757575,106.872371 3.46774319,105.499144 L3.46952335,105.499144 Z" id="Path" fill="#57B894" fill-rule="nonzero"></path>
            <path d="M7.92525292,122.408842 C8.46536399,123.455688 9.66466581,123.981414 10.8005154,123.669244 C11.9363651,123.357073 12.6985344,122.292268 12.6277759,121.116429 C12.5570174,119.940589 11.6726571,118.974867 10.5075688,118.80116 C9.34248057,118.627453 8.21487837,119.293206 7.80420233,120.397267 L9.36539883,121.666518 L7.65466926,121.269543 C7.65309918,121.66541 7.74585388,122.055956 7.92525292,122.408842 L7.92525292,122.408842 Z" id="Path" fill="#57B894" fill-rule="nonzero"></path>
            <path d="M9.15890078,117.557918 C10.445559,117.648801 11.5889593,116.742915 11.7947837,115.469579 C12.0006081,114.196243 11.2008371,112.97626 9.95107004,112.65715 L9.96531128,113.68608 L9.39922179,112.566362 L9.39922179,112.566362 C8.73716465,112.533983 8.08948319,112.766679 7.59940827,113.212991 C7.10933334,113.659303 6.81724379,114.282459 6.78773346,114.94465 C6.77310849,115.232944 6.80926145,115.521565 6.8945428,115.797344 C7.20215067,116.803256 8.10820505,117.507727 9.15890078,117.557918 L9.15890078,117.557918 Z" id="Path" fill="#57B894" fill-rule="nonzero"></path>
            <path d="M3.09391051,113.522305 C4.14523091,113.560947 5.10758869,112.935267 5.49887448,111.95871 C5.89016027,110.982153 5.62609138,109.865069 4.83895759,109.167081 C4.05182379,108.469092 2.91117315,108.340545 1.98843385,108.845837 L2.42991245,110.056342 L1.52203307,109.184066 C1.0341907,109.629053 0.742878895,110.249451 0.712062257,110.909037 C0.700210067,111.140467 0.721186754,111.372409 0.774367704,111.597957 C1.02816591,112.68721 1.97652467,113.473991 3.09391051,113.522305 Z" id="Path" fill="#57B894" fill-rule="nonzero"></path>
            <path d="M3.80597276,106.164922 C4.38274319,106.227228 4.94349222,106.407023 5.5220428,106.442626 C6.10059339,106.47823 6.73610895,106.341158 7.10282101,105.890778 C7.29863813,105.648677 7.39832685,105.34249 7.56388132,105.077247 C7.7219959,104.830835 7.93844654,104.627224 8.19405642,104.484455 C8.60531073,105.344116 8.49033784,106.363037 7.89785892,107.109438 C7.30538,107.855839 6.33913165,108.199034 5.40857336,107.99359 C4.47801508,107.788145 3.74607747,107.070032 3.52292802,106.14356 C3.61668288,106.147121 3.71103113,106.154241 3.80597276,106.164922 Z" id="Path" fill="#000000" fill-rule="nonzero" opacity="0.1"></path>
            <path d="M3.09391051,113.522305 C3.97045979,113.566781 4.80578573,113.146909 5.29305434,112.416919 C5.78032295,111.686928 5.84769313,110.754446 5.47041829,109.961994 C5.27218,110.095273 5.1016932,110.26576 4.9684144,110.463998 C4.79039883,110.732802 4.68180934,111.044329 4.47353113,111.28999 C4.08367704,111.74749 3.41967899,111.897023 2.81620623,111.870321 C2.21273346,111.843619 1.63062257,111.670944 1.03605058,111.615759 C0.952383268,111.615759 0.868715953,111.603298 0.783268482,111.601518 C1.03753153,112.686303 1.98092908,113.470529 3.09391051,113.522305 Z" id="Path" fill="#000000" fill-rule="nonzero" opacity="0.1"></path>
            <path d="M9.15890078,117.557918 C10.0270205,117.601871 10.8553216,117.190339 11.3446759,116.471941 C11.8340302,115.753543 11.913729,114.832082 11.5549903,114.040331 C11.3477141,114.175702 11.1667596,114.347609 11.0209436,114.547675 C10.8269066,114.821819 10.705856,115.138687 10.4868969,115.391469 C10.065,115.85965 9.35649805,116.025204 8.71920233,116.010963 C8.08190661,115.996722 7.50335603,115.845409 6.88920233,115.797344 C7.19747054,116.805033 8.10620788,117.509928 9.15890078,117.557918 L9.15890078,117.557918 Z" id="Path" fill="#000000" fill-rule="nonzero" opacity="0.1"></path>
            <path d="M7.92525292,122.408842 C8.48810793,123.666786 9.96415714,124.230267 11.2221011,123.667412 C12.4800451,123.104557 13.0435261,121.628508 12.4806712,120.370564 C12.2744581,120.505411 12.0896391,120.670428 11.9323833,120.860107 C11.6938424,121.148492 11.5371887,121.477821 11.2630447,121.750185 C10.7521401,122.252189 9.92792802,122.462247 9.19272374,122.478268 C8.76923071,122.480274 8.34599321,122.457092 7.92525292,122.408842 Z" id="Path" fill="#000000" fill-rule="nonzero" opacity="0.1"></path>
            <path d="M14.1646984,126.091984 C14.1646984,126.091984 12.192286,126.031459 11.597714,125.607782 C11.003142,125.184105 8.57144942,124.680321 8.41835603,125.35856 C8.26526265,126.0368 5.45439689,128.740856 7.67959144,128.751537 C9.90478599,128.762218 12.8527237,128.406187 13.4472957,128.039475 C14.0418677,127.672763 14.1646984,126.091984 14.1646984,126.091984 Z" id="Path" fill="#656380" fill-rule="nonzero"></path>
            <path d="M7.64042802,128.516556 C9.86740272,128.534358 12.8135603,128.160525 13.4063521,127.804494 C13.8585117,127.52857 14.0383074,126.542364 14.0988327,126.086644 L14.1646984,126.086644 C14.1646984,126.086644 14.0400875,127.678103 13.4526362,128.044815 C12.8651848,128.411527 9.91190661,128.769339 7.68493191,128.756877 C7.04229572,128.756877 6.82155642,128.523677 6.83401751,128.185447 C6.91768482,128.384825 7.16156615,128.511216 7.64042802,128.516556 Z" id="Path" fill="#000000" fill-rule="nonzero" opacity="0.2"></path>
        </g>
    </g>
</svg>