<?xml version="1.0" encoding="UTF-8"?>
<svg width="193px" height="135px" viewBox="0 0 193 135" version="1.1" xmlns="http://www.w3.org/2000/svg" xmlns:xlink="http://www.w3.org/1999/xlink">
    <!-- Generator: Sketch 54.1 (76490) - https://sketchapp.com -->
    <title>founder</title>
    <desc>Created with Sketch.</desc>
    <g id="founders" stroke="none" stroke-width="1" fill="none" fill-rule="evenodd">
        <g id="founder" fill-rule="nonzero">
            <path d="M192.795506,96.4837079 C192.492712,98.8035258 191.992584,101.093287 191.300562,103.32809 C190.636673,105.47682 189.786246,107.563412 188.758989,109.564045 C188.758989,123.470225 177.618539,134.742135 163.874157,134.742135 L36.9522472,134.742135 C28.7464633,134.742428 20.8666862,131.53002 15,125.792697 C15.0539326,125.777528 15.1095506,125.76236 15.1685393,125.750562 C26.8752809,122.646067 39.2275281,121.574157 49.3820225,114.200562 C35.5449438,111.905056 21.788764,109.05618 8.11348315,105.653933 C7.27078652,105.441573 6.31348315,105.123034 5.33089888,104.789326 C5.28539326,104.088202 5.26011236,103.382022 5.26011236,102.670787 C5.19775281,102.557865 5.13707865,102.444944 5.07640449,102.333708 C4.80898876,101.835955 4.55168539,101.330337 4.30449438,100.816854 C1.78820225,95.5921348 0.350561798,89.5398876 0.350561798,83.0814607 C0.350561798,72.8966292 3.92865169,63.6994382 9.66235955,57.2123596 C48.2359551,60.402809 87.0404494,59.0511236 125.730337,57.6893258 C114.417978,55.4421348 103.106742,53.191573 91.7966292,50.9376404 C73.3505618,47.2691011 54.9044944,43.5983146 36.458427,39.9252809 C48.2308989,23.2938202 69.0067416,12.2494382 92.6730337,12.2494382 C109.32809,12.2494382 124.550562,17.7185393 136.213483,26.755618 C140.501124,23.905618 145.43764,22.2792135 150.691011,22.2792135 C161.629213,22.2792135 171.190449,29.3123596 176.383146,39.8073034 C176.383146,39.8073034 176.383146,39.8073034 176.383146,39.8073034 C179.008989,45.1162921 180.51573,51.308427 180.51573,57.9219101 C180.51573,59.1016854 180.466854,60.2814607 180.370787,61.4426966 C180.370787,61.5117978 180.360674,61.5792135 180.353933,61.65 C183.960674,64.65 186.985955,68.5769663 189.187079,73.1426966 C189.214045,73.1983146 189.241011,73.2539326 189.266292,73.311236 C189.651685,74.1168539 190.010112,74.9404494 190.341573,75.7820225 L190.309551,75.7820225 C188.89382,76.0955056 187.479775,76.4151685 186.067416,76.7410112 C170.84382,80.2578652 155.761236,84.5196629 140.819663,89.5264045 C136.536517,90.9623596 132.266854,92.4578652 128.010674,94.0129213 C124.417416,95.3275281 119.796067,98.305618 116.071348,98.5634831 C141.53764,96.8544944 167.207865,99.3455056 192.55618,96.5073034 L192.795506,96.4837079 Z" id="Path" fill="#FB4275" opacity="0.1"></path>
            <path d="M192.977528,90.5426966 C192.977528,78.4196629 187.911236,67.7106742 180.168539,61.2724719 C180.275281,60.0477528 180.331461,58.805618 180.337079,57.5460674 C180.337079,37.8606742 166.982022,21.9050562 150.505618,21.9050562 C145.250562,21.9050562 140.314045,23.5297753 136.026404,26.3797753 C124.363483,17.3426966 109.139326,11.8769663 92.4842697,11.8769663 C65.3932584,11.8769663 42.0741573,26.3544944 31.7325843,47.1235955 C31.1578652,47.0848315 30.5797753,47.0629213 29.9966292,47.0629213 C13.5235955,47.0629213 0.165168539,63.0202247 0.165168539,82.7039326 C0.165168539,89.9410112 1.97191011,96.6724719 5.07303371,102.293258 L5.07303371,102.293258 C5.07303371,120.003371 19.2623596,134.361236 36.758427,134.361236 L163.692135,134.361236 C177.434831,134.361236 188.575281,123.089326 188.575281,109.183146 L188.575281,109.183146 C191.366292,103.759551 192.977528,97.3769663 192.977528,90.5426966 Z" id="Path" fill="#FB4275" opacity="0.1"></path>
            <path d="M67.3685393,91.4814607 C67.4191011,92.155618 67.6078652,92.9561798 68.2432584,93.188764 C68.5503659,93.2755651 68.8761999,93.2702908 69.1803371,93.1735955 C69.9804329,93.0005501 70.7074543,92.5843524 71.2617978,91.9820225 C71.7926966,91.3651685 72.0573034,90.4938202 71.8348315,89.7134831 C71.6207865,88.9685393 71.0207865,88.4106742 70.5977528,87.7634831 C70.1022472,87.0067416 69.9438202,86.1488764 69.6,85.3382022 C66.8713483,85.5994382 67.2151685,89.4573034 67.3685393,91.4814607 Z" id="Path" fill="#FBBEBE"></path>
            <path d="M64.5016854,58.988764 C64.1393258,60.1685393 65.4252809,61.4544944 65.8398876,62.6140449 C66.2544944,63.7735955 66.8123596,64.8876404 67.0348315,66.102809 C67.1898876,66.9370787 67.1814607,67.7882022 67.2404494,68.6308989 C67.3533708,70.2235955 67.705618,71.7876404 68.0831461,73.3365169 C68.6157303,75.5747191 69.1865169,77.802809 69.7955056,80.0207865 C70.098432,81.0292613 70.3365584,82.0560757 70.508427,83.0949438 C70.6671555,84.218303 70.663182,85.3586731 70.4966292,86.4808989 C69.4268442,86.1603218 68.2745196,86.266012 67.2808989,86.7758427 C66.5861606,85.5565508 66.1689444,84.1990153 66.0589888,82.8 C66.0165763,81.9705317 66.0238928,81.1392674 66.0808989,80.3106742 C66.188764,77.9662921 65.1724719,75.6185393 65.138764,73.2707865 C65.1491501,72.4576218 65.0848351,71.6452214 64.9466292,70.8438202 C64.8370787,70.2926966 64.847191,69.261236 64.7275281,68.7134831 C64.5353933,67.8404494 65.3561798,67.4376404 65.3106742,66.5426966 L65.061236,61.6550562 C65.0106742,60.805618 64.1511236,59.7573034 64.5016854,58.988764 Z" id="Path" fill="#3F3D56"></path>
            <path d="M64.5016854,58.988764 C64.1393258,60.1685393 65.4252809,61.4544944 65.8398876,62.6140449 C66.2544944,63.7735955 66.8123596,64.8876404 67.0348315,66.102809 C67.1898876,66.9370787 67.1814607,67.7882022 67.2404494,68.6308989 C67.3533708,70.2235955 67.705618,71.7876404 68.0831461,73.3365169 C68.6157303,75.5747191 69.1865169,77.802809 69.7955056,80.0207865 C70.098432,81.0292613 70.3365584,82.0560757 70.508427,83.0949438 C70.6671555,84.218303 70.663182,85.3586731 70.4966292,86.4808989 C69.4268442,86.1603218 68.2745196,86.266012 67.2808989,86.7758427 C66.5861606,85.5565508 66.1689444,84.1990153 66.0589888,82.8 C66.0165763,81.9705317 66.0238928,81.1392674 66.0808989,80.3106742 C66.188764,77.9662921 65.1724719,75.6185393 65.138764,73.2707865 C65.1491501,72.4576218 65.0848351,71.6452214 64.9466292,70.8438202 C64.8370787,70.2926966 64.847191,69.261236 64.7275281,68.7134831 C64.5353933,67.8404494 65.3561798,67.4376404 65.3106742,66.5426966 L65.061236,61.6550562 C65.0106742,60.805618 64.1511236,59.7573034 64.5016854,58.988764 Z" id="Path" fill="#000000" opacity="0.1"></path>
            <path d="M52.1966292,55.2050562 C52.2622664,55.4916746 52.3951365,55.7585702 52.5842697,55.9837079 C54.2906117,58.3658488 56.234893,60.5682005 58.3870787,62.5567416 C58.6071653,62.3298555 58.7913107,62.0706879 58.9331461,61.7882022 C59.9101207,60.0016625 60.3984641,57.9889898 60.3488764,55.9533708 C59.3747191,55.6398876 58.2691011,55.2016854 57.9573034,54.2275281 C57.7095506,53.4589888 58.041573,52.5421348 57.6067416,51.8578652 C56.9882022,50.8921348 54.3623596,50.7691011 53.5196629,51.4702247 C52.9668539,51.9286517 53.1640449,52.3567416 52.988764,52.9769663 C52.7949438,53.6578652 52.088764,54.4803371 52.1966292,55.2050562 Z" id="Path" fill="#FBBEBE"></path>
            <path d="M52.1966292,55.2050562 C52.2622664,55.4916746 52.3951365,55.7585702 52.5842697,55.9837079 C54.2906117,58.3658488 56.234893,60.5682005 58.3870787,62.5567416 C58.6071653,62.3298555 58.7913107,62.0706879 58.9331461,61.7882022 C59.9101207,60.0016625 60.3984641,57.9889898 60.3488764,55.9533708 C59.3747191,55.6398876 58.2691011,55.2016854 57.9573034,54.2275281 C57.7095506,53.4589888 58.041573,52.5421348 57.6067416,51.8578652 C56.9882022,50.8921348 54.3623596,50.7691011 53.5196629,51.4702247 C52.9668539,51.9286517 53.1640449,52.3567416 52.988764,52.9769663 C52.7949438,53.6578652 52.088764,54.4803371 52.1966292,55.2050562 Z" id="Path" fill="#000000" opacity="0.1"></path>
            <path d="M53.0730337,133.11236 C53.3482541,133.308625 53.6637753,133.441052 53.9966292,133.5 C57.2018564,134.289795 60.5126991,134.562332 63.8039326,134.307303 C64.2438202,134.27191 64.8303371,134.03764 64.7224719,133.609551 C64.6213483,133.210112 64.0483146,133.237079 63.6606742,133.117416 C63.2949438,133.00618 63.0202247,132.711236 62.747191,132.443258 C61.7359551,131.432022 60.5123596,130.666854 59.305618,129.901685 C59.0122959,129.690327 58.6843442,129.531769 58.3365169,129.433146 C57.9202247,129.338764 57.4853933,129.417978 57.0640449,129.498876 C56.0022472,129.699438 53.9780899,129.667416 53.1370787,130.451124 C52.4646067,131.074719 52.3668539,132.49382 53.0730337,133.11236 Z" id="Path" fill="#3F3D56"></path>
            <path d="M65.3932584,132.271348 C65.3932584,132.532584 65.4235955,132.825843 65.6224719,132.992697 C65.7814995,133.103219 65.9737418,133.155595 66.1668539,133.141011 C67.5648888,133.13071 68.8444973,132.354013 69.4988764,131.118539 L74.2179775,130.567416 C75.111236,130.462921 76.0213483,130.353371 76.8421348,129.98427 C77.811236,129.546067 78.5848315,128.775843 79.3348315,128.022472 C79.4668045,127.910267 79.5672913,127.765636 79.6264045,127.602809 C79.7039326,127.30618 79.4780899,126.994382 79.1932584,126.876404 C78.8992541,126.77864 78.5844717,126.761185 78.2814607,126.825843 C75.9775281,127.144382 73.6651685,128.174157 71.4101124,127.601124 C70.8589888,127.461236 70.311236,127.223596 69.7432584,127.264045 C69.4373252,127.303048 69.1380188,127.382976 68.8533708,127.501685 C68.1202247,127.771348 65.9275281,128.153933 65.4421348,128.774157 C64.9567416,129.394382 65.3932584,131.529775 65.3932584,132.271348 Z" id="Path" fill="#3F3D56"></path>
            <path d="M53.4589888,79.5775281 C52.7848315,80.6275281 51.3640449,80.8567416 50.3713483,81.6101124 C48.8460674,82.7679775 48.5882022,84.9252809 48.5005618,86.8348315 C48.441573,88.1561798 48.4044944,89.4977528 48.6977528,90.788764 C48.9033708,91.6870787 49.2640449,92.5432584 49.5404494,93.4247191 C50.1303371,95.3410112 50.2955056,97.3601124 50.3831461,99.3623596 C50.6140449,104.418539 50.408427,109.506742 51.0573034,114.530899 C51.244382,115.968539 51.4988764,117.396067 51.6404494,118.838764 C52.105618,123.611798 51.3168539,128.533146 52.5960674,133.154494 C53.9759581,131.658214 55.9086648,130.792668 57.9438202,130.759551 C58.3651685,130.759551 58.8050562,130.784831 59.1926966,130.614607 C59.5803371,130.444382 59.8870787,129.992697 59.7252809,129.603371 C59.628292,129.433532 59.515428,129.273265 59.3882022,129.124719 C58.8303371,128.282022 59.7775281,127.090449 59.3730337,126.161798 C59.2162921,125.804494 58.8775281,125.539888 58.7780899,125.164045 C58.6719101,124.75618 58.8775281,124.338202 58.9348315,123.920225 C59.0494382,123.077528 58.5657303,122.292135 58.3146067,121.484831 C57.9353933,120.262921 58.0870787,118.956742 58.2185393,117.677528 C58.6532043,113.497802 58.843977,109.296301 58.7898876,105.094382 C58.7544944,102.251124 58.6129213,99.347191 59.4320225,96.6235955 C60.9643358,98.0686893 62.2770998,99.7300853 63.3286517,101.555056 C63.9825843,102.669101 64.547191,103.858989 64.7646067,105.133146 C64.9230337,106.068539 64.8926966,107.024157 64.8606742,107.971348 C64.6988764,112.819663 64.5365169,117.667978 64.3735955,122.516292 C64.2758427,125.448876 64.191573,128.467416 65.2078652,131.217978 C67.791573,129.842697 70.4325843,128.521348 73.0162921,127.13764 C72.9741573,126.185393 71.6932584,125.836517 71.2213483,125.008989 C71.0521324,124.662645 70.9601258,124.283693 70.9516854,123.898315 C70.6247191,119.957865 71.4286517,116.020787 72.1719101,112.13764 C72.4550562,110.657865 72.7314607,109.166292 72.7297753,107.661236 C72.7297753,105.271348 72.0303371,102.942135 71.3073034,100.665169 C70.5421348,98.2533708 69.741573,95.8516854 68.9477528,93.45 C68.4421348,91.9078652 67.9196629,90.3640449 67.2758427,88.8707865 C66.6691011,87.458427 65.9477528,86.0949438 65.4303371,84.6573034 C64.5994382,82.3348315 64.3146067,79.8589888 64.0365169,77.4101124 C60.5241573,78.0994382 56.9662921,78.8764045 53.4589888,79.5775281 Z" id="Path" fill="#2F2E41"></path>
            <circle id="Oval" fill="#FBBEBE" cx="55.2235955" cy="48.647191" r="4.9247191"></circle>
            <path d="M57.0657303,60.5544944 L56.708427,57.8882022 C56.7101563,57.2868858 56.3829752,56.7327472 55.855618,56.4438202 L52.4241573,53.9359551 C52.255618,53.8078652 52.0230337,53.6730337 51.8275281,53.7674157 C51.7060812,53.849262 51.6209429,53.9748562 51.5898876,54.1179775 C51.047191,55.7191011 51.3825843,57.4651685 51.5713483,59.1455056 C51.7314607,60.5460674 51.7853933,61.9567416 51.8393258,63.3589888 C51.914335,64.6327104 51.9109579,65.909839 51.8292135,67.1831461 C51.6438202,69.3876404 50.9865169,71.605618 51.4264045,73.7747191 C51.7162921,75.2089888 52.2269663,76.5421348 52.3466292,78.0016854 C52.4292135,79.0129213 52.4039326,80.0410112 52.7241573,80.9983146 C53.9039326,80.4926966 55.238764,80.5483146 56.5213483,80.6157303 L59.6342697,80.7842697 C60.0660244,80.8239398 60.5009113,80.8137604 60.9303371,80.7539326 C61.4102657,80.6535954 61.8699974,80.4735765 62.2904494,80.2213483 C63.3956647,79.5971576 64.3619816,78.7541394 65.1303371,77.7438202 C64.6044944,75.2039326 65.1151685,72.5814607 64.7646067,70.011236 C64.5640449,68.5297753 64.0617978,67.1022472 63.8258427,65.6292135 C63.5359551,63.8106742 63.6488764,61.9213483 63.1280899,60.1550562 C62.8332068,59.2593278 62.4586764,58.391816 62.0089888,57.5629213 C61.553131,56.6205056 60.8005782,55.8537426 59.8668539,55.3803371 C59.6936519,55.2875264 59.5004297,55.2383531 59.3039326,55.2370787 C58.808427,55.2657303 58.5016854,55.791573 58.3634831,56.2702247 C58.1949438,56.8432584 58.1477528,57.45 58.0162921,58.0247191 C57.8275281,58.8657303 57.5544944,59.8449438 57.0657303,60.5544944 Z" id="Path" fill="#FB4275"></path>
            <path d="M46.9719101,92.3241573 C47.6275281,93.0185393 48.8258427,92.8483146 49.5876404,92.2769663 C51.2460674,91.0348315 51.3994382,88.6567416 51.4904494,86.5870787 C51.5241573,85.8455056 51.5747191,85.0702247 51.9235955,84.4196629 C52.4561798,83.4168539 53.5601124,82.8876404 54.4769663,82.2151685 C56.6511236,80.6241573 57.9269663,78.0016854 58.3095506,75.3421348 C58.6921348,72.6825843 58.2522472,69.9488764 57.5174157,67.358427 C56.2466292,62.8803371 54.1061798,58.705618 51.9337079,54.5898876 C51.8685722,54.4366346 51.7645873,54.3030227 51.6320225,54.2022472 C51.1904494,53.9292135 50.7117978,54.4702247 50.408427,54.8932584 C49.3853933,56.3258427 47.7,57.094382 46.1561798,57.9421348 C44.6123596,58.7898876 43.0348315,59.9191011 42.5679775,61.6162921 C42.2544944,62.7539326 42.4988764,63.9640449 42.7365169,65.1185393 C42.9741573,66.2730337 43.8202247,67.1898876 44.4421348,68.1691011 C45.1712149,69.2417596 45.8282777,70.3616378 46.4089888,71.5213483 C46.6280988,71.9536926 46.7977116,72.4093858 46.9146067,72.8797753 C47.0165282,73.4355389 47.061144,74.0002952 47.0477528,74.5651685 C47.0831461,78.0573034 47.1185393,81.561236 46.697191,85.0280899 C46.4578652,86.9898876 46.0735955,88.958427 46.2488764,90.9269663 C46.2910112,91.4561798 46.5977528,91.9331461 46.9719101,92.3241573 Z" id="Path" fill="#3F3D56"></path>
            <path d="M51.1348315,85.8151685 C51.8359551,86.1286517 52.5455056,86.4539326 53.3039326,86.5786517 C54.0623596,86.7033708 54.8932584,86.6022472 55.4949438,86.1320225 C56.0966292,85.6617978 56.4134831,84.7719101 56.0696629,84.0842697 C56.6101921,84.1014671 57.151232,84.0755423 57.6876404,84.0067416 C57.9960674,83.9679775 58.3702247,83.85 58.4174157,83.5432584 C58.4713483,83.1859551 58.0398876,82.9702247 57.6910112,82.8691011 L55.8101124,82.3516854 C54.9261733,82.0234396 53.9676093,81.951007 53.044382,82.1426966 L50.1792135,82.5808989 C50.1031376,82.5868046 50.029385,82.6098522 49.9634831,82.6483146 C49.8779484,82.721808 49.8187663,82.8212338 49.7949438,82.9314607 C49.6567416,83.3679775 49.0179775,84.5882022 49.2370787,85.0230337 C49.4325843,85.3955056 50.7421348,85.6179775 51.1348315,85.8151685 Z" id="Path" fill="#FBBEBE"></path>
            <path d="M69.1011236,87.6623596 C68.7544465,88.4377143 68.086575,89.0231021 67.2724719,89.2651685 C67.09704,89.3263318 66.908264,89.3385673 66.7264045,89.3005618 C66.3893258,89.2061798 66.2039326,88.8539326 66.0640449,88.5337079 C62.7269663,80.9359551 62.9140449,72.2882022 60.7904494,64.2640449 C60.1601124,61.8825843 59.3174157,59.4893258 59.4707865,57.0303371 C59.4977528,56.5904494 59.5904494,56.0949438 59.9578652,55.8505618 C60.2848315,55.6314607 60.7297753,55.6904494 61.0870787,55.8505618 C61.444382,56.0106742 61.761236,56.2719101 62.0983146,56.4505618 C62.6561798,56.7353933 63.3050562,56.8162921 63.8410112,57.1382022 C64.6365169,57.6151685 65.044382,58.5269663 65.4,59.3831461 C66.1601124,61.2101124 66.9168539,63.0910112 66.9758427,65.0730337 C67.105618,68.9224719 65.3983146,72.6219101 66.2865169,76.3651685 C66.4634831,77.1067416 66.7247191,77.8264045 66.9741573,78.5460674 C67.8670843,81.1279581 68.5988293,83.7628032 69.1651685,86.4353933 C69.2578652,86.8938202 69.2780899,87.2426966 69.1011236,87.6623596 Z" id="Path" fill="#3F3D56"></path>
            <path d="M52.0297753,49.0803371 C52.3247191,48.6033708 52.7342697,48.1837079 52.8926966,47.6460674 C53.005618,47.2634831 52.9820225,46.8488764 53.1185393,46.4662921 C53.455618,45.5426966 54.6252809,45.2022472 55.594382,45.3606742 C56.5634831,45.5191011 57.4348315,46.0348315 58.3820225,46.2926966 C58.9061798,46.4376404 59.6342697,46.3938202 59.7825843,45.8696629 C59.8803371,45.5224719 59.6460674,45.1786517 59.4235955,44.8938202 L56.6292135,41.3275281 C56.2617978,41.4219101 55.8505618,41.5095506 55.5168539,41.3275281 C55.3247191,41.2213483 55.1797753,41.0342697 54.9657303,40.9735955 C54.3842697,40.8050562 53.897191,41.7 53.3140449,41.5449438 C53.1455056,41.5011236 53.0123596,41.3764045 52.8438202,41.3629213 C52.3735955,41.3241573 52.1966292,42.102809 51.7264045,42.141573 C51.5308989,42.158427 51.3421348,42.0337079 51.1483146,42.0522472 C50.974889,42.0872012 50.8198954,42.1835486 50.7117978,42.3235955 C49.7764045,43.3162921 49.397191,44.7404494 49.4477528,46.1022472 C49.4983146,47.4640449 49.2640449,48.7853933 49.7848315,50.0426966 C50.0140449,50.5921348 50.4792135,51.2393258 51.0438202,51.0539326 C51.0438202,50.3123596 51.7348315,49.5724719 51.7432584,48.8308989" id="Path" fill="#2F2E41"></path>
            <g id="Group" opacity="0.1" transform="translate(51.910112, 94.382022)" fill="#000000">
                <path d="M9.63539326,4.5488764 C8.63312866,2.8905515 7.41013946,1.3761314 6,0.0471910112 C5.18089888,2.77078652 5.3258427,5.6747191 5.35786517,8.51797753 C5.41195456,12.7198962 5.22118188,16.9213973 4.78651685,21.1011236 C4.65337079,22.3735955 4.50337079,23.6865169 4.88258427,24.908427 C5.13370787,25.7157303 5.61741573,26.5044944 5.50280899,27.3438202 C5.44550562,27.7617978 5.23988764,28.1865169 5.34606742,28.5876404 C5.44550562,28.9634831 5.78426966,29.2280899 5.94101124,29.5853933 C6.34550562,30.5140449 5.39831461,31.7022472 5.95617978,32.5483146 C6.08340557,32.6968602 6.19626954,32.8571271 6.29325843,33.0269663 C6.46179775,33.4179775 6.14831461,33.8696629 5.76067416,34.0382022 C5.37303371,34.2067416 4.93314607,34.1780899 4.51179775,34.1831461 C2.91671879,34.2098951 1.37237862,34.7481101 0.106179775,35.7185393 C0.2171821,36.7489322 0.409352057,37.7689545 0.680898876,38.7691011 C2.06078954,37.2728203 3.99349624,36.4072747 6.02865169,36.3741573 C6.45,36.3741573 6.88988764,36.3994382 7.27752809,36.2292135 C7.66516854,36.0589888 7.97191011,35.6073034 7.81011236,35.2179775 C7.71312348,35.0481383 7.6002595,34.8878715 7.47303371,34.7393258 C6.91516854,33.8966292 7.86235955,32.7050562 7.45786517,31.7764045 C7.3011236,31.4191011 6.96235955,31.1544944 6.86292135,30.7786517 C6.75674157,30.3707865 6.96235955,29.952809 7.01966292,29.5348315 C7.13426966,28.6921348 6.6505618,27.9067416 6.3994382,27.0994382 C6.02022472,25.8775281 6.17022472,24.5713483 6.30337079,23.2921348 C6.73803581,19.1124085 6.9288085,14.9109074 6.8747191,10.7089888 C6.83932584,7.86573034 6.69775281,4.96179775 7.51685393,2.23820225 C8.27977418,2.95441328 8.98793771,3.72680167 9.63539326,4.5488764 L9.63539326,4.5488764 Z" id="Path"></path>
            </g>
            <g id="Group" opacity="0.1" transform="translate(49.213483, 44.494382)" fill="#000000">
                <path d="M0.239325843,1.76460674 C0.239325843,1.53370787 0.239325843,1.3011236 0.239325843,1.06685393 C0.229213483,1.24719101 0.229213483,1.42752809 0.239325843,1.60617978 C0.237640449,1.66348315 0.237640449,1.71573034 0.239325843,1.76460674 Z" id="Path"></path>
                <path d="M9.16853933,1.13258427 C8.22134831,0.873033708 7.34831461,0.360674157 6.38089888,0.200561798 C5.41348315,0.0404494382 4.23876404,0.38258427 3.90505618,1.30617978 C3.76853933,1.68033708 3.79213483,2.09494382 3.67921348,2.48595506 C3.52078652,3.02359551 3.11123596,3.44325843 2.81629213,3.92022472 L2.53820225,3.6741573 C2.52977528,4.41573034 1.84719101,5.15561798 1.83876404,5.89719101 C1.2741573,6.08089888 0.808988764,5.43370787 0.579775281,4.88595506 C0.343408675,4.2813893 0.224432065,3.637314 0.229213483,2.98820225 C0.214044944,3.86966292 0.229213483,4.72752809 0.579775281,5.56011236 C0.808988764,6.10955056 1.2741573,6.75674157 1.83876404,6.57134831 C1.83876404,5.82977528 2.52977528,5.08988764 2.53820225,4.34831461 L2.81629213,4.59438202 C3.11123596,4.11741573 3.52078652,3.69775281 3.67921348,3.16011236 C3.79213483,2.77752809 3.76853933,2.36292135 3.90505618,1.98033708 C4.24213483,1.05674157 5.41179775,0.716292135 6.38089888,0.874719101 C7.35,1.03314607 8.22134831,1.5488764 9.16853933,1.80674157 C9.69269663,1.95168539 10.4207865,1.90786517 10.5691011,1.38370787 C10.6116406,1.20680788 10.5882733,1.02046908 10.5033708,0.859550562 C10.2691011,1.23876404 9.63707865,1.25898876 9.16853933,1.13258427 Z" id="Path"></path>
            </g>
            <path d="M42.4533708,66.6370787 C42.3095529,67.6651632 42.1024175,68.6833912 41.8331461,69.6859551 L40.6533708,74.494382 C40.5269663,75 40.4005618,75.5325843 40.4561798,76.0567416 C40.5337079,76.7629213 40.9348315,77.3882022 41.3410112,77.9713483 C43.650597,81.2847897 46.4710157,84.2110168 49.697191,86.6410112 C49.5101124,85.6803371 50.1758427,84.7870787 50.8011236,84.0320225 C51.4264045,83.2769663 52.0365169,82.5539326 52.8539326,82.0651685 C50.8067416,80.141573 48.8258427,78.15 46.911236,76.0904494 C46.7094941,75.8902062 46.535987,75.6633996 46.3955056,75.4162921 C45.9337079,74.5247191 46.3955056,73.4595506 46.7966292,72.5393258 C48.0657303,69.608427 48.6657303,66.2814607 47.8516854,63.1938202 C47.5449438,62.0325843 47.0089888,60.8730337 46.0331461,60.1601124 C45.6067416,59.8483146 45.0219101,59.6376404 44.5567416,59.8719101 C44.3583664,59.98675 44.1861529,60.1417422 44.0511236,60.3269663 C42.5359551,62.1792135 42.7162921,64.3955056 42.4533708,66.6370787 Z" id="Path" fill="#3F3D56"></path>
            <ellipse id="Oval" fill="#FB4275" cx="43.4426966" cy="133.692135" rx="4.92808989" ry="1"></ellipse>
            <ellipse id="Oval" fill="#3F3D56" cx="43.3601124" cy="133.289326" rx="1" ry="1"></ellipse>
            <ellipse id="Oval" fill="#3F3D56" cx="43.3601124" cy="132.370787" rx="1" ry="1"></ellipse>
            <ellipse id="Oval" fill="#3F3D56" cx="43.3601124" cy="131.453933" rx="1" ry="1"></ellipse>
            <ellipse id="Oval" fill="#3F3D56" cx="43.3601124" cy="130.535393" rx="1" ry="1"></ellipse>
            <ellipse id="Oval" fill="#3F3D56" cx="43.3601124" cy="129.616854" rx="1" ry="1"></ellipse>
            <ellipse id="Oval" fill="#3F3D56" cx="43.3601124" cy="128.7" rx="1" ry="1"></ellipse>
            <ellipse id="Oval" fill="#3F3D56" cx="43.3601124" cy="127.781461" rx="1" ry="1"></ellipse>
            <path d="M45.505618,121.5 C45.5844136,121.400199 45.6559456,121.294873 45.7196629,121.184831 L44.2129213,120.937079 L45.8426966,120.948876 C46.1584145,120.261009 46.1773082,119.473566 45.8949438,118.771348 L43.7039326,119.905618 L45.7264045,118.424157 C45.2127111,117.530791 44.2424924,116.999783 43.2131238,117.04862 C42.1837553,117.097458 41.2681676,117.717936 40.841361,118.655923 C40.4145544,119.593911 40.548231,120.691829 41.1876404,121.5 C41.0647498,121.656414 40.9596109,121.825993 40.8741573,122.005618 L42.8308989,123.016854 L40.744382,122.317416 C40.4467451,123.19718 40.6134726,124.16775 41.1876404,124.897753 C40.3005415,126.02452 40.4286886,127.64392 41.4819646,128.61714 C42.5352407,129.590361 44.1597032,129.590361 45.2129792,128.61714 C46.2662552,127.64392 46.3944023,126.02452 45.5073034,124.897753 C46.2916827,123.900975 46.2916827,122.496777 45.5073034,121.5 L45.505618,121.5 Z" id="Path" fill="#FB4275"></path>
            <path d="M40.5994382,123.198876 C40.5982292,123.815311 40.8055263,124.414037 41.1876404,124.897753 C40.3005415,126.02452 40.4286886,127.64392 41.4819646,128.61714 C42.5352407,129.590361 44.1597032,129.590361 45.2129792,128.61714 C46.2662552,127.64392 46.3944023,126.02452 45.5073034,124.897753 C45.8764045,124.430899 40.5994382,122.890449 40.5994382,123.198876 Z" id="Path" fill="#000000" opacity="0.1"></path>
            <ellipse id="Oval" fill="#FB4275" cx="155.256742" cy="133.84382" rx="6.77696629" ry="1.14606742"></ellipse>
            <path d="M158.059551,131.969663 C158.368524,131.717913 158.593649,131.378169 158.705056,130.995506 C158.789326,130.607865 158.624157,130.142697 158.253371,130.001124 C157.838764,129.842697 157.395506,130.130899 157.060112,130.420787 C156.724719,130.710674 156.338764,131.042697 155.900562,130.980337 C156.359879,130.563074 156.567081,129.935713 156.446629,129.326966 C156.427451,129.202966 156.375032,129.086479 156.294944,128.989888 C156.064045,128.74382 155.647753,128.85 155.371348,129.04382 C154.494944,129.658989 154.250562,130.850562 154.245506,131.920787 C154.157865,131.534831 154.232022,131.132022 154.230337,130.741011 C154.228652,130.35 154.119101,129.898315 153.783708,129.692697 C153.577,129.580914 153.344446,129.525682 153.109551,129.532584 C152.716854,129.517416 152.276966,129.557865 152.008989,129.846067 C151.67191,130.203371 151.761236,130.803371 152.051124,131.194382 C152.341011,131.585393 152.78427,131.836517 153.192135,132.107865 C153.51841,132.302406 153.796651,132.567973 154.00618,132.884831 C154.03143,132.929116 154.051775,132.976023 154.066854,133.024719 L156.53764,133.024719 C157.090227,132.743318 157.602179,132.38841 158.059551,131.969663 Z" id="Path" fill="#FB4275"></path>
            <polygon id="Path" fill="#3F3D56" points="123.83427 70.1089888 123.980899 69.7820225 123.785393 69.694382 123.638764 70.0213483 122.87191 70.855618 123.723034 71.2365169"></polygon>
            <polygon id="Path" fill="#3F3D56" points="124.683708 70.5 124.833708 70.1646067 124.633146 70.0735955 124.483146 70.4089888 123.696067 71.2651685 124.569101 71.6561798"></polygon>
            <polygon id="Path" fill="#3F3D56" points="125.536517 70.8707865 125.683146 70.5438202 125.485955 70.4561798 125.339326 70.7831461 124.572472 71.6174157 125.423596 71.9983146"></polygon>
            <polygon id="Path" fill="#3F3D56" points="131.595506 73.594382 131.745506 73.2589888 131.544944 73.1679775 131.394944 73.5033708 130.607865 74.3595506 131.480899 74.7505618"></polygon>
            <polygon id="Path" fill="#3F3D56" points="132.468539 73.9853933 132.618539 73.65 132.417978 73.5589888 132.266292 73.894382 131.480899 74.7505618 132.353933 75.141573"></polygon>
            <polygon id="Path" fill="#3F3D56" points="133.339888 74.3747191 133.491573 74.0393258 133.289326 73.95 133.139326 74.2853933 132.353933 75.141573 133.225281 75.5325843"></polygon>
            <polygon id="Path" fill="#3F3D56" points="127.636517 71.8213483 127.786517 71.4859551 127.585955 71.3949438 127.435955 71.7320225 126.648876 72.5882022 127.52191 72.9775281"></polygon>
            <polygon id="Path" fill="#3F3D56" points="128.509551 72.2123596 128.659551 71.8769663 128.457303 71.7859551 128.307303 72.1213483 127.52191 72.9775281 128.393258 73.3685393"></polygon>
            <polygon id="Path" fill="#3F3D56" points="129.380899 72.6016854 129.530899 72.2662921 129.330337 72.1769663 129.180337 72.5123596 128.393258 73.3685393 129.266292 73.7595506"></polygon>
            <path d="M137.263483,47.9780899 C137.755618,46.8117978 137.278652,44.1589888 136.545506,43.8303371 C135.81236,43.5016854 133.580899,44.9426966 133.038202,46.0870787 L133.004494,46.0702247 L122.608989,69.2882022 L126.869663,71.202809 L137.265169,47.9780899 L137.263483,47.9780899 Z" id="Path" fill="#ECECF3"></path>
            <path d="M145.048315,51.4634831 C145.538764,50.297191 145.063483,47.644382 144.328652,47.3157303 C143.59382,46.9870787 141.36573,48.4280899 140.823034,49.5724719 L140.78764,49.555618 L130.392135,72.7735955 L134.662921,74.6814607 L145.058427,51.4634831 L145.048315,51.4634831 Z" id="Path" fill="#ECECF3"></path>
            <path d="M145.936517,38.8634831 C146.669663,37.1578652 146.610674,33.5578652 145.882584,33.2292135 C145.154494,32.9005618 142.494944,35.288764 141.711236,36.9724719 L141.677528,36.955618 L126.433146,71.0005618 L130.69382,72.908427 L145.938202,38.8634831 L145.936517,38.8634831 Z" id="Path" fill="#FFFFFF"></path>
            <path d="M144.849306,34.6284537 L144.849306,34.6284537 C145.092714,34.6284537 145.290036,34.8257754 145.290036,35.069184 L145.290036,36.0989593 C145.290036,36.342368 145.092714,36.5396897 144.849306,36.5396897 L144.849306,36.5396897 C144.605897,36.5396897 144.408575,36.342368 144.408575,36.0989593 L144.408575,35.069184 C144.408575,34.8257754 144.605897,34.6284537 144.849306,34.6284537 Z" id="Rectangle" fill="#3F3D56" transform="translate(144.849306, 35.584072) rotate(24.120000) translate(-144.849306, -35.584072) "></path>
            <path d="M111.770225,75.5561798 L116.098315,76.1393258 C116.797753,76.2337079 117.542697,76.3213483 118.184831,76.0280899 C119.248315,75.5410112 119.652809,74.1960674 120.632022,73.5589888 C121.735955,72.8393258 123.348876,73.2960674 124.119101,74.3646067 C124.321348,74.6477528 124.481461,74.9696629 124.757865,75.1803371 C125.865169,76.0230337 127.623034,74.438764 128.782584,75.2207865 C129.360674,75.6134831 129.542697,76.491573 130.203371,76.7241573 C130.639888,76.8775281 131.12191,76.6786517 131.583708,76.7157303 C132.738202,76.808427 133.258989,78.2898876 133.016292,79.4224719 C132.773596,80.5550562 132.072472,81.5561798 131.883708,82.697191 C131.694944,83.8382022 132.379213,85.294382 133.533708,85.2252809" id="Path" fill="#FFFFFF" opacity="0.3"></path>
            <circle id="Oval" fill="#FB4275" opacity="0.1" cx="137.52809" cy="12.9775281" r="2.02247191"></circle>
            <circle id="Oval" fill="#FB4275" opacity="0.1" cx="161.966292" cy="2.02247191" r="2.02247191"></circle>
            <circle id="Oval" fill="#FB4275" opacity="0.1" cx="151.853933" cy="9.60674157" r="2.02247191"></circle>
            <circle id="Oval" fill="#FB4275" opacity="0.1" cx="175.617978" cy="27.1348315" r="2.02247191"></circle>
            <circle id="Oval" fill="#FB4275" opacity="0.1" cx="163.988764" cy="15" r="2.02247191"></circle>
        </g>
    </g>
</svg>