<?xml version="1.0" encoding="UTF-8"?>
<svg width="110px" height="24px" viewBox="0 0 110 24" version="1.1" xmlns="http://www.w3.org/2000/svg" xmlns:xlink="http://www.w3.org/1999/xlink">
    <!-- Generator: Sketch 54.1 (76490) - https://sketchapp.com -->
    <title>founders_footer</title>
    <desc>Created with Sketch.</desc>
    <g id="founders" stroke="none" stroke-width="1" fill="none" fill-rule="evenodd">
        <path d="M96.192,18.6546761 C96.148135,18.3924581 96.1201443,18.1158428 96.1080277,17.8248295 L96.192,17.8248295 L96.192,0 L109.248,0 L109.248,24 L96.192,24 L96.192,18.6546761 Z M2.41379862,10.0782974 L0,10.0782974 L0,7.99589632 L2.41379862,7.99589632 L2.41379862,5.85796453 C2.41379862,4.69181409 2.75135712,3.80795935 3.42648424,3.20637381 C4.10161137,2.60478826 5.08654233,2.304 6.38130669,2.304 C6.60326629,2.304 6.85759119,2.32251005 7.14428901,2.3595307 C7.43098683,2.39655134 7.68531173,2.45208149 7.90727133,2.52612278 L7.90727133,4.58075853 C7.70380836,4.50671723 7.48185209,4.4558146 7.24139585,4.42804911 C7.00093961,4.40028363 6.77898334,4.38640109 6.57552037,4.38640109 C6.00212473,4.38640109 5.55821218,4.49746137 5.24376941,4.71958527 C4.92932664,4.94170916 4.77210761,5.36744024 4.77210761,5.99679127 L4.77210761,7.99589632 L7.54658878,7.99589632 L7.54658878,10.0782974 L4.77210761,10.0782974 L4.77210761,22.3505812 L2.41379862,22.3505812 L2.41379862,10.0782974 Z M11.3753728,15.1871214 C11.3753728,16.0571067 11.490975,16.8299011 11.7221829,17.505528 C11.9533909,18.1811548 12.272453,18.7457112 12.6793789,19.1992142 C13.0863049,19.6527171 13.562586,19.9997805 14.1082367,20.2404147 C14.6538874,20.481049 15.2318986,20.6013643 15.8422875,20.6013643 C16.4526764,20.6013643 17.0306875,20.481049 17.5763382,20.2404147 C18.1219889,19.9997805 18.5982701,19.6527171 19.005196,19.1992142 C19.4121219,18.7457112 19.7311841,18.1811548 19.962392,17.505528 C20.1935999,16.8299011 20.3092022,16.0571067 20.3092022,15.1871214 C20.3092022,14.3171362 20.1935999,13.5443417 19.962392,12.8687149 C19.7311841,12.193088 19.4121219,11.6239041 19.005196,11.161146 C18.5982701,10.6983879 18.1219889,10.346697 17.5763382,10.1060628 C17.0306875,9.86542854 16.4526764,9.74511323 15.8422875,9.74511323 C15.2318986,9.74511323 14.6538874,9.86542854 14.1082367,10.1060628 C13.562586,10.346697 13.0863049,10.6983879 12.6793789,11.161146 C12.272453,11.6239041 11.9533909,12.193088 11.7221829,12.8687149 C11.490975,13.5443417 11.3753728,14.3171362 11.3753728,15.1871214 Z M8.87833974,15.1871214 C8.87833974,14.1320329 9.02631059,13.1463729 9.32225673,12.2301119 C9.61820286,11.3138508 10.0621154,10.5179188 10.6540077,9.84229195 C11.2459,9.16666511 11.976506,8.63450126 12.8458478,8.24578445 C13.7151896,7.85706763 14.7139928,7.66271214 15.8422875,7.66271214 C16.9890788,7.66271214 17.9925061,7.85706763 18.8525995,8.24578445 C19.712693,8.63450126 20.438675,9.16666511 21.0305673,9.84229195 C21.6224595,10.5179188 22.0663721,11.3138508 22.3623182,12.2301119 C22.6582644,13.1463729 22.8062352,14.1320329 22.8062352,15.1871214 C22.8062352,16.2422099 22.6582644,17.2232424 22.3623182,18.1302483 C22.0663721,19.0372542 21.6224595,19.8285587 21.0305673,20.5041855 C20.438675,21.1798124 19.712693,21.7073487 18.8525995,22.0868104 C17.9925061,22.466272 16.9890788,22.656 15.8422875,22.656 C14.7139928,22.656 13.7151896,22.466272 12.8458478,22.0868104 C11.976506,21.7073487 11.2459,21.1798124 10.6540077,20.5041855 C10.0621154,19.8285587 9.61820286,19.0372542 9.32225673,18.1302483 C9.02631059,17.2232424 8.87833974,16.2422099 8.87833974,15.1871214 Z M37.4554958,22.3505812 L35.2359108,22.3505812 L35.2359108,20.0738226 L35.1804212,20.0738226 C34.6810121,20.9623182 34.0428878,21.6147974 33.2660292,22.0312797 C32.4891706,22.447762 31.573601,22.656 30.5192929,22.656 C29.5759645,22.656 28.7898694,22.5310572 28.1609839,22.2811678 C27.5320983,22.0312784 27.0234485,21.67496 26.6350192,21.2122019 C26.2465899,20.7494438 25.9737687,20.1987699 25.8165473,19.5601637 C25.6593259,18.9215575 25.5807164,18.2135482 25.5807164,17.4361146 L25.5807164,7.99589632 L27.9390254,7.99589632 L27.9390254,17.7137681 C27.9390254,18.6022637 28.1979744,19.3056454 28.7158801,19.8239345 C29.2337858,20.3422236 29.9458955,20.6013643 30.8522306,20.6013643 C31.5735993,20.6013643 32.1978513,20.490304 32.7250054,20.2681801 C33.2521594,20.0460562 33.6914479,19.7313854 34.0428839,19.3241583 C34.39432,18.9169311 34.657893,18.4402974 34.8336111,17.8942428 C35.0093291,17.3481883 35.0971868,16.7512393 35.0971868,16.1033779 L35.0971868,7.99589632 L37.4554958,7.99589632 L37.4554958,22.3505812 Z M41.0068317,7.99589632 L43.2264166,7.99589632 L43.2264166,10.2726548 L43.2819062,10.2726548 C44.2622278,8.53268434 45.8159217,7.66271214 47.9430346,7.66271214 C48.8863629,7.66271214 49.672458,7.79228247 50.3013436,8.05142701 C50.9302291,8.31057155 51.4388789,8.67151747 51.8273082,9.13427558 C52.2157375,9.59703369 52.4885588,10.1477076 52.6457802,10.7863138 C52.8030016,11.42492 52.8816111,12.1329293 52.8816111,12.9103629 L52.8816111,22.3505812 L50.5233021,22.3505812 L50.5233021,12.6327094 C50.5233021,11.7442138 50.2643531,11.0408321 49.7464473,10.522543 C49.2285416,10.0042539 48.5164319,9.74511323 47.6100968,9.74511323 C46.8887281,9.74511323 46.2644761,9.85617351 45.7373221,10.0782974 C45.210168,10.3004213 44.7708795,10.6150921 44.4194435,11.0223192 C44.0680075,11.4295464 43.8044344,11.9061801 43.6287164,12.4522347 C43.4529984,12.9982892 43.3651407,13.5952382 43.3651407,14.2430996 L43.3651407,22.3505812 L41.0068317,22.3505812 L41.0068317,7.99589632 Z M58.1531253,15.2981828 C58.1531253,15.9645545 58.240983,16.6170336 58.416701,17.2556398 C58.592419,17.894246 58.8606162,18.46343 59.2213005,18.9632087 C59.5819849,19.4629875 60.0443938,19.8609535 60.6085411,20.1571187 C61.1726884,20.4532839 61.8339332,20.6013643 62.5922952,20.6013643 C63.3876504,20.6013643 64.0627674,20.4440289 64.6176664,20.1293533 C65.1725654,19.8146778 65.6257261,19.4028293 65.9771622,18.8937954 C66.3285982,18.3847614 66.5829231,17.8063225 66.7401445,17.1584611 C66.8973659,16.5105998 66.9759754,15.8534931 66.9759754,15.1871214 C66.9759754,14.4837291 66.8927418,13.8034849 66.7262721,13.1463683 C66.5598024,12.4892518 66.2962293,11.9108129 65.935545,11.4110341 C65.5748606,10.9112553 65.1078276,10.5086618 64.534432,10.2032415 C63.9610363,9.89782112 63.267423,9.74511323 62.4535711,9.74511323 C61.6582159,9.74511323 60.9830989,9.90244863 60.4281998,10.2171241 C59.8733008,10.5317997 59.4293883,10.9482757 59.0964489,11.4665648 C58.7635095,11.9848539 58.5230569,12.5771754 58.3750838,13.2435471 C58.2271107,13.9099187 58.1531253,14.5947905 58.1531253,15.2981828 Z M69.25105,22.3505812 L66.892741,22.3505812 L66.892741,20.4070068 L66.8372513,20.4070068 C66.448822,21.2029508 65.8384423,21.7767622 65.0060938,22.1284584 C64.1737453,22.4801546 63.2581756,22.656 62.2593574,22.656 C61.1495594,22.656 60.1831248,22.4523895 59.3600246,22.0451623 C58.5369244,21.6379352 57.8525592,21.0918888 57.3069085,20.4070068 C56.7612578,19.7221248 56.3497139,18.9261928 56.0722644,18.0191869 C55.7948149,17.112181 55.6560922,16.1496586 55.6560922,15.1315907 C55.6560922,14.1135229 55.7901908,13.1510004 56.058392,12.2439945 C56.3265932,11.3369886 56.733513,10.5456841 57.2791637,9.8700573 C57.8248144,9.19443046 58.5091796,8.6576391 59.3322798,8.25966712 C60.15538,7.86169515 61.1125664,7.66271214 62.2038678,7.66271214 C62.5738005,7.66271214 62.9714721,7.69973224 63.3968947,7.77377353 C63.8223173,7.84781483 64.2477335,7.97275765 64.673156,8.14860573 C65.0985786,8.32445381 65.5008744,8.5558294 65.8800553,8.84273943 C66.2592363,9.12964946 66.5782985,9.48596786 66.8372513,9.91170532 L66.892741,9.91170532 L66.892741,2.52612278 L69.25105,2.52612278 L69.25105,22.3505812 Z M82.8460077,13.798854 C82.8090144,13.2435443 82.684164,12.716008 82.4714527,12.2162292 C82.2587414,11.7164504 81.9720479,11.2860918 81.6113636,10.9251405 C81.2506792,10.5641892 80.825263,10.2772835 80.3351022,10.0644147 C79.8449414,9.851546 79.303923,9.74511323 78.7120307,9.74511323 C78.1016418,9.74511323 77.5513752,9.851546 77.0612145,10.0644147 C76.5710537,10.2772835 76.1502616,10.5688167 75.7988255,10.9390232 C75.4473895,11.3092297 75.1699441,11.7395883 74.9664812,12.2301119 C74.7630182,12.7206355 74.6427919,13.2435443 74.6057986,13.798854 L82.8460077,13.798854 Z M85.1210822,17.7970641 C84.8066395,19.4074623 84.1130261,20.6198704 83.0402214,21.4343247 C81.9674166,22.248779 80.6171826,22.656 78.9894789,22.656 C77.8426876,22.656 76.8485084,22.4708995 76.0069116,22.100693 C75.1653148,21.7304866 74.4578292,21.2122052 73.8844335,20.5458336 C73.3110379,19.8794619 72.8809976,19.0835299 72.5942998,18.1580136 C72.3076019,17.2324974 72.1457588,16.2236999 72.1087656,15.1315907 C72.1087656,14.0394816 72.2752328,13.0399391 72.6081722,12.1329332 C72.9411116,11.2259273 73.4081446,10.4392503 74.0092852,9.77287858 C74.6104258,9.1065069 75.3225355,8.58822559 76.1456357,8.2180191 C76.9687359,7.84781261 77.8704332,7.66271214 78.8507548,7.66271214 C80.1270225,7.66271214 81.1859389,7.92648031 82.0275357,8.45402456 C82.8691326,8.9815688 83.5442496,9.652558 84.052907,10.4670123 C84.5615644,11.2814666 84.9129952,12.1699488 85.1072098,13.1324857 C85.3014245,14.0950225 85.380034,15.0112699 85.3430407,15.8812551 L74.6057986,15.8812551 C74.587302,16.5106061 74.6612874,17.1075552 74.8277571,17.6721201 C74.9942268,18.236685 75.262424,18.7364562 75.6323566,19.1714488 C76.0022893,19.6064415 76.4739464,19.9535048 77.047342,20.2126494 C77.6207377,20.4717939 78.2958547,20.6013643 79.0727133,20.6013643 C80.0715315,20.6013643 80.8899953,20.3699887 81.5281291,19.9072306 C82.166263,19.4444724 82.5870551,18.7410907 82.7905181,17.7970641 L85.1210822,17.7970641 Z M87.7013497,7.99589632 L89.9209347,7.99589632 L89.9209347,11.0223192 L89.9764243,11.0223192 C90.5498199,9.85616879 91.2526815,8.99545162 92.08503,8.44014188 C92.9173785,7.88483215 93.9716708,7.62569149 95.2479385,7.66271214 L95.2479385,10.1615935 C94.3046102,10.1615935 93.5000187,10.2911638 92.8341399,10.5503083 C92.1682611,10.8094529 91.6318668,11.1889088 91.2249408,11.6886876 C90.8180149,12.1884663 90.5220732,12.7946704 90.3371068,13.5073179 C90.1521405,14.2199654 90.0596587,15.0390349 90.0596587,15.9645512 L90.0596587,22.3505812 L87.7013497,22.3505812 L87.7013497,7.99589632 Z M96.192,18.6546761 C96.2820597,19.1930384 96.4390338,19.6707125 96.6629239,20.0877053 C96.9958633,20.7078012 97.4397759,21.2075725 97.9946749,21.5870341 C98.5495739,21.9664958 99.1876982,22.2395189 99.9090669,22.4061119 C100.630436,22.5727048 101.388786,22.656 102.184141,22.656 C102.90551,22.656 103.631492,22.5865873 104.362109,22.4477599 C105.092726,22.3089325 105.749347,22.0636743 106.331991,21.7119782 C106.914635,21.360282 107.386292,20.8975308 107.746976,20.3237108 C108.107661,19.7498907 108.288,19.0279989 108.288,18.1580136 C108.288,17.4731316 108.153901,16.8993202 107.8857,16.4365621 C107.617499,15.973804 107.266068,15.5897205 106.831397,15.2843001 C106.396726,14.9788798 105.897325,14.7336217 105.333178,14.5485184 C104.76903,14.3634152 104.191019,14.2060798 103.599127,14.0765075 C103.044228,13.9469352 102.489337,13.8219924 101.934438,13.7016753 C101.379539,13.5813582 100.880138,13.4332778 100.436218,13.2574297 C99.9922991,13.0815817 99.6269961,12.8594611 99.3402982,12.5910614 C99.0536004,12.3226617 98.9102537,11.9848533 98.9102537,11.5776262 C98.9102537,11.2074197 99.0027354,10.9066314 99.1877018,10.6752524 C99.3726681,10.4438733 99.6131207,10.2587729 99.9090669,10.1199454 C100.205013,9.981118 100.533323,9.88394025 100.894008,9.82840928 C101.254692,9.7728783 101.610747,9.74511323 101.962183,9.74511323 C102.35061,9.74511323 102.734412,9.78676084 103.113593,9.8700573 C103.492774,9.95335376 103.83958,10.0875516 104.154023,10.2726548 C104.468466,10.4577581 104.727415,10.7030162 104.930878,11.0084366 C105.134341,11.3138569 105.254567,11.6979404 105.29156,12.1606985 L107.649869,12.1606985 C107.594379,11.2907132 107.409416,10.5641939 107.094973,9.98111869 C106.78053,9.39804347 106.359738,8.9352923 105.832584,8.5928513 C105.30543,8.25041029 104.699674,8.00977968 104.015299,7.87095225 C103.330924,7.73212482 102.581821,7.66271214 101.767969,7.66271214 C101.139084,7.66271214 100.505584,7.74137984 99.8674497,7.8987176 C99.2293158,8.05605536 98.6559288,8.29668597 98.1472713,8.62061664 C97.6386139,8.94454732 97.2224459,9.36565089 96.8987548,9.88393997 C96.5750637,10.4022291 96.4132206,11.0223156 96.4132206,11.7442183 C96.4132206,12.6697345 96.6444251,13.3916263 97.1068409,13.9099154 C97.5692567,14.4282045 98.1472679,14.830798 98.8408916,15.117708 C99.5345154,15.4046181 100.288242,15.6267386 101.102094,15.7840764 C101.915946,15.9414142 102.669672,16.1172596 103.363296,16.311618 C104.05692,16.5059764 104.634931,16.7604896 105.097347,17.0751651 C105.559762,17.3898406 105.790967,17.8525918 105.790967,18.4634325 C105.790967,18.9076803 105.679989,19.2732537 105.458029,19.5601637 C105.23607,19.8470737 104.954,20.0645668 104.611812,20.2126494 C104.269625,20.360732 103.895074,20.4625372 103.488148,20.5180682 C103.081222,20.5735992 102.692798,20.6013643 102.322865,20.6013643 C101.841953,20.6013643 101.37492,20.5550891 100.921752,20.4625375 C100.468585,20.3699859 100.061665,20.217278 99.7009808,20.0044093 C99.3402964,19.7915405 99.0489788,19.5046348 98.8270192,19.1436835 C98.6050596,18.7827322 98.4848333,18.3431186 98.4663367,17.8248295 L96.192,17.8248295 L96.192,18.6546761 Z" id="founders_footer" fill="#3F3F3F"></path>
    </g>
</svg>