<?xml version="1.0" encoding="UTF-8"?>
<svg width="146px" height="32px" viewBox="0 0 146 32" version="1.1" xmlns="http://www.w3.org/2000/svg" xmlns:xlink="http://www.w3.org/1999/xlink">
    <!-- Generator: Sketch 54.1 (76490) - https://sketchapp.com -->
    <title>founders</title>
    <desc>Created with Sketch.</desc>
    <g id="founders" stroke="none" stroke-width="1" fill="none" fill-rule="evenodd">
        <path d="M128.256,24.8729015 C128.197513,24.5232774 128.160192,24.1544571 128.144037,23.7664393 L128.256,23.7664393 L128.256,0 L145.664,0 L145.664,32 L128.256,32 L128.256,24.8729015 Z M3.21839816,13.4377299 L0,13.4377299 L0,10.6611951 L3.21839816,10.6611951 L3.21839816,7.81061937 C3.21839816,6.25575212 3.66847616,5.07727914 4.56864566,4.27516508 C5.46881516,3.47305101 6.78205645,3.072 8.50840892,3.072 C8.80435505,3.072 9.14345492,3.09668006 9.52571868,3.14604093 C9.90798244,3.19540179 10.2470823,3.26944198 10.5430284,3.36816371 L10.5430284,6.10767804 C10.2717445,6.0089563 9.97580278,5.94108613 9.65519447,5.90406548 C9.33458615,5.86704484 9.03864445,5.84853479 8.76736049,5.84853479 C8.00283297,5.84853479 7.41094957,5.99661516 6.99169254,6.29278035 C6.57243552,6.58894555 6.36281015,7.15658698 6.36281015,7.99572169 L6.36281015,10.6611951 L10.0621184,10.6611951 L10.0621184,13.4377299 L6.36281015,13.4377299 L6.36281015,29.8007749 L3.21839816,29.8007749 L3.21839816,13.4377299 Z M15.1671637,20.2494952 C15.1671637,21.4094756 15.3213,22.4398682 15.6295772,23.340704 C15.9378545,24.2415397 16.3632707,24.9942817 16.9058386,25.5989523 C17.4484065,26.2036229 18.0834481,26.666374 18.8109823,26.9872196 C19.5385166,27.3080653 20.3091981,27.4684857 21.12305,27.4684857 C21.9369018,27.4684857 22.7075833,27.3080653 23.4351176,26.9872196 C24.1626519,26.666374 24.7976934,26.2036229 25.3402613,25.5989523 C25.8828293,24.9942817 26.3082454,24.2415397 26.6165227,23.340704 C26.9247999,22.4398682 27.0789362,21.4094756 27.0789362,20.2494952 C27.0789362,19.0895149 26.9247999,18.0591223 26.6165227,17.1582865 C26.3082454,16.2574507 25.8828293,15.4985388 25.3402613,14.881528 C24.7976934,14.2645172 24.1626519,13.795596 23.4351176,13.4747503 C22.7075833,13.1539047 21.9369018,12.9934843 21.12305,12.9934843 C20.3091981,12.9934843 19.5385166,13.1539047 18.8109823,13.4747503 C18.0834481,13.795596 17.4484065,14.2645172 16.9058386,14.881528 C16.3632707,15.4985388 15.9378545,16.2574507 15.6295772,17.1582865 C15.3213,18.0591223 15.1671637,19.0895149 15.1671637,20.2494952 Z M11.8377863,20.2494952 C11.8377863,18.8427106 12.0350808,17.5284972 12.4296756,16.3068158 C12.8242705,15.0851344 13.4161539,14.0238917 14.2053436,13.1230559 C14.9945333,12.2222201 15.9686747,11.5126683 17.1277971,10.9943793 C18.2869195,10.4760902 19.6186571,10.2169495 21.12305,10.2169495 C22.652105,10.2169495 23.9900081,10.4760902 25.1367994,10.9943793 C26.2835907,11.5126683 27.2515666,12.2222201 28.0407563,13.1230559 C28.829946,14.0238917 29.4218294,15.0851344 29.8164243,16.3068158 C30.2110191,17.5284972 30.4083136,18.8427106 30.4083136,20.2494952 C30.4083136,21.6562799 30.2110191,22.9643232 29.8164243,24.1736644 C29.4218294,25.3830056 28.829946,26.4380783 28.0407563,27.3389141 C27.2515666,28.2397498 26.2835907,28.9431316 25.1367994,29.4490805 C23.9900081,29.9550294 22.652105,30.208 21.12305,30.208 C19.6186571,30.208 18.2869195,29.9550294 17.1277971,29.4490805 C15.9686747,28.9431316 14.9945333,28.2397498 14.2053436,27.3389141 C13.4161539,26.4380783 12.8242705,25.3830056 12.4296756,24.1736644 C12.0350808,22.9643232 11.8377863,21.6562799 11.8377863,20.2494952 Z M49.940661,29.8007749 L46.9812145,29.8007749 L46.9812145,26.7650969 L46.9072283,26.7650969 C46.2413495,27.9497576 45.3905171,28.8197298 44.3547056,29.3750396 C43.3188941,29.9303493 42.0981346,30.208 40.6923905,30.208 C39.4346194,30.208 38.3864925,30.0414096 37.5479785,29.7082237 C36.7094644,29.3750379 36.0312647,28.8999467 35.513359,28.2829359 C34.9954532,27.6659251 34.6316915,26.9316932 34.422063,26.0802183 C34.2124345,25.2287434 34.1076218,24.284731 34.1076218,23.2481528 L34.1076218,10.6611951 L37.2520338,10.6611951 L37.2520338,23.6183574 C37.2520338,24.8030182 37.5972991,25.7408606 38.2878401,26.4319127 C38.9783811,27.1229648 39.9278607,27.4684857 41.1363075,27.4684857 C42.0981324,27.4684857 42.9304684,27.3204053 43.6333405,27.0242401 C44.3362126,26.7280749 44.9219305,26.3085139 45.3905119,25.7655443 C45.8590933,25.2225748 46.2105241,24.5870632 46.4448148,23.8589905 C46.6791055,23.1309177 46.796249,22.3349857 46.796249,21.4711705 L46.796249,10.6611951 L49.940661,10.6611951 L49.940661,29.8007749 Z M54.6757756,10.6611951 L57.6352221,10.6611951 L57.6352221,13.6968731 L57.7092083,13.6968731 C59.0163037,11.3769125 61.0878956,10.2169495 63.9240461,10.2169495 C65.1818172,10.2169495 66.2299441,10.38971 67.0684581,10.735236 C67.9069722,11.0807621 68.5851719,11.5620233 69.1030776,12.1790341 C69.6209834,12.7960449 69.984745,13.5302768 70.1943736,14.3817517 C70.4040021,15.2332266 70.5088148,16.177239 70.5088148,17.2138172 L70.5088148,29.8007749 L67.3644028,29.8007749 L67.3644028,16.8436126 C67.3644028,15.6589518 67.0191375,14.7211094 66.3285965,14.0300573 C65.6380555,13.3390052 64.6885759,12.9934843 63.4801291,12.9934843 C62.5183042,12.9934843 61.6859682,13.1415647 60.9830961,13.4377299 C60.280224,13.7338951 59.6945061,14.1534561 59.2259247,14.6964256 C58.7573433,15.2393952 58.4059125,15.8749068 58.1716218,16.6029795 C57.9373311,17.3310523 57.8201875,18.1269843 57.8201875,18.9907995 L57.8201875,29.8007749 L54.6757756,29.8007749 L54.6757756,10.6611951 Z M77.5375004,20.3975771 C77.5375004,21.2860727 77.654644,22.1560449 77.8889347,23.0075198 C78.1232254,23.8589947 78.4808216,24.6179066 78.9617341,25.2842783 C79.4426465,25.95065 80.0591917,26.4812713 80.8113882,26.8761583 C81.5635846,27.2710452 82.4452442,27.4684857 83.4563935,27.4684857 C84.5168672,27.4684857 85.4170232,27.2587051 86.1568885,26.8391378 C86.8967539,26.4195704 87.5009682,25.870439 87.9695496,25.1917271 C88.438131,24.5130153 88.7772308,23.7417633 88.9868593,22.8779482 C89.1964879,22.014133 89.3013005,21.1379908 89.3013005,20.2494952 C89.3013005,19.3116388 89.1903224,18.4046465 88.9683628,17.5284911 C88.7464032,16.6523358 88.3949724,15.8810838 87.91406,15.2147121 C87.4331475,14.5483405 86.8104368,14.0115491 86.0459093,13.604322 C85.2813818,13.1970948 84.356564,12.9934843 83.2714281,12.9934843 C82.2109545,12.9934843 81.3107985,13.2032648 80.5709331,13.6228322 C79.8310678,14.0423996 79.2391844,14.597701 78.7952652,15.2887531 C78.351346,15.9798052 78.0307425,16.7695672 77.833445,17.6580628 C77.6361476,18.5465583 77.5375004,19.4597206 77.5375004,20.3975771 Z M92.3347333,29.8007749 L89.1903213,29.8007749 L89.1903213,27.2093424 L89.1163351,27.2093424 C88.5984294,28.270601 87.7845897,29.035683 86.6747917,29.5046112 C85.5649937,29.9735394 84.3442342,30.208 83.0124766,30.208 C81.5327459,30.208 80.2441664,29.9365193 79.1466995,29.3935498 C78.0492325,28.8505803 77.1367456,28.1225184 76.4092114,27.2093424 C75.6816771,26.2961664 75.1329519,25.2349237 74.7630192,24.0255825 C74.3930865,22.8162413 74.208123,21.5328781 74.208123,20.1754543 C74.208123,18.8180305 74.3869211,17.5346673 74.7445227,16.3253261 C75.1021243,15.1159849 75.644684,14.0609122 76.3722183,13.1600764 C77.0997525,12.2592406 78.0122395,11.5435188 79.1097064,11.0128895 C80.2071733,10.4822602 81.4834219,10.2169495 82.9384904,10.2169495 C83.431734,10.2169495 83.9619628,10.2663096 84.5291929,10.3650314 C85.096423,10.4637531 85.6636446,10.6303435 86.2308747,10.8648076 C86.7981048,11.0992717 87.3344991,11.4077725 87.8400738,11.7903192 C88.3456484,12.1728659 88.7710646,12.6479571 89.1163351,13.2156071 L89.1903213,13.2156071 L89.1903213,3.36816371 L92.3347333,3.36816371 L92.3347333,29.8007749 Z M110.461344,18.398472 C110.412019,17.6580591 110.245552,16.9546773 109.961937,16.2883056 C109.678322,15.6219339 109.296064,15.0481225 108.815151,14.566854 C108.334239,14.0855856 107.767017,13.7030446 107.11347,13.4192196 C106.459922,13.1353947 105.738564,12.9934843 104.949374,12.9934843 C104.135522,12.9934843 103.401834,13.1353947 102.748286,13.4192196 C102.094738,13.7030446 101.533682,14.0917556 101.065101,14.5853643 C100.596519,15.0789729 100.226592,15.6527844 99.9553082,16.3068158 C99.6840243,16.9608473 99.5237225,17.6580591 99.4743982,18.398472 L110.461344,18.398472 Z M113.494776,23.7294188 C113.075519,25.8766165 112.150701,27.4931606 110.720295,28.5790996 C109.289889,29.6650386 107.489577,30.208 105.319305,30.208 C103.79025,30.208 102.464678,29.9611994 101.342549,29.4675907 C100.22042,28.9739821 99.2771055,28.2829403 98.512578,27.3944447 C97.7480505,26.5059492 97.1746635,25.4447065 96.7923997,24.2106849 C96.4101359,22.9766632 96.1943451,21.6315998 96.1450208,20.1754543 C96.1450208,18.7193088 96.366977,17.3865854 96.8108962,16.1772442 C97.2548154,14.967903 97.8775261,13.9190003 98.6790469,13.0305048 C99.4805677,12.1420092 100.430047,11.4509675 101.527514,10.9573588 C102.624981,10.4637501 103.827244,10.2169495 105.13434,10.2169495 C106.83603,10.2169495 108.247919,10.5686404 109.370048,11.2720327 C110.492177,11.9754251 111.392333,12.8700773 112.070543,13.9560164 C112.748753,15.0419554 113.217327,16.2265984 113.47628,17.5099809 C113.735233,18.7933634 113.840045,20.0150265 113.790721,21.1750068 L99.4743982,21.1750068 C99.449736,22.0141415 99.5483832,22.8100735 99.7703428,23.5628267 C99.9923024,24.3155799 100.349899,24.9819416 100.843142,25.5619318 C101.336386,26.141922 101.965262,26.6046731 102.729789,26.9501992 C103.494317,27.2957252 104.394473,27.4684857 105.430284,27.4684857 C106.762042,27.4684857 107.853327,27.1599849 108.704172,26.5429741 C109.555017,25.9259633 110.116073,24.9881209 110.387357,23.7294188 L113.494776,23.7294188 Z M116.935133,10.6611951 L119.89458,10.6611951 L119.89458,14.6964256 L119.968566,14.6964256 C120.733093,13.1415584 121.670242,11.9939355 122.78004,11.2535225 C123.889838,10.5131095 125.295561,10.1675887 126.997251,10.2169495 L126.997251,13.5487913 C125.73948,13.5487913 124.666692,13.7215517 123.778853,14.0670778 C122.891015,14.4126038 122.175822,14.9185451 121.633254,15.5849168 C121.090687,16.2512885 120.696098,17.0595605 120.449476,18.0097572 C120.202854,18.9599538 120.079545,20.0520466 120.079545,21.2860682 L120.079545,29.8007749 L116.935133,29.8007749 L116.935133,10.6611951 Z M128.256,24.8729015 C128.37608,25.5907179 128.585378,26.2276167 128.883899,26.7836071 C129.327818,27.6104016 129.919701,28.2767633 130.659566,28.7827121 C131.399432,29.288661 132.250264,29.6526919 133.212089,29.8748158 C134.173914,30.0969397 135.185048,30.208 136.245522,30.208 C137.207347,30.208 138.175323,30.1154498 139.149479,29.9303465 C140.123635,29.7452433 140.999129,29.4182324 141.775988,28.9493042 C142.552846,28.480376 143.181722,27.8633744 143.662635,27.098281 C144.143547,26.3331876 144.384,25.3706652 144.384,24.2106849 C144.384,23.2975088 144.205202,22.5324269 143.8476,21.9154161 C143.489999,21.2984053 143.021424,20.786294 142.441863,20.3790668 C141.862302,19.9718397 141.196433,19.6448289 140.444237,19.3980246 C139.69204,19.1512202 138.921359,18.9414397 138.132169,18.7686767 C137.392304,18.5959136 136.65245,18.4293232 135.912584,18.2689004 C135.172719,18.1084776 134.50685,17.9110371 133.914958,17.676573 C133.323065,17.4421089 132.835995,17.1459481 132.453731,16.7880819 C132.071467,16.4302156 131.880338,15.9798044 131.880338,15.4368349 C131.880338,14.9432263 132.003647,14.5421753 132.250269,14.2336698 C132.496891,13.9251644 132.817494,13.6783638 133.212089,13.4932606 C133.606684,13.3081573 134.044431,13.178587 134.525344,13.1045457 C135.006256,13.0305044 135.480996,12.9934843 135.949577,12.9934843 C136.46748,12.9934843 136.979216,13.0490145 137.48479,13.1600764 C137.990365,13.2711383 138.452774,13.4500688 138.872031,13.6968731 C139.291288,13.9436775 139.636553,14.2706883 139.907837,14.6779154 C140.179121,15.0851426 140.339423,15.5972538 140.388747,16.2142647 L143.533159,16.2142647 C143.459173,15.0542843 143.212554,14.0855919 142.793297,13.3081583 C142.37404,12.5307246 141.812984,11.9137231 141.110112,11.4571351 C140.40724,11.0005471 139.599566,10.6797062 138.687065,10.494603 C137.774565,10.3094998 136.775762,10.2169495 135.690626,10.2169495 C134.852112,10.2169495 134.007445,10.3218398 133.1566,10.5316235 C132.305754,10.7414071 131.541238,11.062248 130.863028,11.4941555 C130.184819,11.9260631 129.629928,12.4875345 129.19834,13.1785866 C128.766752,13.8696387 128.550961,14.6964208 128.550961,15.6589577 C128.550961,16.8929793 128.859233,17.8555018 129.475788,18.5465539 C130.092342,19.237606 130.863024,19.7743974 131.787855,20.1569441 C132.712687,20.5394908 133.717656,20.8356515 134.802792,21.0454352 C135.887928,21.2552189 136.892896,21.4896795 137.817728,21.748824 C138.74256,22.0079686 139.513241,22.3473194 140.129796,22.7668868 C140.74635,23.1864541 141.054623,23.8034557 141.054623,24.61791 C141.054623,25.2102403 140.906652,25.6976716 140.610706,26.0802183 C140.314759,26.462765 139.938667,26.7527557 139.482417,26.9501992 C139.026166,27.1476426 138.526765,27.283383 137.984197,27.3574243 C137.441629,27.4314656 136.923731,27.4684857 136.430487,27.4684857 C135.789271,27.4684857 135.16656,27.4067855 134.562337,27.2833834 C133.958113,27.1599812 133.415554,26.9563707 132.934641,26.6725457 C132.453729,26.3887207 132.065305,26.0061798 131.769359,25.5249113 C131.473413,25.0436429 131.313111,24.4574914 131.288449,23.7664393 L128.256,23.7664393 L128.256,24.8729015 Z" fill="#3F3F3F"></path>
    </g>
</svg>