<?xml version="1.0" encoding="UTF-8"?>
<svg width="163px" height="130px" viewBox="0 0 163 130" version="1.1" xmlns="http://www.w3.org/2000/svg" xmlns:xlink="http://www.w3.org/1999/xlink">
    <!-- Generator: Sketch 54.1 (76490) - https://sketchapp.com -->
    <title>manager</title>
    <desc>Created with Sketch.</desc>
    <defs>
        <linearGradient x1="49.9899601%" y1="100.007353%" x2="49.9899601%" y2="-0.00193859288%" id="linearGradient-1">
            <stop stop-color="#808080" stop-opacity="0.25" offset="0%"></stop>
            <stop stop-color="#808080" stop-opacity="0.12" offset="54%"></stop>
            <stop stop-color="#808080" stop-opacity="0.1" offset="100%"></stop>
        </linearGradient>
    </defs>
    <g id="founders" stroke="none" stroke-width="1" fill="none" fill-rule="evenodd">
        <g id="manager" transform="translate(-12.000000, -5.000000)">
            <ellipse id="Oval" fill="#FB4275" fill-rule="nonzero" opacity="0.1" cx="90.417301" cy="130.278893" rx="67.0686851" ry="4.65259516"></ellipse>
            <path d="M17.4487889,20.1051903 C13.2695502,24.9975779 12.2122837,31.199481 12.1546713,37.1460208 C12.1141869,41.3392734 12.6871972,45.8875433 16.1875433,48.9799308 C20.7949827,53.0486159 29.6408304,53.850519 31.9235294,59.049654 C33.9477509,63.6695502 29.2375433,68.317474 24.7126298,71.5780277 C20.1877163,74.8385813 14.9916955,78.8309689 15.8371972,83.6859862 C16.3728374,86.7861592 19.3110727,89.2198962 22.2415225,91.2628028 C27.8128028,95.1555363 34.0754325,98.5608997 41.1352941,100.217647 C53.9439446,103.219723 67.7787197,100.111765 79.7807958,95.4062284 C87.1692042,92.5100346 95.7472318,88.9551903 103.084256,91.93391 C105.02128,92.7202422 106.665571,93.9083045 108.451557,94.8923875 C113.644464,97.7371972 119.986505,98.7851211 126.158824,99.6742215 C135.205536,100.98218 144.713149,102.073702 153.429758,99.7147059 C162.146367,97.3557093 169.679585,90.4562284 168.345156,83.0974048 C167.087024,76.1652249 159.077336,71.6465398 152.69481,66.9114187 C150.443253,65.2406574 148.151211,63.0264706 148.711765,60.5958478 C149.157093,58.6681661 151.252941,57.3259516 153.121453,56.0802768 C162.956055,49.4875433 170.184083,40.3863322 173.50692,30.4069204 C175.076471,25.6982699 175.643253,20.2733564 172.141349,16.3027682 C169.316782,13.099827 164.475779,11.5614187 159.871453,10.2955017 C151.327682,7.94584775 142.570588,5.96055363 133.584602,5.42491349 C124.598616,4.88927336 115.315225,5.91072664 107.338235,9.30051903 C103.512457,10.9276817 100.04481,13.0702422 96.1816609,14.6366782 C85.2134948,19.083737 72.2896194,18.4858131 60.0570934,17.783564 C55.6863322,17.532872 51.1178201,17.0875433 47.3231834,15.1785467 C44.0532872,13.5311419 42.1847751,12.3508651 38.1363322,12.167128 C30.2013841,11.8074394 21.9923875,14.7768166 17.4487889,20.1051903 Z" id="Path" fill="#FB4275" fill-rule="nonzero" opacity="0.1"></path>
            <polygon id="Path" fill="#535461" fill-rule="nonzero" points="76.6806228 53.6200692 76.5093426 53.9735294 75.3991349 56.2546713 63.7536332 80.166955 43.9925606 128.586332 41.1679931 128.608131 60.9399654 80.166955 74.4134948 52.4974048 75.3991349 52.9847751 76.5093426 53.5344291"></polygon>
            <polygon id="Path" fill="#535461" fill-rule="nonzero" points="111.350865 128.608131 109.026125 128.586332 89.2634948 80.166955 77.9247405 56.8821799 76.5093426 53.9735294 76.3365052 53.6200692 76.5093426 53.5344291 77.9247405 52.833737 78.6051903 52.4974048 91.8762976 80.166955"></polygon>
            <rect id="Rectangle" fill="#535461" fill-rule="nonzero" x="75.3991349" y="45.9934256" width="2.52716263" height="82.6147059"></rect>
            <path d="M76.3738754,32.382872 C74.5987718,32.3845887 73.1601942,33.8231662 73.1584775,35.5982699 L73.1584775,36.7474048 C73.1328224,37.9133039 73.7401492,39.0017879 74.7457885,39.5922694 C75.7514278,40.1827509 76.9978801,40.1827509 78.0035194,39.5922694 C79.0091588,39.0017879 79.6164856,37.9133039 79.5908304,36.7474048 L79.5908304,35.5982699 C79.5882558,33.8229144 78.149232,32.3845871 76.3738754,32.382872 L76.3738754,32.382872 Z M78.7858131,36.7427336 C78.7858131,38.0756699 77.7052547,39.1562284 76.3723183,39.1562284 C75.039382,39.1562284 73.9588235,38.0756699 73.9588235,36.7427336 L73.9588235,35.5935986 C73.9588235,34.2606622 75.039382,33.1801038 76.3723183,33.1801038 C77.7052547,33.1801038 78.7858131,34.2606622 78.7858131,35.5935986 L78.7858131,36.7427336 Z" id="Shape" fill="#535461" fill-rule="nonzero"></path>
            <polygon id="Path" fill="#000000" fill-rule="nonzero" opacity="0.1" points="91.8762976 80.166955 89.2634948 80.166955 77.9247405 56.8821799 77.9247405 80.166955 75.3991349 80.166955 75.3991349 56.2546713 63.7536332 80.166955 60.9399654 80.166955 74.4134948 52.4974048 75.3991349 52.9847751 75.3991349 45.9934256 77.9247405 45.9934256 77.9247405 52.833737 78.6051903 52.4974048"></polygon>
            <path d="M79.5908304,35.7134948 L79.5908304,36.7474048 C79.6164856,37.9133039 79.0091588,39.0017879 78.0035194,39.5922694 C76.9978801,40.1827509 75.7514278,40.1827509 74.7457885,39.5922694 C73.7401492,39.0017879 73.1328224,37.9133039 73.1584775,36.7474048 L73.1584775,35.7134948 L73.9619377,35.7134948 L73.9619377,36.7474048 C73.9619378,38.0803412 75.0424962,39.1608995 76.3754325,39.1608995 C77.7083688,39.1608995 78.7889273,38.0803412 78.7889273,36.7474048 L78.7889273,35.7134948 L79.5908304,35.7134948 Z" id="Path" fill="#000000" fill-rule="nonzero" opacity="0.1"></path>
            <rect id="Rectangle" fill="#535461" fill-rule="nonzero" x="27.7863322" y="35.9439446" width="97.1766436" height="43.8788927"></rect>
            <rect id="Rectangle" fill="#FFFFFF" fill-rule="nonzero" x="29.5100346" y="37.3219723" width="93.500346" height="39.9737024"></rect>
            <g id="Group" opacity="0.2" transform="translate(38.615917, 41.574394)" fill="#FB4275" fill-rule="nonzero">
                <rect id="Rectangle" x="0.127681661" y="0.0934256055" width="4.42058824" height="2.0133218"></rect>
            </g>
            <g id="Group" opacity="0.2" transform="translate(38.615917, 45.467128)" fill="#FB4275" fill-rule="nonzero">
                <rect id="Rectangle" x="0.127681661" y="0.094982699" width="4.42058824" height="2.0133218"></rect>
            </g>
            <g id="Group" opacity="0.2" transform="translate(38.615917, 49.359862)" fill="#FB4275" fill-rule="nonzero">
                <rect id="Rectangle" x="0.127681661" y="0.094982699" width="4.42058824" height="2.0133218"></rect>
            </g>
            <g id="Group" opacity="0.2" transform="translate(38.615917, 53.252595)" fill="#FB4275" fill-rule="nonzero">
                <rect id="Rectangle" x="0.127681661" y="0.094982699" width="4.42058824" height="2.0133218"></rect>
            </g>
            <g id="Group" opacity="0.2" transform="translate(38.615917, 57.145329)" fill="#FB4275" fill-rule="nonzero">
                <rect id="Rectangle" x="0.127681661" y="0.0965397924" width="4.42058824" height="2.0133218"></rect>
            </g>
            <g id="Group" opacity="0.2" transform="translate(38.615917, 61.038062)" fill="#FB4275" fill-rule="nonzero">
                <rect id="Rectangle" x="0.127681661" y="0.0965397924" width="4.42058824" height="2.0133218"></rect>
            </g>
            <g id="Group" opacity="0.2" transform="translate(38.615917, 64.930796)" fill="#FB4275" fill-rule="nonzero">
                <rect id="Rectangle" x="0.127681661" y="0.0965397924" width="4.42058824" height="2.0133218"></rect>
            </g>
            <g id="Group" opacity="0.2" transform="translate(38.615917, 68.823529)" fill="#FB4275" fill-rule="nonzero">
                <rect id="Rectangle" x="0.127681661" y="0.0965397924" width="4.42058824" height="2.0133218"></rect>
            </g>
            <g id="Group" opacity="0.2" transform="translate(47.024221, 70.847751)" fill="#FB4275" fill-rule="nonzero">
                <rect id="Rectangle" x="0.0420415225" y="0.0871972318" width="4.42058824" height="2.0133218"></rect>
            </g>
            <g id="Group" opacity="0.2" transform="translate(54.809689, 70.847751)" fill="#FB4275" fill-rule="nonzero">
                <rect id="Rectangle" x="0.0435986159" y="0.0871972318" width="4.42058824" height="2.0133218"></rect>
            </g>
            <g id="Group" opacity="0.2" transform="translate(62.595156, 70.847751)" fill="#FB4275" fill-rule="nonzero">
                <rect id="Rectangle" x="0.0435986159" y="0.0871972318" width="4.42058824" height="2.0133218"></rect>
            </g>
            <g id="Group" opacity="0.2" transform="translate(70.380623, 70.847751)" fill="#FB4275" fill-rule="nonzero">
                <rect id="Rectangle" x="0.0451557093" y="0.0871972318" width="4.42058824" height="2.0133218"></rect>
            </g>
            <g id="Group" opacity="0.2" transform="translate(78.166090, 70.847751)" fill="#FB4275" fill-rule="nonzero">
                <rect id="Rectangle" x="0.0451557093" y="0.0871972318" width="4.42058824" height="2.0133218"></rect>
            </g>
            <g id="Group" opacity="0.2" transform="translate(85.951557, 70.847751)" fill="#FB4275" fill-rule="nonzero">
                <rect id="Rectangle" x="0.0467128028" y="0.0871972318" width="4.42058824" height="2.0133218"></rect>
            </g>
            <g id="Group" opacity="0.2" transform="translate(93.737024, 70.847751)" fill="#FB4275" fill-rule="nonzero">
                <rect id="Rectangle" x="0.0467128028" y="0.0871972318" width="4.42058824" height="2.0133218"></rect>
            </g>
            <g id="Group" opacity="0.2" transform="translate(101.522491, 70.847751)" fill="#FB4275" fill-rule="nonzero">
                <rect id="Rectangle" x="0.0482698962" y="0.0871972318" width="4.42058824" height="2.0133218"></rect>
            </g>
            <g id="Group" opacity="0.2" transform="translate(109.307958, 70.847751)" fill="#FB4275" fill-rule="nonzero">
                <rect id="Rectangle" x="0.0482698962" y="0.0871972318" width="4.42058824" height="2.0133218"></rect>
            </g>
            <rect id="Rectangle" fill="#FB4275" fill-rule="nonzero" x="47.066263" y="56.3013841" width="4.42058824" height="12.6186851"></rect>
            <rect id="Rectangle" fill="#FB4275" fill-rule="nonzero" x="54.8532872" y="50.4622837" width="4.42058824" height="18.4593426"></rect>
            <rect id="Rectangle" fill="#FB4275" fill-rule="nonzero" x="62.6387543" y="45.5621107" width="4.42058824" height="23.3595156"></rect>
            <rect id="Rectangle" fill="#FB4275" fill-rule="nonzero" x="70.4257785" y="48.1017301" width="4.42058824" height="20.8183391"></rect>
            <rect id="Rectangle" fill="#FB4275" fill-rule="nonzero" x="78.2112457" y="43.682699" width="4.42058824" height="25.2389273"></rect>
            <g id="Group" opacity="0.2" transform="translate(85.951557, 53.252595)" fill="#FB4275" fill-rule="nonzero">
                <rect id="Rectangle" x="0.0467128028" y="0.094982699" width="4.42058824" height="15.5724913"></rect>
            </g>
            <g id="Group" opacity="0.2" transform="translate(93.737024, 53.252595)" fill="#FB4275" fill-rule="nonzero">
                <rect id="Rectangle" x="0.0467128028" y="0.094982699" width="4.42058824" height="15.5724913"></rect>
            </g>
            <g id="Group" opacity="0.2" transform="translate(101.522491, 53.252595)" fill="#FB4275" fill-rule="nonzero">
                <rect id="Rectangle" x="0.0482698962" y="0.094982699" width="4.42058824" height="15.5724913"></rect>
            </g>
            <g id="Group" opacity="0.2" transform="translate(109.307958, 53.252595)" fill="#FB4275" fill-rule="nonzero">
                <rect id="Rectangle" x="0.0482698962" y="0.094982699" width="4.42058824" height="15.5724913"></rect>
            </g>
            <polygon id="Path" fill="#535461" fill-rule="nonzero" points="108.848616 53.3133218 70.9956747 55.6427336 70.9956747 56.3807958 109.65519 54.8470588"></polygon>
            <path d="M153.664879,68.6911765 C153.664879,68.6911765 155.645502,65.433737 155.119204,60.3233564 C154.592907,55.2129758 152.688581,46.9416955 152.688581,46.9416955 C152.688581,46.9416955 153.515398,42.3077855 149.030969,41.6569204 C149.030969,41.6569204 146.243772,41.1384083 144.250692,39.8849481 C143.509516,39.4178201 142.878893,38.8525952 142.537889,38.1721453 C142.537889,38.1721453 142.511419,38.2484429 142.460035,38.3885813 C142.415951,38.3185158 142.375415,38.2462794 142.338581,38.1721453 C142.338581,38.1721453 142.327682,38.200173 142.310554,38.25 L141.549135,37.0634948 C141.549135,37.0634948 141.44481,37.1740484 141.268858,37.3562284 C140.962627,36.9166261 140.701776,36.4470949 140.490311,35.9548443 C140.679634,35.9091232 140.865411,35.8497995 141.046194,35.7773356 C141.21905,35.7201553 141.37483,35.6205851 141.499308,35.4877163 C141.608424,35.3361902 141.678971,35.1603566 141.704844,34.9754325 C141.82622,34.3835924 141.860839,33.7772412 141.807612,33.1754325 C141.765571,32.7083045 141.670588,32.2411765 141.703287,31.766263 C141.737543,31.2602076 141.916609,30.7712803 141.941522,30.2636678 C141.985121,29.3698962 141.541349,28.5197232 140.993253,27.8112457 C140.666263,27.3892734 140.298789,26.9968858 140.015398,26.5453287 C139.769377,26.1529412 139.590311,25.7200692 139.325606,25.3385813 C138.702768,24.4510381 137.664187,23.9278547 136.599135,23.7425606 C135.534083,23.5572664 134.437889,23.6724913 133.37128,23.8484429 C132.437024,24.0041522 131.502768,24.2299308 130.568512,24.2844291 C129.752595,24.3311419 129.087716,24.0555363 128.340311,24.5958478 C127.839476,24.9651009 127.522693,25.5328133 127.471453,26.1529412 C127.459309,26.257287 127.467237,26.3629927 127.49481,26.4643599 C127.538908,26.5693868 127.590963,26.670893 127.650519,26.7679931 C127.98218,27.4219723 127.477682,28.1989619 127.54308,28.9292388 C127.625165,29.5940938 128.153903,30.1150941 128.819896,30.1873702 C128.790311,30.249654 128.757612,30.3103806 128.729585,30.3742215 C127.890678,32.26949 128.012284,34.4522206 129.056528,36.2425733 C130.100772,38.032926 131.940781,39.2133783 134.00346,39.416263 L134.29308,39.6389273 C134.947059,40.1449827 135.682007,40.750692 136.390484,41.4093426 L136.376471,41.4202422 L136.261246,41.3548443 C136.045552,41.525429 135.818754,41.6814826 135.582353,41.8219723 C134.926817,42.2237024 133.86955,42.7453287 132.679931,42.8044983 C132.679931,42.8044983 130.549827,43.933391 129.816436,47.6564014 C128.763841,48.6 126.510727,50.3034602 123.533564,50.7472318 C119.349654,51.3700692 114.191003,51.5740484 114.191003,51.5740484 C114.191003,51.5740484 114.148962,51.6487889 114.089792,51.7858131 L113.613322,51.6986159 C113.613322,51.6986159 113.613322,51.7562284 113.59308,51.8543253 L113.406228,51.7702422 C111.928547,51.1240484 108.976298,50.1820069 108.602595,52.7776817 C108.101211,56.2593426 111.420934,55.8591696 111.420934,55.8591696 C112.077385,55.6097622 112.750046,55.4053107 113.434256,55.2472318 L113.61955,55.2114187 C113.651031,55.3022209 113.695056,55.3881744 113.750346,55.466782 L114.201903,55.466782 C114.358761,55.791336 114.548138,56.0991402 114.767128,56.3854671 L125.289965,56.1550173 C125.289965,56.1550173 127.088408,55.7626298 128.74827,56.0117647 C128.024221,61.4242215 127.169377,67.3598616 127.169377,67.3598616 C127.169377,67.3598616 125.37872,76.7600346 126.63218,77.7425606 C127.359687,77.4998324 128.101172,77.3012019 128.852595,77.1477509 C128.864,77.7286039 128.925474,78.3073916 129.036332,78.8776817 L129.838235,84.1266436 C129.838235,84.1266436 130.149654,89.4892734 131.191349,92.6906574 L132.110035,97.06609 L132.879239,100.373356 L133.312111,105.986678 C133.906554,108.364626 134.336294,110.780739 134.59827,113.21782 C135.004671,116.9891 137.211073,123.083564 137.505363,123.885467 C136.75173,124.952076 135.203979,126.761419 133.262284,126.94827 C130.490657,127.21609 130.423702,128.886851 132.360727,129.487889 C134.297751,130.088927 138.374221,129.487889 138.374221,129.487889 L144.12301,128.066263 C143.950173,129.126644 143.859862,129.96436 143.985986,130.054671 C144.35346,130.322491 149.932526,131.767474 150.133391,129.453633 C150.148962,129.26263 150.162976,129.077336 150.175433,128.897751 C150.258477,127.4155 150.060357,125.930919 149.591522,124.522318 C149.546367,124.383737 149.505882,124.243599 149.470069,124.10346 C149.552819,124.010952 149.628795,123.912601 149.697405,123.80917 C149.697405,123.80917 150.099135,117.562111 150.399654,115.32301 C150.42301,115.143945 150.438581,114.925952 150.446367,114.679931 C150.584948,111.995502 149.605536,104.934083 149.605536,104.934083 C149.605536,104.934083 148.395675,100.340657 148.44083,98.2292388 C148.447764,98.0537893 148.477601,97.8799987 148.529585,97.7122837 C148.529585,97.7122837 148.529585,97.6702422 148.514014,97.600173 C148.514014,97.5705882 148.528028,97.5394464 148.53737,97.5114187 C148.53737,97.5114187 147.923875,93.3072664 148.009516,90.8065744 C148.02149,90.4335332 148.073696,90.0628744 148.165225,89.7010381 C148.262585,89.2260392 148.31214,88.7424855 148.313149,88.2576125 C148.391003,86.5448097 148.300692,83.5863322 148.176125,80.8115917 C148.190138,80.7648789 148.204152,80.7181661 148.215052,80.6636678 C148.240172,80.4427081 148.214065,80.2189313 148.138754,80.0096886 C148.129412,79.8306228 148.121626,79.6531142 148.112284,79.4771626 C148.163668,79.3012111 148.205709,79.1143599 148.24308,78.9212803 L148.324048,78.9212803 L148.324048,78.9321799 C148.324048,78.9321799 153.558997,78.6814879 154.76263,77.2785467 C154.76263,77.2785467 153.54654,73.499481 152.872318,70.4273356 L153.664879,68.6911765 Z M131.105709,56.9366782 L131.023183,56.9070934 C131.155536,56.4399654 131.312803,55.8965398 131.490311,55.3266436 C131.339273,55.9432526 131.208478,56.5038062 131.105709,56.9366782 Z M136.418512,41.4451557 L136.441869,41.466955 L136.416955,41.4529412 L136.418512,41.4451557 Z M142.958304,122.494983 C142.676471,121.524913 141.55692,117.569896 141.592734,115.684256 C141.600553,115.52036 141.629334,115.35814 141.678374,115.201557 C141.782191,114.859822 141.834667,114.504561 141.834083,114.147405 C141.946194,112.179239 141.192561,108.652422 141.192561,108.652422 C141.192561,108.652422 139.506228,103.895502 139.635467,100.117993 C139.635467,100.02301 139.646367,99.9280277 139.652595,99.833045 C139.680623,99.4749135 139.702422,99.0871972 139.717993,98.6776817 L139.717993,98.6698962 C139.781834,97.2108997 139.76782,95.4544983 139.725779,93.816436 L139.716436,93.7557093 C139.658824,91.5866782 139.551384,89.634083 139.506228,88.8617647 C139.661938,89.9782007 140.658478,96.9275087 141.088235,98.0641869 C141.088235,98.0641869 141.323356,101.270242 142.391522,103.981142 L143.562457,111.028547 C143.562457,111.028547 143.862976,119.415052 144.362803,121.786505 C144.587024,122.842215 144.77699,123.553806 144.918685,124.01782 C144.716263,124.962976 144.389273,126.54654 144.169723,127.857612 C144.040484,127.002768 143.585813,123.745329 142.959862,122.494983 L142.958304,122.494983 Z" id="Shape" fill="url(#linearGradient-1)" fill-rule="nonzero"></path>
            <path d="M137.952249,122.711419 C137.952249,122.711419 135.998097,126.253806 133.249827,126.518512 C130.501557,126.783218 130.436159,128.438408 132.356055,129.034775 C134.275952,129.631142 138.316609,129.034775 138.316609,129.034775 L144.077855,127.611592 C144.077855,127.611592 143.381834,121.915744 142.455363,121.618339 C141.528893,121.320934 137.952249,122.711419 137.952249,122.711419 Z" id="Path" fill="#4C4C78" fill-rule="nonzero"></path>
            <path d="M144.97474,122.776817 C144.97474,122.776817 143.517301,129.33218 143.884775,129.598443 C144.252249,129.864706 149.778374,131.286332 149.977682,129.002076 C149.993253,128.810035 150.007266,128.626298 150.019723,128.450865 C150.101325,126.981789 149.904803,125.510515 149.440484,124.11436 C149.284775,123.647232 149.175779,123.147405 149.216263,122.776817 C149.308131,121.850346 144.97474,122.776817 144.97474,122.776817 Z" id="Path" fill="#4C4C78" fill-rule="nonzero"></path>
            <path d="M143.166955,39.7821799 C143.166955,39.7821799 138.69654,50.7628028 139.492215,47.2359862 C140.018512,44.900346 136.616263,41.7970588 134.263495,39.9737024 C133.06609,39.0394464 132.141176,38.4461938 132.141176,38.4461938 C132.141176,38.4461938 140.53391,28.6614187 139.9391,32.882699 C139.775957,34.0388303 139.934343,35.217561 140.396886,36.2896194 C141.323356,38.4913495 143.166955,39.7821799 143.166955,39.7821799 Z" id="Path" fill="#FFB9B9" fill-rule="nonzero"></path>
            <path d="M114.611419,55.3811419 C114.37474,55.3204152 113.988581,55.3593426 113.588408,55.4449827 C112.910589,55.6015185 112.244179,55.8038868 111.593772,56.050692 C111.593772,56.050692 108.303633,56.4477509 108.800346,52.9972318 C109.169377,50.4249135 112.095156,51.3591696 113.560381,51.9975779 C114.058651,52.217128 114.388754,52.4008651 114.388754,52.4008651 L114.611419,55.3811419 Z" id="Path" fill="#FFB9B9" fill-rule="nonzero"></path>
            <path d="M114.611419,55.3811419 C114.37474,55.3204152 113.988581,55.3593426 113.588408,55.4449827 C113.230277,54.5418685 113.502768,52.4008651 113.560381,51.9975779 C114.058651,52.217128 114.388754,52.4008651 114.388754,52.4008651 L114.611419,55.3811419 Z" id="Path" fill="#000000" fill-rule="nonzero" opacity="0.1"></path>
            <path d="M114.625433,52.0863322 L113.76436,51.9306228 C113.76436,51.9306228 113.323702,54.8891003 113.899827,55.6676471 L114.890138,55.6676471 L114.625433,52.0863322 Z" id="Path" fill="#CBCDDA" fill-rule="nonzero"></path>
            <path d="M131.895156,57.4847751 C131.895156,57.4847751 129.263668,55.9105536 128.949135,57.8974048 C128.634602,59.8842561 128.220415,63.2787197 128.220415,63.2787197 L127.491696,67.599654 L126.548097,76.2570934 L126.68045,77.7301038 C126.68045,77.7301038 129.483218,76.7865052 130.140311,77.1181661 C130.797405,77.449827 131.333045,73.4761246 131.333045,73.4761246 L132.42301,69.3700692 L132.588062,60.6628028 L131.895156,57.4847751 Z" id="Path" fill="#4C4C78" fill-rule="nonzero"></path>
            <path d="M131.895156,57.4847751 C131.895156,57.4847751 129.263668,55.9105536 128.949135,57.8974048 C128.634602,59.8842561 128.220415,63.2787197 128.220415,63.2787197 L127.491696,67.599654 L126.548097,76.2570934 L126.68045,77.7301038 C126.68045,77.7301038 129.483218,76.7865052 130.140311,77.1181661 C130.797405,77.449827 131.333045,73.4761246 131.333045,73.4761246 L132.42301,69.3700692 L132.588062,60.6628028 L131.895156,57.4847751 Z" id="Path" fill="#000000" fill-rule="nonzero" opacity="0.1"></path>
            <path d="M130.476644,47.2858131 C130.476644,47.2858131 127.745502,50.3657439 123.598962,50.9854671 C119.452422,51.6051903 114.335813,51.8060554 114.335813,51.8060554 C114.335813,51.8060554 113.044983,54.1152249 114.907266,56.5738754 L125.339792,56.3434256 C125.339792,56.3434256 127.648962,55.8420415 129.438062,56.3434256 L130.476644,47.2858131 Z" id="Path" fill="#4C4C78" fill-rule="nonzero"></path>
            <path d="M130.476644,47.2858131 C130.476644,47.2858131 127.745502,50.3657439 123.598962,50.9854671 C119.452422,51.6051903 114.335813,51.8060554 114.335813,51.8060554 C114.335813,51.8060554 113.044983,54.1152249 114.907266,56.5738754 L125.339792,56.3434256 C125.339792,56.3434256 127.648962,55.8420415 129.438062,56.3434256 L130.476644,47.2858131 Z" id="Path" fill="#000000" fill-rule="nonzero" opacity="0.05"></path>
            <g id="Group" transform="translate(0.009343, 0.043599)"></g>
            <path d="M139.954671,36.1946367 C138.936332,38.3745675 137.165917,39.9814879 134.59827,39.9814879 C134.484602,39.9814879 134.374048,39.9814879 134.263495,39.9737024 C133.06609,39.0394464 132.141176,38.4461938 132.141176,38.4461938 C132.141176,38.4461938 140.53391,28.6614187 139.9391,32.882699 C139.755363,34.1750865 139.545156,35.2245675 139.954671,36.1946367 Z" id="Path" fill="#000000" fill-rule="nonzero" opacity="0.1"></path>
            <path d="M140.99481,33.384083 C140.99223,36.9172478 138.126247,39.7795135 134.593082,39.7775074 C131.059917,39.7755013 128.197186,36.9099829 128.198618,33.3768175 C128.200051,29.8436521 131.065104,26.980456 134.59827,26.9813149 C136.296834,26.9779933 137.926695,27.6517018 139.127179,28.8533545 C140.327662,30.0550073 140.999784,31.685523 140.99481,33.384083 Z" id="Path" fill="#FFB9B9" fill-rule="nonzero"></path>
            <path d="M144.904671,72.482699 C144.904671,72.482699 130.635467,73.7423875 130.112284,71.9205882 C129.5891,70.0987889 131.568166,65.165917 131.568166,65.165917 L130.923529,58.2788927 L130.900173,58.0157439 C130.900173,58.0157439 132.687716,50.5650519 132.622318,49.9702422 C132.560035,49.4346021 135.499827,43.182872 136.103979,41.9044983 C136.175606,41.7565744 136.212976,41.6756055 136.212976,41.6756055 L136.326644,41.7410035 L136.376471,41.7705882 L137.075606,42.1785467 L139.836332,41.5245675 L143.163841,39.7821799 L143.47526,58.8425606 L144.904671,72.482699 Z" id="Path" fill="#CBCDDA" fill-rule="nonzero"></path>
            <path d="M137.488235,41.9060554 C137.488235,41.9060554 136.511938,41.6413495 136.13045,42.6176471 C135.981138,43.0373298 135.804283,43.4466974 135.601038,43.8430796 L135.221107,46.1102076 L134.525087,49.6915225 L134.011246,65.5349481 L134.243253,68.3486159 L135.518512,66.0814879 L135.750519,51.2719723 L135.750519,49.4299308 C135.825189,47.8373198 136.184861,46.2710064 136.812457,44.8053633 L136.989965,44.3896194 L138.098616,42.9648789 L137.488235,41.9060554 Z" id="Path" fill="#000000" fill-rule="nonzero" opacity="0.1"></path>
            <path d="M137.290484,41.7067474 C137.290484,41.7067474 136.31263,41.4420415 135.932699,42.4183391 C135.783103,42.8381483 135.605721,43.2475313 135.40173,43.6437716 L135.021799,45.9124567 L134.325779,49.4937716 L133.813495,65.3371972 L134.045502,68.1524221 L135.320761,65.8775087 L135.552768,51.0773356 L135.552768,49.2306228 C135.628937,47.6382177 135.988549,46.0721669 136.614706,44.6060554 L136.793772,44.1903114 L137.902422,42.767128 L137.290484,41.7067474 Z" id="Path" fill="#4C4C78" fill-rule="nonzero"></path>
            <path d="M141.461938,37.6178201 C141.461938,37.6178201 138.084602,41.1991349 136.891869,41.6242215 C136.891869,41.6242215 137.488235,44.3397924 138.084602,44.8692042 C138.084602,44.8692042 141.628547,41.2551903 142.256055,40.9624567 L142.782353,39.6747405 L141.461938,37.6178201 Z" id="Path" fill="#000000" fill-rule="nonzero" opacity="0.1"></path>
            <path d="M141.461938,37.4138408 C141.461938,37.4138408 138.084602,40.9951557 136.891869,41.4202422 C136.891869,41.4202422 137.488235,44.1358131 138.084602,44.6652249 C138.084602,44.6652249 141.628547,41.0512111 142.256055,40.7584775 L142.782353,39.4723183 L141.461938,37.4138408 Z" id="Path" fill="#CBCDDA" fill-rule="nonzero"></path>
            <path d="M136.410727,41.6756055 L136.376471,41.7690311 L135.294291,44.6698962 L133.358824,50.1430796 C133.358824,50.1430796 133.341696,50.1991349 133.307439,50.2987889 C132.986678,51.2953287 131.262976,56.7031142 130.923529,58.2742215 L130.900173,58.0110727 C130.900173,58.0110727 132.687716,50.5603806 132.622318,49.9655709 C132.560035,49.4299308 135.499827,43.1782007 136.103979,41.899827 C136.200519,41.8344291 136.27526,41.7783737 136.326644,41.7363322 L136.410727,41.6756055 Z" id="Path" fill="#000000" fill-rule="nonzero" opacity="0.1"></path>
            <path d="M136.212976,41.6740484 L135.094983,44.6698962 L133.159516,50.1430796 C133.159516,50.1430796 133.142388,50.1991349 133.108131,50.2987889 C132.768685,51.3607266 130.833218,57.4224913 130.677509,58.5311419 C130.501557,59.7487889 128.06782,66.3306228 128.06782,66.3306228 L126.677336,77.7269896 C125.431661,76.7600346 127.200519,67.450173 127.200519,67.450173 C127.200519,67.450173 129.18737,53.6434256 129.657612,49.05 C130.127855,44.4565744 132.66436,43.1143599 132.66436,43.1143599 C133.835294,43.0551903 134.891003,42.5382353 135.540311,42.1411765 C135.774789,42.0007809 135.999521,41.8447168 136.212976,41.6740484 Z" id="Path" fill="#4C4C78" fill-rule="nonzero"></path>
            <path d="M150.234602,114.996021 C149.937197,117.214879 149.540138,123.404325 149.540138,123.404325 C148.149654,125.489273 145.069723,124.363495 145.069723,124.363495 C145.069723,124.363495 144.739619,123.740657 144.242907,121.383218 C143.746194,119.025779 143.448789,110.721799 143.448789,110.721799 L142.288754,103.746021 C141.229931,101.063149 140.997924,97.8851211 140.997924,97.8851211 C140.530796,96.6596886 139.408131,88.6141869 139.408131,88.6141869 C139.408131,88.6141869 139.87526,95.8313149 139.57474,99.6399654 C139.274221,103.448616 141.096021,108.57301 141.096021,108.57301 C141.096021,108.57301 142.123702,113.375087 141.592734,114.865225 C141.061765,116.355363 142.91782,122.512111 142.91782,122.512111 C142.762111,124.301211 137.489792,123.572491 137.489792,123.572491 C137.489792,123.572491 135.009343,116.915917 134.574913,112.909516 C134.314574,110.495554 133.888482,108.102362 133.299654,105.746886 L132.869896,100.183391 L132.10692,96.8948097 L131.197578,92.5583045 C130.169896,89.3802768 129.85692,84.065917 129.85692,84.065917 L129.061246,78.8512111 C128.541176,76.2726644 129.216955,73.2456747 129.665398,71.6621107 C129.860035,70.9754325 130.015744,70.5565744 130.015744,70.5565744 C130.471972,70.8804498 133.084775,71.2603806 134.436332,71.5686851 C135.176016,71.7391645 135.936738,71.8000222 136.694118,71.749308 C140.111157,71.4779903 143.491522,70.858161 146.782526,69.899481 C147.00519,69.832526 147.123529,69.7935986 147.123529,69.7935986 L147.193599,70.3899654 L147.358651,71.8100346 L147.652941,74.3309689 C147.652941,74.3309689 148.546713,87.7733564 148.017301,89.5904844 C147.487889,91.4076125 148.381661,97.5316609 148.381661,97.5316609 C147.884948,98.9844291 149.440484,104.888927 149.440484,104.888927 C149.440484,104.888927 150.533564,112.777163 150.234602,114.996021 Z" id="Path" fill="#000000" fill-rule="nonzero" opacity="0.1"></path>
            <path d="M150.234602,114.801384 C149.937197,117.020242 149.540138,123.209689 149.540138,123.209689 C148.149654,125.296194 145.069723,124.168858 145.069723,124.168858 C145.069723,124.168858 144.739619,123.546021 144.242907,121.190138 C143.746194,118.834256 143.448789,110.527163 143.448789,110.527163 L142.288754,103.542042 C141.237716,100.85917 140.997924,97.6733564 140.997924,97.6733564 C140.530796,96.4479239 139.408131,88.4024221 139.408131,88.4024221 C139.408131,88.4024221 139.87526,95.6195502 139.57474,99.4282007 C139.274221,103.236851 141.096021,108.367474 141.096021,108.367474 C141.096021,108.367474 142.123702,113.16955 141.592734,114.659689 C141.061765,116.149827 142.91782,122.308131 142.91782,122.308131 C142.762111,124.095675 137.489792,123.366955 137.489792,123.366955 C137.489792,123.366955 135.009343,116.718166 134.574913,112.710208 C134.314574,110.296246 133.888482,107.903054 133.299654,105.547578 L132.869896,99.9856401 L132.10692,96.7079585 L131.197578,92.3714533 C130.169896,89.1918685 129.85692,83.8775087 129.85692,83.8775087 L129.061246,78.6628028 C128.541176,76.0842561 129.216955,73.0572664 129.665398,71.4737024 C129.860035,70.7885813 130.015744,70.3697232 130.015744,70.3697232 C130.471972,70.6935986 133.084775,71.0719723 134.436332,71.3802768 C135.175898,71.5515209 135.936733,71.6123877 136.694118,71.5608997 C140.111157,71.289582 143.491522,70.6697527 146.782526,69.7110727 L147.123529,69.6067474 L147.193599,70.2015571 L147.358651,71.6231834 L147.652941,74.1441176 C147.652941,74.1441176 148.546713,87.5849481 148.017301,89.4036332 C147.487889,91.2223183 148.381661,97.3448097 148.381661,97.3448097 C147.884948,98.7960208 149.440484,104.700519 149.440484,104.700519 C149.440484,104.700519 150.533564,112.579412 150.234602,114.801384 Z" id="Path" fill="#474463" fill-rule="nonzero"></path>
            <path d="M140.99481,33.384083 C140.996772,34.5029195 140.704662,35.6026246 140.147751,36.5730104 C139.151211,36.7489619 138.09083,36.5543253 137.344983,35.8956747 C136.834256,35.4456747 136.504152,34.8306228 136.065052,34.3089965 C135.78082,33.9884373 135.475467,33.6872461 135.151038,33.4074394 C134.939206,33.1964164 134.696023,33.0194123 134.430104,32.882699 C134.159065,32.7457875 133.839852,32.7423366 133.565917,32.8733564 C133.214014,33.0695502 133.098789,33.5070934 132.89481,33.8558824 C132.741395,34.1553091 132.478864,34.3843969 132.161419,34.4958478 C131.8356,34.6000709 131.479918,34.4794046 131.284775,34.1984429 C131.068339,33.8262976 131.227163,33.2455017 130.86436,33.0181661 C130.768661,32.9709114 130.669809,32.9303302 130.568512,32.8967128 C130.101384,32.6849481 130.046886,32.0574394 130.006401,31.5435986 C129.986159,31.2913495 129.931661,31.0064014 129.719896,30.8709343 C129.508131,30.7354671 129.229412,30.8039792 128.977163,30.8086505 C128.902528,30.8115881 128.827805,30.8058402 128.754498,30.7915225 C129.980013,28.028989 132.971396,26.5007208 135.928035,27.1266335 C138.884673,27.7525462 141.000129,30.3619187 141.001038,33.384083 L140.99481,33.384083 Z" id="Path" fill="#000000" fill-rule="nonzero" opacity="0.1"></path>
            <path d="M128.362111,25.0629758 C127.864669,25.4300079 127.550606,25.9945254 127.501038,26.6107266 C127.489241,26.7124983 127.497171,26.8155898 127.524394,26.9143599 C127.567857,27.0191836 127.619938,27.120222 127.680104,27.216436 C128.007093,27.8657439 127.507266,28.6349481 127.571107,29.3589965 C127.660701,30.0664011 128.259461,30.5986328 128.972491,30.6046713 C129.22474,30.6046713 129.501903,30.5299308 129.715225,30.666955 C129.928547,30.8039792 129.981488,31.0873702 130.00173,31.3396194 C130.042215,31.8534602 130.093599,32.4809689 130.562284,32.6927336 C130.663283,32.72715 130.762083,32.7677101 130.858131,32.8141869 C131.222491,33.0415225 131.063668,33.6238754 131.280104,33.9944637 C131.475247,34.2754254 131.830929,34.3960917 132.156747,34.2918685 C132.473583,34.180872 132.735607,33.9522974 132.888581,33.6534602 C133.089446,33.3031142 133.209343,32.8749135 133.561246,32.6709343 C133.83478,32.5387086 134.154325,32.5415874 134.425433,32.6787197 C134.691404,32.8159934 134.934581,32.993518 135.146367,33.2050173 C135.471172,33.4844161 135.776551,33.7856336 136.060381,34.1065744 C136.499481,34.6266436 136.829585,35.2416955 137.340311,35.6916955 C138.302595,36.5371972 139.775606,36.6259516 140.962111,36.1385813 C141.133359,36.0814757 141.28791,35.9830769 141.412111,35.8520761 C141.520427,35.7014268 141.590436,35.5266712 141.61609,35.3429066 C141.73657,34.7567372 141.771188,34.1561652 141.718858,33.5600346 C141.676817,33.0929066 141.581834,32.6257785 141.614533,32.1586505 C141.647232,31.6572664 141.826298,31.1730104 141.851211,30.6716263 C141.89481,29.784083 141.454152,28.9416955 140.916955,28.2394464 C140.59308,27.8205882 140.22872,27.432872 139.948443,26.9844291 C139.703979,26.5951557 139.526471,26.166955 139.264879,25.7901384 C138.651384,24.9103806 137.617474,24.3887543 136.561765,24.2065744 C135.506055,24.0243945 134.420761,24.1365052 133.363495,24.3124567 C132.441696,24.4681661 131.513668,24.6892734 130.579412,24.7437716 C129.761938,24.8013841 129.103287,24.5257785 128.362111,25.0629758 Z" id="Path" fill="#472727" fill-rule="nonzero"></path>
            <path d="M136.212976,41.6740484 L135.094983,44.6698962 L133.159516,50.1430796 C133.159516,50.1430796 133.142388,50.1991349 133.108131,50.2987889 L133.108131,50.3065744 L135.543426,42.1380623 C135.776743,41.9985517 136.00043,41.8435318 136.212976,41.6740484 L136.212976,41.6740484 Z" id="Path" fill="#000000" fill-rule="nonzero" opacity="0.1"></path>
            <path d="M148.299135,75.9596886 C148.299135,75.9596886 148.41436,79.5846021 147.438062,80.4955017 L144.839273,75.5953287 L147.019204,74.5349481 L148.299135,75.9596886 Z" id="Path" fill="#FFB9B9" fill-rule="nonzero"></path>
            <path d="M154.365571,77.283218 C153.172837,78.6737024 147.981488,78.9228374 147.981488,78.9228374 L142.84308,70.8259516 C142.84308,70.8259516 141.62699,69.9820069 139.342734,66.1811419 C137.058478,62.3802768 137.133218,59.4529412 137.2609,57.266782 C137.388581,55.0806228 138.817993,48.7977509 138.817993,48.7977509 C139.040657,47.38391 142.243599,38.5209343 142.243599,38.5209343 C142.579931,39.1920415 143.205882,39.7525952 143.937716,40.2150519 C145.915225,41.4607266 148.675952,41.9714533 148.675952,41.9714533 C153.12301,42.6176471 152.302422,47.2110727 152.302422,47.2110727 C152.302422,47.2110727 152.352249,65.066263 152.078201,67.2025952 C151.804152,69.3389273 154.365571,77.283218 154.365571,77.283218 Z" id="Path" fill="#000000" fill-rule="nonzero" opacity="0.1"></path>
            <polygon id="Path" fill="#CBCDDA" fill-rule="nonzero" points="148.36609 76.6541522 148.216609 77.9792388 146.411938 77.317474 145.088408 75.3134948 146.081834 74.5349481"></polygon>
            <path d="M148.302249,71.5219723 L147.358651,71.6185121 L138.260554,72.5278547 C136.799515,72.6745984 135.32475,72.6021722 133.885121,72.3129758 L129.665398,71.4690311 C129.860035,70.78391 130.015744,70.3650519 130.015744,70.3650519 C130.471972,70.6889273 133.084775,71.067301 134.436332,71.3756055 C135.175898,71.5468496 135.936733,71.6077164 136.694118,71.5562284 C140.111157,71.2849107 143.491522,70.6650814 146.782526,69.7064014 L147.193599,70.1968858 L148.302249,71.5219723 Z" id="Path" fill="#000000" fill-rule="nonzero" opacity="0.1"></path>
            <g id="Group" opacity="0.1" transform="translate(129.861592, 69.602076)" fill="#000000" fill-rule="nonzero">
                <path d="M0.249134948,0.812802768 C0.219084609,0.797979383 0.189964959,0.781339583 0.161937716,0.762975779 C0.161937716,0.762975779 0.161937716,0.772318339 0.152595156,0.78633218 L0.249134948,0.812802768 Z" id="Path"></path>
                <path d="M19.5866782,35.0968858 C19.5866782,35.0968858 18.0295848,29.1923875 18.5278547,27.7411765 C18.5278547,27.7411765 17.634083,21.6217993 18.1650519,19.8 C18.6960208,17.9782007 17.7991349,4.54048443 17.7991349,4.54048443 L17.5048443,2.01955017 L17.3397924,0.597923875 L17.2712803,0.00311418685 L16.9287197,0.107439446 L16.716955,0.169723183 L16.7434256,0.40017301 L16.9084775,1.82024221 L17.2027682,4.34117647 C17.2027682,4.34117647 18.0965398,17.783564 17.5686851,19.600692 C17.0408304,21.4178201 17.9314879,27.5418685 17.9314879,27.5418685 C17.4347751,28.9946367 18.9903114,34.8975779 18.9903114,34.8975779 C18.9903114,34.8975779 20.0802768,42.7795848 19.7859862,44.9968858 C19.4916955,47.2141869 19.0899654,53.4051903 19.0899654,53.4051903 C18.0747405,54.9295848 16.1579585,54.7396194 15.1972318,54.5262976 L15.2143599,54.5636678 C15.2143599,54.5636678 18.2942907,55.6910035 19.6847751,53.6044983 C19.6847751,53.6044983 20.0818339,47.4119377 20.3807958,45.1961938 C20.6797578,42.9804498 19.5866782,35.0968858 19.5866782,35.0968858 Z" id="Path"></path>
                <path d="M11.7404844,45.0638408 C12.2698962,43.5737024 11.2437716,38.7716263 11.2437716,38.7716263 C11.2437716,38.7716263 9.42352941,33.633218 9.72093426,29.8323529 C9.84550173,28.2456747 9.83771626,26.0688581 9.78477509,24.0711073 C9.36280277,21.4941176 8.95795848,18.6212803 8.95795848,18.6212803 C8.95795848,18.6212803 9.42508651,25.8384083 9.12612457,29.6455017 C8.82716263,33.4525952 10.6474048,38.5863322 10.6474048,38.5863322 C10.6474048,38.5863322 11.6750865,43.3868512 11.1441176,44.8769896 C10.6131488,46.367128 12.46609,52.5176471 12.46609,52.5176471 C12.333737,53.950173 8.93148789,53.7633218 7.58148789,53.6387543 L7.63287197,53.7757785 C7.63287197,53.7757785 12.8974048,54.5044983 13.0624567,52.716955 C13.0655709,52.7122837 11.2110727,46.5539792 11.7404844,45.0638408 Z" id="Path"></path>
            </g>
            <path d="M154.563322,77.283218 C153.372145,78.6737024 148.179239,78.9228374 148.179239,78.9228374 L143.04083,70.8259516 C143.04083,70.8259516 141.82474,69.9820069 139.538927,66.1811419 C137.253114,62.3802768 137.330969,59.4529412 137.457093,57.266782 C137.583218,55.0806228 139.014187,48.7977509 139.014187,48.7977509 C139.236851,47.38391 142.439792,38.5209343 142.439792,38.5209343 C142.774567,39.1920415 143.400519,39.7525952 144.13391,40.2150519 C146.111419,41.4607266 148.872145,41.9714533 148.872145,41.9714533 C153.317647,42.6176471 152.497059,47.2110727 152.497059,47.2110727 C152.497059,47.2110727 152.546886,65.066263 152.272837,67.2025952 C151.998789,69.3389273 154.563322,77.283218 154.563322,77.283218 Z" id="Path" fill="#4C4C78" fill-rule="nonzero"></path>
            <path d="M143.391176,42.9150519 L142.273183,43.3307958 L143.017474,43.8524221 L137.458651,57.2621107 C137.587889,55.0821799 139.015744,48.7930796 139.015744,48.7930796 C139.238408,47.3792388 142.441349,38.516263 142.441349,38.516263 C142.776125,39.1873702 143.402076,39.7479239 144.135467,40.2103806 L143.391176,42.9150519 Z" id="Path" fill="#000000" fill-rule="nonzero" opacity="0.1"></path>
            <polygon id="Path" fill="#000000" fill-rule="nonzero" opacity="0.1" points="144.731834 66.8039792 150.418339 65.3387543 151.164187 67.6479239 145.353114 69.0648789"></polygon>
            <path d="M147.984602,43.8586505 C147.984602,43.8586505 145.401384,46.2892734 146.376125,51.7064014 C147.350865,57.1235294 148.909516,63.0046713 148.909516,63.0046713 L144.705363,74.6517301 C144.705363,74.6517301 147.635813,77.7067474 149.076125,78.0773356 L153.272491,68.7643599 C153.272491,68.7643599 155.234429,65.5365052 154.712803,60.4712803 C154.191176,55.4060554 152.303979,47.2095156 152.303979,47.2095156 C152.303979,47.2095156 152.305536,42.2205882 147.984602,43.8586505 Z" id="Path" fill="#000000" fill-rule="nonzero" opacity="0.1"></path>
            <path d="M148.182353,43.8586505 C148.182353,43.8586505 145.597578,46.2892734 146.569204,51.7064014 C147.54083,57.1235294 149.101038,63.0046713 149.101038,63.0046713 L144.896886,74.6517301 C144.896886,74.6517301 147.827336,77.7067474 149.267647,78.0773356 L153.471799,68.7643599 C153.471799,68.7643599 155.433737,65.5365052 154.912111,60.4712803 C154.390484,55.4060554 152.503287,47.2095156 152.503287,47.2095156 C152.503287,47.2095156 152.503287,42.2205882 148.182353,43.8586505 Z" id="Path" fill="#4C4C78" fill-rule="nonzero"></path>
            <path d="M145.037024,74.899308 C145.037024,74.899308 148.314706,79.4366782 148.067128,80.6449827 C147.81955,81.8532872 146.858824,81.2070934 146.858824,81.2070934 L145.567993,79.4366782 L144.407958,76.1247405 C144.407958,76.1247405 144.521626,74.6953287 145.037024,74.899308 Z" id="Path" fill="#000000" fill-rule="nonzero" opacity="0.1"></path>
            <path d="M144.639965,74.899308 C144.639965,74.899308 147.909862,79.4366782 147.670069,80.6449827 C147.430277,81.8532872 146.461765,81.2070934 146.461765,81.2070934 L145.169377,79.4366782 L144.0109,76.1247405 C144.0109,76.1247405 144.124567,74.6953287 144.639965,74.899308 Z" id="Path" fill="#000000" fill-rule="nonzero" opacity="0.1"></path>
            <path d="M144.839273,74.899308 C144.839273,74.899308 148.10917,79.4366782 147.86782,80.6449827 C147.626471,81.8532872 146.659516,81.2070934 146.659516,81.2070934 L145.368685,79.4366782 L144.210208,76.1247405 C144.210208,76.1247405 144.322318,74.6953287 144.839273,74.899308 Z" id="Path" fill="#474463" fill-rule="nonzero"></path>
        </g>
    </g>
</svg>