<?xml version="1.0" encoding="UTF-8"?>
<svg width="183px" height="157px" viewBox="0 0 183 157" version="1.1" xmlns="http://www.w3.org/2000/svg" xmlns:xlink="http://www.w3.org/1999/xlink">
    <!-- Generator: Sketch 54.1 (76490) - https://sketchapp.com -->
    <title>session</title>
    <desc>Created with Sketch.</desc>
    <g id="session" stroke="none" stroke-width="1" fill="none" fill-rule="evenodd">
        <rect fill="#FFFFFF" x="0" y="0" width="183" height="157"></rect>
        <g id="undraw_teaching_f1cm" transform="translate(0.000000, 6.000000)" fill-rule="nonzero">
            <rect id="Rectangle" fill="#FB4275" opacity="0.1" x="37" y="25" width="16" height="5" rx="2.5"></rect>
            <rect id="Rectangle" fill="#FB4275" opacity="0.1" x="55" y="30" width="16" height="5" rx="2.5"></rect>
            <rect id="Rectangle" fill="#FB4275" opacity="0.1" x="72" y="35" width="16" height="5" rx="2.5"></rect>
            <rect id="Rectangle" fill="#FB4275" opacity="0.1" x="37" y="18" width="16" height="5" rx="2.5"></rect>
            <rect id="Rectangle" fill="#FB4275" opacity="0.1" x="55" y="23" width="16" height="5" rx="2.5"></rect>
            <rect id="Rectangle" fill="#FB4275" opacity="0.1" x="72" y="28" width="16" height="5" rx="2.5"></rect>
            <rect id="Rectangle" fill="#FB4275" opacity="0.1" x="92" y="25" width="16" height="5" rx="2.5"></rect>
            <rect id="Rectangle" fill="#FB4275" opacity="0.1" x="109" y="30" width="16" height="5" rx="2.5"></rect>
            <rect id="Rectangle" fill="#FB4275" opacity="0.1" x="127" y="35" width="16" height="5" rx="2.5"></rect>
            <rect id="Rectangle" fill="#FB4275" opacity="0.1" x="92" y="18" width="16" height="5" rx="2.5"></rect>
            <rect id="Rectangle" fill="#FB4275" opacity="0.1" x="109" y="23" width="16" height="5" rx="2.5"></rect>
            <rect id="Rectangle" fill="#FB4275" opacity="0.1" x="127" y="28" width="16" height="5" rx="2.5"></rect>
            <rect id="Rectangle" fill="#FB4275" opacity="0.1" x="37" y="7" width="16" height="5" rx="2.5"></rect>
            <rect id="Rectangle" fill="#FB4275" opacity="0.1" x="55" y="12" width="16" height="5" rx="2.5"></rect>
            <rect id="Rectangle" fill="#FB4275" opacity="0.1" x="72" y="18" width="16" height="5" rx="2.5"></rect>
            <rect id="Rectangle" fill="#FB4275" opacity="0.1" x="37" y="0" width="16" height="5" rx="2.5"></rect>
            <rect id="Rectangle" fill="#FB4275" opacity="0.1" x="55" y="5" width="16" height="5" rx="2.5"></rect>
            <rect id="Rectangle" fill="#FB4275" opacity="0.1" x="72" y="10" width="16" height="5" rx="2.5"></rect>
            <rect id="Rectangle" fill="#FB4275" opacity="0.1" x="92" y="7" width="16" height="5" rx="2.5"></rect>
            <rect id="Rectangle" fill="#FB4275" opacity="0.1" x="109" y="12" width="16" height="5" rx="2.5"></rect>
            <rect id="Rectangle" fill="#FB4275" opacity="0.1" x="127" y="18" width="16" height="5" rx="2.5"></rect>
            <rect id="Rectangle" fill="#FB4275" opacity="0.1" x="92" y="0" width="16" height="5" rx="2.5"></rect>
            <rect id="Rectangle" fill="#FB4275" opacity="0.1" x="109" y="5" width="16" height="5" rx="2.5"></rect>
            <rect id="Rectangle" fill="#FB4275" opacity="0.1" x="127" y="10" width="16" height="5" rx="2.5"></rect>
            <rect id="Rectangle" fill="#FB4275" opacity="0.1" x="37" y="114" width="16" height="5" rx="2.5"></rect>
            <rect id="Rectangle" fill="#FB4275" opacity="0.1" x="55" y="119" width="16" height="5" rx="2.5"></rect>
            <rect id="Rectangle" fill="#FB4275" opacity="0.1" x="72" y="124" width="16" height="5" rx="2.5"></rect>
            <rect id="Rectangle" fill="#FB4275" opacity="0.1" x="37" y="107" width="16" height="5" rx="2.5"></rect>
            <rect id="Rectangle" fill="#FB4275" opacity="0.1" x="55" y="112" width="16" height="5" rx="2.5"></rect>
            <rect id="Rectangle" fill="#FB4275" opacity="0.1" x="72" y="116" width="16" height="5" rx="2.5"></rect>
            <rect id="Rectangle" fill="#FB4275" opacity="0.1" x="92" y="114" width="16" height="5" rx="2.5"></rect>
            <rect id="Rectangle" fill="#FB4275" opacity="0.1" x="109" y="119" width="16" height="5" rx="2.5"></rect>
            <rect id="Rectangle" fill="#FB4275" opacity="0.1" x="127" y="124" width="16" height="5" rx="2.5"></rect>
            <rect id="Rectangle" fill="#FB4275" opacity="0.1" x="92" y="107" width="16" height="5" rx="2.5"></rect>
            <rect id="Rectangle" fill="#FB4275" opacity="0.1" x="109" y="112" width="16" height="5" rx="2.5"></rect>
            <rect id="Rectangle" fill="#FB4275" opacity="0.1" x="127" y="116" width="16" height="5" rx="2.5"></rect>
            <rect id="Rectangle" fill="#FB4275" opacity="0.1" x="37" y="97" width="16" height="5" rx="2.5"></rect>
            <rect id="Rectangle" fill="#FB4275" opacity="0.1" x="55" y="102" width="16" height="5" rx="2.5"></rect>
            <rect id="Rectangle" fill="#FB4275" opacity="0.1" x="72" y="107" width="16" height="5" rx="2.5"></rect>
            <rect id="Rectangle" fill="#FB4275" opacity="0.1" x="37" y="90" width="16" height="5" rx="2.5"></rect>
            <rect id="Rectangle" fill="#FB4275" opacity="0.1" x="55" y="95" width="16" height="5" rx="2.5"></rect>
            <rect id="Rectangle" fill="#FB4275" opacity="0.1" x="72" y="99" width="16" height="5" rx="2.5"></rect>
            <rect id="Rectangle" fill="#FB4275" opacity="0.1" x="92" y="97" width="16" height="5" rx="2.5"></rect>
            <rect id="Rectangle" fill="#FB4275" opacity="0.1" x="109" y="102" width="16" height="5" rx="2.5"></rect>
            <rect id="Rectangle" fill="#FB4275" opacity="0.1" x="127" y="107" width="16" height="5" rx="2.5"></rect>
            <rect id="Rectangle" fill="#FB4275" opacity="0.1" x="92" y="90" width="16" height="5" rx="2.5"></rect>
            <rect id="Rectangle" fill="#FB4275" opacity="0.1" x="109" y="95" width="16" height="5" rx="2.5"></rect>
            <rect id="Rectangle" fill="#FB4275" opacity="0.1" x="127" y="99" width="16" height="5" rx="2.5"></rect>
            <ellipse id="Oval" fill="#FB4275" opacity="0.1" cx="92.5" cy="139.5" rx="84.5" ry="6.5"></ellipse>
            <path d="M16.3918937,36.2201981 C24.3990385,39.6222851 29,46.6618715 29,46.6618715 C29,46.6618715 20.6171875,48.1806604 12.6081063,44.7804718 C4.59902511,41.3802832 0,34.3387983 0,34.3387983 C0,34.3387983 8.3828125,32.818111 16.3918937,36.2201981 Z" id="Path" fill="#FB4275"></path>
            <path d="M40.2865182,22.7248384 C42.7690114,18.8467221 46.9964314,17 46.9964314,17 C46.9964314,17 47.1905279,21.4210526 44.7157985,25.2880886 C42.2410692,29.1551247 38.0039443,31 38.0039443,31 C38.0039443,31 37.802084,26.5807941 40.2865182,22.7248384 Z" id="Path" fill="#FB4275"></path>
            <path d="M22.699828,26.4701606 C24.3961054,32.8199493 29.0715277,37 29.0715277,37 C29.0715277,37 30.997683,30.8815723 29.3014057,24.5298394 C27.6051284,18.1781065 22.9278522,14 22.9278522,14 C22.9278522,14 21.0016969,20.1184277 22.699828,26.4701606 Z" id="Path" fill="#46455B"></path>
            <rect id="Rectangle" fill="#3F3D56" x="23" y="27" width="141" height="70" rx="7.21"></rect>
            <path d="M23,93 L164,93 L164,95.6890909 C164,96.413086 163.375649,97 162.605473,97 L24.3945267,97 C23.6243509,97 23,96.413086 23,95.6890909 L23,93 Z" id="Path" fill="#000000" opacity="0.1"></path>
            <rect id="Rectangle" fill="#FB4275" x="37" y="87" width="10" height="5" rx="2.5"></rect>
            <rect id="Rectangle" fill="#FB4275" x="50" y="92" width="7" height="1" rx="0.5"></rect>
            <path d="M43.4854738,40.3109874 C48.5985576,41.2502206 53.8143294,40.3109874 58.9061006,39.6745461 L74.3809776,37.7459359 C75.0067927,37.6668628 75.9174215,37.2946411 76.285548,38.0564421 C76.4928614,38.482665 76.3533608,39.4064692 76.3688609,39.8963362 C76.4095485,41.2463634 76.4056735,42.5963905 76.3688609,43.9464177 C76.2991106,46.5268981 76.1092348,49.1015928 75.8670463,51.6705016 C75.3962318,56.6983884 74.729729,61.6992747 74.3964777,66.7464476 C74.2259769,69.3153564 74.1407266,71.8919796 74.2162894,74.4608884 C74.233727,75.0741865 74.2589146,75.6874845 74.2957272,76.298854 C74.3364149,76.9835106 74.6444787,77.9998882 73.8946631,78.4569688 C73.4664738,78.7192598 72.6236578,78.7057595 72.1334682,78.7829039 C71.358465,78.9044063 70.5834618,79.0008369 69.7929585,79.0799099 C64.5829993,79.598706 59.3052273,79.3827017 54.075893,79.3518439 L38.2852021,79.2708423 L34.4334361,79.2496276 C34.0846846,79.2496276 32.8272419,79.4579175 32.6121785,79.0451949 C32.5211156,78.8696914 32.7633041,78.0481034 32.8059293,77.8282418 C32.8653462,77.4656631 32.9299298,77.1037273 32.9996801,76.7424343 C33.449182,74.2063119 33.9800592,71.6856183 34.5148114,69.1668534 C35.6637537,63.7667448 36.8398211,58.3396357 37.3125731,52.8238105 C37.5470116,50.0562548 37.3920109,47.2636272 37.6787621,44.5018574 C37.8124502,43.2193316 37.9713258,40.3572741 39.6860205,40.2434861 C41.1391515,40.1470556 42.6349078,40.2434861 44.0919138,40.2434861 C44.2524223,40.2434861 44.3825401,40.1139658 44.3825401,39.9541945 C44.3825401,39.7944232 44.2524223,39.664903 44.0919138,39.664903 C42.7162831,39.664903 41.3387149,39.6282594 39.9630841,39.65526 C39.0485803,39.6726175 38.4130777,39.8886218 37.9771384,40.7256386 C36.8630712,42.8741104 36.9773842,45.7400252 36.9425091,48.0852152 C36.8591962,53.6993995 35.9931301,59.19401 34.8655004,64.6847633 C34.2978105,67.4484617 33.685558,70.2025171 33.1217431,72.9681441 C32.8563045,74.2892421 32.602491,75.6141973 32.36999,76.9430098 C32.2614895,77.5755939 31.7131748,78.9699791 32.1956143,79.5504908 C32.6780538,80.1310024 34.162185,79.8185676 34.8267502,79.8224248 L39.4496445,79.8494253 L48.3079314,79.8995692 C54.0313303,79.9323556 59.7741042,80.0924302 65.4955656,79.9246411 C68.2274519,79.8436395 71.114339,79.7317801 73.7745376,79.0818385 C74.5669784,78.8889775 74.9486675,78.5263987 74.9796676,77.6855247 C75.0261678,76.3817842 74.8130419,75.0375429 74.7859168,73.7280165 C74.592166,62.5227912 77.2368645,51.4737833 76.9656134,40.2647008 C76.9481758,39.5028998 77.2368645,37.582004 76.399861,37.1210661 C76.0239844,36.9127762 75.5357324,37.0265642 75.1404808,37.0728509 C74.3848526,37.1596383 73.631162,37.2657119 72.8755338,37.354428 L63.0620554,38.5733096 C59.9252298,38.9590317 56.7903418,39.3756115 53.6477037,39.7304758 C50.3210023,40.1161978 46.9613633,40.3457024 43.646287,39.7304758 C43.280098,39.6629744 43.1231598,40.2203428 43.4912863,40.2878441 L43.4854738,40.3109874 Z" id="Path" fill="#FB4275"></path>
            <path d="M37.2777611,46.99969 L75.720796,45.4689697 C76.0921054,45.4533501 76.0940293,44.9847623 75.720796,45.0003819 L37.2777611,46.5311021 C36.9083755,46.5451598 36.9064516,47.0137476 37.2777611,46.99969 Z" id="Path" fill="#FB4275"></path>
            <path d="M50.2554468,42.5837969 C50.0428835,42.7807975 49.9554094,43.056947 50.0217643,43.321516 C50.0881192,43.5860851 50.2997243,43.8048689 50.5870565,43.9059858 C51.0910284,44.107509 51.6830549,43.9387538 52.1832798,43.828981 C52.9326805,43.665141 53.6820811,43.5193234 54.4520902,43.3997202 C56.1279977,43.1402563 57.8255284,43.0021622 59.5274059,42.9868433 C60.3030355,42.9786513 61.0730447,43.0097809 61.8486743,43.0392721 C62.4107248,43.0589329 63.0158658,43.0982545 63.4917352,42.7935121 C64.0350506,42.4461713 64.2111597,41.7678736 63.6790853,41.3451663 C62.9296847,40.7471503 61.3147264,41.0944911 60.4491686,41.1567503 C57.3084008,41.3849222 54.1880096,41.7921108 51.10789,42.3757201 C50.7556717,42.4412561 50.9036783,42.9163921 51.2577701,42.8492177 C53.2898948,42.4658321 55.3376319,42.1578128 57.4009816,41.92516 C58.4151705,41.8159333 59.4312328,41.7236368 60.4491686,41.6482704 C60.928785,41.613864 61.4084014,41.5827344 61.8880178,41.5581584 C62.075368,41.548328 62.2739592,41.5303056 62.4650563,41.5352208 C63.0589563,41.5466896 63.1282759,41.4533008 62.7723106,42.080808 C62.4556888,42.6362257 62.5568579,42.5723281 62.0079219,42.5543057 C61.7756077,42.5543057 61.5432935,42.5313681 61.3109794,42.5215377 C60.83511,42.5040614 60.3592406,42.4947771 59.8833712,42.4936849 C58.8704313,42.4936849 57.8599895,42.5362833 56.8520457,42.6214801 C55.997729,42.6935697 55.1452858,42.7951505 54.3003366,42.9262225 C53.7720092,43.0081425 53.2474287,43.1031697 52.7247218,43.2080273 C52.4942811,43.255541 52.2619669,43.304693 52.0315262,43.3554834 C51.9209896,43.3816978 51.8085795,43.4046354 51.6980429,43.4292114 C51.2883706,43.5537298 50.9392748,43.3898898 50.6507556,42.9376913 C50.9018048,42.7099537 50.506496,42.3609745 50.2535733,42.5903505 L50.2554468,42.5837969 Z" id="Path" fill="#FB4275"></path>
            <path d="M55.6266287,51.4205934 C53.00824,51.3186313 50.179946,52.0305448 48.4554648,54.1517191 C47.1055561,55.8104228 46.3365062,58.6562559 47.7660342,60.5243459 C49.3023244,62.5271714 52.6716676,62.1739458 54.7037688,61.3200138 C56.8534894,60.4096386 59.2058773,58.5324448 59.8518792,56.1836767 C60.6571196,53.2504476 58.0423501,51.0327735 55.3190087,51 C54.9697696,51 54.9697696,51.5462252 55.3190087,51.5462252 C56.8715847,51.5644327 58.3952082,52.2344688 59.1190199,53.6892485 C59.8772126,55.2223204 59.2239726,56.8318639 58.2142553,58.0590497 C56.5965363,60.012715 54.0668146,61.4857021 51.4900451,61.4438249 C49.9428977,61.4201551 48.2328927,60.8866752 47.7533675,59.2443583 C47.3588901,57.9133897 47.659272,56.45861 48.346893,55.2787637 C49.834326,52.729713 52.8616682,51.8666772 55.6374859,51.9759223 C55.986725,51.9886675 55.986725,51.4424424 55.6374859,51.4296971 L55.6266287,51.4205934 Z" id="Path" fill="#FB4275"></path>
            <path d="M52.802735,54.1296037 C52.6111895,54.0308309 52.3966343,54.0755181 52.2342629,54.2480041 C52.0718915,54.4204902 51.9843482,54.6967202 52.0023136,54.979886 C52.0481392,55.8089112 52.7049736,56.0427388 53.1983631,55.9938476 C53.6245416,55.9428307 54.1225137,55.723883 53.9728166,54.9820117 C53.9170809,54.7163153 53.7810356,54.4975096 53.6001013,54.3825627 C53.4634137,54.307099 53.3151371,54.2814891 53.1693402,54.308163 C53.1128219,54.308163 52.594992,54.5717505 52.8149551,54.2550204 L52.45446,54.1891235 C52.5354962,54.3003449 52.5759405,54.4566852 52.5644416,54.6142646 C52.5658466,54.7272874 52.609869,54.8309499 52.6803383,54.887174 C52.7508076,54.9433982 52.837334,54.9438945 52.908134,54.8884807 C53.0150326,54.8262111 53.138046,54.8534712 53.2257586,54.9588671 C53.3134711,55.0642631 53.3507804,55.2296478 53.3220923,55.3858958 C53.2966907,55.5379161 53.35355,55.6933296 53.4568311,55.7541773 C53.5601122,55.815025 53.6798757,55.7636681 53.7406333,55.6324776 C53.8933855,55.2498506 54.0782156,54.488848 53.8490873,54.0892153 C53.6963352,53.8192507 53.4015235,53.9000275 53.2182209,54.0573297 C53.1050863,54.1687401 52.9997326,54.2947115 52.9035514,54.4335796 C52.7187213,54.6610301 52.598047,54.7673154 52.6667855,54.3315458 C52.7813496,53.5386575 53.3251474,52.907323 53.8215919,52.5905928 L53.4855372,52.2313485 C53.3093535,53.1527108 52.9943303,54.0113708 52.5613865,54.7503098 L52.9524321,54.9756346 C52.9297029,54.3776236 53.1790131,53.8240484 53.5756609,53.5918002 L53.3511152,53.5918002 L53.4702619,53.8638905 C53.4259638,54.2656489 53.8674176,54.437831 53.9117157,54.0318213 C53.9697615,53.506772 53.7314682,52.8244204 53.2900144,53.0816308 C52.7630194,53.3877324 52.489593,54.2273862 52.5002857,54.9756346 C52.5002857,55.2307193 52.7599643,55.4284099 52.8928587,55.2030851 C53.3786493,54.381795 53.7332538,53.4260156 53.933101,52.3992793 C53.9547987,52.274807 53.9216136,52.1442496 53.8485015,52.066446 C53.7753894,51.9886425 53.6761542,51.9782825 53.5955187,52.040035 C53.1379292,52.3278756 52.7512253,52.7965294 52.4834829,53.3877324 C52.2971253,53.8128736 52.0634144,54.4760938 52.2528271,54.9650061 C52.3155375,55.1230072 52.4210515,55.2395443 52.545864,55.2886565 C52.6706764,55.3377687 52.8044194,55.3153764 52.9172991,55.2264679 C53.0585282,55.1099355 53.1875444,54.9668762 53.300707,54.8013267 C53.3572253,54.7311784 53.4198537,54.6100132 53.4947023,54.5887562 C53.5619132,54.524985 53.5588582,54.561122 53.4840096,54.7014186 C53.4830174,54.921695 53.4369175,55.1370123 53.3511152,55.3221246 L53.7696562,55.5665808 C53.8466963,55.1611103 53.7451888,54.7305073 53.5105266,54.4673328 C53.2758645,54.2041583 52.951932,54.1576286 52.6835883,54.3485514 L53.0288082,54.6248931 C53.0360339,54.3543871 52.9749634,54.0888998 52.8561982,53.874519 C52.8196847,53.7907828 52.7578472,53.7346159 52.6880673,53.7218062 C52.6182874,53.7089965 52.5480988,53.7409269 52.4972306,53.8086222 C52.2650473,54.1466094 52.2207492,54.7311784 52.5125058,55.0436572 C52.7309414,55.2753591 52.837868,55.0436572 53.0776889,54.9905145 C53.8918579,54.8438408 53.4167987,55.3540102 53.1296246,55.3710158 C53.0012049,55.3901783 52.8713574,55.37722 52.7462166,55.3327531 C52.4274738,55.1825366 52.407616,54.9890974 52.6866433,54.7524355 C52.9600697,54.907612 53.0776889,54.2911574 52.808845,54.1381065 L52.802735,54.1296037 Z" id="Path" fill="#FB4275"></path>
            <path d="M52.470499,56.3557749 C52.6742433,57.1266258 51.8327627,57.3810066 51.4335563,57.6469502 C51.153414,57.8297267 50.909128,58.0784864 50.7163101,58.3773314 C50.2988827,59.0287004 50.1431757,59.8573652 50.0056897,60.6378517 C49.9427443,61.0020788 50.4214606,61.1562489 50.4860624,60.7920219 C50.5618432,60.2185084 50.7027703,59.6592471 50.9051463,59.1289111 C51.2033087,58.4389995 51.6306748,58.2077442 52.1872447,57.8531528 C52.7438145,57.4985614 53.1463338,56.9493301 52.9492153,56.2016047 C52.8564537,55.8470133 52.3760809,55.9992564 52.470499,56.3557749 L52.470499,56.3557749 Z" id="Path" fill="#FB4275"></path>
            <path d="M54.0228145,56 C53.742578,56.0385659 53.5378669,56.2830633 53.5502883,56.5643632 C53.5502883,56.7882273 53.6996066,56.9311993 53.8016722,57.1099143 C54.04395,57.4755612 54.2287849,57.8758441 54.3498026,58.2969583 C54.4405276,58.7014186 54.5293625,59.4256848 54.3176708,59.8019269 C53.9264192,60.4998561 53.21952,60.3662902 52.6165766,60.3662902 C52.0495452,60.3662902 51.6110409,60.5544112 51.6299419,59.7680651 C51.6412826,59.3259806 51.9512597,58.8782525 52.1969734,58.5302285 L51.6790847,58.4625049 C51.7883338,59.0369283 51.845895,59.6199045 51.8510842,60.204506 C51.8510842,60.4659943 52.2536765,60.6108476 52.3784234,60.3455968 C52.6822897,59.7093834 52.9234613,59.0453445 53.0985533,58.3628007 L52.5409724,58.2875523 L52.6392579,59.7172725 C52.6426106,59.8425547 52.7280584,59.9508462 52.8495508,59.9837851 C52.9710431,60.0167241 53.0998678,59.9665261 53.1665971,59.8602445 C53.2327966,59.7875331 53.2813003,59.7006372 53.3083549,59.606281 C53.327256,59.5178641 53.1533663,58.9215203 53.0834325,59.1340971 L53.6391232,59.2093455 L53.6788154,57.8511114 L53.111784,57.9263598 C53.2316428,58.3093685 53.2677334,58.7134772 53.2176299,59.1115226 C53.1817179,59.4256848 53.7128373,59.4971708 53.7846613,59.186771 L54.140001,57.3619966 L53.6221123,57.427839 C53.7451588,57.6802343 53.7791194,57.9665468 53.7185076,58.240522 C53.6769253,58.6017145 54.2439567,58.5979521 54.285539,58.240522 C54.3336997,57.865918 54.2733709,57.4854157 54.1116494,57.1437761 C54.0529391,57.0475465 53.9426694,56.994907 53.8305191,57.0095727 C53.7183688,57.0242385 53.6255035,57.1034416 53.5937607,57.2114997 L53.2365309,59.0362742 L53.7941118,59.1115226 C53.8508154,58.6630684 53.8075788,58.2076877 53.6674748,57.7777442 C53.6283407,57.6438678 53.496834,57.5585075 53.357964,57.5768424 C53.219094,57.5951772 53.1144957,57.7117102 53.111784,57.8511114 L53.0720918,59.2093455 C53.0720918,59.5385574 53.5313873,59.5855877 53.6296727,59.284594 L53.6599144,59.1924147 C53.6865326,59.0946631 53.6592124,58.99019 53.5880904,58.9177579 C53.0002678,58.2819086 52.8811913,59.294 52.6770599,59.5743004 L53.2062893,59.7172725 L53.1080038,58.2875523 C53.0872127,57.9827961 52.6335875,57.8887356 52.5504229,58.2123038 C52.3906782,58.8486054 52.1691227,59.467932 51.8888863,60.061534 L52.4181156,60.204506 C52.4120165,59.5693216 52.3487602,58.9359577 52.2291051,58.312008 C52.1799624,58.0524009 51.8378535,58.0636882 51.7112164,58.2442844 C51.3331955,58.7860731 50.6792193,59.9693547 51.1838772,60.6183724 C51.6242716,61.1827356 53.0097184,60.9645152 53.6013211,60.9287722 C54.5350329,60.8760983 54.8733616,60.2872793 54.9754273,59.4106351 C55.0240502,58.9908408 55.0004,58.5658681 54.9054934,58.1539863 C54.8544606,57.9320034 54.338462,56.5248578 54.1834734,56.553076 C54.5425933,56.4872336 54.3894948,55.9416825 54.032265,56.0075248 L54.0228145,56 Z" id="Path" fill="#FB4275"></path>
            <path d="M52.4417536,57.7242413 L51.1019297,59.6196417 L51.5256347,59.8844016 L52.5071906,58.3624705 L52.0589467,58.1590788 L51.5698047,60.1596818 C51.5426004,60.2850749 51.6034949,60.4132669 51.7141056,60.4634568 C51.8247163,60.5136466 51.9529792,60.4712853 52.0180486,60.3630735 C52.2406301,59.9677789 52.4905359,59.5909167 52.765667,59.2356522 L52.3566854,58.9796591 C52.2468477,59.4326259 52.0350871,59.84983 51.7399411,60.1947493 L52.1505586,60.4507423 C52.1756902,60.2084597 52.2358487,59.9718448 52.3288746,59.7493916 C52.454841,59.4460574 52.0556749,59.1777907 51.9051696,59.4828783 C51.7667542,59.7607617 51.6086984,60.0268832 51.4323869,60.2789114 L51.8806307,60.342033 L51.9804223,59.8423206 L51.5321784,59.779199 L51.6041592,60.2175432 C51.628196,60.3072651 51.6945395,60.3767902 51.7787707,60.4005288 C51.8630018,60.4242674 51.9526721,60.398711 52.0147767,60.3332661 C52.4296954,59.8730716 52.7623802,59.3352458 52.9963327,58.74646 L52.5742636,58.74646 C52.685225,58.9657216 52.7630784,59.2024388 52.8049293,59.4478108 C52.8638226,59.7634186 53.2548091,59.6459424 53.2858917,59.3776757 C53.3561601,58.7903482 53.3922203,58.198899 53.3938628,57.6067651 L52.9030849,57.6067651 L52.9030849,58.7096391 C52.9030849,58.9954395 53.3398773,59.0796016 53.3856832,58.7797742 C53.4180832,58.5137713 53.4998509,58.2574147 53.6261644,58.0258221 L53.1959157,58.0258221 C53.2996062,58.2050911 53.3561326,58.4110787 53.3595084,58.6219703 C53.3595084,58.7672248 53.4693728,58.8849768 53.6048974,58.8849768 C53.740422,58.8849768 53.8502863,58.7672248 53.8502863,58.6219703 L53.9124516,58.2712949 L53.4396688,58.2712949 C53.4871106,58.5816426 53.6670626,60.3297593 53.0274153,60.1246142 C52.9194441,60.0965602 52.8883615,60.1035737 52.9341675,60.1439014 L53.0797649,59.8107598 L53.4216736,59.0340138 L52.9636141,58.9007572 C52.9930608,59.2619528 53.0241434,59.7774456 52.8212885,60.0860399 C52.6576959,60.3367728 52.1538305,60.4367153 51.89699,60.2894317 C51.7274336,60.1598748 51.5825138,59.9968141 51.4700132,59.8090064 L51.1346482,60.1596818 C51.406212,60.3718404 51.8462763,60.8925933 52.1963646,60.9224007 C52.4630206,60.9451946 52.6871425,60.7084887 52.8621867,60.519124 C53.4047814,59.9181561 53.6939001,59.1051282 53.6621548,58.2695415 C53.6621548,58.124287 53.5522904,58.006535 53.4167658,58.006535 C53.2812412,58.006535 53.1713768,58.124287 53.1713768,58.2695415 L53.1713768,58.8691964 C53.1713768,59.0144509 53.2812412,59.1322029 53.4167658,59.1322029 C53.5522904,59.1322029 53.6621548,59.0144509 53.6621548,58.8691964 L53.6621548,57.3981132 C53.6621548,57.2528587 53.5522904,57.1351067 53.4167658,57.1351067 C53.2812412,57.1351067 53.1713768,57.2528587 53.1713768,57.3981132 C53.1704862,57.7507197 53.1420306,58.1026261 53.0863086,58.4501393 L53.568907,58.5202744 C53.5304816,58.1013396 53.5124619,57.6805425 53.5149214,57.2595965 C53.5133365,57.129358 53.4230501,57.0199801 53.3026348,57.0024209 C53.1822194,56.9848616 53.0679505,57.0644108 53.033959,57.1894614 C52.9603423,57.5243564 52.8703663,57.8539912 52.7836622,58.1818727 L53.2319061,58.1187511 L53.1975516,57.978481 C53.1746487,57.643586 52.6838707,57.6418326 52.7067737,57.978481 C52.7121604,58.1204363 52.7467981,58.2593537 52.8082011,58.3852644 C52.9030849,58.5991764 53.1991876,58.5237812 53.256445,58.3221428 C53.3496928,57.992508 53.4331251,57.6628731 53.5067418,57.3297315 L53.0241434,57.2595965 C53.0216839,57.6805425 53.0397036,58.1013396 53.078129,58.5202744 C53.1026679,58.7902944 53.5083777,58.9060173 53.5590914,58.5904095 C53.6244352,58.1943972 53.6589087,57.7932422 53.6621548,57.3910997 L53.1713768,57.3910997 L53.1713768,58.8621829 L53.6621548,58.8621829 L53.6621548,58.262528 L53.1713768,58.262528 C53.200238,58.9239755 52.9858419,59.5711609 52.5742636,60.0649994 C52.5105133,60.1426816 52.4416262,60.2153425 52.3681369,60.2824182 C52.2519861,60.4016478 52.1456509,60.384114 52.052403,60.2280635 C51.8201015,60.1246142 51.5796203,59.858101 51.3767654,59.7020504 C51.1739105,59.5459999 50.8958029,59.8545942 51.0397645,60.0614927 C51.4160276,60.598026 51.9771504,61.1959275 52.6756911,60.9381811 C53.4102221,60.6593942 53.5100136,59.593341 53.4543921,58.8919903 C53.4363969,58.6587912 53.1108475,58.5009873 52.9979686,58.760487 C52.8343759,59.1304496 52.6707833,59.4986587 52.5071906,59.8703746 C52.4499332,60.0001245 52.343598,60.1789689 52.3599572,60.3332661 C52.4139428,60.7277759 52.8605508,60.6629009 53.1353864,60.640107 C54.2003746,60.5541916 54.0318742,58.9358247 53.9091797,58.1222579 C53.8682815,57.8522378 53.501834,57.8943189 53.4363969,58.1222579 C53.3844135,58.282419 53.3573327,58.4506455 53.3562365,58.6202169 L53.8470145,58.6202169 C53.829231,58.3187248 53.7505262,58.0249765 53.6163488,57.7593089 C53.5717127,57.679531 53.4912881,57.6307125 53.4044964,57.6307125 C53.3177046,57.6307125 53.23728,57.679531 53.1926439,57.7593089 C53.0463528,58.0299826 52.9476528,58.3271344 52.9014489,58.6359973 L53.3922269,58.7061324 L53.3922269,57.6032583 C53.3922269,57.4580038 53.2823625,57.3402518 53.1468379,57.3402518 C53.0113133,57.3402518 52.9014489,57.4580038 52.9014489,57.6032583 C52.8998064,58.1953923 52.8637462,58.7868414 52.7934778,59.3741689 L53.2760761,59.3040339 C53.2205506,59.0173836 53.1263108,58.7409468 52.9963327,58.4834535 C52.9516965,58.4036756 52.8712719,58.3548572 52.7844802,58.3548572 C52.6976885,58.3548572 52.6172639,58.4036756 52.5726277,58.4834535 C52.3592818,59.032585 52.05251,59.5344006 51.6679603,59.9633036 L52.0785779,60.0790264 L52.0065971,59.6406822 C51.9689708,59.4074831 51.6614166,59.4004696 51.5583532,59.5775607 C51.3940083,59.8440477 51.3401055,60.1716381 51.4094839,60.4823031 C51.4503821,60.7312826 51.7448488,60.704982 51.8577278,60.5454247 C52.0340265,60.2940016 52.1920838,60.0284638 52.3305106,59.751145 L51.9068056,59.4846317 C51.7936806,59.7466242 51.7165374,60.0247889 51.6777758,60.3104722 C51.6483292,60.5419179 51.9051696,60.7838839 52.0883934,60.5664652 C52.4400805,60.1540138 52.6947215,59.6574626 52.8311041,59.1181759 C52.8916334,58.8797167 52.5840792,58.6535311 52.4204865,58.8621829 C52.1195188,59.2487553 51.8460937,59.6590328 51.6025232,60.0895467 L52.0507671,60.2929384 L52.5497247,58.2993489 C52.576929,58.1739558 52.5160346,58.0457638 52.4054238,57.9955739 C52.2948131,57.9453841 52.1665502,57.9877454 52.1014808,58.0959572 L51.1199249,59.6196417 C50.9367011,59.9019354 51.3571342,60.1456548 51.5436299,59.8844016 L52.878546,57.9907546 C53.0683134,57.7207346 52.6429725,57.4647415 52.454841,57.7242413 L52.4417536,57.7242413 Z" id="Path" fill="#FB4275"></path>
            <path d="M77.4343403,63.954546 C79.7369429,62.4971891 81.567512,60.3230667 83.6014776,58.5043488 C85.8081384,56.5327474 88.1241728,54.69616 90.5092854,52.9568621 C95.1413542,49.5815123 100.005602,46.561567 104.866012,43.5495637 C104.996923,43.4638717 105.03881,43.2863417 104.960789,43.1478694 C104.882769,43.009397 104.712829,42.9596552 104.576268,43.0353192 C99.715858,46.0473225 94.8496912,49.0613114 90.2176224,52.4426177 C88.0320687,54.0310176 85.8983237,55.7147215 83.852845,57.5016714 C81.6269959,59.4474612 79.6448388,61.8697711 77.1369208,63.4403015 C76.820313,63.6388515 77.1100571,64.1550815 77.426665,63.954546 L77.4343403,63.954546 Z" id="Path" fill="#FB4275"></path>
            <path d="M112.683589,35.0016458 C110.196378,35.2527132 107.517843,35.8822836 105.987251,38.0448865 C104.665202,39.9050674 104.693901,43.1499228 105.935593,45.0595563 C107.345651,47.2297673 110.22699,47.3077504 112.46548,46.605903 C114.70397,45.9040556 117.020903,44.6734452 116.999858,42.0144136 C116.988378,40.5878945 116.46989,39.1024127 115.897832,37.8090354 C115.404216,36.6925464 114.529865,35.7168074 113.205904,35.840439 C112.840475,35.8746755 112.836648,36.4452831 113.205904,36.4110467 C114.979477,36.2474725 115.549622,38.3416025 115.970535,39.6635102 C116.353183,40.8979247 116.707132,42.3586802 116.106375,43.5854866 C115.505618,44.812293 114.057295,45.4380594 112.819429,45.8869374 C111.480162,46.3700518 110.00888,46.6648658 108.610302,46.2673425 C105.839931,45.4970222 105.074636,42.0068055 105.872457,39.5303684 C106.790811,36.6773302 110.043319,35.838537 112.693155,35.5722535 C113.056671,35.536115 113.060497,34.9655073 112.693155,35.0016458 L112.683589,35.0016458 Z" id="Path" fill="#FB4275"></path>
            <path d="M116.683589,58.0016458 C114.196378,58.2527132 111.517843,58.8822836 109.987251,61.0448865 C108.665202,62.9050674 108.693901,66.1499228 109.935593,68.0595563 C111.345651,70.2297673 114.22699,70.3077504 116.46548,69.605903 C118.70397,68.9040556 121.020903,67.6734452 120.999858,65.0144136 C120.988378,63.5878945 120.46989,62.1024127 119.897832,60.8090354 C119.404216,59.6925464 118.529865,58.7168074 117.205904,58.840439 C116.840475,58.8746755 116.836648,59.4452831 117.205904,59.4110467 C118.979477,59.2474725 119.549622,61.3416025 119.970535,62.6635102 C120.353183,63.8979247 120.707132,65.3586802 120.106375,66.5854866 C119.505618,67.812293 118.057295,68.4380594 116.819429,68.8869374 C115.480162,69.3700518 114.00888,69.6648658 112.610302,69.2673425 C109.839931,68.4970222 109.074636,65.0068055 109.872457,62.5303684 C110.790811,59.6773302 114.043319,58.838537 116.693155,58.5722535 C117.056671,58.536115 117.060497,57.9655073 116.693155,58.0016458 L116.683589,58.0016458 Z" id="Path" fill="#FB4275"></path>
            <path d="M109.069398,40.8406816 L110.883319,42.9185229 C110.956357,42.989322 111.060998,43.0164835 111.159042,42.9900915 C111.257085,42.9636995 111.334179,42.8876169 111.362179,42.7896198 C111.745267,41.7776341 111.67248,40.7290938 111.762506,39.6651621 C111.861771,38.5655179 112.136642,37.4890965 112.576568,36.4772148 C113.460289,34.4248331 114.958626,32.699961 116.863321,31.5423416 C117.179369,31.3499489 116.890138,30.8497278 116.57409,31.0440444 C114.69602,32.1799575 113.189386,33.842392 112.23945,35.8269274 C111.774441,36.7926316 111.45182,37.8211665 111.28173,38.8801998 C111.090187,40.1288285 111.264492,41.437099 110.804786,42.6357057 L111.285561,42.5068025 L109.481217,40.432809 C109.236041,40.1538396 108.831883,40.5636361 109.075144,40.8406816 L109.069398,40.8406816 Z" id="Path" fill="#FB4275"></path>
            <path d="M78.2853195,66.999803 C88.4260644,66.6507456 98.5694306,66.5767928 108.715418,66.7779445 C109.094861,66.7779445 109.094861,66.112369 108.715418,66.112369 C98.572052,65.9082592 88.4286857,65.982212 78.2853195,66.3342275 C77.9058771,66.347539 77.9039111,67.0131145 78.2853195,66.999803 Z" id="Path" fill="#FB4275"></path>
            <path d="M110.177654,61.5230501 C113.452417,62.7292021 116.602454,64.2145566 119.588216,65.9604658 C119.892801,66.1347555 120.173242,65.686831 119.868657,65.5090555 C116.843564,63.7415875 113.651815,62.2387025 110.333661,61.0193529 C110.001217,60.8956072 109.856354,61.4010474 110.18694,61.5230501 L110.177654,61.5230501 Z" id="Path" fill="#FB4275"></path>
            <path d="M116.52958,58.0906919 C113.167933,61.9066978 111.220628,66.7119574 111.000296,71.7350041 C110.985255,72.088332 111.549276,72.088332 111.564316,71.7350041 C111.777887,66.8561728 113.666659,62.1882586 116.928155,58.4788033 C117.163163,58.211519 116.766469,57.8215769 116.52958,58.0906919 Z" id="Path" fill="#FB4275"></path>
            <path d="M39.2939788,64.8099207 L61.3833994,64.5643096 L63.9229812,64.5357111 C64.379513,64.5357111 64.8360448,64.522253 65.2925767,64.5205707 C65.9348833,64.5205707 66.3676992,64.9747829 66.3558412,65.5299311 C66.3261963,66.7075183 65.4566119,66.6654616 64.3182468,66.7075183 L61.5731269,66.8135012 L50.3950145,67.2323857 C48.392994,67.3080878 46.3889972,67.4006125 44.3869767,67.4594918 C42.5806127,67.5065953 39.1457542,67.0052796 39.9481435,64.767864 C40.0588178,64.4566445 39.487659,64.3237454 39.3750083,64.6332826 C38.9797426,65.7334855 39.6793628,66.850511 40.8058699,67.4275288 C42.4047195,68.2451107 44.5114853,67.9675366 46.2763465,67.9002459 L59.9999697,67.3703317 L63.332059,67.2441616 C64.1858328,67.2105163 65.3736061,67.3585558 66.1582084,67.0204201 C67.0791774,66.6250872 67.2412363,65.0555317 66.6601958,64.3944006 C66.3617702,64.0579471 65.9427886,64.0276663 65.4743988,64.0125259 C64.2451227,63.9721515 62.9941069,64.0411245 61.7628544,64.0545826 L54.9208061,64.1319669 L39.2860735,64.3001937 C38.9046422,64.3001937 38.9046422,64.8048739 39.2860735,64.8048739 L39.2939788,64.8099207 Z" id="Path" fill="#FB4275"></path>
            <g id="b30eccf6-7cfe-48df-9caa-415a128bd568" transform="translate(123.000000, 43.000000)">
                <path d="M2.95721088,91.8554217 C2.46006803,92.16 1.89190476,92.3315663 1.37897959,92.5995181 C0.866054422,92.8674699 0.366938776,93.2703614 0.220952381,93.8255422 C0.166480315,93.9978731 0.175555267,94.1834104 0.246598639,94.3498795 C0.374229571,94.5509262 0.569548374,94.7022475 0.798979592,94.7778313 C2.90490972,95.691739 5.30298589,95.7182325 7.42952381,94.8510843 C7.7997834,94.677181 8.18213868,94.529022 8.5737415,94.4077108 C9.05616648,94.3115748 9.54717073,94.2624986 10.0395238,94.2612048 C10.5570335,94.2316604 11.0718395,94.1672503 11.5802721,94.0684337 C11.8358602,94.0406319 12.0780784,93.942348 12.2786395,93.7850602 C12.4616345,93.5790169 12.5716503,93.3207418 12.5923129,93.0486747 C12.825783,91.5468332 12.4737621,90.0140709 11.6059184,88.7537349 C11.496595,88.5771098 11.3499777,88.4252993 11.1758503,88.3084337 C10.9635423,88.2011934 10.7300295,88.1400393 10.4912925,88.1291566 C9.50489796,88.0115663 8.47115646,87.7956627 7.47489796,87.7725301 C6.7607483,87.7571084 6.40170068,88.0886747 5.89666667,88.5686747 C4.85306122,89.5884337 4.24346939,91.0708434 2.95721088,91.8554217 Z" id="Path" fill="#323444"></path>
                <path d="M17.4946939,91.7127711 C17.4946939,92.6573494 17.6110884,93.6578313 18.1970068,94.4115663 C18.4649551,94.7374884 18.7894932,95.0148073 19.1557823,95.2308434 C20.3946939,96.0019277 22.0360544,96.2853012 23.3420408,95.6318072 C23.5530088,95.5392786 23.7333754,95.3910724 23.8628571,95.2038554 C24.0601361,94.8684337 23.9555782,94.4501205 23.845102,94.08 L21.9551701,87.68 C20.7340136,87.8631325 18.9387755,87.9922892 17.8537415,88.5975904 C17.0665986,89.0351807 17.4946939,90.8684337 17.4946939,91.7127711 Z" id="Path" fill="#323444"></path>
                <path d="M1.8485034,52.3045783 C1.73408163,52.6573494 1.31979592,52.8212048 1.09292517,53.1180723 C0.826598639,53.466988 0.854217687,53.9508434 0.950884354,54.3749398 C1.07029495,55.0003026 1.37087968,55.5790376 1.81693878,56.0424096 C2.27626406,56.5081304 2.93780303,56.7279142 3.59244898,56.6322892 C4.22768707,56.5146988 4.77612245,55.9653012 4.79782313,55.3349398 C4.78637855,55.0482585 4.72361547,54.7657539 4.61238095,54.500241 L3.26693878,50.6987952 C3.25584262,50.6444432 3.22134272,50.5973875 3.1722449,50.5696386 C3.12147276,50.5586064 3.06829626,50.5676131 3.02428571,50.5946988 C2.70666667,50.7412048 2.06945578,50.8954217 1.88401361,51.2173494 C1.69857143,51.5392771 1.98265306,51.9556627 1.8485034,52.3045783 Z" id="Path" fill="#FBB3B2"></path>
                <path d="M1.21918367,52.1137349 C1.71040816,52.0385542 2.14047619,51.7571084 2.60013605,51.5720482 C3.05979592,51.386988 3.63585034,51.3156627 4.02251701,51.6240964 C4.1329932,51.7127711 4.23952381,51.8342169 4.38353741,51.8322892 C4.18763783,50.8896735 3.89142467,49.9696529 3.49972789,49.0872289 C3.4859523,49.0449472 3.45906531,49.0078961 3.42278912,48.9812048 C3.36902366,48.9598796 3.3088675,48.9598796 3.25510204,48.9812048 L1.92741497,49.3204819 C1.43619048,49.4457831 1.37897959,49.4072289 1.41646259,49.8795181 C1.42632653,50.0896386 1.53680272,52.1137349 1.21918367,52.1137349 Z" id="Path" fill="#323444"></path>
                <path d="M1.07319728,24.6631325 C0.875918367,24.96 0.875918367,25.3301205 0.875918367,25.6790361 C0.875918367,27.3850602 0.893673469,29.1007229 1.15210884,30.7893976 C1.21326531,31.1942169 1.29020408,31.5990361 1.32965986,32.0077108 C1.37437548,32.5765946 1.38359889,33.1476111 1.35727891,33.7175904 L1.16,41.1392771 C1.13632653,42.0472289 1.08897959,43.0226506 0.514897959,43.7359036 C0.34082336,43.9750039 0.259048932,44.2666262 0.284081633,44.5590361 C0.434013605,46.4212048 0.749659864,48.2679518 1.06333333,50.1089157 C2.08779549,49.6573782 3.27159644,49.712564 4.24741497,50.2573494 C5.24276721,47.1991775 5.79329944,44.0194821 5.88285714,40.8115663 C5.92823129,39.2327711 5.85918367,37.6443373 6.1077551,36.0848193 C6.52401361,33.4592771 6.35435374,30.7662651 6.04857143,28.1253012 C5.95190476,27.2886747 5.74673469,26.426988 5.19829932,25.7792771 C4.67912804,25.2125484 3.98769628,24.8233841 3.2255102,24.6689157 C2.49557823,24.4819277 1.84258503,24.6746988 1.07319728,24.6631325 Z" id="Path" fill="#5B5583"></path>
                <path d="M1.07319728,24.6631325 C0.875918367,24.96 0.875918367,25.3301205 0.875918367,25.6790361 C0.875918367,27.3850602 0.893673469,29.1007229 1.15210884,30.7893976 C1.21326531,31.1942169 1.29020408,31.5990361 1.32965986,32.0077108 C1.37437548,32.5765946 1.38359889,33.1476111 1.35727891,33.7175904 L1.16,41.1392771 C1.13632653,42.0472289 1.08897959,43.0226506 0.514897959,43.7359036 C0.34082336,43.9750039 0.259048932,44.2666262 0.284081633,44.5590361 C0.434013605,46.4212048 0.749659864,48.2679518 1.06333333,50.1089157 C2.08779549,49.6573782 3.27159644,49.712564 4.24741497,50.2573494 C5.24276721,47.1991775 5.79329944,44.0194821 5.88285714,40.8115663 C5.92823129,39.2327711 5.85918367,37.6443373 6.1077551,36.0848193 C6.52401361,33.4592771 6.35435374,30.7662651 6.04857143,28.1253012 C5.95190476,27.2886747 5.74673469,26.426988 5.19829932,25.7792771 C4.67912804,25.2125484 3.98769628,24.8233841 3.2255102,24.6689157 C2.49557823,24.4819277 1.84258503,24.6746988 1.07319728,24.6631325 Z" id="Path" fill="#000000" opacity="0.1"></path>
                <path d="M3.48394558,46.1860241 C2.16084401,52.8114302 2.88323168,59.6716282 5.55931973,65.8949398 C5.7905207,66.3556309 5.95263735,66.8464493 6.04068027,67.3522892 C6.14918367,68.2968675 5.70333333,69.2048193 5.44884354,70.1185542 C4.8570068,72.1966265 5.19829932,74.4096386 5.57707483,76.5359036 C5.73489796,77.4226506 5.89732426,78.308755 6.06435374,79.1942169 C6.22809524,80.0578313 6.38591837,80.9966265 5.97557823,81.7792771 C6.32870748,83.2173494 6.53782313,84.6419277 6.89095238,86.08 C6.9283922,86.1937801 6.93984024,86.314199 6.9244898,86.4327711 C6.85333468,86.6209563 6.72794739,86.7849887 6.56346939,86.9050602 C6.02798165,87.4355715 5.81874464,88.2028309 6.01306122,88.9233735 C6.91462585,88.2910843 8.17129252,88.5127711 9.20108844,88.9233735 C10.2308844,89.3339759 11.244898,89.8872289 12.357551,89.8872289 C12.1957823,88.6110843 12.039932,87.2713253 12.5212925,86.0742169 C12.8014286,85.380241 13.2946259,84.7248193 13.2808163,83.9826506 C13.2670068,83.3175904 12.8507483,82.7238554 12.7501361,82.066506 C12.7127431,81.6575206 12.7286527,81.2455506 12.797483,80.8404819 C13.0618367,78.4809639 12.7619728,76.0983133 12.4621088,73.7426506 C12.4282047,73.2781208 12.3162298,72.8222196 12.1306803,72.393253 C11.9906122,72.1156627 11.7814966,71.8496386 11.7854422,71.5392771 C11.7854422,71.1787952 12.0833333,70.8857831 12.1938095,70.5426506 C12.3910884,69.9103614 12.0280952,69.0506024 12.5745578,68.6592771 C14.0146939,67.6260241 13.4623129,65.1585542 13.4307483,63.4139759 C13.4057596,61.9090763 13.34,60.4054618 13.2334694,58.9031325 C14.1402004,61.394426 14.5109277,64.0417839 14.322449,66.6795181 C14.2593197,67.5431325 14.1429252,68.4510843 14.4881633,69.2491566 C14.752517,69.8621687 15.2772789,70.3672289 15.4193197,71.0168675 C15.5080952,71.4178313 15.444966,71.8322892 15.4646939,72.2409639 C15.4844218,72.6496386 15.6264626,73.0949398 15.987483,73.3012048 C16.015102,75.1595181 16.1847619,77.146988 16.2143537,79.0053012 C16.19516,79.9552667 16.2744763,80.9046895 16.4510884,81.8390361 C16.5396332,82.1362404 16.5886977,82.4433372 16.5970748,82.7527711 C16.5525775,83.1407564 16.4474555,83.5197798 16.2853741,83.8766265 C15.5872882,85.896357 15.9565648,88.122731 17.2717687,89.8236145 C17.7373469,89.0159036 18.7079592,88.5879518 19.654898,88.5204819 C20.6018367,88.453012 21.5369388,88.6862651 22.4542857,88.9214458 C22.31403,87.7951281 22.5433698,86.6543814 23.1092517,85.6636145 C23.2609609,85.4403378 23.3773486,85.1959846 23.4544898,84.9387952 C23.5610204,84.4491566 23.312449,83.9614458 23.1782993,83.4775904 C22.9593197,82.706506 23.0362585,81.8756627 23.087551,81.0698795 C23.2597,78.3712016 23.1373553,75.6622837 22.722585,72.9889157 C22.6585389,72.4623332 22.53209,71.9448064 22.3457823,71.446747 C22.2747619,71.2693976 22.1879592,71.099759 22.1287755,70.9204819 C22.0356736,70.598899 21.9826818,70.2675009 21.9709524,69.933494 L21.7440816,66.8491566 C21.5842857,64.6881928 22.3102721,62.5542169 22.8172789,60.4453012 C23.0441497,59.5007229 23.2907483,58.5580723 23.4426531,57.5980723 C23.6497959,56.2910843 23.6833333,54.9551807 23.9871429,53.6655422 C24.2593878,52.5089157 24.7506122,51.3812048 24.8531973,50.1956627 C25.0110204,48.3585542 24.2297959,46.5831325 23.4722449,44.8983133 C23.1565986,44.2043373 21.9630612,44.2737349 21.1956463,44.1503614 C15.7527211,43.2771084 10.0197959,43.2713253 4.88659864,45.2395181 C4.35574167,45.4544239 3.87764433,45.7770425 3.48394558,46.1860241 Z" id="Path" fill="#3C354C"></path>
                <path d="M7.40782313,11.9710843 L8.0114966,14.2650602 C8.17560861,14.7911673 8.2665152,15.3364629 8.28176871,15.8862651 C8.2880033,16.0868137 8.24255195,16.2856769 8.14959184,16.4645783 C8.05024309,16.6114888 7.92300559,16.7384364 7.7747619,16.8385542 C7.36244898,17.1450602 7.07639456,17.860241 6.60489796,18.0722892 C6.84755102,18.4848193 7.18292517,18.2168675 7.62088435,18.4231325 C8.3922449,18.7893976 9.0985034,19.3156627 9.93496599,19.4968675 C10.7240816,19.666506 11.5526531,19.506506 12.3358503,19.3040964 C13.4465306,19.0091566 14.5512925,18.6024096 15.444966,17.8910843 C16.3386395,17.179759 16.847619,16.5513253 16.8436735,15.4274699 C15.8572789,15.5412048 14.9793878,14.5677108 14.5434014,13.6925301 C14.3922361,13.3598521 14.2810187,13.0111828 14.2119728,12.653494 L13.6832653,10.3807229 C13.1072109,10.5040964 12.6376871,10.906988 12.0872789,11.1171084 C11.5368707,11.3272289 10.8858503,11.346506 10.2742857,11.373494 C9.18869609,11.4217424 8.10912135,11.5584418 7.04680272,11.7821687 C6.90081633,11.8110843 6.71734694,11.9016867 6.75285714,12.0404819" id="Path" fill="#FBB3B2"></path>
                <path d="M7.40782313,11.9710843 L8.0114966,14.2650602 C8.17560861,14.7911673 8.2665152,15.3364629 8.28176871,15.8862651 C8.2880033,16.0868137 8.24255195,16.2856769 8.14959184,16.4645783 C8.05024309,16.6114888 7.92300559,16.7384364 7.7747619,16.8385542 C7.36244898,17.1450602 7.07639456,17.860241 6.60489796,18.0722892 C6.84755102,18.4848193 7.18292517,18.2168675 7.62088435,18.4231325 C8.3922449,18.7893976 9.0985034,19.3156627 9.93496599,19.4968675 C10.7240816,19.666506 11.5526531,19.506506 12.3358503,19.3040964 C13.4465306,19.0091566 14.5512925,18.6024096 15.444966,17.8910843 C16.3386395,17.179759 16.847619,16.5513253 16.8436735,15.4274699 C15.8572789,15.5412048 14.9793878,14.5677108 14.5434014,13.6925301 C14.3922361,13.3598521 14.2810187,13.0111828 14.2119728,12.653494 L13.6832653,10.3807229 C13.1072109,10.5040964 12.6376871,10.906988 12.0872789,11.1171084 C11.5368707,11.3272289 10.8858503,11.346506 10.2742857,11.373494 C9.18869609,11.4217424 8.10912135,11.5584418 7.04680272,11.7821687 C6.90081633,11.8110843 6.71734694,11.9016867 6.75285714,12.0404819" id="Path" fill="#000000" opacity="0.1"></path>
                <ellipse id="Oval" fill="#FBB3B2" cx="10.000068" cy="8.13108434" rx="5.22394558" ry="5.10457831"></ellipse>
                <path d="M11.4382313,16.5455422 C11.7175972,15.955976 12.1209085,15.4305151 12.6219048,15.0033735 C13.3577551,14.373012 14.3638776,13.8621687 14.537483,12.9214458 L16.1314966,14.7354217 C16.2181243,14.8195339 16.2853821,14.9207442 16.3287755,15.0322892 C16.3694356,15.2439005 16.3147992,15.4623698 16.1788435,15.6318072 C15.7842857,16.246747 15.1628571,16.6862651 14.574966,17.1315663 C13.2274855,18.1745153 11.9374493,19.2864325 10.7102721,20.4626506 C10.6561969,20.5240108 10.5837227,20.5671762 10.5031293,20.5860241 C10.4268832,20.5880653 10.3518306,20.5672078 10.2880952,20.5262651 C9.229288,19.9830291 8.29227342,19.2384866 7.53210884,18.3363855 C7.47489796,18.2689157 7.40387755,18.1918072 7.31115646,18.1975904 C7.25525016,18.2076221 7.20370911,18.2338111 7.16319728,18.2727711 C6.63251701,18.6968675 6.05251701,19.2038554 5.37190476,19.1383133 C6.2537415,18.5195181 6.75285714,17.4862651 6.93829932,16.4395181 C6.97496947,16.0812612 7.05035567,15.727805 7.16319728,15.3850602 C7.28191875,15.0368321 7.57046288,14.7693402 7.93258503,14.6718072 C7.50251701,15.3137349 7.79646259,16.2236145 8.3744898,16.7421687 C8.93609516,17.2079685 9.60941884,17.5269889 10.3314966,17.6693976 C11.0022449,17.7927711 11.1995238,17.0506024 11.4382313,16.5455422 Z" id="Path" fill="#323444"></path>
                <path d="M4.64197279,46.7103614 C5.38571429,46.8896386 6.09,47.1942169 6.81204082,47.419759 C8.12801127,47.8224621 9.51295741,47.9646733 10.8858503,47.8380723 C11.3084152,47.8290137 11.7193619,47.7011849 12.0695238,47.4698795 C12.1622449,47.3966265 12.2470748,47.3098795 12.3457143,47.2424096 C12.510711,47.1456497 12.6895799,47.0735278 12.8763946,47.0284337 C14.6854422,46.4751807 16.2005442,45.2819277 17.6702721,44.1137349 C17.717619,44.0751807 17.7708844,44.026988 17.7669388,43.9653012 C17.7601532,43.9232988 17.7393454,43.8846673 17.7077551,43.8554217 L16.9344218,42.9879518 C14.9063946,43.3253012 12.8290476,43.1980723 10.7714286,43.1479518 C10.3489896,43.1296213 9.92575218,43.1405724 9.50489796,43.1807229 C9.0985034,43.226988 8.69802721,43.3272289 8.29755102,43.4120482 C6.77653061,43.7359036 5.22197279,43.8592771 3.68122449,44.0713253 C3.57343192,44.0790953 3.46886327,44.1107379 3.37544218,44.1638554 C3.31047301,44.2129553 3.2550187,44.2730182 3.21170068,44.3412048 L2.67115646,45.0833735 C2.46134348,45.3330179 2.30683809,45.6224959 2.21741497,45.933494 C2.09115646,46.5118072 2.3555102,46.7045783 2.85857143,46.6293976 C3.45285204,46.5443945 4.05831803,46.5718817 4.64197279,46.7103614 L4.64197279,46.7103614 Z" id="Path" fill="#323444"></path>
                <path d="M10.6885714,19.579759 C10.0850736,18.9754863 9.40092465,18.453512 8.65462585,18.0279518 C8.35311608,17.8408245 8.01863711,17.71009 7.66823129,17.6424096 C7.31135292,17.5735697 6.94158899,17.662487 6.65816327,17.8853012 C6.48258503,18.0375904 6.37210884,18.2496386 6.20244898,18.4096386 C5.98893705,18.5849173 5.74415882,18.7201941 5.48040816,18.8086747 C4.58237317,19.1836233 3.73117266,19.6577082 2.94340136,20.2216867 C2.51398469,20.5152124 2.12710875,20.8640688 1.79326531,21.2587952 C0.899591837,22.3768675 0.765442177,23.8978313 0.789115646,25.3166265 C0.806870748,26.3036145 1.7755102,27.0361446 2.44231293,27.7744578 C3.06771333,28.5009946 3.63367559,29.2744631 4.13496599,30.0877108 C4.49401361,30.6428916 4.86884354,31.2443373 4.82346939,31.9055422 C4.78598639,32.4472289 4.46244898,32.9561446 4.5137415,33.4959036 C4.5314966,33.6886747 4.59462585,33.8660241 4.61238095,34.053012 C4.64789116,34.4385542 4.49204082,34.8240964 4.45258503,35.2096386 C4.39931973,35.7551807 4.58081633,36.2968675 4.59068027,36.8462651 C4.58343881,37.2223751 4.53449071,37.5966096 4.44469388,37.9624096 C4.06591837,39.7243373 3.59047619,41.4959036 3.68714286,43.2944578 L2.59421769,43.4872289 C2.80418973,43.6883123 2.90360113,43.9750907 2.86191418,44.2594701 C2.82022723,44.5438496 2.64242631,44.7918276 2.38312925,44.9272289 C4.08959184,45.4843373 5.93414966,45.2028916 7.74319728,45.2009639 C9.24054422,45.2009639 10.7319728,45.3937349 12.2273469,45.366747 C13.7227211,45.339759 15.2654422,45.0756627 16.4984354,44.2486747 C16.8338095,44.0250602 17.1415646,43.7628916 17.4946939,43.5681928 C17.9676962,43.3286775 18.4774086,43.165911 19.0038776,43.0862651 C19.9790712,42.9045278 20.9703427,42.8179977 21.9630612,42.8279518 C22.4483673,42.8279518 22.9770748,42.8472289 23.3637415,42.5619277 C23.7898639,42.2457831 23.8983673,41.673253 23.9555782,41.1546988 C24.0127891,40.6072289 24.0482993,40.0578313 24.0581633,39.5084337 C24.0747013,39.0806054 24.0515912,38.6521923 23.9891156,38.2284337 C23.9298959,37.9185725 23.8528347,37.6122224 23.7582993,37.3108434 L23.0145578,34.7508434 C22.7068027,33.6944578 23.134898,32.5359036 23.2256463,31.4409639 C23.2473469,31.1826506 23.2512925,30.8819277 23.0480952,30.7161446 C22.975102,30.6563855 22.8744898,30.6159036 22.8508163,30.5233735 C22.8293316,30.4345769 22.8464743,30.3410506 22.8981633,30.2650602 C23.2927211,29.4939759 23.8845578,28.813494 24.425102,28.1175904 C25.3329847,26.8969199 26.1758278,25.6313028 26.9502721,24.3257831 C26.707748,21.5939155 25.5304735,19.0215331 23.6083673,17.0236145 C23.2138095,16.6053012 22.7620408,16.2043373 22.2096599,16.0154217 C21.8486849,15.9076948 21.4743373,15.8486749 21.0970068,15.84 C19.5503401,15.7378313 17.9405442,15.6472289 16.5931293,14.8877108 C16.4964301,14.8222591 16.3869657,14.7769802 16.2715646,14.7546988 C15.9736735,14.7219277 15.7566667,15.0091566 15.5633333,15.2366265 C15.0661905,15.8149398 14.3342857,16.146506 13.6911565,16.5725301 C12.4917007,17.3686747 11.5546259,18.4636145 10.6885714,19.579759 Z" id="Path" fill="#5B5583"></path>
                <path d="M27.0844218,25.1142169 C27.3921769,26.066506 27.362585,27.0843373 27.4631973,28.0771084 C27.5227849,28.6762116 27.6303018,29.269834 27.7847619,29.8525301 C27.8552837,30.1728014 27.9821056,30.4786982 28.1595918,30.7566265 C28.3371429,31.0110843 28.5916327,31.2173494 28.7040816,31.5045783 C28.7655488,31.6991711 28.7928959,31.9025202 28.784966,32.1060241 L28.8086395,33.4361446 C28.8592823,34.1410032 28.749462,34.8480701 28.4870748,35.506506 L27.6368027,38.0337349 C27.1771429,39.4024096 26.7056463,40.7922892 25.8770748,41.9836145 C25.7603403,42.1852409 25.5834771,42.3473034 25.370068,42.4481928 C25.202992,42.4913468 25.0317306,42.5171921 24.8591156,42.5253012 C24.2387031,42.633431 23.7842418,43.1567783 23.7760544,43.7725301 C23.578637,43.4906476 23.3322694,43.2446903 23.0480952,43.0457831 L21.3179592,41.6963855 C20.7261224,41.2260241 20.1086395,40.7479518 19.3905442,40.4761446 C21.3637833,39.8739878 22.7883077,38.1918303 23.0244218,36.1850602 C23.0237917,35.8926362 23.0912537,35.6039044 23.2217007,35.3407229 C23.3657143,35.113253 23.6320408,34.939759 23.6517687,34.6718072 C23.6754422,34.3344578 23.2848299,34.08 23.2848299,33.7426506 C23.2848299,33.5190361 23.4544898,33.3339759 23.5294558,33.1238554 C23.5995229,32.8641964 23.5995229,32.5912252 23.5294558,32.3315663 L23.2907483,31.0361446 C23.2766758,30.9063471 23.2364468,30.7805557 23.172381,30.6660241 C23.0830622,30.5562241 22.9840419,30.454306 22.8764626,30.3614458 C22.4661224,29.9122892 22.647619,29.2048193 22.8764626,28.6515663 C23.4019712,27.4235069 24.0790502,26.2627803 24.8926531,25.1951807 C25.1822551,24.8366788 25.4503465,24.4620746 25.6955782,24.073253 C25.9046939,23.7185542 25.9520408,23.226988 26.1729932,22.9166265 C26.4570748,23.6453012 26.8417687,24.3643373 27.0844218,25.1142169 Z" id="Path" fill="#5B5583"></path>
                <path d="M19.3293878,40.5551807 C19.2413322,40.6190408 19.1652446,40.6973029 19.1044898,40.786506 C18.8720549,41.0716409 18.5624389,41.2873602 18.2108163,41.4091566 C18.4080952,41.5479518 18.587619,41.6848193 18.7730612,41.8255422 C20.1451346,42.8609723 21.4015279,44.0350266 22.5213605,45.3281928 C22.6456463,44.8944578 23.3893878,44.9253012 23.5708844,44.5108434 C23.6136265,44.3922155 23.6271441,44.2654118 23.6103401,44.1407229 C23.5726456,43.4913566 23.4775982,42.8463874 23.3262585,42.213012 C23.2665239,41.8869232 23.1315948,41.5784036 22.9317007,41.3108434 C22.6555102,40.9850602 22.2254422,40.8289157 21.815102,40.6939759 C21.1936735,40.4819277 19.9606803,40.1831325 19.3293878,40.5551807 Z" id="Path" fill="#323444"></path>
                <path d="M16.8634014,42.0703614 C16.2715646,42.4983133 15.7527211,43.0342169 15.0878912,43.3272289 C14.6183673,43.5354217 14.0837415,43.6260241 13.6734014,43.9363855 C13.8963265,44.4163855 14.4763265,44.6650602 15.014898,44.6457831 C15.5539611,44.5940404 16.0706437,44.4089412 16.5161905,44.1079518 C16.8693197,43.8959036 17.2836054,43.6491566 17.6682993,43.7975904 C17.727483,44.0906024 17.4710204,44.3662651 17.4710204,44.6631325 C17.4710204,44.96 17.7235374,45.1759036 17.9721088,45.3320482 C19.1557823,46.0780723 20.6787755,46.0163855 22.0893197,45.9296386 C22.1702378,45.932577 22.2499167,45.909558 22.3161905,45.8640964 C22.3779553,45.7936661 22.4084799,45.7021038 22.4010204,45.6096386 C22.4187755,45.3050602 22.4266667,45.0024096 22.4286395,44.6978313 C22.5100498,44.1964515 22.2869802,43.6943633 21.8565306,43.4101205 C21.0910828,42.7671669 20.2654524,42.1959776 19.3905442,41.7040964 C18.522517,41.2125301 17.6426531,41.5036145 16.8634014,42.0703614 Z" id="Path" fill="#FBB3B2"></path>
                <path d="M11.8347619,5.99710843 C10.9588435,6.09927711 10.3216327,6.76819277 10.4104082,7.49493976 C10.4991837,8.22168675 11.2804082,8.72289157 12.1563265,8.61879518 C13.0322449,8.5146988 13.6694558,7.84771084 13.5806803,7.12289157 C13.4919048,6.39807229 12.7106803,5.89493976 11.8347619,5.99710843 Z M12.1326531,8.41831325 C11.3908844,8.50506024 10.73,8.07903614 10.6530612,7.4660241 C10.5761224,6.85301205 11.1186395,6.28626506 11.8584354,6.19951807 C12.5982313,6.11277108 13.2610884,6.53879518 13.3380272,7.15180723 C13.414966,7.76481928 12.872449,8.33156627 12.1326531,8.41831325 L12.1326531,8.41831325 Z" id="Shape" fill="#3C354C"></path>
                <path d="M7.56564626,6.49831325 C6.68972789,6.60048193 6.05251701,7.26939759 6.14129252,7.99421687 C6.23006803,8.71903614 7.01129252,9.22216867 7.88721088,9.12 C8.76312925,9.01783133 9.40034014,8.34891566 9.31156463,7.62216867 C9.22278912,6.89542169 8.44156463,6.39614458 7.56564626,6.49831325 Z M7.86353741,8.91759036 C7.12176871,9.00433735 6.46088435,8.57831325 6.38591837,7.96722892 C6.31095238,7.35614458 6.84952381,6.78746988 7.59129252,6.69879518 C8.33306122,6.61012048 8.99394558,7.03807229 9.06891156,7.65108434 C9.14387755,8.26409639 8.60333333,8.83084337 7.86353741,8.91759036 Z" id="Shape" fill="#3C354C"></path>
                <polygon id="Path" fill="#3C354C" points="4.39537415 6.87036145 6.29911565 7.26746988 6.11170068 7.75710843 4.31646259 7.24240964"></polygon>
                <polygon id="Path" fill="#3C354C" points="15.0070068 5.62506024 13.2512245 6.45204819 13.5530612 6.88385542 15.1727211 5.96819277"></polygon>
                <polygon id="Path" fill="#3C354C" points="9.13598639 7.14409639 10.4715646 6.98795181 10.402517 7.31180723 9.25632653 7.38698795"></polygon>
                <path d="M6.54571429,6.70650602 C6.67138464,6.44238902 6.7386085,6.15533337 6.7429932,5.86409639 C6.74767155,5.68978046 6.77824019,5.51705312 6.8337415,5.3513253 C6.93071615,5.14084261 7.0782497,4.95634118 7.26380952,4.81349398 C7.87931973,4.30457831 8.76115646,4.04240964 9.63115646,4.00578313 C10.5797904,3.96313727 11.5234544,4.1624387 12.3693878,4.58409639 C12.6277895,4.70239809 12.8592385,4.87021566 13.05,5.07759036 C13.3261905,5.40722892 13.3853741,5.83325301 13.6635374,6.15903614 C14.049653,6.56109333 14.6228241,6.73657345 15.1746939,6.62168675 C15.2713605,6.28626506 15.145102,5.93156627 15.1944218,5.58843373 C15.2721556,5.2944144 15.3771476,5.00792858 15.5080952,4.73253012 C15.8138776,3.85156627 15.3680272,2.82987952 14.4487075,2.30361446 C14.1271429,2.11084337 13.7463946,1.98554217 13.5057143,1.7253012 C13.265034,1.46506024 13.2078231,1.19518072 13.0421088,0.934939759 C12.6021769,0.246746988 11.4638776,-0.0751807229 10.5978231,0.242891566 C10.3255782,0.34313253 10.084898,0.495421687 9.80870748,0.603373494 C9.29578231,0.809638554 8.71183673,0.84626506 8.14761905,0.915662651 C7.59148578,0.965903598 7.04761283,1.10527777 6.53782313,1.32819277 C6.05054422,1.56337349 5.64217687,1.94120482 5.52972789,2.39228916 C5.47646259,2.60048193 5.48829932,2.81638554 5.43503401,3.0226506 C5.16278912,4.06939759 3.40503401,4.57831325 3.30639456,5.64626506 C3.27088435,6.03180723 3.48591837,6.40192771 3.75421769,6.71614458 C3.93965986,6.93012048 4.38353741,7.5026506 4.69721088,7.58554217 C5.01088435,7.66843373 5.24959184,7.3773494 5.54945578,7.27710843 C6.02292517,7.13253012 6.30897959,7.10168675 6.54571429,6.70650602 Z" id="Path" fill="#CBCEDA"></path>
            </g>
            <path d="M152,117 C152,126.39582 157.814673,134 165,134" id="Path" fill="#46455B"></path>
            <path d="M166,134 C166,124.603024 172.709472,117 181,117" id="Path" fill="#FB4275"></path>
            <path d="M157,118 C157,126.844007 160.578901,134 165,134" id="Path" fill="#FB4275"></path>
            <path d="M166,135 C166,122.287928 173.60418,112 183,112" id="Path" fill="#46455B"></path>
            <ellipse id="Oval" fill="#FB4275" opacity="0.1" cx="165.5" cy="138.5" rx="3.5" ry="1"></ellipse>
            <path d="M163,135.143806 C163,135.143806 164.883182,135.078138 165.448136,134.624813 C166.01309,134.171487 168.342586,133.627074 168.483825,134.355783 C168.625063,135.084493 171.308597,137.980266 169.186251,137.999331 C167.063906,138.018396 164.248549,137.626503 163.683595,137.238847 C163.11864,136.85119 163,135.143806 163,135.143806 Z" id="Path" fill="#A8A8A8"></path>
            <path d="M169.223934,137.734523 C167.100341,137.754548 164.289593,137.342923 163.722925,136.935749 C163.291806,136.626474 163.120488,135.51175 163.062126,135 L163,135 C163,135 163.118605,136.793349 163.685273,137.200523 C164.251941,137.607698 167.062689,138.019323 169.186281,137.999298 C169.800015,137.999298 170.010868,137.734523 169.999572,137.354048 C169.914854,137.585448 169.690823,137.730073 169.223934,137.734523 Z" id="Path" fill="#000000" opacity="0.2"></path>
            <path d="M4,124 C4,131.743363 8.91919372,138 15,138" id="Path" fill="#46455B"></path>
            <path d="M16,138 C16,130.261999 21.3699856,124 28,124" id="Path" fill="#FB4275"></path>
            <path d="M8,125 C8,132.190684 11.1328671,138 15,138" id="Path" fill="#FB4275"></path>
            <path d="M16,138 C16,127.498662 22.2624447,119 30,119" id="Path" fill="#46455B"></path>
            <ellipse id="Oval" fill="#FB4275" opacity="0.1" cx="14.5" cy="139.5" rx="2.5" ry="1"></ellipse>
            <path d="M12,137.869061 C12,137.869061 13.6118477,137.81919 14.0964157,137.470098 C14.5809838,137.121006 16.5780529,136.722043 16.6976743,137.270617 C16.8172957,137.81919 19.1205145,139.985557 17.3059187,139.99952 C15.4913229,140.013484 13.0765926,139.720247 12.5920246,139.430999 C12.1074565,139.141751 12,137.869061 12,137.869061 Z" id="Path" fill="#A8A8A8"></path>
            <path d="M17.3343321,139.824215 C15.5088952,139.837272 13.1033752,139.56308 12.6186203,139.290753 C12.2494764,139.085576 12.1034414,138.341341 12.0527348,138 L12,138 C12,138 12.1014132,139.195626 12.586168,139.467952 C13.0709229,139.740279 15.4825278,140.012605 17.3018799,139.999548 C17.8272,139.999548 18.0097437,139.824215 17.9996024,139.568676 C17.9265849,139.717896 17.7257869,139.813023 17.3343321,139.824215 Z" id="Path" fill="#000000" opacity="0.2"></path>
        </g>
    </g>
</svg>